%TF.GenerationSoftware,KiCad,Pcbnew,10.0.1*%
%TF.CreationDate,2026-06-24T22:24:27-04:00*%
%TF.ProjectId,dc_programmable_load,64635f70-726f-4677-9261-6d6d61626c65,rev?*%
%TF.SameCoordinates,Original*%
%TF.FileFunction,Soldermask,Bot*%
%TF.FilePolarity,Negative*%
%FSLAX46Y46*%
G04 Gerber Fmt 4.6, Leading zero omitted, Abs format (unit mm)*
G04 Created by KiCad (PCBNEW 10.0.1) date 2026-06-24 22:24:27*
%MOMM*%
%LPD*%
G01*
G04 APERTURE LIST*
%ADD10C,1.600000*%
%ADD11O,4.204000X2.204000*%
%ADD12O,2.204000X4.204000*%
%ADD13O,2.454000X4.704000*%
%ADD14R,1.350000X1.350000*%
%ADD15R,1.905000X2.000000*%
%ADD16O,1.905000X2.000000*%
%ADD17R,1.600000X1.600000*%
%ADD18O,1.600000X1.600000*%
%ADD19C,1.350000*%
G04 APERTURE END LIST*
D10*
%TO.C,J1*%
X169000000Y-66500000D03*
D11*
X167000000Y-71000000D03*
X167000000Y-62000000D03*
D12*
X166000000Y-66500000D03*
D13*
X160000000Y-66500000D03*
%TD*%
D14*
%TO.C,J10*%
X141500000Y-84000000D03*
%TD*%
%TO.C,J13*%
X151000000Y-74500000D03*
%TD*%
D15*
%TO.C,Q1*%
X137540000Y-65050000D03*
D16*
X135000000Y-65050000D03*
X132460000Y-65050000D03*
%TD*%
D14*
%TO.C,J6*%
X143500000Y-98500000D03*
%TD*%
D17*
%TO.C,A1*%
X130380000Y-117110000D03*
D18*
X132920000Y-117110000D03*
X135460000Y-117110000D03*
X138000000Y-117110000D03*
X140540000Y-117110000D03*
X143080000Y-117110000D03*
X145620000Y-117110000D03*
X148160000Y-117110000D03*
X150700000Y-117110000D03*
X153240000Y-117110000D03*
X155780000Y-117110000D03*
X158320000Y-117110000D03*
X160860000Y-117110000D03*
X163400000Y-117110000D03*
X165940000Y-117110000D03*
X165940000Y-101870000D03*
X163400000Y-101870000D03*
X160860000Y-101870000D03*
X158320000Y-101870000D03*
X155780000Y-101870000D03*
X153240000Y-101870000D03*
X150700000Y-101870000D03*
X148160000Y-101870000D03*
X145620000Y-101870000D03*
X143080000Y-101870000D03*
X140540000Y-101870000D03*
X138000000Y-101870000D03*
X135460000Y-101870000D03*
X132920000Y-101870000D03*
X130380000Y-101870000D03*
%TD*%
D14*
%TO.C,J9*%
X145500000Y-87500000D03*
%TD*%
%TO.C,J12*%
X138500000Y-76000000D03*
%TD*%
%TO.C,J5*%
X150500000Y-98500000D03*
%TD*%
%TO.C,J7*%
X156500000Y-98500000D03*
D19*
X158500000Y-98500000D03*
X160500000Y-98500000D03*
%TD*%
D14*
%TO.C,J2*%
X167000000Y-95000000D03*
D19*
X167000000Y-93000000D03*
X167000000Y-91000000D03*
%TD*%
D14*
%TO.C,J8*%
X168500000Y-80500000D03*
D19*
X168500000Y-82500000D03*
X168500000Y-84500000D03*
%TD*%
D14*
%TO.C,J14*%
X153500000Y-68500000D03*
%TD*%
%TO.C,J11*%
X138692500Y-81000000D03*
%TD*%
M02*
