%TF.GenerationSoftware,KiCad,Pcbnew,10.0.1*%
%TF.CreationDate,2026-06-24T22:24:27-04:00*%
%TF.ProjectId,dc_programmable_load,64635f70-726f-4677-9261-6d6d61626c65,rev?*%
%TF.SameCoordinates,Original*%
%TF.FileFunction,Copper,L1,Top*%
%TF.FilePolarity,Positive*%
%FSLAX46Y46*%
G04 Gerber Fmt 4.6, Leading zero omitted, Abs format (unit mm)*
G04 Created by KiCad (PCBNEW 10.0.1) date 2026-06-24 22:24:27*
%MOMM*%
%LPD*%
G01*
G04 APERTURE LIST*
G04 Aperture macros list*
%AMRoundRect*
0 Rectangle with rounded corners*
0 $1 Rounding radius*
0 $2 $3 $4 $5 $6 $7 $8 $9 X,Y pos of 4 corners*
0 Add a 4 corners polygon primitive as box body*
4,1,4,$2,$3,$4,$5,$6,$7,$8,$9,$2,$3,0*
0 Add four circle primitives for the rounded corners*
1,1,$1+$1,$2,$3*
1,1,$1+$1,$4,$5*
1,1,$1+$1,$6,$7*
1,1,$1+$1,$8,$9*
0 Add four rect primitives between the rounded corners*
20,1,$1+$1,$2,$3,$4,$5,0*
20,1,$1+$1,$4,$5,$6,$7,0*
20,1,$1+$1,$6,$7,$8,$9,0*
20,1,$1+$1,$8,$9,$2,$3,0*%
G04 Aperture macros list end*
%TA.AperFunction,ComponentPad*%
%ADD10O,4.000000X2.000000*%
%TD*%
%TA.AperFunction,ComponentPad*%
%ADD11O,2.000000X4.000000*%
%TD*%
%TA.AperFunction,ComponentPad*%
%ADD12O,2.250000X4.500000*%
%TD*%
%TA.AperFunction,ComponentPad*%
%ADD13R,1.350000X1.350000*%
%TD*%
%TA.AperFunction,SMDPad,CuDef*%
%ADD14RoundRect,0.250000X-0.450000X0.262500X-0.450000X-0.262500X0.450000X-0.262500X0.450000X0.262500X0*%
%TD*%
%TA.AperFunction,SMDPad,CuDef*%
%ADD15RoundRect,0.150000X-0.150000X0.512500X-0.150000X-0.512500X0.150000X-0.512500X0.150000X0.512500X0*%
%TD*%
%TA.AperFunction,SMDPad,CuDef*%
%ADD16RoundRect,0.250000X0.262500X0.450000X-0.262500X0.450000X-0.262500X-0.450000X0.262500X-0.450000X0*%
%TD*%
%TA.AperFunction,SMDPad,CuDef*%
%ADD17RoundRect,0.250000X0.475000X-0.250000X0.475000X0.250000X-0.475000X0.250000X-0.475000X-0.250000X0*%
%TD*%
%TA.AperFunction,SMDPad,CuDef*%
%ADD18RoundRect,0.075000X0.650000X0.075000X-0.650000X0.075000X-0.650000X-0.075000X0.650000X-0.075000X0*%
%TD*%
%TA.AperFunction,SMDPad,CuDef*%
%ADD19R,2.006600X5.308600*%
%TD*%
%TA.AperFunction,ComponentPad*%
%ADD20R,1.905000X2.000000*%
%TD*%
%TA.AperFunction,ComponentPad*%
%ADD21O,1.905000X2.000000*%
%TD*%
%TA.AperFunction,SMDPad,CuDef*%
%ADD22RoundRect,0.225000X0.250000X-0.225000X0.250000X0.225000X-0.250000X0.225000X-0.250000X-0.225000X0*%
%TD*%
%TA.AperFunction,SMDPad,CuDef*%
%ADD23RoundRect,0.225000X-0.225000X-0.250000X0.225000X-0.250000X0.225000X0.250000X-0.225000X0.250000X0*%
%TD*%
%TA.AperFunction,SMDPad,CuDef*%
%ADD24RoundRect,0.225000X0.225000X0.250000X-0.225000X0.250000X-0.225000X-0.250000X0.225000X-0.250000X0*%
%TD*%
%TA.AperFunction,SMDPad,CuDef*%
%ADD25RoundRect,0.250000X-0.250000X-0.475000X0.250000X-0.475000X0.250000X0.475000X-0.250000X0.475000X0*%
%TD*%
%TA.AperFunction,SMDPad,CuDef*%
%ADD26RoundRect,0.250000X0.450000X-0.262500X0.450000X0.262500X-0.450000X0.262500X-0.450000X-0.262500X0*%
%TD*%
%TA.AperFunction,SMDPad,CuDef*%
%ADD27R,1.981200X0.558800*%
%TD*%
%TA.AperFunction,ComponentPad*%
%ADD28R,1.600000X1.600000*%
%TD*%
%TA.AperFunction,ComponentPad*%
%ADD29O,1.600000X1.600000*%
%TD*%
%TA.AperFunction,SMDPad,CuDef*%
%ADD30RoundRect,0.062500X-0.337500X-0.062500X0.337500X-0.062500X0.337500X0.062500X-0.337500X0.062500X0*%
%TD*%
%TA.AperFunction,HeatsinkPad*%
%ADD31R,1.700000X1.400000*%
%TD*%
%TA.AperFunction,ComponentPad*%
%ADD32C,1.350000*%
%TD*%
%TA.AperFunction,SMDPad,CuDef*%
%ADD33RoundRect,0.250000X0.362500X1.425000X-0.362500X1.425000X-0.362500X-1.425000X0.362500X-1.425000X0*%
%TD*%
%TA.AperFunction,SMDPad,CuDef*%
%ADD34RoundRect,0.150000X0.512500X0.150000X-0.512500X0.150000X-0.512500X-0.150000X0.512500X-0.150000X0*%
%TD*%
%TA.AperFunction,ViaPad*%
%ADD35C,0.600000*%
%TD*%
%TA.AperFunction,Conductor*%
%ADD36C,0.800000*%
%TD*%
%TA.AperFunction,Conductor*%
%ADD37C,0.400000*%
%TD*%
%TA.AperFunction,Conductor*%
%ADD38C,0.600000*%
%TD*%
%TA.AperFunction,Conductor*%
%ADD39C,0.300000*%
%TD*%
%TA.AperFunction,Conductor*%
%ADD40C,0.200000*%
%TD*%
%TA.AperFunction,Conductor*%
%ADD41C,1.000000*%
%TD*%
G04 APERTURE END LIST*
D10*
%TO.P,J1,S2,SHIELD__1_S2*%
%TO.N,GND*%
X167000000Y-71000000D03*
%TO.P,J1,S1,SHIELD_S1*%
X167000000Y-62000000D03*
D11*
%TO.P,J1,2*%
X166000000Y-66500000D03*
D12*
%TO.P,J1,1*%
%TO.N,/12V*%
X160000000Y-66500000D03*
%TD*%
D13*
%TO.P,J10,1,Pin_1_1*%
%TO.N,Net-(J10-Pin_1)*%
X141500000Y-84000000D03*
%TD*%
D14*
%TO.P,R2,1*%
%TO.N,/A2*%
X128500000Y-86587500D03*
%TO.P,R2,2*%
%TO.N,GND*%
X128500000Y-88412500D03*
%TD*%
D15*
%TO.P,DAC1,1,VOUT_1*%
%TO.N,/dac_output*%
X147500000Y-93000000D03*
%TO.P,DAC1,2,VSS_2*%
%TO.N,GND*%
X146550000Y-93000000D03*
%TO.P,DAC1,3,VDD_3*%
%TO.N,/5V*%
X145600000Y-93000000D03*
%TO.P,DAC1,4,SDA_4*%
%TO.N,/sda*%
X145600000Y-95275000D03*
%TO.P,DAC1,5,SCL_5*%
%TO.N,/scl*%
X146550000Y-95275000D03*
%TO.P,DAC1,6,A0_6*%
%TO.N,GND*%
X147500000Y-95275000D03*
%TD*%
D16*
%TO.P,R8,1*%
%TO.N,GND*%
X155912500Y-71000000D03*
%TO.P,R8,2*%
%TO.N,Net-(J14-Pin_1)*%
X154087500Y-71000000D03*
%TD*%
D17*
%TO.P,C6,1*%
%TO.N,/5V*%
X131500000Y-90450000D03*
%TO.P,C6,2*%
%TO.N,GND*%
X131500000Y-88550000D03*
%TD*%
D14*
%TO.P,R1,1*%
%TO.N,/Power Supply*%
X126000000Y-74087500D03*
%TO.P,R1,2*%
%TO.N,/A2*%
X126000000Y-75912500D03*
%TD*%
D13*
%TO.P,J13,1,Pin_1_1*%
%TO.N,/Power Supply*%
X151000000Y-74500000D03*
%TD*%
D17*
%TO.P,C4,1*%
%TO.N,/12V*%
X157500000Y-63650682D03*
%TO.P,C4,2*%
%TO.N,GND*%
X157500000Y-61750682D03*
%TD*%
D18*
%TO.P,ADC1,1,ADDR_1*%
%TO.N,GND*%
X139650000Y-92500000D03*
%TO.P,ADC1,2,ALERT/RDY_2*%
%TO.N,unconnected-(ADC1-ALERT{slash}RDY-Pad2)*%
X139650000Y-92000000D03*
%TO.P,ADC1,3,GND_3*%
%TO.N,GND*%
X139650000Y-91500000D03*
%TO.P,ADC1,4,AIN0_4*%
%TO.N,/A0*%
X139650000Y-91000000D03*
%TO.P,ADC1,5,AIN1_5*%
%TO.N,GND*%
X139650000Y-90500000D03*
%TO.P,ADC1,6,AIN2_6*%
%TO.N,/A2*%
X135350000Y-90500000D03*
%TO.P,ADC1,7,AIN3_7*%
%TO.N,GND*%
X135350000Y-91000000D03*
%TO.P,ADC1,8,VDD_8*%
%TO.N,/5V*%
X135350000Y-91500000D03*
%TO.P,ADC1,9,SDA_9*%
%TO.N,/sda*%
X135350000Y-92000000D03*
%TO.P,ADC1,10,SCL_10*%
%TO.N,/scl*%
X135350000Y-92500000D03*
%TD*%
D19*
%TO.P,L1,1,1_1*%
%TO.N,/Power Supply*%
X155247400Y-79500000D03*
%TO.P,L1,2,2_2*%
%TO.N,Net-(U3-SW)*%
X158752600Y-79500000D03*
%TD*%
D20*
%TO.P,Q1,1,G_1*%
%TO.N,Net-(Q1-G)*%
X137540000Y-65050000D03*
D21*
%TO.P,Q1,2,D_2*%
%TO.N,/Power Supply*%
X135000000Y-65050000D03*
%TO.P,Q1,3,S_3*%
%TO.N,/A0*%
X132460000Y-65050000D03*
%TD*%
D22*
%TO.P,C15,1*%
%TO.N,GND*%
X147000000Y-77275000D03*
%TO.P,C15,2*%
%TO.N,/Power Supply*%
X147000000Y-75725000D03*
%TD*%
D13*
%TO.P,J6,1,Pin_1_1*%
%TO.N,/scl*%
X143500000Y-98500000D03*
%TD*%
D23*
%TO.P,C9,1*%
%TO.N,/12V*%
X160725000Y-85500000D03*
%TO.P,C9,2*%
%TO.N,GND*%
X162275000Y-85500000D03*
%TD*%
D24*
%TO.P,C5,1*%
%TO.N,/5V*%
X130275000Y-92500000D03*
%TO.P,C5,2*%
%TO.N,GND*%
X128725000Y-92500000D03*
%TD*%
D25*
%TO.P,C11,1*%
%TO.N,GND*%
X147050000Y-62500000D03*
%TO.P,C11,2*%
%TO.N,/12V*%
X148950000Y-62500000D03*
%TD*%
D22*
%TO.P,C12,1*%
%TO.N,Net-(U3-BST)*%
X145862500Y-67775000D03*
%TO.P,C12,2*%
%TO.N,Net-(U3-SW)*%
X145862500Y-66225000D03*
%TD*%
D26*
%TO.P,R6,1*%
%TO.N,/opamp_output*%
X139500000Y-72912500D03*
%TO.P,R6,2*%
%TO.N,Net-(Q1-G)*%
X139500000Y-71087500D03*
%TD*%
D22*
%TO.P,C14,1*%
%TO.N,GND*%
X144000000Y-74275000D03*
%TO.P,C14,2*%
%TO.N,/Power Supply*%
X144000000Y-72725000D03*
%TD*%
D27*
%TO.P,U1,1,1OUT_1*%
%TO.N,/opamp_output*%
X154536200Y-87095000D03*
%TO.P,U1,2,1IN-_2*%
%TO.N,Net-(J10-Pin_1)*%
X154536200Y-88365000D03*
%TO.P,U1,3,1IN+_3*%
%TO.N,/dac_output*%
X154536200Y-89635000D03*
%TO.P,U1,4,GND_4*%
%TO.N,GND*%
X154536200Y-90905000D03*
%TO.P,U1,5,2IN+_5*%
%TO.N,unconnected-(U1-2IN+-Pad5)*%
X159463800Y-90905000D03*
%TO.P,U1,6,2IN-_6*%
%TO.N,unconnected-(U1-2IN--Pad6)*%
X159463800Y-89635000D03*
%TO.P,U1,7,2OUT_7*%
%TO.N,unconnected-(U1-2OUT-Pad7)*%
X159463800Y-88365000D03*
%TO.P,U1,8,VCC_8*%
%TO.N,/12V*%
X159463800Y-87095000D03*
%TD*%
D28*
%TO.P,A1,1,D1/TX_1*%
%TO.N,unconnected-(A1-D1{slash}TX-Pad1)*%
X130380000Y-117110000D03*
D29*
%TO.P,A1,2,D0/RX_2*%
%TO.N,unconnected-(A1-D0{slash}RX-Pad2)*%
X132920000Y-117110000D03*
%TO.P,A1,3,~{RESET}_3*%
%TO.N,unconnected-(A1-~{RESET}-Pad3)*%
X135460000Y-117110000D03*
%TO.P,A1,4,GND_4*%
%TO.N,unconnected-(A1-GND-Pad4)*%
X138000000Y-117110000D03*
%TO.P,A1,5,D2_5*%
%TO.N,unconnected-(A1-D2-Pad5)*%
X140540000Y-117110000D03*
%TO.P,A1,6,D3_6*%
%TO.N,unconnected-(A1-D3-Pad6)*%
X143080000Y-117110000D03*
%TO.P,A1,7,D4_7*%
%TO.N,unconnected-(A1-D4-Pad7)*%
X145620000Y-117110000D03*
%TO.P,A1,8,D5_8*%
%TO.N,unconnected-(A1-D5-Pad8)*%
X148160000Y-117110000D03*
%TO.P,A1,9,D6_9*%
%TO.N,unconnected-(A1-D6-Pad9)*%
X150700000Y-117110000D03*
%TO.P,A1,10,D7_10*%
%TO.N,unconnected-(A1-D7-Pad10)*%
X153240000Y-117110000D03*
%TO.P,A1,11,D8_11*%
%TO.N,unconnected-(A1-D8-Pad11)*%
X155780000Y-117110000D03*
%TO.P,A1,12,D9_12*%
%TO.N,unconnected-(A1-D9-Pad12)*%
X158320000Y-117110000D03*
%TO.P,A1,13,D10_13*%
%TO.N,unconnected-(A1-D10-Pad13)*%
X160860000Y-117110000D03*
%TO.P,A1,14,D11_14*%
%TO.N,unconnected-(A1-D11-Pad14)*%
X163400000Y-117110000D03*
%TO.P,A1,15,D12_15*%
%TO.N,unconnected-(A1-D12-Pad15)*%
X165940000Y-117110000D03*
%TO.P,A1,16,D13_16*%
%TO.N,unconnected-(A1-D13-Pad16)*%
X165940000Y-101870000D03*
%TO.P,A1,17,3V3_17*%
%TO.N,/3v3*%
X163400000Y-101870000D03*
%TO.P,A1,18,AREF_18*%
%TO.N,unconnected-(A1-AREF-Pad18)*%
X160860000Y-101870000D03*
%TO.P,A1,19,A0_19*%
%TO.N,unconnected-(A1-A0-Pad19)*%
X158320000Y-101870000D03*
%TO.P,A1,20,A1_20*%
%TO.N,unconnected-(A1-A1-Pad20)*%
X155780000Y-101870000D03*
%TO.P,A1,21,A2_21*%
%TO.N,unconnected-(A1-A2-Pad21)*%
X153240000Y-101870000D03*
%TO.P,A1,22,A3_22*%
%TO.N,unconnected-(A1-A3-Pad22)*%
X150700000Y-101870000D03*
%TO.P,A1,23,A4_23*%
%TO.N,/sda*%
X148160000Y-101870000D03*
%TO.P,A1,24,A5_24*%
%TO.N,/scl*%
X145620000Y-101870000D03*
%TO.P,A1,25,A6_25*%
%TO.N,unconnected-(A1-A6-Pad25)*%
X143080000Y-101870000D03*
%TO.P,A1,26,A7_26*%
%TO.N,unconnected-(A1-A7-Pad26)*%
X140540000Y-101870000D03*
%TO.P,A1,27,+5V_27*%
%TO.N,/5V*%
X138000000Y-101870000D03*
%TO.P,A1,28,~{RESET}_28*%
%TO.N,unconnected-(A1-~{RESET}-Pad28)*%
X135460000Y-101870000D03*
%TO.P,A1,29,GND_29*%
%TO.N,GND*%
X132920000Y-101870000D03*
%TO.P,A1,30,VIN_30*%
%TO.N,unconnected-(A1-VIN-Pad30)*%
X130380000Y-101870000D03*
%TD*%
D30*
%TO.P,TS1,1,SDA_1*%
%TO.N,/sda*%
X154625000Y-93400000D03*
%TO.P,TS1,2,SCL_2*%
%TO.N,/scl*%
X154625000Y-93900000D03*
%TO.P,TS1,3,Alert_3*%
%TO.N,unconnected-(TS1-Alert-Pad3)*%
X154625000Y-94400000D03*
%TO.P,TS1,4,GND_4*%
%TO.N,GND*%
X154625000Y-94900000D03*
%TO.P,TS1,5,A2_5*%
%TO.N,Net-(J2-Pin_1)*%
X157525000Y-94900000D03*
%TO.P,TS1,6,A1_6*%
%TO.N,Net-(J2-Pin_2)*%
X157525000Y-94400000D03*
%TO.P,TS1,7,A0_7*%
%TO.N,Net-(J2-Pin_3)*%
X157525000Y-93900000D03*
%TO.P,TS1,8,V_{DD}_8*%
%TO.N,/3v3*%
X157525000Y-93400000D03*
D31*
%TO.P,TS1,9,EP/GND_9*%
%TO.N,GND*%
X156075000Y-94150000D03*
%TD*%
D17*
%TO.P,C2,1*%
%TO.N,/5V*%
X138000000Y-99450000D03*
%TO.P,C2,2*%
%TO.N,GND*%
X138000000Y-97550000D03*
%TD*%
D22*
%TO.P,C7,1*%
%TO.N,/5V*%
X142000000Y-93775000D03*
%TO.P,C7,2*%
%TO.N,GND*%
X142000000Y-92225000D03*
%TD*%
D13*
%TO.P,J9,1,Pin_1_1*%
%TO.N,GND*%
X145500000Y-87500000D03*
%TD*%
%TO.P,J12,1,Pin_1_1*%
%TO.N,/opamp_output*%
X138500000Y-76000000D03*
%TD*%
D23*
%TO.P,C10,1*%
%TO.N,/3v3*%
X160225000Y-93000000D03*
%TO.P,C10,2*%
%TO.N,GND*%
X161775000Y-93000000D03*
%TD*%
D13*
%TO.P,J5,1,Pin_1_1*%
%TO.N,/sda*%
X150500000Y-98500000D03*
%TD*%
%TO.P,J7,1,Pin_1_1*%
%TO.N,/3v3*%
X156500000Y-98500000D03*
D32*
%TO.P,J7,2,Pin_2_2*%
X158500000Y-98500000D03*
%TO.P,J7,3,Pin_3_3*%
X160500000Y-98500000D03*
%TD*%
D13*
%TO.P,J2,1,Pin_1_1*%
%TO.N,Net-(J2-Pin_1)*%
X167000000Y-95000000D03*
D32*
%TO.P,J2,2,Pin_2_2*%
%TO.N,Net-(J2-Pin_2)*%
X167000000Y-93000000D03*
%TO.P,J2,3,Pin_3_3*%
%TO.N,Net-(J2-Pin_3)*%
X167000000Y-91000000D03*
%TD*%
D25*
%TO.P,C1,1*%
%TO.N,/3v3*%
X165050000Y-99000000D03*
%TO.P,C1,2*%
%TO.N,GND*%
X166950000Y-99000000D03*
%TD*%
D13*
%TO.P,J8,1,Pin_1_1*%
%TO.N,GND*%
X168500000Y-80500000D03*
D32*
%TO.P,J8,2,Pin_2_2*%
X168500000Y-82500000D03*
%TO.P,J8,3,Pin_3_3*%
X168500000Y-84500000D03*
%TD*%
D13*
%TO.P,J14,1,Pin_1_1*%
%TO.N,Net-(J14-Pin_1)*%
X153500000Y-68500000D03*
%TD*%
D33*
%TO.P,Shunt1,1*%
%TO.N,/A0*%
X134962500Y-78000000D03*
%TO.P,Shunt1,2*%
%TO.N,GND*%
X129037500Y-78000000D03*
%TD*%
D13*
%TO.P,J11,1,Pin_1_1*%
%TO.N,Net-(J10-Pin_1)*%
X138692500Y-81000000D03*
%TD*%
D17*
%TO.P,C8,1*%
%TO.N,/5V*%
X144000000Y-91950000D03*
%TO.P,C8,2*%
%TO.N,GND*%
X144000000Y-90050000D03*
%TD*%
D34*
%TO.P,U3,1,FB_1*%
%TO.N,Net-(J14-Pin_1)*%
X150637500Y-66950000D03*
%TO.P,U3,2,EN_2*%
%TO.N,/12V*%
X150637500Y-66000000D03*
%TO.P,U3,3,IN_3*%
X150637500Y-65050000D03*
%TO.P,U3,4,GND_4*%
%TO.N,GND*%
X148362500Y-65050000D03*
%TO.P,U3,5,SW_5*%
%TO.N,Net-(U3-SW)*%
X148362500Y-66000000D03*
%TO.P,U3,6,BST_6*%
%TO.N,Net-(U3-BST)*%
X148362500Y-66950000D03*
%TD*%
D35*
%TO.N,GND*%
X125337599Y-93474983D03*
X146000000Y-63500000D03*
X127500000Y-78000000D03*
X125500000Y-89500000D03*
X130000000Y-89000000D03*
X170500000Y-97000000D03*
X157500000Y-84000000D03*
X137000000Y-87000000D03*
X165500000Y-84000000D03*
X146000000Y-61500000D03*
X138500000Y-94500000D03*
X156000000Y-61700682D03*
X133000000Y-88000000D03*
X132500000Y-74000000D03*
X156500000Y-92000000D03*
X152500000Y-99500000D03*
X154500000Y-96500000D03*
X137500000Y-61000000D03*
X146000000Y-71500000D03*
%TO.N,/scl*%
X146000000Y-100000000D03*
%TO.N,GND*%
X166500000Y-89000000D03*
X156500000Y-96000000D03*
%TO.N,/scl*%
X146500000Y-98500000D03*
%TO.N,GND*%
X164000000Y-96000000D03*
X125500000Y-86000000D03*
X143000000Y-91000000D03*
X127500000Y-70500000D03*
X125500000Y-63500000D03*
X134500000Y-97000000D03*
X130000000Y-72000000D03*
X169500000Y-89000000D03*
X131500000Y-83500000D03*
X152362500Y-62000000D03*
X163000000Y-85500000D03*
X149500000Y-94000000D03*
X149500000Y-80000000D03*
X136500000Y-91000000D03*
X128500000Y-89500000D03*
X144000000Y-64500000D03*
X162500000Y-70200682D03*
X156500000Y-72500000D03*
X144000000Y-84500000D03*
%TO.N,/sda*%
X147150000Y-97000000D03*
%TO.N,GND*%
X148500000Y-98500000D03*
X146000000Y-91000000D03*
X130500000Y-99500000D03*
X171500000Y-78500000D03*
X129000000Y-96000000D03*
X163000000Y-91000000D03*
X165000000Y-89000000D03*
X127500000Y-92500000D03*
%TO.N,/3v3*%
X161250000Y-95750000D03*
%TO.N,GND*%
X162500000Y-92000000D03*
%TO.N,/3v3*%
X159000000Y-93000000D03*
%TO.N,GND*%
X148000000Y-90000000D03*
X148000000Y-88000000D03*
X135000000Y-84000000D03*
X161000000Y-77500000D03*
X152500000Y-83000000D03*
X140000000Y-69500000D03*
X133500000Y-90500000D03*
X153000000Y-92000000D03*
X164000000Y-85500000D03*
X170000000Y-91000000D03*
X170500000Y-74500000D03*
X125500000Y-102500000D03*
X155500000Y-85500000D03*
X127000000Y-99500000D03*
X128500000Y-74500000D03*
X136000000Y-97500000D03*
X132000000Y-87500000D03*
X163500000Y-89500000D03*
X156075000Y-94150000D03*
X161500000Y-90000000D03*
X136500000Y-94000000D03*
X165000000Y-81000000D03*
X171000000Y-100000000D03*
X128500000Y-68000000D03*
X170500000Y-83500000D03*
X137500000Y-78500000D03*
X132970536Y-99379589D03*
X159000000Y-96000000D03*
%TO.N,/sda*%
X145950000Y-97000000D03*
%TO.N,GND*%
X131000000Y-81000000D03*
X127500000Y-61500000D03*
X171500000Y-62500000D03*
X170479503Y-69500000D03*
X146500000Y-92000000D03*
%TO.N,/sda*%
X135000000Y-95000000D03*
%TO.N,GND*%
X133500000Y-89500000D03*
X146500000Y-94000000D03*
X130500000Y-87500000D03*
X141000000Y-92000000D03*
X148500000Y-84000000D03*
X168447086Y-64790742D03*
X145500000Y-90000000D03*
X163500000Y-88000000D03*
X168000000Y-89000000D03*
X128000000Y-94000000D03*
%TO.N,/5V*%
X142250000Y-96250000D03*
%TO.N,GND*%
X148500000Y-94000000D03*
X155500000Y-62500000D03*
X138000000Y-91000000D03*
X127000000Y-83000000D03*
X151500000Y-92500000D03*
X143000000Y-74000000D03*
X138000000Y-97000000D03*
X131500000Y-61000000D03*
X138714716Y-83674487D03*
X163000000Y-63700682D03*
X149500000Y-68500000D03*
X146000000Y-76500000D03*
X165000000Y-74000000D03*
X172000000Y-89000000D03*
X127000000Y-89500000D03*
X126067606Y-97778186D03*
X168000000Y-99000000D03*
X154000000Y-75500000D03*
X142000000Y-91500000D03*
X144000000Y-95500000D03*
X140000000Y-93500000D03*
X141890889Y-87192184D03*
X145000000Y-75500000D03*
X136000000Y-71000000D03*
X167870142Y-75455324D03*
X154500000Y-92000000D03*
X141000000Y-78500000D03*
X143000000Y-62000000D03*
X143500000Y-80000000D03*
X156000000Y-67500000D03*
%TO.N,/sda*%
X133400000Y-95000000D03*
%TO.N,/5V*%
X140500000Y-98000000D03*
%TO.N,GND*%
X171000000Y-89000000D03*
X150500000Y-93500000D03*
X171000000Y-93500000D03*
X148500000Y-72500000D03*
X141500000Y-100000000D03*
X166000000Y-77000000D03*
X168500000Y-98000000D03*
%TD*%
%TO.N,/12V*%
D36*
X158700682Y-65200682D02*
X160000000Y-66500000D01*
X157500000Y-65200682D02*
X158700682Y-65200682D01*
X158000000Y-67700682D02*
X158799318Y-67700682D01*
X158799318Y-67700682D02*
X160000000Y-66500000D01*
%TO.N,/dac_output*%
D37*
X147500000Y-93000000D02*
X148500000Y-92000000D01*
%TO.N,Net-(U3-BST)*%
D38*
X146087500Y-68000000D02*
X145862500Y-67775000D01*
%TO.N,/3v3*%
D39*
X163400000Y-100000000D02*
X163400000Y-99900000D01*
%TO.N,/scl*%
D40*
X134500000Y-92500000D02*
X135350000Y-92500000D01*
%TO.N,/12V*%
D36*
X150637500Y-65050000D02*
X150637500Y-66000000D01*
%TO.N,/A0*%
D39*
X141000000Y-91000000D02*
X142000000Y-90000000D01*
%TO.N,/sda*%
D40*
X150000000Y-98500000D02*
X150500000Y-98500000D01*
%TO.N,/A0*%
D41*
X132460000Y-65050000D02*
X132460000Y-70470000D01*
%TO.N,/5V*%
D39*
X131500000Y-91500000D02*
X131500000Y-90450000D01*
%TO.N,Net-(J2-Pin_1)*%
X166900000Y-94900000D02*
X167000000Y-95000000D01*
%TO.N,/A0*%
D41*
X134962500Y-82548286D02*
X134962500Y-78000000D01*
%TO.N,/scl*%
D40*
X143500000Y-98500000D02*
X142000000Y-98500000D01*
%TO.N,/5V*%
D39*
X131630000Y-95500000D02*
X138000000Y-101870000D01*
%TO.N,/3v3*%
X165050000Y-99000000D02*
X164050000Y-100000000D01*
%TO.N,/scl*%
D40*
X142000000Y-98500000D02*
X139500000Y-96000000D01*
X135000000Y-96000000D02*
X134000000Y-95000000D01*
%TO.N,/3v3*%
D39*
X159000000Y-93000000D02*
X157925000Y-93000000D01*
%TO.N,Net-(Q1-G)*%
D41*
X138587500Y-71087500D02*
X139500000Y-71087500D01*
%TO.N,/sda*%
D40*
X148160000Y-100340000D02*
X150000000Y-98500000D01*
%TO.N,/opamp_output*%
D41*
X143500000Y-77000000D02*
X142500000Y-76000000D01*
%TO.N,/sda*%
D40*
X152000000Y-95500000D02*
X152000000Y-94000000D01*
%TO.N,/A0*%
D41*
X132460000Y-70470000D02*
X135000000Y-73010000D01*
%TO.N,Net-(J10-Pin_1)*%
X150865000Y-88365000D02*
X144500000Y-82000000D01*
%TO.N,/12V*%
D36*
X159475000Y-85025000D02*
X159475000Y-87095000D01*
%TO.N,/scl*%
D40*
X145620000Y-100620000D02*
X143500000Y-98500000D01*
%TO.N,/Power Supply*%
D41*
X142040000Y-63550000D02*
X141040000Y-62550000D01*
%TO.N,/3v3*%
D39*
X162000000Y-98500000D02*
X160500000Y-98500000D01*
X157925000Y-93000000D02*
X157525000Y-93400000D01*
%TO.N,/sda*%
D40*
X135350000Y-92000000D02*
X134000000Y-92000000D01*
%TO.N,Net-(J10-Pin_1)*%
D41*
X143000000Y-82500000D02*
X141500000Y-84000000D01*
%TO.N,/scl*%
D40*
X134000000Y-95000000D02*
X134000000Y-93000000D01*
%TO.N,/5V*%
D39*
X142250000Y-95250000D02*
X142000000Y-95000000D01*
%TO.N,/12V*%
D36*
X152661818Y-65200682D02*
X152511136Y-65050000D01*
%TO.N,Net-(J2-Pin_3)*%
D39*
X165500000Y-91000000D02*
X164417893Y-92082107D01*
%TO.N,/3v3*%
X163500000Y-100500000D02*
X163400000Y-100500000D01*
%TO.N,/sda*%
D40*
X147150000Y-97000000D02*
X147150000Y-96850000D01*
%TO.N,/scl*%
X145620000Y-101870000D02*
X145620000Y-100380000D01*
%TO.N,/12V*%
D36*
X160000000Y-74500000D02*
X158000000Y-72500000D01*
%TO.N,/3v3*%
D39*
X164050000Y-100000000D02*
X164000000Y-100000000D01*
%TO.N,/scl*%
D40*
X145620000Y-100380000D02*
X146000000Y-100000000D01*
%TO.N,Net-(U3-BST)*%
D38*
X147312500Y-68000000D02*
X146087500Y-68000000D01*
%TO.N,/sda*%
D40*
X136000000Y-95500000D02*
X135500000Y-95000000D01*
X145600000Y-97900000D02*
X145600000Y-97000000D01*
%TO.N,/scl*%
X147500000Y-97500000D02*
X148000000Y-97500000D01*
%TO.N,Net-(U3-SW)*%
D36*
X158752600Y-77252600D02*
X158752600Y-79000000D01*
%TO.N,/sda*%
D40*
X147500000Y-97000000D02*
X148500000Y-96000000D01*
%TO.N,/5V*%
D39*
X131630000Y-93500000D02*
X131630000Y-95500000D01*
%TO.N,Net-(J10-Pin_1)*%
D41*
X143000000Y-82000000D02*
X143000000Y-82500000D01*
%TO.N,Net-(J14-Pin_1)*%
X153500000Y-68500000D02*
X153500000Y-70412500D01*
%TO.N,Net-(U3-SW)*%
D36*
X145862500Y-66225000D02*
X146087500Y-66000000D01*
%TO.N,/12V*%
X159500000Y-84500000D02*
X163000000Y-81000000D01*
%TO.N,/5V*%
D39*
X131630000Y-92370000D02*
X131630000Y-91630000D01*
%TO.N,/sda*%
D40*
X135500000Y-95000000D02*
X135000000Y-95000000D01*
%TO.N,/scl*%
X146550000Y-98450000D02*
X146550000Y-97500000D01*
%TO.N,/12V*%
D36*
X158000000Y-72500000D02*
X158000000Y-67700682D01*
%TO.N,Net-(U3-BST)*%
D38*
X148362500Y-66950000D02*
X147312500Y-68000000D01*
%TO.N,/scl*%
D40*
X145620000Y-101870000D02*
X145620000Y-100620000D01*
%TO.N,Net-(J2-Pin_2)*%
D39*
X164625000Y-93000000D02*
X167000000Y-93000000D01*
%TO.N,/sda*%
D40*
X148500000Y-96000000D02*
X151500000Y-96000000D01*
%TO.N,/A0*%
D41*
X139664214Y-87250000D02*
X139664214Y-87664214D01*
%TO.N,/5V*%
D39*
X132500000Y-91500000D02*
X131630000Y-92370000D01*
%TO.N,/A2*%
D41*
X132500000Y-85000000D02*
X135000000Y-87500000D01*
%TO.N,/5V*%
D39*
X135350000Y-91500000D02*
X132500000Y-91500000D01*
%TO.N,/12V*%
D36*
X159500000Y-85000000D02*
X159475000Y-85025000D01*
%TO.N,/Power Supply*%
D41*
X144000000Y-72725000D02*
X145225000Y-72725000D01*
%TO.N,Net-(U3-SW)*%
D36*
X143862500Y-69000000D02*
X144862500Y-70000000D01*
%TO.N,Net-(J2-Pin_3)*%
D39*
X164417893Y-92082107D02*
X164417893Y-92500000D01*
%TO.N,/3v3*%
X161250000Y-95750000D02*
X163400000Y-97900000D01*
%TO.N,/5V*%
X130630000Y-92500000D02*
X130275000Y-92500000D01*
%TO.N,/A2*%
D41*
X128500000Y-83000000D02*
X128500000Y-83650000D01*
%TO.N,/scl*%
D40*
X153000000Y-95500000D02*
X153000000Y-94500000D01*
%TO.N,/A2*%
D41*
X128500000Y-83000000D02*
X128500000Y-82500000D01*
%TO.N,/Power Supply*%
X145225000Y-72725000D02*
X142040000Y-69540000D01*
%TO.N,Net-(J2-Pin_3)*%
D39*
X164417893Y-92500000D02*
X163017894Y-93900000D01*
%TO.N,/sda*%
D40*
X134000000Y-92000000D02*
X133000000Y-93000000D01*
%TO.N,/scl*%
X153600000Y-93900000D02*
X154625000Y-93900000D01*
%TO.N,/12V*%
D36*
X163000000Y-81000000D02*
X163000000Y-76000000D01*
%TO.N,/5V*%
D39*
X131630000Y-92370000D02*
X131630000Y-93500000D01*
%TO.N,/sda*%
D40*
X145500000Y-98500000D02*
X148160000Y-101160000D01*
X133400000Y-95000000D02*
X133400000Y-94900000D01*
X140000000Y-95500000D02*
X136000000Y-95500000D01*
%TO.N,/3v3*%
D39*
X163400000Y-97900000D02*
X163400000Y-100000000D01*
%TO.N,/A2*%
D41*
X128500000Y-82500000D02*
X126000000Y-80000000D01*
%TO.N,/Power Supply*%
X152000000Y-79500000D02*
X148225000Y-75725000D01*
%TO.N,/opamp_output*%
X143500000Y-77000000D02*
X145000000Y-78500000D01*
X153595000Y-87095000D02*
X145000000Y-78500000D01*
%TO.N,Net-(U3-SW)*%
D36*
X145862500Y-66225000D02*
X144637500Y-66225000D01*
%TO.N,Net-(J10-Pin_1)*%
D41*
X142000000Y-81000000D02*
X138692500Y-81000000D01*
%TO.N,/Power Supply*%
X142040000Y-69540000D02*
X142040000Y-63550000D01*
%TO.N,Net-(J10-Pin_1)*%
X144500000Y-82000000D02*
X143000000Y-82000000D01*
%TO.N,/A2*%
D39*
X135000000Y-90150000D02*
X135000000Y-89500000D01*
%TO.N,/scl*%
D40*
X134000000Y-93000000D02*
X134500000Y-92500000D01*
X146550000Y-97500000D02*
X146550000Y-95275000D01*
%TO.N,Net-(J10-Pin_1)*%
D41*
X143000000Y-82000000D02*
X142000000Y-81000000D01*
%TO.N,/A0*%
X139664214Y-87664214D02*
X142000000Y-90000000D01*
%TO.N,/12V*%
D36*
X150637500Y-65050000D02*
X150637500Y-64187500D01*
%TO.N,/sda*%
D40*
X148160000Y-101870000D02*
X148160000Y-100340000D01*
%TO.N,/scl*%
X148000000Y-97500000D02*
X149000000Y-96500000D01*
%TO.N,/A2*%
D39*
X135350000Y-90500000D02*
X135000000Y-90150000D01*
%TO.N,/sda*%
D40*
X145600000Y-97000000D02*
X141500000Y-97000000D01*
X152600000Y-93400000D02*
X154625000Y-93400000D01*
%TO.N,/Power Supply*%
D41*
X153500000Y-79500000D02*
X153500000Y-79000000D01*
%TO.N,Net-(J14-Pin_1)*%
X153500000Y-68500000D02*
X152037500Y-68500000D01*
%TO.N,/5V*%
D39*
X142250000Y-96250000D02*
X142250000Y-95250000D01*
%TO.N,/sda*%
D40*
X133400000Y-94900000D02*
X133000000Y-94500000D01*
%TO.N,/A2*%
D41*
X130500000Y-85000000D02*
X132500000Y-85000000D01*
%TO.N,/sda*%
D40*
X147150000Y-97000000D02*
X147500000Y-97000000D01*
%TO.N,/Power Supply*%
D41*
X148225000Y-75725000D02*
X145225000Y-72725000D01*
%TO.N,/A2*%
X128500000Y-83650000D02*
X128500000Y-86587500D01*
%TO.N,/dac_output*%
X150865000Y-89635000D02*
X154525000Y-89635000D01*
%TO.N,/Power Supply*%
X141040000Y-62550000D02*
X136540000Y-62550000D01*
%TO.N,/3v3*%
D39*
X159000000Y-93000000D02*
X160225000Y-93000000D01*
X163400000Y-100500000D02*
X163400000Y-101870000D01*
%TO.N,Net-(J14-Pin_1)*%
D41*
X152037500Y-68500000D02*
X150637500Y-67100000D01*
%TO.N,Net-(U3-SW)*%
D36*
X154500000Y-73000000D02*
X158752600Y-77252600D01*
%TO.N,/sda*%
D40*
X145600000Y-97000000D02*
X145950000Y-97000000D01*
%TO.N,Net-(U3-SW)*%
D36*
X146087500Y-66000000D02*
X148362500Y-66000000D01*
%TO.N,/scl*%
D40*
X149000000Y-96500000D02*
X152000000Y-96500000D01*
%TO.N,Net-(J14-Pin_1)*%
D41*
X153500000Y-70412500D02*
X154087500Y-71000000D01*
%TO.N,/A0*%
X134962500Y-73047500D02*
X135000000Y-73010000D01*
%TO.N,/scl*%
D40*
X139500000Y-96000000D02*
X135000000Y-96000000D01*
%TO.N,Net-(U3-SW)*%
D36*
X144637500Y-66225000D02*
X143862500Y-67000000D01*
%TO.N,/sda*%
D40*
X141500000Y-97000000D02*
X140000000Y-95500000D01*
%TO.N,/opamp_output*%
D41*
X139500000Y-73000000D02*
X143500000Y-77000000D01*
%TO.N,Net-(J2-Pin_2)*%
D39*
X157525000Y-94400000D02*
X163225000Y-94400000D01*
%TO.N,/12V*%
D36*
X160000000Y-85500000D02*
X160990000Y-85500000D01*
%TO.N,/opamp_output*%
D41*
X154525000Y-87095000D02*
X153595000Y-87095000D01*
%TO.N,/Power Supply*%
X136540000Y-62550000D02*
X129950000Y-62550000D01*
%TO.N,/5V*%
D39*
X142000000Y-95000000D02*
X142000000Y-93775000D01*
%TO.N,/Power Supply*%
D41*
X155247400Y-79500000D02*
X153500000Y-79500000D01*
%TO.N,/12V*%
D36*
X157500000Y-65200682D02*
X152661818Y-65200682D01*
X163000000Y-76000000D02*
X161500000Y-74500000D01*
%TO.N,/Power Supply*%
D41*
X126000000Y-66500000D02*
X126000000Y-74087500D01*
%TO.N,/5V*%
D39*
X144500000Y-93000000D02*
X145600000Y-93000000D01*
X142250000Y-95250000D02*
X144000000Y-93500000D01*
%TO.N,/opamp_output*%
D41*
X142500000Y-76000000D02*
X138500000Y-76000000D01*
%TO.N,/Power Supply*%
X153500000Y-79500000D02*
X152000000Y-79500000D01*
%TO.N,Net-(Q1-G)*%
X137540000Y-70040000D02*
X138587500Y-71087500D01*
%TO.N,/5V*%
D39*
X131630000Y-91630000D02*
X131500000Y-91500000D01*
%TO.N,/dac_output*%
D41*
X150865000Y-89635000D02*
X148500000Y-92000000D01*
%TO.N,Net-(J2-Pin_2)*%
D39*
X163225000Y-94400000D02*
X164625000Y-93000000D01*
%TO.N,/sda*%
D40*
X145500000Y-98000000D02*
X145600000Y-97900000D01*
%TO.N,Net-(U3-SW)*%
D36*
X143862500Y-67000000D02*
X143862500Y-69000000D01*
%TO.N,/sda*%
D40*
X133000000Y-93000000D02*
X133000000Y-94500000D01*
%TO.N,/3v3*%
D39*
X163400000Y-99900000D02*
X162000000Y-98500000D01*
%TO.N,/A2*%
D41*
X126000000Y-80000000D02*
X126000000Y-75912500D01*
%TO.N,/5V*%
D39*
X131630000Y-93500000D02*
X130630000Y-92500000D01*
%TO.N,/12V*%
D36*
X161500000Y-74500000D02*
X160000000Y-74500000D01*
%TO.N,/scl*%
D40*
X152000000Y-96500000D02*
X153000000Y-95500000D01*
%TO.N,Net-(Q1-G)*%
D41*
X137540000Y-65050000D02*
X137540000Y-70040000D01*
%TO.N,/scl*%
D40*
X146500000Y-98500000D02*
X146550000Y-98450000D01*
%TO.N,/sda*%
X151500000Y-96000000D02*
X152000000Y-95500000D01*
%TO.N,/3v3*%
D39*
X158500000Y-98500000D02*
X156500000Y-98500000D01*
%TO.N,/5V*%
X144000000Y-93500000D02*
X144500000Y-93000000D01*
%TO.N,/3v3*%
X164000000Y-100000000D02*
X163500000Y-100500000D01*
%TO.N,Net-(J2-Pin_1)*%
X157525000Y-94900000D02*
X166900000Y-94900000D01*
%TO.N,/5V*%
X138000000Y-101870000D02*
X138000000Y-99450000D01*
%TO.N,Net-(J2-Pin_3)*%
X163017894Y-93900000D02*
X157525000Y-93900000D01*
%TO.N,/12V*%
D36*
X157500000Y-64150682D02*
X157500000Y-65200682D01*
%TO.N,/A2*%
D41*
X128500000Y-83000000D02*
X130500000Y-85000000D01*
%TO.N,/Power Supply*%
X153500000Y-79000000D02*
X151000000Y-76500000D01*
%TO.N,/3v3*%
D39*
X160500000Y-98500000D02*
X158500000Y-98500000D01*
%TO.N,Net-(U3-SW)*%
D36*
X144862500Y-70000000D02*
X150500000Y-70000000D01*
X150500000Y-70000000D02*
X153500000Y-73000000D01*
%TO.N,/A2*%
D41*
X135000000Y-87500000D02*
X135000000Y-89500000D01*
%TO.N,/3v3*%
D39*
X163400000Y-100000000D02*
X163400000Y-100500000D01*
%TO.N,/A0*%
X139650000Y-91000000D02*
X141000000Y-91000000D01*
%TO.N,/sda*%
D40*
X152000000Y-94000000D02*
X152600000Y-93400000D01*
%TO.N,/Power Supply*%
D41*
X147000000Y-75725000D02*
X148225000Y-75725000D01*
%TO.N,/12V*%
D36*
X160500000Y-66700682D02*
X160500000Y-68200682D01*
%TO.N,/scl*%
D40*
X146500000Y-98500000D02*
X147500000Y-97500000D01*
%TO.N,/12V*%
D36*
X159500000Y-85000000D02*
X160000000Y-85500000D01*
%TO.N,Net-(J10-Pin_1)*%
D41*
X154525000Y-88365000D02*
X150865000Y-88365000D01*
%TO.N,/sda*%
D40*
X148160000Y-101160000D02*
X148160000Y-101870000D01*
%TO.N,/A0*%
D41*
X134962500Y-78000000D02*
X134962500Y-73047500D01*
%TO.N,/5V*%
D39*
X144000000Y-91950000D02*
X144000000Y-93500000D01*
%TO.N,/12V*%
D36*
X159500000Y-85000000D02*
X159500000Y-84500000D01*
%TO.N,Net-(U3-SW)*%
X153500000Y-73000000D02*
X154500000Y-73000000D01*
%TO.N,/5V*%
D39*
X139050000Y-99450000D02*
X140500000Y-98000000D01*
%TO.N,/scl*%
D40*
X153000000Y-94500000D02*
X153600000Y-93900000D01*
%TO.N,/5V*%
D39*
X138000000Y-99450000D02*
X139050000Y-99450000D01*
%TO.N,/12V*%
D36*
X150637500Y-64187500D02*
X148950000Y-62500000D01*
%TO.N,/sda*%
D40*
X145600000Y-97000000D02*
X145600000Y-95275000D01*
%TO.N,/Power Supply*%
D41*
X151000000Y-76500000D02*
X151000000Y-74500000D01*
X136540000Y-62550000D02*
X135000000Y-64090000D01*
X135000000Y-64090000D02*
X135000000Y-65050000D01*
%TO.N,Net-(J2-Pin_3)*%
D39*
X167000000Y-91000000D02*
X165500000Y-91000000D01*
%TO.N,/Power Supply*%
D41*
X129950000Y-62550000D02*
X126000000Y-66500000D01*
%TO.N,/A0*%
X139664214Y-87250000D02*
X134962500Y-82548286D01*
%TO.N,/sda*%
D40*
X145500000Y-98500000D02*
X145500000Y-98000000D01*
%TO.N,/12V*%
D36*
X152511136Y-65050000D02*
X150637500Y-65050000D01*
%TO.N,/opamp_output*%
D41*
X139500000Y-72912500D02*
X139500000Y-73000000D01*
%TD*%
%TA.AperFunction,Conductor*%
%TO.N,GND*%
G36*
X133371495Y-91920185D02*
G01*
X133417250Y-91972989D01*
X133427194Y-92042147D01*
X133398169Y-92105703D01*
X133392137Y-92112181D01*
X132719531Y-92784786D01*
X132719527Y-92784791D01*
X132673387Y-92864709D01*
X132673386Y-92864712D01*
X132649500Y-92953856D01*
X132649500Y-94546144D01*
X132663797Y-94599501D01*
X132673385Y-94635286D01*
X132719527Y-94715208D01*
X132719531Y-94715213D01*
X132816278Y-94811960D01*
X132849763Y-94873283D01*
X132848673Y-94919220D01*
X132850561Y-94919469D01*
X132849500Y-94927523D01*
X132849500Y-94927525D01*
X132849500Y-95072475D01*
X132876540Y-95173387D01*
X132887017Y-95212488D01*
X132959488Y-95338011D01*
X132959490Y-95338013D01*
X132959491Y-95338015D01*
X133061985Y-95440509D01*
X133061986Y-95440510D01*
X133061988Y-95440511D01*
X133187511Y-95512982D01*
X133187512Y-95512982D01*
X133187515Y-95512984D01*
X133327525Y-95550500D01*
X133327528Y-95550500D01*
X133472472Y-95550500D01*
X133472475Y-95550500D01*
X133612485Y-95512984D01*
X133738015Y-95440509D01*
X133753740Y-95424784D01*
X133815063Y-95391299D01*
X133884755Y-95396283D01*
X133929102Y-95424784D01*
X134784788Y-96280470D01*
X134784790Y-96280471D01*
X134784794Y-96280474D01*
X134857542Y-96322475D01*
X134857543Y-96322475D01*
X134864712Y-96326614D01*
X134953856Y-96350500D01*
X134953857Y-96350500D01*
X135046144Y-96350500D01*
X139303456Y-96350500D01*
X139370495Y-96370185D01*
X139391137Y-96386819D01*
X140302462Y-97298144D01*
X140335947Y-97359467D01*
X140330963Y-97429159D01*
X140289091Y-97485092D01*
X140276782Y-97493212D01*
X140161985Y-97559491D01*
X140161982Y-97559493D01*
X140059493Y-97661982D01*
X140059488Y-97661988D01*
X139987017Y-97787511D01*
X139987016Y-97787515D01*
X139949500Y-97927525D01*
X139949500Y-97927527D01*
X139949500Y-97932744D01*
X139929815Y-97999783D01*
X139913181Y-98020425D01*
X139044447Y-98889158D01*
X138983124Y-98922643D01*
X138913432Y-98917659D01*
X138857500Y-98875789D01*
X138832546Y-98842454D01*
X138832544Y-98842452D01*
X138832543Y-98842451D01*
X138717335Y-98756206D01*
X138717328Y-98756202D01*
X138582482Y-98705908D01*
X138582483Y-98705908D01*
X138522883Y-98699501D01*
X138522881Y-98699500D01*
X138522873Y-98699500D01*
X138522864Y-98699500D01*
X137477129Y-98699500D01*
X137477123Y-98699501D01*
X137417516Y-98705908D01*
X137282671Y-98756202D01*
X137282664Y-98756206D01*
X137167455Y-98842452D01*
X137167452Y-98842455D01*
X137081206Y-98957664D01*
X137081202Y-98957671D01*
X137031858Y-99089972D01*
X137030909Y-99092517D01*
X137024500Y-99152127D01*
X137024500Y-99152134D01*
X137024500Y-99152135D01*
X137024500Y-99747870D01*
X137024501Y-99747876D01*
X137030908Y-99807483D01*
X137081202Y-99942328D01*
X137081206Y-99942335D01*
X137167452Y-100057544D01*
X137167455Y-100057547D01*
X137282664Y-100143793D01*
X137282671Y-100143797D01*
X137417516Y-100194091D01*
X137477113Y-100200499D01*
X137477122Y-100200499D01*
X137477127Y-100200500D01*
X137477131Y-100200499D01*
X137480434Y-100200677D01*
X137480424Y-100200855D01*
X137480431Y-100200856D01*
X137480417Y-100200977D01*
X137480366Y-100201946D01*
X137542478Y-100220144D01*
X137588264Y-100272921D01*
X137599500Y-100324499D01*
X137599500Y-100603745D01*
X137579815Y-100670784D01*
X137527011Y-100716539D01*
X137457853Y-100726483D01*
X137394297Y-100697458D01*
X137387819Y-100691426D01*
X132066819Y-95370426D01*
X132033334Y-95309103D01*
X132030500Y-95282745D01*
X132030500Y-93552730D01*
X132030501Y-93552727D01*
X132030501Y-93447273D01*
X132030500Y-93447269D01*
X132030500Y-92587255D01*
X132050185Y-92520216D01*
X132066819Y-92499574D01*
X132629574Y-91936819D01*
X132690897Y-91903334D01*
X132717255Y-91900500D01*
X133304456Y-91900500D01*
X133371495Y-91920185D01*
G37*
%TD.AperFunction*%
%TA.AperFunction,Conductor*%
G36*
X172442539Y-60520185D02*
G01*
X172488294Y-60572989D01*
X172499500Y-60624500D01*
X172499500Y-103876000D01*
X172479815Y-103943039D01*
X172427011Y-103988794D01*
X172375500Y-104000000D01*
X124624500Y-104000000D01*
X124557461Y-103980315D01*
X124511706Y-103927511D01*
X124500500Y-103876000D01*
X124500500Y-101766530D01*
X129329500Y-101766530D01*
X129329500Y-101973469D01*
X129369868Y-102176412D01*
X129369870Y-102176420D01*
X129449058Y-102367596D01*
X129564024Y-102539657D01*
X129710342Y-102685975D01*
X129710345Y-102685977D01*
X129882402Y-102800941D01*
X130073580Y-102880130D01*
X130276530Y-102920499D01*
X130276534Y-102920500D01*
X130276535Y-102920500D01*
X130483466Y-102920500D01*
X130483467Y-102920499D01*
X130686420Y-102880130D01*
X130877598Y-102800941D01*
X131049655Y-102685977D01*
X131195977Y-102539655D01*
X131310941Y-102367598D01*
X131390130Y-102176420D01*
X131430500Y-101973465D01*
X131430500Y-101766535D01*
X131430499Y-101766530D01*
X134409500Y-101766530D01*
X134409500Y-101973469D01*
X134449868Y-102176412D01*
X134449870Y-102176420D01*
X134529058Y-102367596D01*
X134644024Y-102539657D01*
X134790342Y-102685975D01*
X134790345Y-102685977D01*
X134962402Y-102800941D01*
X135153580Y-102880130D01*
X135356530Y-102920499D01*
X135356534Y-102920500D01*
X135356535Y-102920500D01*
X135563466Y-102920500D01*
X135563467Y-102920499D01*
X135766420Y-102880130D01*
X135957598Y-102800941D01*
X136129655Y-102685977D01*
X136275977Y-102539655D01*
X136390941Y-102367598D01*
X136470130Y-102176420D01*
X136510500Y-101973465D01*
X136510500Y-101766535D01*
X136470130Y-101563580D01*
X136390941Y-101372402D01*
X136275977Y-101200345D01*
X136275976Y-101200344D01*
X136275975Y-101200342D01*
X136129657Y-101054024D01*
X135957602Y-100939062D01*
X135957598Y-100939059D01*
X135957593Y-100939057D01*
X135766420Y-100859870D01*
X135766412Y-100859868D01*
X135563469Y-100819500D01*
X135563465Y-100819500D01*
X135356535Y-100819500D01*
X135356530Y-100819500D01*
X135153587Y-100859868D01*
X135153579Y-100859870D01*
X134962403Y-100939058D01*
X134790342Y-101054024D01*
X134644024Y-101200342D01*
X134529058Y-101372403D01*
X134449870Y-101563579D01*
X134449868Y-101563587D01*
X134409500Y-101766530D01*
X131430499Y-101766530D01*
X131390130Y-101563580D01*
X131310941Y-101372402D01*
X131195977Y-101200345D01*
X131195976Y-101200344D01*
X131195975Y-101200342D01*
X131049657Y-101054024D01*
X130877602Y-100939062D01*
X130877598Y-100939059D01*
X130877593Y-100939057D01*
X130686420Y-100859870D01*
X130686412Y-100859868D01*
X130483469Y-100819500D01*
X130483465Y-100819500D01*
X130276535Y-100819500D01*
X130276530Y-100819500D01*
X130073587Y-100859868D01*
X130073579Y-100859870D01*
X129882403Y-100939058D01*
X129710342Y-101054024D01*
X129564024Y-101200342D01*
X129449058Y-101372403D01*
X129369870Y-101563579D01*
X129369868Y-101563587D01*
X129329500Y-101766530D01*
X124500500Y-101766530D01*
X124500500Y-75602127D01*
X125049500Y-75602127D01*
X125049500Y-75602134D01*
X125049500Y-75602135D01*
X125049500Y-76222870D01*
X125049501Y-76222876D01*
X125055908Y-76282483D01*
X125106202Y-76417328D01*
X125106203Y-76417329D01*
X125106204Y-76417331D01*
X125154977Y-76482483D01*
X125192454Y-76532546D01*
X125199808Y-76538051D01*
X125241681Y-76593983D01*
X125249500Y-76637320D01*
X125249500Y-80073918D01*
X125249500Y-80073920D01*
X125249499Y-80073920D01*
X125278340Y-80218907D01*
X125278343Y-80218917D01*
X125334913Y-80355489D01*
X125334914Y-80355491D01*
X125334916Y-80355495D01*
X125347613Y-80374498D01*
X125347614Y-80374500D01*
X125417046Y-80478414D01*
X125417052Y-80478421D01*
X127713181Y-82774549D01*
X127746666Y-82835872D01*
X127749500Y-82862230D01*
X127749500Y-85862679D01*
X127729815Y-85929718D01*
X127699813Y-85961944D01*
X127692459Y-85967449D01*
X127692451Y-85967457D01*
X127606206Y-86082664D01*
X127606202Y-86082671D01*
X127568553Y-86183616D01*
X127555909Y-86217517D01*
X127549500Y-86277127D01*
X127549500Y-86277134D01*
X127549500Y-86277135D01*
X127549500Y-86897870D01*
X127549501Y-86897876D01*
X127555908Y-86957483D01*
X127606202Y-87092328D01*
X127606206Y-87092335D01*
X127692452Y-87207544D01*
X127692455Y-87207547D01*
X127807664Y-87293793D01*
X127807671Y-87293797D01*
X127942517Y-87344091D01*
X127942516Y-87344091D01*
X127949444Y-87344835D01*
X128002127Y-87350500D01*
X128997872Y-87350499D01*
X129057483Y-87344091D01*
X129192331Y-87293796D01*
X129307546Y-87207546D01*
X129393796Y-87092331D01*
X129444091Y-86957483D01*
X129450500Y-86897873D01*
X129450499Y-86277128D01*
X129444091Y-86217517D01*
X129430183Y-86180229D01*
X129393797Y-86082671D01*
X129393793Y-86082664D01*
X129307548Y-85967457D01*
X129307546Y-85967454D01*
X129307542Y-85967451D01*
X129307540Y-85967449D01*
X129300187Y-85961944D01*
X129258317Y-85906009D01*
X129250500Y-85862679D01*
X129250500Y-85111229D01*
X129270185Y-85044190D01*
X129322989Y-84998435D01*
X129392147Y-84988491D01*
X129455703Y-85017516D01*
X129462181Y-85023548D01*
X129917049Y-85478416D01*
X130002702Y-85564069D01*
X130021585Y-85582952D01*
X130144498Y-85665080D01*
X130144511Y-85665087D01*
X130281082Y-85721656D01*
X130281087Y-85721658D01*
X130281091Y-85721658D01*
X130281092Y-85721659D01*
X130426079Y-85750500D01*
X130426082Y-85750500D01*
X130426083Y-85750500D01*
X130573917Y-85750500D01*
X132137770Y-85750500D01*
X132204809Y-85770185D01*
X132225451Y-85786819D01*
X134213181Y-87774549D01*
X134246666Y-87835872D01*
X134249500Y-87862230D01*
X134249500Y-89573918D01*
X134249500Y-89573920D01*
X134249499Y-89573920D01*
X134278340Y-89718907D01*
X134278343Y-89718917D01*
X134334912Y-89855488D01*
X134334919Y-89855501D01*
X134417048Y-89978415D01*
X134417051Y-89978419D01*
X134463972Y-90025340D01*
X134497457Y-90086663D01*
X134492473Y-90156355D01*
X134463972Y-90200702D01*
X134429253Y-90235420D01*
X134380740Y-90339456D01*
X134374500Y-90386859D01*
X134374500Y-90613132D01*
X134374501Y-90613138D01*
X134380741Y-90660545D01*
X134380742Y-90660547D01*
X134380742Y-90660548D01*
X134429253Y-90764579D01*
X134510421Y-90845747D01*
X134547673Y-90863118D01*
X134600113Y-90909290D01*
X134619265Y-90976484D01*
X134599049Y-91043365D01*
X134545884Y-91088699D01*
X134495269Y-91099500D01*
X132538769Y-91099500D01*
X132471730Y-91079815D01*
X132425975Y-91027011D01*
X132416031Y-90957853D01*
X132422587Y-90932167D01*
X132431286Y-90908843D01*
X132469091Y-90807483D01*
X132475500Y-90747873D01*
X132475499Y-90152128D01*
X132469091Y-90092517D01*
X132464353Y-90079815D01*
X132418797Y-89957671D01*
X132418793Y-89957664D01*
X132332547Y-89842455D01*
X132332544Y-89842452D01*
X132217335Y-89756206D01*
X132217328Y-89756202D01*
X132082482Y-89705908D01*
X132082483Y-89705908D01*
X132022883Y-89699501D01*
X132022881Y-89699500D01*
X132022873Y-89699500D01*
X132022864Y-89699500D01*
X130977129Y-89699500D01*
X130977123Y-89699501D01*
X130917516Y-89705908D01*
X130782671Y-89756202D01*
X130782664Y-89756206D01*
X130667455Y-89842452D01*
X130667452Y-89842455D01*
X130581206Y-89957664D01*
X130581202Y-89957671D01*
X130533092Y-90086663D01*
X130530909Y-90092517D01*
X130524500Y-90152127D01*
X130524500Y-90152134D01*
X130524500Y-90152135D01*
X130524500Y-90747870D01*
X130524501Y-90747876D01*
X130530908Y-90807483D01*
X130581202Y-90942328D01*
X130581206Y-90942335D01*
X130667452Y-91057544D01*
X130667455Y-91057547D01*
X130782664Y-91143793D01*
X130782671Y-91143797D01*
X130917516Y-91194091D01*
X130977113Y-91200499D01*
X130977122Y-91200499D01*
X130977127Y-91200500D01*
X130977131Y-91200499D01*
X130980434Y-91200677D01*
X130980424Y-91200855D01*
X130980431Y-91200856D01*
X130980417Y-91200977D01*
X130980366Y-91201946D01*
X131042478Y-91220144D01*
X131088264Y-91272921D01*
X131099500Y-91324499D01*
X131099500Y-91447273D01*
X131099500Y-91552727D01*
X131112033Y-91599500D01*
X131126793Y-91654589D01*
X131130232Y-91660545D01*
X131179520Y-91745913D01*
X131193179Y-91759572D01*
X131226666Y-91820893D01*
X131229500Y-91847254D01*
X131229500Y-92233745D01*
X131223261Y-92254990D01*
X131221682Y-92277079D01*
X131213609Y-92287862D01*
X131209815Y-92300784D01*
X131193081Y-92315283D01*
X131179810Y-92333012D01*
X131167189Y-92337719D01*
X131157011Y-92346539D01*
X131135093Y-92349690D01*
X131114346Y-92357429D01*
X131101185Y-92354566D01*
X131087853Y-92356483D01*
X131067709Y-92347283D01*
X131046073Y-92342577D01*
X131028347Y-92329308D01*
X131024297Y-92327458D01*
X131017819Y-92321426D01*
X131011818Y-92315425D01*
X130978333Y-92254102D01*
X130975499Y-92227744D01*
X130975499Y-92204518D01*
X130975498Y-92204509D01*
X130971848Y-92170554D01*
X130969412Y-92147886D01*
X130956451Y-92113138D01*
X130946702Y-92087000D01*
X130921628Y-92019774D01*
X130839687Y-91910313D01*
X130745033Y-91839456D01*
X130730228Y-91828373D01*
X130730226Y-91828372D01*
X130602114Y-91780588D01*
X130602112Y-91780587D01*
X130602110Y-91780587D01*
X130545493Y-91774500D01*
X130004518Y-91774500D01*
X130004509Y-91774501D01*
X129947885Y-91780587D01*
X129819773Y-91828372D01*
X129710313Y-91910313D01*
X129628373Y-92019771D01*
X129628372Y-92019774D01*
X129593906Y-92112181D01*
X129580587Y-92147889D01*
X129574500Y-92204498D01*
X129574500Y-92795481D01*
X129574501Y-92795490D01*
X129580587Y-92852114D01*
X129618536Y-92953856D01*
X129628372Y-92980226D01*
X129710313Y-93089687D01*
X129773113Y-93136698D01*
X129816908Y-93169483D01*
X129819774Y-93171628D01*
X129947886Y-93219412D01*
X130004515Y-93225500D01*
X130545484Y-93225499D01*
X130602114Y-93219412D01*
X130626509Y-93210313D01*
X130659209Y-93198117D01*
X130728900Y-93193132D01*
X130790222Y-93226614D01*
X130790224Y-93226616D01*
X130790224Y-93226617D01*
X131193181Y-93629573D01*
X131226666Y-93690896D01*
X131229500Y-93717254D01*
X131229500Y-95552726D01*
X131256793Y-95654589D01*
X131282824Y-95699674D01*
X131309520Y-95745913D01*
X131309522Y-95745915D01*
X136971502Y-101407895D01*
X137004987Y-101469218D01*
X137000003Y-101538910D01*
X136998384Y-101543025D01*
X136989871Y-101563579D01*
X136989869Y-101563583D01*
X136989867Y-101563587D01*
X136949500Y-101766530D01*
X136949500Y-101973469D01*
X136989868Y-102176412D01*
X136989870Y-102176420D01*
X137069058Y-102367596D01*
X137184024Y-102539657D01*
X137330342Y-102685975D01*
X137330345Y-102685977D01*
X137502402Y-102800941D01*
X137693580Y-102880130D01*
X137896530Y-102920499D01*
X137896534Y-102920500D01*
X137896535Y-102920500D01*
X138103466Y-102920500D01*
X138103467Y-102920499D01*
X138306420Y-102880130D01*
X138497598Y-102800941D01*
X138669655Y-102685977D01*
X138815977Y-102539655D01*
X138930941Y-102367598D01*
X139010130Y-102176420D01*
X139050500Y-101973465D01*
X139050500Y-101766535D01*
X139050499Y-101766530D01*
X139489500Y-101766530D01*
X139489500Y-101973469D01*
X139529868Y-102176412D01*
X139529870Y-102176420D01*
X139609058Y-102367596D01*
X139724024Y-102539657D01*
X139870342Y-102685975D01*
X139870345Y-102685977D01*
X140042402Y-102800941D01*
X140233580Y-102880130D01*
X140436530Y-102920499D01*
X140436534Y-102920500D01*
X140436535Y-102920500D01*
X140643466Y-102920500D01*
X140643467Y-102920499D01*
X140846420Y-102880130D01*
X141037598Y-102800941D01*
X141209655Y-102685977D01*
X141355977Y-102539655D01*
X141470941Y-102367598D01*
X141550130Y-102176420D01*
X141590500Y-101973465D01*
X141590500Y-101766535D01*
X141590499Y-101766530D01*
X142029500Y-101766530D01*
X142029500Y-101973469D01*
X142069868Y-102176412D01*
X142069870Y-102176420D01*
X142149058Y-102367596D01*
X142264024Y-102539657D01*
X142410342Y-102685975D01*
X142410345Y-102685977D01*
X142582402Y-102800941D01*
X142773580Y-102880130D01*
X142976530Y-102920499D01*
X142976534Y-102920500D01*
X142976535Y-102920500D01*
X143183466Y-102920500D01*
X143183467Y-102920499D01*
X143386420Y-102880130D01*
X143577598Y-102800941D01*
X143749655Y-102685977D01*
X143895977Y-102539655D01*
X144010941Y-102367598D01*
X144090130Y-102176420D01*
X144130500Y-101973465D01*
X144130500Y-101766535D01*
X144090130Y-101563580D01*
X144010941Y-101372402D01*
X143895977Y-101200345D01*
X143895976Y-101200344D01*
X143895975Y-101200342D01*
X143749657Y-101054024D01*
X143577602Y-100939062D01*
X143577598Y-100939059D01*
X143577593Y-100939057D01*
X143386420Y-100859870D01*
X143386412Y-100859868D01*
X143183469Y-100819500D01*
X143183465Y-100819500D01*
X142976535Y-100819500D01*
X142976530Y-100819500D01*
X142773587Y-100859868D01*
X142773579Y-100859870D01*
X142582403Y-100939058D01*
X142410342Y-101054024D01*
X142264024Y-101200342D01*
X142149058Y-101372403D01*
X142069870Y-101563579D01*
X142069868Y-101563587D01*
X142029500Y-101766530D01*
X141590499Y-101766530D01*
X141550130Y-101563580D01*
X141470941Y-101372402D01*
X141355977Y-101200345D01*
X141355976Y-101200344D01*
X141355975Y-101200342D01*
X141209657Y-101054024D01*
X141037602Y-100939062D01*
X141037598Y-100939059D01*
X141037593Y-100939057D01*
X140846420Y-100859870D01*
X140846412Y-100859868D01*
X140643469Y-100819500D01*
X140643465Y-100819500D01*
X140436535Y-100819500D01*
X140436530Y-100819500D01*
X140233587Y-100859868D01*
X140233579Y-100859870D01*
X140042403Y-100939058D01*
X139870342Y-101054024D01*
X139724024Y-101200342D01*
X139609058Y-101372403D01*
X139529870Y-101563579D01*
X139529868Y-101563587D01*
X139489500Y-101766530D01*
X139050499Y-101766530D01*
X139010130Y-101563580D01*
X138930941Y-101372402D01*
X138815977Y-101200345D01*
X138815976Y-101200344D01*
X138815975Y-101200342D01*
X138669655Y-101054022D01*
X138497604Y-100939062D01*
X138497599Y-100939060D01*
X138497598Y-100939059D01*
X138477045Y-100930545D01*
X138422643Y-100886704D01*
X138400579Y-100820410D01*
X138400500Y-100815985D01*
X138400500Y-100324499D01*
X138420185Y-100257460D01*
X138472989Y-100211705D01*
X138519611Y-100201562D01*
X138519576Y-100200900D01*
X138519571Y-100200854D01*
X138519573Y-100200853D01*
X138519564Y-100200676D01*
X138522857Y-100200499D01*
X138522872Y-100200499D01*
X138582483Y-100194091D01*
X138717331Y-100143796D01*
X138832546Y-100057546D01*
X138918796Y-99942331D01*
X138922960Y-99931165D01*
X138964829Y-99875234D01*
X139030293Y-99850816D01*
X139039141Y-99850500D01*
X139102725Y-99850500D01*
X139102727Y-99850500D01*
X139204588Y-99823207D01*
X139295913Y-99770480D01*
X140479573Y-98586818D01*
X140540896Y-98553334D01*
X140567254Y-98550500D01*
X140572472Y-98550500D01*
X140572475Y-98550500D01*
X140712485Y-98512984D01*
X140838015Y-98440509D01*
X140940509Y-98338015D01*
X141006787Y-98223217D01*
X141057354Y-98175002D01*
X141125961Y-98161779D01*
X141190826Y-98187747D01*
X141201855Y-98197537D01*
X141784788Y-98780470D01*
X141854085Y-98820478D01*
X141854087Y-98820480D01*
X141861342Y-98824668D01*
X141864712Y-98826614D01*
X141953856Y-98850500D01*
X142450500Y-98850500D01*
X142517539Y-98870185D01*
X142563294Y-98922989D01*
X142574500Y-98974500D01*
X142574500Y-99199678D01*
X142589032Y-99272735D01*
X142589033Y-99272739D01*
X142589034Y-99272740D01*
X142644399Y-99355601D01*
X142726425Y-99410408D01*
X142727260Y-99410966D01*
X142727264Y-99410967D01*
X142800321Y-99425499D01*
X142800324Y-99425500D01*
X142800326Y-99425500D01*
X143878456Y-99425500D01*
X143945495Y-99445185D01*
X143966137Y-99461819D01*
X145218141Y-100713823D01*
X145251626Y-100775146D01*
X145246642Y-100844838D01*
X145204770Y-100900771D01*
X145177913Y-100916065D01*
X145122405Y-100939057D01*
X145122395Y-100939062D01*
X144950344Y-101054022D01*
X144804024Y-101200342D01*
X144689058Y-101372403D01*
X144609870Y-101563579D01*
X144609868Y-101563587D01*
X144569500Y-101766530D01*
X144569500Y-101973469D01*
X144609868Y-102176412D01*
X144609870Y-102176420D01*
X144689058Y-102367596D01*
X144804024Y-102539657D01*
X144950342Y-102685975D01*
X144950345Y-102685977D01*
X145122402Y-102800941D01*
X145313580Y-102880130D01*
X145516530Y-102920499D01*
X145516534Y-102920500D01*
X145516535Y-102920500D01*
X145723466Y-102920500D01*
X145723467Y-102920499D01*
X145926420Y-102880130D01*
X146117598Y-102800941D01*
X146289655Y-102685977D01*
X146435977Y-102539655D01*
X146550941Y-102367598D01*
X146630130Y-102176420D01*
X146670500Y-101973465D01*
X146670500Y-101766535D01*
X146630130Y-101563580D01*
X146550941Y-101372402D01*
X146435977Y-101200345D01*
X146435976Y-101200344D01*
X146435975Y-101200342D01*
X146289655Y-101054022D01*
X146117604Y-100939062D01*
X146117598Y-100939059D01*
X146047046Y-100909835D01*
X146031480Y-100897291D01*
X146013297Y-100888987D01*
X146004832Y-100875816D01*
X145992643Y-100865993D01*
X145986330Y-100847025D01*
X145975523Y-100830209D01*
X145971560Y-100802646D01*
X145970579Y-100799699D01*
X145970500Y-100795274D01*
X145970500Y-100672670D01*
X145990185Y-100605631D01*
X146042989Y-100559876D01*
X146064887Y-100553587D01*
X146064624Y-100552603D01*
X146072472Y-100550500D01*
X146072475Y-100550500D01*
X146212485Y-100512984D01*
X146338015Y-100440509D01*
X146440509Y-100338015D01*
X146506787Y-100223217D01*
X146557354Y-100175002D01*
X146625961Y-100161779D01*
X146690826Y-100187747D01*
X146701855Y-100197537D01*
X147436661Y-100932343D01*
X147470146Y-100993666D01*
X147465162Y-101063358D01*
X147436662Y-101107705D01*
X147344023Y-101200344D01*
X147229058Y-101372403D01*
X147149870Y-101563579D01*
X147149868Y-101563587D01*
X147109500Y-101766530D01*
X147109500Y-101973469D01*
X147149868Y-102176412D01*
X147149870Y-102176420D01*
X147229058Y-102367596D01*
X147344024Y-102539657D01*
X147490342Y-102685975D01*
X147490345Y-102685977D01*
X147662402Y-102800941D01*
X147853580Y-102880130D01*
X148056530Y-102920499D01*
X148056534Y-102920500D01*
X148056535Y-102920500D01*
X148263466Y-102920500D01*
X148263467Y-102920499D01*
X148466420Y-102880130D01*
X148657598Y-102800941D01*
X148829655Y-102685977D01*
X148975977Y-102539655D01*
X149090941Y-102367598D01*
X149170130Y-102176420D01*
X149210500Y-101973465D01*
X149210500Y-101766535D01*
X149210499Y-101766530D01*
X149649500Y-101766530D01*
X149649500Y-101973469D01*
X149689868Y-102176412D01*
X149689870Y-102176420D01*
X149769058Y-102367596D01*
X149884024Y-102539657D01*
X150030342Y-102685975D01*
X150030345Y-102685977D01*
X150202402Y-102800941D01*
X150393580Y-102880130D01*
X150596530Y-102920499D01*
X150596534Y-102920500D01*
X150596535Y-102920500D01*
X150803466Y-102920500D01*
X150803467Y-102920499D01*
X151006420Y-102880130D01*
X151197598Y-102800941D01*
X151369655Y-102685977D01*
X151515977Y-102539655D01*
X151630941Y-102367598D01*
X151710130Y-102176420D01*
X151750500Y-101973465D01*
X151750500Y-101766535D01*
X151750499Y-101766530D01*
X152189500Y-101766530D01*
X152189500Y-101973469D01*
X152229868Y-102176412D01*
X152229870Y-102176420D01*
X152309058Y-102367596D01*
X152424024Y-102539657D01*
X152570342Y-102685975D01*
X152570345Y-102685977D01*
X152742402Y-102800941D01*
X152933580Y-102880130D01*
X153136530Y-102920499D01*
X153136534Y-102920500D01*
X153136535Y-102920500D01*
X153343466Y-102920500D01*
X153343467Y-102920499D01*
X153546420Y-102880130D01*
X153737598Y-102800941D01*
X153909655Y-102685977D01*
X154055977Y-102539655D01*
X154170941Y-102367598D01*
X154250130Y-102176420D01*
X154290500Y-101973465D01*
X154290500Y-101766535D01*
X154290499Y-101766530D01*
X154729500Y-101766530D01*
X154729500Y-101973469D01*
X154769868Y-102176412D01*
X154769870Y-102176420D01*
X154849058Y-102367596D01*
X154964024Y-102539657D01*
X155110342Y-102685975D01*
X155110345Y-102685977D01*
X155282402Y-102800941D01*
X155473580Y-102880130D01*
X155676530Y-102920499D01*
X155676534Y-102920500D01*
X155676535Y-102920500D01*
X155883466Y-102920500D01*
X155883467Y-102920499D01*
X156086420Y-102880130D01*
X156277598Y-102800941D01*
X156449655Y-102685977D01*
X156595977Y-102539655D01*
X156710941Y-102367598D01*
X156790130Y-102176420D01*
X156830500Y-101973465D01*
X156830500Y-101766535D01*
X156830499Y-101766530D01*
X157269500Y-101766530D01*
X157269500Y-101973469D01*
X157309868Y-102176412D01*
X157309870Y-102176420D01*
X157389058Y-102367596D01*
X157504024Y-102539657D01*
X157650342Y-102685975D01*
X157650345Y-102685977D01*
X157822402Y-102800941D01*
X158013580Y-102880130D01*
X158216530Y-102920499D01*
X158216534Y-102920500D01*
X158216535Y-102920500D01*
X158423466Y-102920500D01*
X158423467Y-102920499D01*
X158626420Y-102880130D01*
X158817598Y-102800941D01*
X158989655Y-102685977D01*
X159135977Y-102539655D01*
X159250941Y-102367598D01*
X159330130Y-102176420D01*
X159370500Y-101973465D01*
X159370500Y-101766535D01*
X159370499Y-101766530D01*
X159809500Y-101766530D01*
X159809500Y-101973469D01*
X159849868Y-102176412D01*
X159849870Y-102176420D01*
X159929058Y-102367596D01*
X160044024Y-102539657D01*
X160190342Y-102685975D01*
X160190345Y-102685977D01*
X160362402Y-102800941D01*
X160553580Y-102880130D01*
X160756530Y-102920499D01*
X160756534Y-102920500D01*
X160756535Y-102920500D01*
X160963466Y-102920500D01*
X160963467Y-102920499D01*
X161166420Y-102880130D01*
X161357598Y-102800941D01*
X161529655Y-102685977D01*
X161675977Y-102539655D01*
X161790941Y-102367598D01*
X161870130Y-102176420D01*
X161910500Y-101973465D01*
X161910500Y-101766535D01*
X161870130Y-101563580D01*
X161790941Y-101372402D01*
X161675977Y-101200345D01*
X161675976Y-101200344D01*
X161675975Y-101200342D01*
X161529657Y-101054024D01*
X161357602Y-100939062D01*
X161357598Y-100939059D01*
X161357593Y-100939057D01*
X161166420Y-100859870D01*
X161166412Y-100859868D01*
X160963469Y-100819500D01*
X160963465Y-100819500D01*
X160756535Y-100819500D01*
X160756530Y-100819500D01*
X160553587Y-100859868D01*
X160553579Y-100859870D01*
X160362403Y-100939058D01*
X160190342Y-101054024D01*
X160044024Y-101200342D01*
X159929058Y-101372403D01*
X159849870Y-101563579D01*
X159849868Y-101563587D01*
X159809500Y-101766530D01*
X159370499Y-101766530D01*
X159330130Y-101563580D01*
X159250941Y-101372402D01*
X159135977Y-101200345D01*
X159135976Y-101200344D01*
X159135975Y-101200342D01*
X158989657Y-101054024D01*
X158817602Y-100939062D01*
X158817598Y-100939059D01*
X158817593Y-100939057D01*
X158626420Y-100859870D01*
X158626412Y-100859868D01*
X158423469Y-100819500D01*
X158423465Y-100819500D01*
X158216535Y-100819500D01*
X158216530Y-100819500D01*
X158013587Y-100859868D01*
X158013579Y-100859870D01*
X157822403Y-100939058D01*
X157650342Y-101054024D01*
X157504024Y-101200342D01*
X157389058Y-101372403D01*
X157309870Y-101563579D01*
X157309868Y-101563587D01*
X157269500Y-101766530D01*
X156830499Y-101766530D01*
X156790130Y-101563580D01*
X156710941Y-101372402D01*
X156595977Y-101200345D01*
X156595976Y-101200344D01*
X156595975Y-101200342D01*
X156449657Y-101054024D01*
X156277602Y-100939062D01*
X156277598Y-100939059D01*
X156277593Y-100939057D01*
X156086420Y-100859870D01*
X156086412Y-100859868D01*
X155883469Y-100819500D01*
X155883465Y-100819500D01*
X155676535Y-100819500D01*
X155676530Y-100819500D01*
X155473587Y-100859868D01*
X155473579Y-100859870D01*
X155282403Y-100939058D01*
X155110342Y-101054024D01*
X154964024Y-101200342D01*
X154849058Y-101372403D01*
X154769870Y-101563579D01*
X154769868Y-101563587D01*
X154729500Y-101766530D01*
X154290499Y-101766530D01*
X154250130Y-101563580D01*
X154170941Y-101372402D01*
X154055977Y-101200345D01*
X154055976Y-101200344D01*
X154055975Y-101200342D01*
X153909657Y-101054024D01*
X153737602Y-100939062D01*
X153737598Y-100939059D01*
X153737593Y-100939057D01*
X153546420Y-100859870D01*
X153546412Y-100859868D01*
X153343469Y-100819500D01*
X153343465Y-100819500D01*
X153136535Y-100819500D01*
X153136530Y-100819500D01*
X152933587Y-100859868D01*
X152933579Y-100859870D01*
X152742403Y-100939058D01*
X152570342Y-101054024D01*
X152424024Y-101200342D01*
X152309058Y-101372403D01*
X152229870Y-101563579D01*
X152229868Y-101563587D01*
X152189500Y-101766530D01*
X151750499Y-101766530D01*
X151710130Y-101563580D01*
X151630941Y-101372402D01*
X151515977Y-101200345D01*
X151515976Y-101200344D01*
X151515975Y-101200342D01*
X151369657Y-101054024D01*
X151197602Y-100939062D01*
X151197598Y-100939059D01*
X151197593Y-100939057D01*
X151006420Y-100859870D01*
X151006412Y-100859868D01*
X150803469Y-100819500D01*
X150803465Y-100819500D01*
X150596535Y-100819500D01*
X150596530Y-100819500D01*
X150393587Y-100859868D01*
X150393579Y-100859870D01*
X150202403Y-100939058D01*
X150030342Y-101054024D01*
X149884024Y-101200342D01*
X149769058Y-101372403D01*
X149689870Y-101563579D01*
X149689868Y-101563587D01*
X149649500Y-101766530D01*
X149210499Y-101766530D01*
X149170130Y-101563580D01*
X149090941Y-101372402D01*
X148975977Y-101200345D01*
X148975976Y-101200344D01*
X148975975Y-101200342D01*
X148829655Y-101054022D01*
X148657604Y-100939062D01*
X148657598Y-100939059D01*
X148587046Y-100909835D01*
X148532643Y-100865993D01*
X148510579Y-100799699D01*
X148510500Y-100795274D01*
X148510500Y-100536543D01*
X148530185Y-100469504D01*
X148546814Y-100448866D01*
X149569854Y-99425826D01*
X149631175Y-99392343D01*
X149700867Y-99397327D01*
X149726421Y-99410405D01*
X149727260Y-99410966D01*
X149727263Y-99410966D01*
X149727264Y-99410967D01*
X149800321Y-99425499D01*
X149800324Y-99425500D01*
X149800326Y-99425500D01*
X151199676Y-99425500D01*
X151199677Y-99425499D01*
X151272740Y-99410966D01*
X151355601Y-99355601D01*
X151410966Y-99272740D01*
X151425500Y-99199674D01*
X151425500Y-97800326D01*
X151425500Y-97800323D01*
X151425499Y-97800321D01*
X155574500Y-97800321D01*
X155574500Y-99199678D01*
X155589032Y-99272735D01*
X155589033Y-99272739D01*
X155589034Y-99272740D01*
X155644399Y-99355601D01*
X155726425Y-99410408D01*
X155727260Y-99410966D01*
X155727264Y-99410967D01*
X155800321Y-99425499D01*
X155800324Y-99425500D01*
X155800326Y-99425500D01*
X157199676Y-99425500D01*
X157199677Y-99425499D01*
X157272740Y-99410966D01*
X157355601Y-99355601D01*
X157410966Y-99272740D01*
X157425500Y-99199674D01*
X157425500Y-99024500D01*
X157428050Y-99015814D01*
X157426762Y-99006853D01*
X157437740Y-98982812D01*
X157445185Y-98957461D01*
X157452025Y-98951533D01*
X157455787Y-98943297D01*
X157478021Y-98929007D01*
X157497989Y-98911706D01*
X157508503Y-98909418D01*
X157514565Y-98905523D01*
X157549500Y-98900500D01*
X157588237Y-98900500D01*
X157655276Y-98920185D01*
X157691338Y-98955608D01*
X157737370Y-99024500D01*
X157781118Y-99089974D01*
X157910024Y-99218880D01*
X157910032Y-99218886D01*
X158061608Y-99320166D01*
X158061612Y-99320168D01*
X158215100Y-99383744D01*
X158230042Y-99389933D01*
X158230046Y-99389933D01*
X158230047Y-99389934D01*
X158408843Y-99425500D01*
X158408846Y-99425500D01*
X158591156Y-99425500D01*
X158711445Y-99401572D01*
X158769958Y-99389933D01*
X158938389Y-99320167D01*
X158938391Y-99320166D01*
X159087664Y-99220425D01*
X159089972Y-99218883D01*
X159218883Y-99089972D01*
X159308660Y-98955609D01*
X159314751Y-98950518D01*
X159318050Y-98943297D01*
X159341178Y-98928433D01*
X159362273Y-98910804D01*
X159371647Y-98908852D01*
X159376828Y-98905523D01*
X159411763Y-98900500D01*
X159588237Y-98900500D01*
X159655276Y-98920185D01*
X159691338Y-98955608D01*
X159737370Y-99024500D01*
X159781118Y-99089974D01*
X159910024Y-99218880D01*
X159910032Y-99218886D01*
X160061608Y-99320166D01*
X160061612Y-99320168D01*
X160215100Y-99383744D01*
X160230042Y-99389933D01*
X160230046Y-99389933D01*
X160230047Y-99389934D01*
X160408843Y-99425500D01*
X160408846Y-99425500D01*
X160591156Y-99425500D01*
X160711445Y-99401572D01*
X160769958Y-99389933D01*
X160938389Y-99320167D01*
X160938391Y-99320166D01*
X161087664Y-99220425D01*
X161089972Y-99218883D01*
X161218883Y-99089972D01*
X161308660Y-98955609D01*
X161362273Y-98910804D01*
X161411763Y-98900500D01*
X161782745Y-98900500D01*
X161849784Y-98920185D01*
X161870426Y-98936819D01*
X162963181Y-100029574D01*
X162996666Y-100090897D01*
X162999500Y-100117255D01*
X162999500Y-100815985D01*
X162979815Y-100883024D01*
X162927011Y-100928779D01*
X162922954Y-100930546D01*
X162902402Y-100939059D01*
X162902395Y-100939062D01*
X162730344Y-101054022D01*
X162584024Y-101200342D01*
X162469058Y-101372403D01*
X162389870Y-101563579D01*
X162389868Y-101563587D01*
X162349500Y-101766530D01*
X162349500Y-101973469D01*
X162389868Y-102176412D01*
X162389870Y-102176420D01*
X162469058Y-102367596D01*
X162584024Y-102539657D01*
X162730342Y-102685975D01*
X162730345Y-102685977D01*
X162902402Y-102800941D01*
X163093580Y-102880130D01*
X163296530Y-102920499D01*
X163296534Y-102920500D01*
X163296535Y-102920500D01*
X163503466Y-102920500D01*
X163503467Y-102920499D01*
X163706420Y-102880130D01*
X163897598Y-102800941D01*
X164069655Y-102685977D01*
X164215977Y-102539655D01*
X164330941Y-102367598D01*
X164410130Y-102176420D01*
X164450500Y-101973465D01*
X164450500Y-101766535D01*
X164450499Y-101766530D01*
X164889500Y-101766530D01*
X164889500Y-101973469D01*
X164929868Y-102176412D01*
X164929870Y-102176420D01*
X165009058Y-102367596D01*
X165124024Y-102539657D01*
X165270342Y-102685975D01*
X165270345Y-102685977D01*
X165442402Y-102800941D01*
X165633580Y-102880130D01*
X165836530Y-102920499D01*
X165836534Y-102920500D01*
X165836535Y-102920500D01*
X166043466Y-102920500D01*
X166043467Y-102920499D01*
X166246420Y-102880130D01*
X166437598Y-102800941D01*
X166609655Y-102685977D01*
X166755977Y-102539655D01*
X166870941Y-102367598D01*
X166950130Y-102176420D01*
X166990500Y-101973465D01*
X166990500Y-101766535D01*
X166950130Y-101563580D01*
X166870941Y-101372402D01*
X166755977Y-101200345D01*
X166755976Y-101200344D01*
X166755975Y-101200342D01*
X166609657Y-101054024D01*
X166437602Y-100939062D01*
X166437598Y-100939059D01*
X166437593Y-100939057D01*
X166246420Y-100859870D01*
X166246412Y-100859868D01*
X166043469Y-100819500D01*
X166043465Y-100819500D01*
X165836535Y-100819500D01*
X165836530Y-100819500D01*
X165633587Y-100859868D01*
X165633579Y-100859870D01*
X165442403Y-100939058D01*
X165270342Y-101054024D01*
X165124024Y-101200342D01*
X165009058Y-101372403D01*
X164929870Y-101563579D01*
X164929868Y-101563587D01*
X164889500Y-101766530D01*
X164450499Y-101766530D01*
X164410130Y-101563580D01*
X164330941Y-101372402D01*
X164215977Y-101200345D01*
X164215976Y-101200344D01*
X164215975Y-101200342D01*
X164069655Y-101054022D01*
X163897604Y-100939062D01*
X163897595Y-100939057D01*
X163877941Y-100930916D01*
X163823539Y-100887073D01*
X163801476Y-100820778D01*
X163818757Y-100753079D01*
X163837712Y-100728679D01*
X164167682Y-100398708D01*
X164198166Y-100378342D01*
X164197548Y-100377271D01*
X164204585Y-100373207D01*
X164204588Y-100373207D01*
X164295913Y-100320480D01*
X164609743Y-100006648D01*
X164671063Y-99973166D01*
X164710674Y-99971043D01*
X164752127Y-99975500D01*
X165347872Y-99975499D01*
X165407483Y-99969091D01*
X165542331Y-99918796D01*
X165657546Y-99832546D01*
X165743796Y-99717331D01*
X165794091Y-99582483D01*
X165800500Y-99522873D01*
X165800499Y-98477128D01*
X165794091Y-98417517D01*
X165790863Y-98408863D01*
X165743797Y-98282671D01*
X165743793Y-98282664D01*
X165657547Y-98167455D01*
X165657544Y-98167452D01*
X165542335Y-98081206D01*
X165542328Y-98081202D01*
X165407486Y-98030910D01*
X165407485Y-98030909D01*
X165407483Y-98030909D01*
X165347873Y-98024500D01*
X165347863Y-98024500D01*
X164752129Y-98024500D01*
X164752123Y-98024501D01*
X164692516Y-98030908D01*
X164557671Y-98081202D01*
X164557664Y-98081206D01*
X164442455Y-98167452D01*
X164442452Y-98167455D01*
X164356206Y-98282664D01*
X164356202Y-98282671D01*
X164305908Y-98417517D01*
X164299501Y-98477116D01*
X164299501Y-98477123D01*
X164299500Y-98477135D01*
X164299500Y-99132744D01*
X164279815Y-99199783D01*
X164263181Y-99220425D01*
X164012181Y-99471425D01*
X163950858Y-99504910D01*
X163881166Y-99499926D01*
X163825233Y-99458054D01*
X163800816Y-99392590D01*
X163800500Y-99383744D01*
X163800500Y-97847274D01*
X163800500Y-97847273D01*
X163800001Y-97845412D01*
X163787920Y-97800323D01*
X163773208Y-97745413D01*
X163757543Y-97718281D01*
X163720480Y-97654087D01*
X161836819Y-95770426D01*
X161803334Y-95709103D01*
X161800500Y-95682745D01*
X161800500Y-95677527D01*
X161800500Y-95677525D01*
X161762984Y-95537515D01*
X161748820Y-95512982D01*
X161733531Y-95486500D01*
X161717058Y-95418600D01*
X161739911Y-95352573D01*
X161794832Y-95309382D01*
X161840918Y-95300500D01*
X165950500Y-95300500D01*
X166017539Y-95320185D01*
X166063294Y-95372989D01*
X166074500Y-95424500D01*
X166074500Y-95699678D01*
X166089032Y-95772735D01*
X166089033Y-95772739D01*
X166089034Y-95772740D01*
X166144399Y-95855601D01*
X166227260Y-95910966D01*
X166227264Y-95910967D01*
X166300321Y-95925499D01*
X166300324Y-95925500D01*
X166300326Y-95925500D01*
X167699676Y-95925500D01*
X167699677Y-95925499D01*
X167772740Y-95910966D01*
X167855601Y-95855601D01*
X167910966Y-95772740D01*
X167925500Y-95699674D01*
X167925500Y-94300326D01*
X167925500Y-94300323D01*
X167925499Y-94300321D01*
X167910967Y-94227264D01*
X167910966Y-94227260D01*
X167894358Y-94202404D01*
X167855601Y-94144399D01*
X167772740Y-94089034D01*
X167772739Y-94089033D01*
X167772735Y-94089032D01*
X167699677Y-94074500D01*
X167699674Y-94074500D01*
X167447765Y-94074500D01*
X167380726Y-94054815D01*
X167334971Y-94002011D01*
X167325027Y-93932853D01*
X167354052Y-93869297D01*
X167400313Y-93835939D01*
X167438387Y-93820168D01*
X167438391Y-93820166D01*
X167535555Y-93755243D01*
X167589972Y-93718883D01*
X167718883Y-93589972D01*
X167803602Y-93463181D01*
X167820166Y-93438391D01*
X167820168Y-93438387D01*
X167863362Y-93334107D01*
X167889933Y-93269958D01*
X167905215Y-93193132D01*
X167925500Y-93091156D01*
X167925500Y-92908843D01*
X167889934Y-92730047D01*
X167889933Y-92730046D01*
X167889933Y-92730042D01*
X167877844Y-92700856D01*
X167820168Y-92561612D01*
X167820166Y-92561608D01*
X167718886Y-92410032D01*
X167718880Y-92410024D01*
X167589975Y-92281119D01*
X167589967Y-92281113D01*
X167438391Y-92179833D01*
X167438387Y-92179831D01*
X167280808Y-92114561D01*
X167226404Y-92070720D01*
X167204339Y-92004426D01*
X167221618Y-91936727D01*
X167272755Y-91889116D01*
X167280808Y-91885439D01*
X167438387Y-91820168D01*
X167438391Y-91820166D01*
X167549517Y-91745914D01*
X167589972Y-91718883D01*
X167718883Y-91589972D01*
X167807288Y-91457664D01*
X167820166Y-91438391D01*
X167820168Y-91438387D01*
X167847166Y-91373207D01*
X167889933Y-91269958D01*
X167907923Y-91179520D01*
X167925500Y-91091156D01*
X167925500Y-90908843D01*
X167889934Y-90730047D01*
X167889933Y-90730046D01*
X167889933Y-90730042D01*
X167886460Y-90721658D01*
X167820168Y-90561612D01*
X167820166Y-90561608D01*
X167718886Y-90410032D01*
X167718880Y-90410024D01*
X167589975Y-90281119D01*
X167589967Y-90281113D01*
X167438391Y-90179833D01*
X167438387Y-90179831D01*
X167269962Y-90110068D01*
X167269952Y-90110065D01*
X167091156Y-90074500D01*
X167091154Y-90074500D01*
X166908846Y-90074500D01*
X166908844Y-90074500D01*
X166730047Y-90110065D01*
X166730037Y-90110068D01*
X166561612Y-90179831D01*
X166561608Y-90179833D01*
X166410032Y-90281113D01*
X166410024Y-90281119D01*
X166281118Y-90410025D01*
X166191340Y-90544390D01*
X166137727Y-90589196D01*
X166088237Y-90599500D01*
X165447273Y-90599500D01*
X165345413Y-90626793D01*
X165345410Y-90626794D01*
X165297851Y-90654253D01*
X165286948Y-90660548D01*
X165254088Y-90679519D01*
X165254085Y-90679521D01*
X164097415Y-91836191D01*
X164097413Y-91836194D01*
X164044686Y-91927518D01*
X164024406Y-92003207D01*
X164017393Y-92029378D01*
X164017393Y-92282745D01*
X163997708Y-92349784D01*
X163981074Y-92370426D01*
X162888320Y-93463181D01*
X162826997Y-93496666D01*
X162800639Y-93499500D01*
X161041300Y-93499500D01*
X160974261Y-93479815D01*
X160928506Y-93427011D01*
X160918849Y-93359853D01*
X160918583Y-93359825D01*
X160918695Y-93358780D01*
X160918562Y-93357853D01*
X160919099Y-93355019D01*
X160919411Y-93352116D01*
X160919412Y-93352114D01*
X160924926Y-93300827D01*
X160925499Y-93295501D01*
X160925499Y-93295494D01*
X160925500Y-93295485D01*
X160925499Y-92704516D01*
X160919412Y-92647886D01*
X160917886Y-92643796D01*
X160896797Y-92587255D01*
X160871628Y-92519774D01*
X160789687Y-92410313D01*
X160708704Y-92349690D01*
X160680228Y-92328373D01*
X160680226Y-92328372D01*
X160552114Y-92280588D01*
X160552112Y-92280587D01*
X160552110Y-92280587D01*
X160495493Y-92274500D01*
X159954518Y-92274500D01*
X159954509Y-92274501D01*
X159897885Y-92280587D01*
X159769773Y-92328372D01*
X159660313Y-92410313D01*
X159578372Y-92519773D01*
X159574123Y-92527556D01*
X159572753Y-92526808D01*
X159565453Y-92536559D01*
X159556254Y-92556703D01*
X159544921Y-92563985D01*
X159536850Y-92574768D01*
X159516104Y-92582505D01*
X159497476Y-92594477D01*
X159475554Y-92597628D01*
X159471385Y-92599184D01*
X159462541Y-92599500D01*
X159429386Y-92599500D01*
X159362347Y-92579815D01*
X159341705Y-92563181D01*
X159338017Y-92559493D01*
X159338011Y-92559488D01*
X159212488Y-92487017D01*
X159212489Y-92487017D01*
X159201006Y-92483940D01*
X159072475Y-92449500D01*
X158927525Y-92449500D01*
X158798993Y-92483940D01*
X158787511Y-92487017D01*
X158661988Y-92559488D01*
X158661982Y-92559493D01*
X158658295Y-92563181D01*
X158596972Y-92596666D01*
X158570614Y-92599500D01*
X157872273Y-92599500D01*
X157770413Y-92626793D01*
X157770410Y-92626794D01*
X157679090Y-92679517D01*
X157679089Y-92679518D01*
X157370424Y-92988182D01*
X157309101Y-93021666D01*
X157282744Y-93024500D01*
X157150819Y-93024500D01*
X157105243Y-93030500D01*
X157105236Y-93030502D01*
X157005200Y-93077150D01*
X156927150Y-93155200D01*
X156880500Y-93255241D01*
X156874501Y-93300811D01*
X156874500Y-93300827D01*
X156874500Y-93499180D01*
X156880500Y-93544756D01*
X156880503Y-93544766D01*
X156905138Y-93597596D01*
X156915630Y-93666673D01*
X156905139Y-93702403D01*
X156882550Y-93750847D01*
X156880500Y-93755243D01*
X156874501Y-93800811D01*
X156874500Y-93800827D01*
X156874500Y-93999180D01*
X156880500Y-94044756D01*
X156880503Y-94044766D01*
X156905138Y-94097596D01*
X156915630Y-94166673D01*
X156905139Y-94202403D01*
X156882712Y-94250500D01*
X156880500Y-94255243D01*
X156874501Y-94300811D01*
X156874500Y-94300827D01*
X156874500Y-94499180D01*
X156880500Y-94544756D01*
X156880503Y-94544766D01*
X156905138Y-94597596D01*
X156915630Y-94666673D01*
X156905139Y-94702403D01*
X156897153Y-94719531D01*
X156880500Y-94755243D01*
X156874501Y-94800811D01*
X156874500Y-94800827D01*
X156874500Y-94999180D01*
X156880500Y-95044756D01*
X156880502Y-95044763D01*
X156912406Y-95113181D01*
X156927150Y-95144799D01*
X157005201Y-95222850D01*
X157105240Y-95269499D01*
X157150821Y-95275500D01*
X157362642Y-95275499D01*
X157394736Y-95279724D01*
X157406011Y-95282745D01*
X157472273Y-95300500D01*
X160659082Y-95300500D01*
X160726121Y-95320185D01*
X160771876Y-95372989D01*
X160781820Y-95442147D01*
X160766469Y-95486500D01*
X160737017Y-95537511D01*
X160737016Y-95537515D01*
X160699500Y-95677525D01*
X160699500Y-95822475D01*
X160723704Y-95912804D01*
X160737017Y-95962488D01*
X160809488Y-96088011D01*
X160809490Y-96088013D01*
X160809491Y-96088015D01*
X160911985Y-96190509D01*
X160911986Y-96190510D01*
X160911988Y-96190511D01*
X161037511Y-96262982D01*
X161037512Y-96262982D01*
X161037515Y-96262984D01*
X161177525Y-96300500D01*
X161182745Y-96300500D01*
X161249784Y-96320185D01*
X161270426Y-96336819D01*
X162963181Y-98029574D01*
X162996666Y-98090897D01*
X162999500Y-98117255D01*
X162999500Y-98633745D01*
X162979815Y-98700784D01*
X162927011Y-98746539D01*
X162857853Y-98756483D01*
X162794297Y-98727458D01*
X162787819Y-98721426D01*
X162245915Y-98179522D01*
X162245913Y-98179520D01*
X162186437Y-98145181D01*
X162154589Y-98126793D01*
X162103657Y-98113146D01*
X162052727Y-98099500D01*
X162052726Y-98099500D01*
X161411763Y-98099500D01*
X161344724Y-98079815D01*
X161308660Y-98044390D01*
X161304277Y-98037831D01*
X161218883Y-97910028D01*
X161218881Y-97910025D01*
X161089975Y-97781119D01*
X161089967Y-97781113D01*
X160938391Y-97679833D01*
X160938387Y-97679831D01*
X160769962Y-97610068D01*
X160769952Y-97610065D01*
X160591156Y-97574500D01*
X160591154Y-97574500D01*
X160408846Y-97574500D01*
X160408844Y-97574500D01*
X160230047Y-97610065D01*
X160230037Y-97610068D01*
X160061612Y-97679831D01*
X160061608Y-97679833D01*
X159910032Y-97781113D01*
X159910024Y-97781119D01*
X159781118Y-97910025D01*
X159721145Y-97999783D01*
X159697422Y-98035288D01*
X159691340Y-98044390D01*
X159685248Y-98049481D01*
X159681950Y-98056703D01*
X159658821Y-98071566D01*
X159637727Y-98089196D01*
X159628352Y-98091147D01*
X159623172Y-98094477D01*
X159588237Y-98099500D01*
X159411763Y-98099500D01*
X159344724Y-98079815D01*
X159308660Y-98044390D01*
X159304277Y-98037831D01*
X159218883Y-97910028D01*
X159218881Y-97910025D01*
X159089975Y-97781119D01*
X159089967Y-97781113D01*
X158938391Y-97679833D01*
X158938387Y-97679831D01*
X158769962Y-97610068D01*
X158769952Y-97610065D01*
X158591156Y-97574500D01*
X158591154Y-97574500D01*
X158408846Y-97574500D01*
X158408844Y-97574500D01*
X158230047Y-97610065D01*
X158230037Y-97610068D01*
X158061612Y-97679831D01*
X158061608Y-97679833D01*
X157910032Y-97781113D01*
X157910024Y-97781119D01*
X157781118Y-97910025D01*
X157721145Y-97999783D01*
X157697422Y-98035288D01*
X157691340Y-98044390D01*
X157685248Y-98049481D01*
X157681950Y-98056703D01*
X157658821Y-98071566D01*
X157637727Y-98089196D01*
X157628352Y-98091147D01*
X157623172Y-98094477D01*
X157588237Y-98099500D01*
X157549500Y-98099500D01*
X157482461Y-98079815D01*
X157436706Y-98027011D01*
X157425500Y-97975500D01*
X157425500Y-97800323D01*
X157425499Y-97800321D01*
X157410967Y-97727264D01*
X157410966Y-97727260D01*
X157406049Y-97719901D01*
X157355601Y-97644399D01*
X157272740Y-97589034D01*
X157272739Y-97589033D01*
X157272735Y-97589032D01*
X157199677Y-97574500D01*
X157199674Y-97574500D01*
X155800326Y-97574500D01*
X155800323Y-97574500D01*
X155727264Y-97589032D01*
X155727260Y-97589033D01*
X155644399Y-97644399D01*
X155589033Y-97727260D01*
X155589032Y-97727264D01*
X155574500Y-97800321D01*
X151425499Y-97800321D01*
X151410967Y-97727264D01*
X151410966Y-97727260D01*
X151406049Y-97719901D01*
X151355601Y-97644399D01*
X151272740Y-97589034D01*
X151272739Y-97589033D01*
X151272735Y-97589032D01*
X151199677Y-97574500D01*
X151199674Y-97574500D01*
X149800326Y-97574500D01*
X149800323Y-97574500D01*
X149727264Y-97589032D01*
X149727260Y-97589033D01*
X149644399Y-97644399D01*
X149589033Y-97727260D01*
X149589032Y-97727264D01*
X149574500Y-97800321D01*
X149574500Y-98378456D01*
X149554815Y-98445495D01*
X149538181Y-98466137D01*
X147879531Y-100124786D01*
X147879527Y-100124791D01*
X147865507Y-100149076D01*
X147814940Y-100197291D01*
X147746333Y-100210515D01*
X147681468Y-100184547D01*
X147670439Y-100174757D01*
X146697537Y-99201855D01*
X146664052Y-99140532D01*
X146669036Y-99070840D01*
X146710908Y-99014907D01*
X146723218Y-99006787D01*
X146838015Y-98940509D01*
X146940509Y-98838015D01*
X147012984Y-98712485D01*
X147050500Y-98572475D01*
X147050500Y-98496544D01*
X147070185Y-98429505D01*
X147086819Y-98408863D01*
X147608863Y-97886819D01*
X147670186Y-97853334D01*
X147696544Y-97850500D01*
X148046142Y-97850500D01*
X148046144Y-97850500D01*
X148135288Y-97826614D01*
X148215212Y-97780470D01*
X149108863Y-96886819D01*
X149170186Y-96853334D01*
X149196544Y-96850500D01*
X152046142Y-96850500D01*
X152046144Y-96850500D01*
X152135288Y-96826614D01*
X152215212Y-96780470D01*
X153280470Y-95715212D01*
X153326614Y-95635288D01*
X153332538Y-95613181D01*
X153337300Y-95595411D01*
X153348736Y-95552726D01*
X153350500Y-95546144D01*
X153350500Y-94696544D01*
X153370185Y-94629505D01*
X153386819Y-94608863D01*
X153708863Y-94286819D01*
X153735790Y-94272115D01*
X153761609Y-94255523D01*
X153767809Y-94254631D01*
X153770186Y-94253334D01*
X153796544Y-94250500D01*
X153850500Y-94250500D01*
X153917539Y-94270185D01*
X153963294Y-94322989D01*
X153974500Y-94374499D01*
X153974500Y-94499180D01*
X153980500Y-94544756D01*
X153980502Y-94544763D01*
X153987370Y-94559491D01*
X154027150Y-94644799D01*
X154105201Y-94722850D01*
X154205240Y-94769499D01*
X154250821Y-94775500D01*
X154999178Y-94775499D01*
X154999180Y-94775499D01*
X155014372Y-94773499D01*
X155044760Y-94769499D01*
X155144799Y-94722850D01*
X155222850Y-94644799D01*
X155269499Y-94544760D01*
X155275500Y-94499179D01*
X155275499Y-94300822D01*
X155275433Y-94300323D01*
X155269499Y-94255243D01*
X155269499Y-94255240D01*
X155244860Y-94202403D01*
X155234369Y-94133327D01*
X155244858Y-94097601D01*
X155269499Y-94044760D01*
X155275500Y-93999179D01*
X155275499Y-93800822D01*
X155273388Y-93784788D01*
X155269499Y-93755243D01*
X155269499Y-93755240D01*
X155244860Y-93702403D01*
X155234369Y-93633327D01*
X155244858Y-93597601D01*
X155269499Y-93544760D01*
X155275500Y-93499179D01*
X155275499Y-93300822D01*
X155274796Y-93295485D01*
X155271436Y-93269958D01*
X155269499Y-93255240D01*
X155222850Y-93155201D01*
X155144799Y-93077150D01*
X155044760Y-93030501D01*
X155044758Y-93030500D01*
X154999188Y-93024501D01*
X154999185Y-93024500D01*
X154999179Y-93024500D01*
X154999172Y-93024500D01*
X154250819Y-93024500D01*
X154205243Y-93030500D01*
X154205236Y-93030502D01*
X154189411Y-93037882D01*
X154137006Y-93049500D01*
X152553856Y-93049500D01*
X152468111Y-93072475D01*
X152468110Y-93072475D01*
X152464714Y-93073384D01*
X152464713Y-93073385D01*
X152384791Y-93119527D01*
X152384786Y-93119531D01*
X151719531Y-93784786D01*
X151719529Y-93784789D01*
X151679656Y-93853853D01*
X151679654Y-93853855D01*
X151673386Y-93864709D01*
X151673386Y-93864710D01*
X151649500Y-93953856D01*
X151649500Y-95303456D01*
X151629815Y-95370495D01*
X151613181Y-95391137D01*
X151391137Y-95613181D01*
X151329814Y-95646666D01*
X151303456Y-95649500D01*
X148453856Y-95649500D01*
X148364712Y-95673386D01*
X148364709Y-95673387D01*
X148284791Y-95719527D01*
X148284786Y-95719531D01*
X147527914Y-96476402D01*
X147466591Y-96509887D01*
X147396899Y-96504903D01*
X147378231Y-96496107D01*
X147362487Y-96487017D01*
X147362486Y-96487016D01*
X147362485Y-96487016D01*
X147222475Y-96449500D01*
X147077525Y-96449500D01*
X147056592Y-96455108D01*
X147031598Y-96454513D01*
X147006853Y-96458072D01*
X146997272Y-96453696D01*
X146986743Y-96453446D01*
X146966039Y-96439433D01*
X146943297Y-96429047D01*
X146937602Y-96420185D01*
X146928881Y-96414283D01*
X146919039Y-96391302D01*
X146905523Y-96370269D01*
X146903243Y-96354413D01*
X146901377Y-96350055D01*
X146900500Y-96335334D01*
X146900500Y-96204754D01*
X146920185Y-96137715D01*
X146936819Y-96117072D01*
X146938339Y-96115551D01*
X146938342Y-96115550D01*
X147028050Y-96025842D01*
X147085646Y-95912804D01*
X147085646Y-95912802D01*
X147085647Y-95912801D01*
X147096282Y-95845647D01*
X147100500Y-95819019D01*
X147100499Y-94730982D01*
X147085646Y-94637196D01*
X147028050Y-94524158D01*
X147028046Y-94524154D01*
X147028045Y-94524152D01*
X146938347Y-94434454D01*
X146938344Y-94434452D01*
X146938342Y-94434450D01*
X146853336Y-94391137D01*
X146825301Y-94376852D01*
X146731524Y-94362000D01*
X146368482Y-94362000D01*
X146289566Y-94374499D01*
X146274696Y-94376854D01*
X146161658Y-94434450D01*
X146161657Y-94434451D01*
X146153759Y-94440189D01*
X146152775Y-94438834D01*
X146101358Y-94466911D01*
X146031666Y-94461927D01*
X145996750Y-94439487D01*
X145996241Y-94440189D01*
X145988345Y-94434453D01*
X145988342Y-94434450D01*
X145903336Y-94391137D01*
X145875301Y-94376852D01*
X145781524Y-94362000D01*
X145418482Y-94362000D01*
X145339566Y-94374499D01*
X145324696Y-94376854D01*
X145211658Y-94434450D01*
X145211657Y-94434451D01*
X145211652Y-94434454D01*
X145121954Y-94524152D01*
X145121951Y-94524157D01*
X145121950Y-94524158D01*
X145115173Y-94537459D01*
X145064352Y-94637198D01*
X145049500Y-94730975D01*
X145049500Y-95819017D01*
X145057888Y-95871976D01*
X145064354Y-95912804D01*
X145121950Y-96025842D01*
X145211658Y-96115550D01*
X145211660Y-96115551D01*
X145213181Y-96117072D01*
X145246666Y-96178395D01*
X145249500Y-96204754D01*
X145249500Y-96525500D01*
X145229815Y-96592539D01*
X145177011Y-96638294D01*
X145125500Y-96649500D01*
X142869786Y-96649500D01*
X142802747Y-96629815D01*
X142756992Y-96577011D01*
X142747048Y-96507853D01*
X142760114Y-96470099D01*
X142759872Y-96469999D01*
X142761557Y-96465928D01*
X142762397Y-96463504D01*
X142762981Y-96462492D01*
X142762982Y-96462489D01*
X142762982Y-96462487D01*
X142762984Y-96462485D01*
X142800500Y-96322475D01*
X142800500Y-96177525D01*
X142762984Y-96037515D01*
X142758005Y-96028892D01*
X142690511Y-95911988D01*
X142690506Y-95911982D01*
X142686819Y-95908295D01*
X142653334Y-95846972D01*
X142650500Y-95820614D01*
X142650500Y-95467253D01*
X142670185Y-95400214D01*
X142686814Y-95379577D01*
X144235703Y-93830687D01*
X144235708Y-93830684D01*
X144245911Y-93820480D01*
X144245913Y-93820480D01*
X144629573Y-93436818D01*
X144656500Y-93422115D01*
X144682319Y-93405523D01*
X144688519Y-93404631D01*
X144690896Y-93403334D01*
X144717254Y-93400500D01*
X144925501Y-93400500D01*
X144992540Y-93420185D01*
X145038295Y-93472989D01*
X145049501Y-93524500D01*
X145049501Y-93544018D01*
X145064354Y-93637804D01*
X145121950Y-93750842D01*
X145121952Y-93750844D01*
X145121954Y-93750847D01*
X145211652Y-93840545D01*
X145211654Y-93840546D01*
X145211658Y-93840550D01*
X145324694Y-93898145D01*
X145324698Y-93898147D01*
X145418475Y-93912999D01*
X145418481Y-93913000D01*
X145781518Y-93912999D01*
X145875304Y-93898146D01*
X145988342Y-93840550D01*
X146078050Y-93750842D01*
X146135646Y-93637804D01*
X146135646Y-93637802D01*
X146135647Y-93637801D01*
X146149121Y-93552727D01*
X146150500Y-93544019D01*
X146150499Y-92455982D01*
X146135646Y-92362196D01*
X146078050Y-92249158D01*
X146078046Y-92249154D01*
X146078045Y-92249152D01*
X145988347Y-92159454D01*
X145988344Y-92159452D01*
X145988342Y-92159450D01*
X145897450Y-92113138D01*
X145875301Y-92101852D01*
X145781524Y-92087000D01*
X145418482Y-92087000D01*
X145337519Y-92099823D01*
X145324696Y-92101854D01*
X145211658Y-92159450D01*
X145211657Y-92159451D01*
X145211655Y-92159452D01*
X145187179Y-92183928D01*
X145125855Y-92217412D01*
X145056164Y-92212426D01*
X145000231Y-92170554D01*
X144975815Y-92105089D01*
X144975499Y-92096265D01*
X144975499Y-91652128D01*
X144969091Y-91592517D01*
X144954250Y-91552727D01*
X144918797Y-91457671D01*
X144918793Y-91457664D01*
X144832547Y-91342455D01*
X144832544Y-91342452D01*
X144717335Y-91256206D01*
X144717328Y-91256202D01*
X144582482Y-91205908D01*
X144582483Y-91205908D01*
X144522883Y-91199501D01*
X144522881Y-91199500D01*
X144522873Y-91199500D01*
X144522864Y-91199500D01*
X143477129Y-91199500D01*
X143477123Y-91199501D01*
X143417516Y-91205908D01*
X143282671Y-91256202D01*
X143282664Y-91256206D01*
X143167455Y-91342452D01*
X143167452Y-91342455D01*
X143081206Y-91457664D01*
X143081202Y-91457671D01*
X143030910Y-91592513D01*
X143030909Y-91592517D01*
X143024500Y-91652127D01*
X143024500Y-91652134D01*
X143024500Y-91652135D01*
X143024500Y-92247870D01*
X143024501Y-92247876D01*
X143030908Y-92307483D01*
X143081202Y-92442328D01*
X143081206Y-92442335D01*
X143167452Y-92557544D01*
X143167455Y-92557547D01*
X143282664Y-92643793D01*
X143282671Y-92643797D01*
X143417516Y-92694091D01*
X143477113Y-92700499D01*
X143477122Y-92700499D01*
X143477127Y-92700500D01*
X143477131Y-92700499D01*
X143480434Y-92700677D01*
X143480424Y-92700855D01*
X143480431Y-92700856D01*
X143480417Y-92700977D01*
X143480366Y-92701946D01*
X143542478Y-92720144D01*
X143588264Y-92772921D01*
X143599500Y-92824499D01*
X143599500Y-93282745D01*
X143579815Y-93349784D01*
X143563181Y-93370426D01*
X142937180Y-93996426D01*
X142875857Y-94029911D01*
X142806165Y-94024927D01*
X142750232Y-93983055D01*
X142725815Y-93917591D01*
X142725499Y-93908765D01*
X142725499Y-93504516D01*
X142719412Y-93447886D01*
X142719183Y-93447273D01*
X142686566Y-93359825D01*
X142671628Y-93319774D01*
X142589687Y-93210313D01*
X142516064Y-93155200D01*
X142480228Y-93128373D01*
X142480226Y-93128372D01*
X142352114Y-93080588D01*
X142352112Y-93080587D01*
X142352110Y-93080587D01*
X142295493Y-93074500D01*
X141704518Y-93074500D01*
X141704509Y-93074501D01*
X141647885Y-93080587D01*
X141519773Y-93128372D01*
X141410313Y-93210313D01*
X141328373Y-93319771D01*
X141280587Y-93447889D01*
X141274500Y-93504498D01*
X141274500Y-94045481D01*
X141274501Y-94045490D01*
X141280587Y-94102114D01*
X141315809Y-94196544D01*
X141328372Y-94230226D01*
X141407054Y-94335334D01*
X141410314Y-94339688D01*
X141519774Y-94421628D01*
X141527562Y-94425881D01*
X141526813Y-94427252D01*
X141574763Y-94463143D01*
X141599184Y-94528606D01*
X141599500Y-94537459D01*
X141599500Y-94947273D01*
X141599500Y-95052727D01*
X141613146Y-95103657D01*
X141626793Y-95154589D01*
X141653156Y-95200250D01*
X141679520Y-95245913D01*
X141679522Y-95245915D01*
X141813181Y-95379574D01*
X141846666Y-95440897D01*
X141849500Y-95467255D01*
X141849500Y-95820614D01*
X141829815Y-95887653D01*
X141813181Y-95908295D01*
X141809493Y-95911982D01*
X141809488Y-95911988D01*
X141737017Y-96037511D01*
X141737016Y-96037515D01*
X141699500Y-96177525D01*
X141699500Y-96177527D01*
X141699500Y-96322474D01*
X141719307Y-96396396D01*
X141717644Y-96466246D01*
X141678481Y-96524108D01*
X141614252Y-96551612D01*
X141545350Y-96540025D01*
X141511851Y-96516170D01*
X140921181Y-95925500D01*
X140215212Y-95219530D01*
X140215211Y-95219529D01*
X140215208Y-95219527D01*
X140135290Y-95173387D01*
X140135289Y-95173386D01*
X140135288Y-95173386D01*
X140046144Y-95149500D01*
X140046143Y-95149500D01*
X136196544Y-95149500D01*
X136129505Y-95129815D01*
X136108863Y-95113181D01*
X135715213Y-94719531D01*
X135715208Y-94719527D01*
X135635290Y-94673387D01*
X135635289Y-94673386D01*
X135635288Y-94673386D01*
X135546144Y-94649500D01*
X135546143Y-94649500D01*
X135479386Y-94649500D01*
X135412347Y-94629815D01*
X135391705Y-94613181D01*
X135338017Y-94559493D01*
X135338011Y-94559488D01*
X135212488Y-94487017D01*
X135212489Y-94487017D01*
X135201006Y-94483940D01*
X135072475Y-94449500D01*
X134927525Y-94449500D01*
X134798993Y-94483940D01*
X134787511Y-94487017D01*
X134661988Y-94559488D01*
X134661982Y-94559493D01*
X134562181Y-94659295D01*
X134500858Y-94692780D01*
X134431166Y-94687796D01*
X134375233Y-94645924D01*
X134350816Y-94580460D01*
X134350500Y-94571614D01*
X134350500Y-93196543D01*
X134359144Y-93167102D01*
X134365668Y-93137116D01*
X134369422Y-93132100D01*
X134370185Y-93129504D01*
X134386815Y-93108866D01*
X134559700Y-92935980D01*
X134621021Y-92902497D01*
X134657762Y-92900968D01*
X134657811Y-92900235D01*
X134661853Y-92900499D01*
X134661861Y-92900500D01*
X136038138Y-92900499D01*
X136085545Y-92894259D01*
X136189579Y-92845747D01*
X136270747Y-92764579D01*
X136319259Y-92660545D01*
X136325500Y-92613139D01*
X136325499Y-92386862D01*
X136319259Y-92339455D01*
X136301982Y-92302404D01*
X136291490Y-92233326D01*
X136301980Y-92197599D01*
X136319259Y-92160545D01*
X136325500Y-92113139D01*
X136325499Y-91886862D01*
X136319259Y-91839455D01*
X136301982Y-91802404D01*
X136291490Y-91733326D01*
X136301980Y-91697599D01*
X136319259Y-91660545D01*
X136325500Y-91613139D01*
X136325499Y-91386862D01*
X136319259Y-91339455D01*
X136270747Y-91235421D01*
X136189579Y-91154253D01*
X136099785Y-91112381D01*
X136047347Y-91066210D01*
X136028195Y-90999016D01*
X136048411Y-90932135D01*
X136099785Y-90887618D01*
X136189579Y-90845747D01*
X136270747Y-90764579D01*
X136319259Y-90660545D01*
X136325500Y-90613139D01*
X136325499Y-90386862D01*
X136319259Y-90339455D01*
X136270747Y-90235421D01*
X136189579Y-90154253D01*
X136085545Y-90105741D01*
X136085543Y-90105740D01*
X136085544Y-90105740D01*
X136038140Y-90099500D01*
X136038139Y-90099500D01*
X135734033Y-90099500D01*
X135666994Y-90079815D01*
X135621239Y-90027011D01*
X135611295Y-89957853D01*
X135630931Y-89906609D01*
X135665080Y-89855501D01*
X135665080Y-89855500D01*
X135665084Y-89855495D01*
X135721658Y-89718913D01*
X135736459Y-89644505D01*
X135750500Y-89573920D01*
X135750500Y-87426079D01*
X135721659Y-87281092D01*
X135721658Y-87281091D01*
X135721658Y-87281087D01*
X135665084Y-87144505D01*
X135630223Y-87092331D01*
X135630223Y-87092330D01*
X135582950Y-87021581D01*
X132978420Y-84417051D01*
X132886292Y-84355494D01*
X132855495Y-84334916D01*
X132855488Y-84334912D01*
X132718917Y-84278343D01*
X132718907Y-84278340D01*
X132573920Y-84249500D01*
X132573918Y-84249500D01*
X130862229Y-84249500D01*
X130795190Y-84229815D01*
X130774548Y-84213181D01*
X129286819Y-82725451D01*
X129253334Y-82664128D01*
X129250500Y-82637770D01*
X129250500Y-82426079D01*
X129221659Y-82281092D01*
X129221658Y-82281091D01*
X129221658Y-82281087D01*
X129209624Y-82252035D01*
X129165086Y-82144509D01*
X129165085Y-82144507D01*
X129132186Y-82095270D01*
X129132185Y-82095268D01*
X129082956Y-82021589D01*
X129082952Y-82021584D01*
X126786819Y-79725451D01*
X126753334Y-79664128D01*
X126750500Y-79637770D01*
X126750500Y-76637320D01*
X126770185Y-76570281D01*
X126800192Y-76538051D01*
X126807546Y-76532546D01*
X126893796Y-76417331D01*
X126944091Y-76282483D01*
X126950500Y-76222873D01*
X126950499Y-75602128D01*
X126944091Y-75542517D01*
X126911268Y-75454515D01*
X126893797Y-75407671D01*
X126893793Y-75407664D01*
X126807547Y-75292455D01*
X126807544Y-75292452D01*
X126692335Y-75206206D01*
X126692328Y-75206202D01*
X126557482Y-75155908D01*
X126557483Y-75155908D01*
X126497883Y-75149501D01*
X126497881Y-75149500D01*
X126497873Y-75149500D01*
X126497864Y-75149500D01*
X125502129Y-75149500D01*
X125502123Y-75149501D01*
X125442516Y-75155908D01*
X125307671Y-75206202D01*
X125307664Y-75206206D01*
X125192455Y-75292452D01*
X125192452Y-75292455D01*
X125106206Y-75407664D01*
X125106202Y-75407671D01*
X125055910Y-75542513D01*
X125055909Y-75542517D01*
X125049500Y-75602127D01*
X124500500Y-75602127D01*
X124500500Y-73777127D01*
X125049500Y-73777127D01*
X125049500Y-73777134D01*
X125049500Y-73777135D01*
X125049500Y-74397870D01*
X125049501Y-74397876D01*
X125055908Y-74457483D01*
X125106202Y-74592328D01*
X125106206Y-74592335D01*
X125192452Y-74707544D01*
X125192455Y-74707547D01*
X125307664Y-74793793D01*
X125307671Y-74793797D01*
X125442517Y-74844091D01*
X125442516Y-74844091D01*
X125449444Y-74844835D01*
X125502127Y-74850500D01*
X126497872Y-74850499D01*
X126557483Y-74844091D01*
X126692331Y-74793796D01*
X126807546Y-74707546D01*
X126893796Y-74592331D01*
X126944091Y-74457483D01*
X126950500Y-74397873D01*
X126950499Y-73777128D01*
X126944091Y-73717517D01*
X126941965Y-73711818D01*
X126893797Y-73582671D01*
X126893793Y-73582664D01*
X126807548Y-73467457D01*
X126807546Y-73467454D01*
X126807542Y-73467451D01*
X126807540Y-73467449D01*
X126800187Y-73461944D01*
X126758317Y-73406009D01*
X126750500Y-73362679D01*
X126750500Y-66862229D01*
X126770185Y-66795190D01*
X126786819Y-66774548D01*
X130224548Y-63336819D01*
X130285871Y-63303334D01*
X130312229Y-63300500D01*
X134428770Y-63300500D01*
X134445591Y-63305439D01*
X134463126Y-63305354D01*
X134478422Y-63315079D01*
X134495809Y-63320185D01*
X134507288Y-63333432D01*
X134522087Y-63342842D01*
X134529697Y-63359294D01*
X134541564Y-63372989D01*
X134544058Y-63390340D01*
X134551421Y-63406256D01*
X134548928Y-63424209D01*
X134551508Y-63442147D01*
X134544204Y-63458243D01*
X134541814Y-63475462D01*
X134526008Y-63498343D01*
X134522877Y-63505246D01*
X134519800Y-63508831D01*
X134417048Y-63611584D01*
X134369849Y-63682224D01*
X134365710Y-63688417D01*
X134365706Y-63688423D01*
X134334919Y-63734499D01*
X134334912Y-63734511D01*
X134278343Y-63871082D01*
X134278340Y-63871092D01*
X134248311Y-64022057D01*
X134245869Y-64021571D01*
X134223783Y-64076242D01*
X134214236Y-64086965D01*
X134082402Y-64218799D01*
X133971102Y-64371990D01*
X133885135Y-64540707D01*
X133885134Y-64540710D01*
X133847931Y-64655213D01*
X133808494Y-64712888D01*
X133744135Y-64740087D01*
X133675289Y-64728173D01*
X133623813Y-64680929D01*
X133612069Y-64655213D01*
X133574865Y-64540710D01*
X133574864Y-64540707D01*
X133507518Y-64408535D01*
X133488898Y-64371991D01*
X133377597Y-64218798D01*
X133243702Y-64084903D01*
X133090509Y-63973602D01*
X133048631Y-63952264D01*
X132921792Y-63887635D01*
X132921789Y-63887634D01*
X132741704Y-63829122D01*
X132646429Y-63814032D01*
X132554678Y-63799500D01*
X132365322Y-63799500D01*
X132302980Y-63809374D01*
X132178295Y-63829122D01*
X131998210Y-63887634D01*
X131998207Y-63887635D01*
X131829490Y-63973602D01*
X131676295Y-64084905D01*
X131542405Y-64218795D01*
X131431102Y-64371990D01*
X131345135Y-64540707D01*
X131345134Y-64540710D01*
X131286622Y-64720795D01*
X131278085Y-64774696D01*
X131257000Y-64907822D01*
X131257000Y-65192178D01*
X131271811Y-65285690D01*
X131286622Y-65379204D01*
X131345134Y-65559289D01*
X131345135Y-65559292D01*
X131390605Y-65648530D01*
X131431102Y-65728009D01*
X131542403Y-65881202D01*
X131542405Y-65881204D01*
X131673181Y-66011980D01*
X131706666Y-66073303D01*
X131709500Y-66099661D01*
X131709500Y-70543918D01*
X131709500Y-70543920D01*
X131709499Y-70543920D01*
X131738340Y-70688907D01*
X131738343Y-70688917D01*
X131794914Y-70825492D01*
X131823708Y-70868585D01*
X131823709Y-70868588D01*
X131877046Y-70948414D01*
X131877052Y-70948421D01*
X134175681Y-73247048D01*
X134209166Y-73308371D01*
X134212000Y-73334729D01*
X134212000Y-76216863D01*
X134192315Y-76283902D01*
X134187267Y-76291174D01*
X134156204Y-76332668D01*
X134156202Y-76332671D01*
X134105908Y-76467517D01*
X134099501Y-76527116D01*
X134099501Y-76527123D01*
X134099500Y-76527135D01*
X134099500Y-79472870D01*
X134099501Y-79472876D01*
X134105908Y-79532483D01*
X134156202Y-79667327D01*
X134156204Y-79667331D01*
X134187266Y-79708824D01*
X134211684Y-79774288D01*
X134212000Y-79783135D01*
X134212000Y-82622204D01*
X134212000Y-82622206D01*
X134211999Y-82622206D01*
X134240840Y-82767193D01*
X134240843Y-82767203D01*
X134297414Y-82903778D01*
X134312316Y-82926080D01*
X134312317Y-82926083D01*
X134379546Y-83026700D01*
X134379552Y-83026707D01*
X138877395Y-87524549D01*
X138910880Y-87585872D01*
X138913714Y-87612230D01*
X138913714Y-87738132D01*
X138913714Y-87738134D01*
X138913713Y-87738134D01*
X138942554Y-87883121D01*
X138942557Y-87883131D01*
X138985939Y-87987864D01*
X138999130Y-88019709D01*
X139017571Y-88047308D01*
X139026669Y-88060925D01*
X139081263Y-88142632D01*
X139081266Y-88142635D01*
X141098438Y-90159806D01*
X141131923Y-90221129D01*
X141126939Y-90290821D01*
X141098438Y-90335168D01*
X140870426Y-90563181D01*
X140809103Y-90596666D01*
X140782745Y-90599500D01*
X138961867Y-90599500D01*
X138946839Y-90601478D01*
X138914455Y-90605741D01*
X138914453Y-90605742D01*
X138914451Y-90605742D01*
X138810420Y-90654253D01*
X138729253Y-90735420D01*
X138680740Y-90839456D01*
X138674500Y-90886859D01*
X138674500Y-91113132D01*
X138674501Y-91113138D01*
X138680741Y-91160545D01*
X138680742Y-91160547D01*
X138680742Y-91160548D01*
X138715656Y-91235420D01*
X138729253Y-91264579D01*
X138810421Y-91345747D01*
X138900212Y-91387617D01*
X138952652Y-91433789D01*
X138971804Y-91500982D01*
X138951589Y-91567864D01*
X138900214Y-91612380D01*
X138810422Y-91654252D01*
X138810421Y-91654252D01*
X138729253Y-91735420D01*
X138680740Y-91839456D01*
X138674500Y-91886859D01*
X138674500Y-92113132D01*
X138674501Y-92113138D01*
X138680741Y-92160545D01*
X138680742Y-92160547D01*
X138680742Y-92160548D01*
X138714212Y-92232323D01*
X138729253Y-92264579D01*
X138810421Y-92345747D01*
X138914455Y-92394259D01*
X138961861Y-92400500D01*
X140338138Y-92400499D01*
X140385545Y-92394259D01*
X140489579Y-92345747D01*
X140570747Y-92264579D01*
X140619259Y-92160545D01*
X140625500Y-92113139D01*
X140625499Y-91886862D01*
X140619259Y-91839455D01*
X140570747Y-91735421D01*
X140489579Y-91654253D01*
X140489578Y-91654252D01*
X140452327Y-91636882D01*
X140399887Y-91590710D01*
X140380735Y-91523516D01*
X140400951Y-91456635D01*
X140454116Y-91411301D01*
X140504731Y-91400500D01*
X141052725Y-91400500D01*
X141052727Y-91400500D01*
X141154588Y-91373207D01*
X141245913Y-91320480D01*
X141787307Y-90779084D01*
X141848630Y-90745600D01*
X141899180Y-90745149D01*
X141926080Y-90750500D01*
X141926082Y-90750500D01*
X142073919Y-90750500D01*
X142176789Y-90730037D01*
X142218912Y-90721658D01*
X142355494Y-90665084D01*
X142478416Y-90582951D01*
X142582951Y-90478416D01*
X142665084Y-90355494D01*
X142721658Y-90218912D01*
X142734942Y-90152129D01*
X142750500Y-90073919D01*
X142750500Y-89926079D01*
X142721659Y-89781092D01*
X142721658Y-89781091D01*
X142721658Y-89781087D01*
X142711350Y-89756202D01*
X142665087Y-89644511D01*
X142665080Y-89644498D01*
X142582951Y-89521584D01*
X142582948Y-89521580D01*
X140451033Y-87389665D01*
X140437690Y-87365229D01*
X140421536Y-87342547D01*
X140419858Y-87332573D01*
X140417548Y-87328342D01*
X140414855Y-87307891D01*
X140414714Y-87304934D01*
X140414714Y-87176082D01*
X140408433Y-87144505D01*
X140385873Y-87031088D01*
X140338636Y-86917049D01*
X140329298Y-86894505D01*
X140270437Y-86806413D01*
X140247166Y-86771584D01*
X135749319Y-82273737D01*
X135715834Y-82212414D01*
X135713000Y-82186056D01*
X135713000Y-79783135D01*
X135732685Y-79716096D01*
X135737734Y-79708824D01*
X135768796Y-79667331D01*
X135819091Y-79532483D01*
X135825500Y-79472873D01*
X135825499Y-76527128D01*
X135819091Y-76467517D01*
X135814724Y-76455809D01*
X135768797Y-76332671D01*
X135768795Y-76332668D01*
X135737733Y-76291174D01*
X135713316Y-76225709D01*
X135713000Y-76216863D01*
X135713000Y-75300321D01*
X137574500Y-75300321D01*
X137574500Y-76699678D01*
X137589032Y-76772735D01*
X137589033Y-76772739D01*
X137589034Y-76772740D01*
X137644399Y-76855601D01*
X137676149Y-76876815D01*
X137727260Y-76910966D01*
X137727264Y-76910967D01*
X137800321Y-76925499D01*
X137800324Y-76925500D01*
X137800326Y-76925500D01*
X139199676Y-76925500D01*
X139199677Y-76925499D01*
X139272740Y-76910966D01*
X139355601Y-76855601D01*
X139366935Y-76838637D01*
X139389004Y-76805610D01*
X139442616Y-76760804D01*
X139492106Y-76750500D01*
X142137770Y-76750500D01*
X142204809Y-76770185D01*
X142225451Y-76786819D01*
X142501489Y-77062856D01*
X142912707Y-77474074D01*
X142912728Y-77474097D01*
X144412707Y-78974074D01*
X144412728Y-78974097D01*
X152841452Y-87402819D01*
X152874937Y-87464142D01*
X152869953Y-87533834D01*
X152828081Y-87589767D01*
X152762617Y-87614184D01*
X152753771Y-87614500D01*
X151227229Y-87614500D01*
X151160190Y-87594815D01*
X151139548Y-87578181D01*
X144978421Y-81417052D01*
X144978414Y-81417046D01*
X144904729Y-81367812D01*
X144904729Y-81367813D01*
X144855491Y-81334913D01*
X144718917Y-81278343D01*
X144718907Y-81278340D01*
X144573920Y-81249500D01*
X144573918Y-81249500D01*
X143362229Y-81249500D01*
X143295190Y-81229815D01*
X143274548Y-81213181D01*
X142478421Y-80417052D01*
X142478414Y-80417046D01*
X142404729Y-80367812D01*
X142404729Y-80367813D01*
X142355491Y-80334913D01*
X142218917Y-80278343D01*
X142218907Y-80278340D01*
X142073920Y-80249500D01*
X142073918Y-80249500D01*
X139684606Y-80249500D01*
X139617567Y-80229815D01*
X139581504Y-80194390D01*
X139548102Y-80144400D01*
X139465239Y-80089033D01*
X139465235Y-80089032D01*
X139392177Y-80074500D01*
X139392174Y-80074500D01*
X137992826Y-80074500D01*
X137992823Y-80074500D01*
X137919764Y-80089032D01*
X137919760Y-80089033D01*
X137836899Y-80144399D01*
X137781533Y-80227260D01*
X137781532Y-80227264D01*
X137767000Y-80300321D01*
X137767000Y-81699678D01*
X137781532Y-81772735D01*
X137781533Y-81772739D01*
X137781534Y-81772740D01*
X137836899Y-81855601D01*
X137919760Y-81910966D01*
X137919764Y-81910967D01*
X137992821Y-81925499D01*
X137992824Y-81925500D01*
X137992826Y-81925500D01*
X139392176Y-81925500D01*
X139392177Y-81925499D01*
X139465240Y-81910966D01*
X139548101Y-81855601D01*
X139559435Y-81838637D01*
X139581504Y-81805610D01*
X139635116Y-81760804D01*
X139684606Y-81750500D01*
X141637770Y-81750500D01*
X141704809Y-81770185D01*
X141725451Y-81786819D01*
X142100951Y-82162319D01*
X142134436Y-82223642D01*
X142129452Y-82293334D01*
X142100951Y-82337681D01*
X141400451Y-83038181D01*
X141339128Y-83071666D01*
X141312770Y-83074500D01*
X140800323Y-83074500D01*
X140727264Y-83089032D01*
X140727260Y-83089033D01*
X140644399Y-83144399D01*
X140589033Y-83227260D01*
X140589032Y-83227264D01*
X140574500Y-83300321D01*
X140574500Y-84699678D01*
X140589032Y-84772735D01*
X140589033Y-84772739D01*
X140594277Y-84780587D01*
X140644399Y-84855601D01*
X140726283Y-84910313D01*
X140727260Y-84910966D01*
X140727264Y-84910967D01*
X140800321Y-84925499D01*
X140800324Y-84925500D01*
X140800326Y-84925500D01*
X142199676Y-84925500D01*
X142199677Y-84925499D01*
X142272740Y-84910966D01*
X142355601Y-84855601D01*
X142410966Y-84772740D01*
X142425500Y-84699674D01*
X142425500Y-84187229D01*
X142445185Y-84120190D01*
X142461819Y-84099548D01*
X143582948Y-82978419D01*
X143582951Y-82978416D01*
X143665084Y-82855495D01*
X143676867Y-82827047D01*
X143720707Y-82772644D01*
X143787001Y-82750579D01*
X143791428Y-82750500D01*
X144137770Y-82750500D01*
X144204809Y-82770185D01*
X144225451Y-82786819D01*
X147301312Y-85862679D01*
X150282048Y-88843415D01*
X150282049Y-88843416D01*
X150318999Y-88880366D01*
X150350951Y-88912318D01*
X150384435Y-88973642D01*
X150379450Y-89043333D01*
X150350950Y-89087680D01*
X147917052Y-91521578D01*
X147917052Y-91521579D01*
X147917049Y-91521582D01*
X147917048Y-91521584D01*
X147876400Y-91582418D01*
X147834918Y-91644502D01*
X147834914Y-91644509D01*
X147778342Y-91781087D01*
X147778340Y-91781093D01*
X147749500Y-91926080D01*
X147749500Y-91963000D01*
X147729815Y-92030039D01*
X147677011Y-92075794D01*
X147625500Y-92087000D01*
X147318482Y-92087000D01*
X147237519Y-92099823D01*
X147224696Y-92101854D01*
X147111658Y-92159450D01*
X147111657Y-92159451D01*
X147111652Y-92159454D01*
X147021954Y-92249152D01*
X147021951Y-92249157D01*
X147021950Y-92249158D01*
X147002751Y-92286837D01*
X146964352Y-92362198D01*
X146949500Y-92455975D01*
X146949500Y-93544017D01*
X146956778Y-93589967D01*
X146964354Y-93637804D01*
X147021950Y-93750842D01*
X147021952Y-93750844D01*
X147021954Y-93750847D01*
X147111652Y-93840545D01*
X147111654Y-93840546D01*
X147111658Y-93840550D01*
X147224694Y-93898145D01*
X147224698Y-93898147D01*
X147318475Y-93912999D01*
X147318481Y-93913000D01*
X147681518Y-93912999D01*
X147775304Y-93898146D01*
X147888342Y-93840550D01*
X147978050Y-93750842D01*
X148035646Y-93637804D01*
X148035646Y-93637802D01*
X148035647Y-93637801D01*
X148049121Y-93552727D01*
X148050500Y-93544019D01*
X148050499Y-93137963D01*
X148070183Y-93070925D01*
X148086813Y-93050288D01*
X148350283Y-92786819D01*
X148411606Y-92753334D01*
X148437964Y-92750500D01*
X148573919Y-92750500D01*
X148676789Y-92730037D01*
X148718912Y-92721658D01*
X148855494Y-92665084D01*
X148978416Y-92582952D01*
X151139549Y-90421819D01*
X151200872Y-90388334D01*
X151227230Y-90385500D01*
X154598920Y-90385500D01*
X154696462Y-90366096D01*
X154743913Y-90356658D01*
X154880495Y-90300084D01*
X155003416Y-90217951D01*
X155003419Y-90217948D01*
X155020149Y-90201219D01*
X155081472Y-90167734D01*
X155107830Y-90164900D01*
X155551476Y-90164900D01*
X155551477Y-90164899D01*
X155624540Y-90150366D01*
X155707401Y-90095001D01*
X155762766Y-90012140D01*
X155777300Y-89939074D01*
X155777300Y-89330926D01*
X155777300Y-89330923D01*
X155777299Y-89330921D01*
X155762767Y-89257864D01*
X155762766Y-89257860D01*
X155707401Y-89174999D01*
X155624540Y-89119634D01*
X155624539Y-89119633D01*
X155613256Y-89114960D01*
X155614775Y-89111292D01*
X155572603Y-89089233D01*
X155538028Y-89028518D01*
X155541767Y-88958748D01*
X155582633Y-88902076D01*
X155614318Y-88887605D01*
X155613256Y-88885040D01*
X155624538Y-88880366D01*
X155624540Y-88880366D01*
X155707401Y-88825001D01*
X155762766Y-88742140D01*
X155777300Y-88669074D01*
X155777300Y-88060926D01*
X155777300Y-88060925D01*
X155777300Y-88060923D01*
X155777299Y-88060921D01*
X155762767Y-87987864D01*
X155762766Y-87987860D01*
X155707401Y-87904999D01*
X155624540Y-87849634D01*
X155624539Y-87849633D01*
X155613256Y-87844960D01*
X155614775Y-87841292D01*
X155572603Y-87819233D01*
X155538028Y-87758518D01*
X155541767Y-87688748D01*
X155582633Y-87632076D01*
X155614318Y-87617605D01*
X155613256Y-87615040D01*
X155624538Y-87610366D01*
X155624540Y-87610366D01*
X155707401Y-87555001D01*
X155762766Y-87472140D01*
X155777300Y-87399074D01*
X155777300Y-86790926D01*
X155777300Y-86790923D01*
X155777299Y-86790921D01*
X155762767Y-86717864D01*
X155762766Y-86717860D01*
X155707401Y-86634999D01*
X155624540Y-86579634D01*
X155624539Y-86579633D01*
X155624535Y-86579632D01*
X155551477Y-86565100D01*
X155551474Y-86565100D01*
X155107830Y-86565100D01*
X155040791Y-86545415D01*
X155020149Y-86528781D01*
X155003419Y-86512051D01*
X155003415Y-86512048D01*
X154880501Y-86429919D01*
X154880488Y-86429912D01*
X154743917Y-86373343D01*
X154743907Y-86373340D01*
X154598920Y-86344500D01*
X154598918Y-86344500D01*
X153957229Y-86344500D01*
X153890190Y-86324815D01*
X153869548Y-86308181D01*
X145474097Y-77912728D01*
X145474074Y-77912707D01*
X143974097Y-76412728D01*
X143974074Y-76412707D01*
X142974097Y-75412728D01*
X142974074Y-75412707D01*
X140486818Y-72925450D01*
X140453333Y-72864127D01*
X140450499Y-72837769D01*
X140450499Y-72602129D01*
X140450498Y-72602123D01*
X140444091Y-72542516D01*
X140393797Y-72407671D01*
X140393793Y-72407664D01*
X140307547Y-72292455D01*
X140307544Y-72292452D01*
X140192335Y-72206206D01*
X140192328Y-72206202D01*
X140057482Y-72155908D01*
X140057483Y-72155908D01*
X139997883Y-72149501D01*
X139997881Y-72149500D01*
X139997873Y-72149500D01*
X139997864Y-72149500D01*
X139002129Y-72149500D01*
X139002123Y-72149501D01*
X138942516Y-72155908D01*
X138807671Y-72206202D01*
X138807664Y-72206206D01*
X138692455Y-72292452D01*
X138692452Y-72292455D01*
X138606206Y-72407664D01*
X138606202Y-72407671D01*
X138555910Y-72542513D01*
X138555909Y-72542517D01*
X138549500Y-72602127D01*
X138549500Y-72602134D01*
X138549500Y-72602135D01*
X138549500Y-73222870D01*
X138549501Y-73222876D01*
X138555908Y-73282483D01*
X138606202Y-73417328D01*
X138606206Y-73417335D01*
X138692452Y-73532544D01*
X138692454Y-73532546D01*
X138807664Y-73618793D01*
X138807671Y-73618797D01*
X138942516Y-73669091D01*
X138952692Y-73670185D01*
X139002127Y-73675500D01*
X139062768Y-73675499D01*
X139129807Y-73695183D01*
X139150450Y-73711818D01*
X140476451Y-75037819D01*
X140509936Y-75099142D01*
X140504952Y-75168834D01*
X140463080Y-75224767D01*
X140397616Y-75249184D01*
X140388770Y-75249500D01*
X139492106Y-75249500D01*
X139425067Y-75229815D01*
X139389004Y-75194390D01*
X139355602Y-75144400D01*
X139345585Y-75137707D01*
X139314170Y-75116716D01*
X139272739Y-75089033D01*
X139272735Y-75089032D01*
X139199677Y-75074500D01*
X139199674Y-75074500D01*
X137800326Y-75074500D01*
X137800323Y-75074500D01*
X137727264Y-75089032D01*
X137727260Y-75089033D01*
X137644399Y-75144399D01*
X137589033Y-75227260D01*
X137589032Y-75227264D01*
X137574500Y-75300321D01*
X135713000Y-75300321D01*
X135713000Y-73274479D01*
X135720847Y-73235029D01*
X135719890Y-73234739D01*
X135721654Y-73228919D01*
X135721658Y-73228912D01*
X135750500Y-73083917D01*
X135750500Y-72936083D01*
X135750500Y-72936080D01*
X135721659Y-72791093D01*
X135721658Y-72791092D01*
X135721658Y-72791088D01*
X135665084Y-72654506D01*
X135665084Y-72654505D01*
X135599937Y-72557005D01*
X135599102Y-72555756D01*
X135599067Y-72555700D01*
X135582956Y-72531589D01*
X135582955Y-72531588D01*
X135582954Y-72531587D01*
X135582952Y-72531584D01*
X135478416Y-72427048D01*
X135478415Y-72427047D01*
X135474085Y-72422717D01*
X135474074Y-72422707D01*
X133246819Y-70195451D01*
X133213334Y-70134128D01*
X133210500Y-70107770D01*
X133210500Y-66099661D01*
X133230185Y-66032622D01*
X133246819Y-66011980D01*
X133256397Y-66002402D01*
X133377597Y-65881202D01*
X133488898Y-65728009D01*
X133574864Y-65559292D01*
X133612069Y-65444786D01*
X133651506Y-65387111D01*
X133715864Y-65359912D01*
X133784711Y-65371826D01*
X133836187Y-65419070D01*
X133847931Y-65444786D01*
X133885134Y-65559289D01*
X133885135Y-65559292D01*
X133930605Y-65648530D01*
X133971102Y-65728009D01*
X134082403Y-65881202D01*
X134216298Y-66015097D01*
X134369491Y-66126398D01*
X134411375Y-66147739D01*
X134538207Y-66212364D01*
X134538210Y-66212365D01*
X134594333Y-66230600D01*
X134718297Y-66270878D01*
X134905322Y-66300500D01*
X134905323Y-66300500D01*
X135094677Y-66300500D01*
X135094678Y-66300500D01*
X135281703Y-66270878D01*
X135461792Y-66212364D01*
X135630509Y-66126398D01*
X135783702Y-66015097D01*
X135917597Y-65881202D01*
X136028898Y-65728009D01*
X136102515Y-65583527D01*
X136150490Y-65532732D01*
X136218311Y-65515937D01*
X136284446Y-65538475D01*
X136327897Y-65593190D01*
X136337000Y-65639823D01*
X136337000Y-66074678D01*
X136351532Y-66147735D01*
X136351533Y-66147739D01*
X136351534Y-66147740D01*
X136406899Y-66230601D01*
X136489760Y-66285966D01*
X136489764Y-66285967D01*
X136562821Y-66300499D01*
X136562824Y-66300500D01*
X136562826Y-66300500D01*
X136665500Y-66300500D01*
X136732539Y-66320185D01*
X136778294Y-66372989D01*
X136789500Y-66424500D01*
X136789500Y-70113918D01*
X136789500Y-70113920D01*
X136789499Y-70113920D01*
X136818340Y-70258907D01*
X136818343Y-70258917D01*
X136874912Y-70395488D01*
X136874916Y-70395495D01*
X136892902Y-70422413D01*
X136892903Y-70422416D01*
X136957046Y-70518414D01*
X136957052Y-70518421D01*
X138109084Y-71670452D01*
X138109086Y-71670454D01*
X138131922Y-71685711D01*
X138182770Y-71719686D01*
X138232005Y-71752584D01*
X138288580Y-71776018D01*
X138368588Y-71809159D01*
X138484741Y-71832263D01*
X138503968Y-71836087D01*
X138513581Y-71838000D01*
X138513582Y-71838000D01*
X138513583Y-71838000D01*
X138661418Y-71838000D01*
X138903814Y-71838000D01*
X138934667Y-71843566D01*
X138934965Y-71842307D01*
X138942516Y-71844091D01*
X138949444Y-71844835D01*
X139002127Y-71850500D01*
X139997872Y-71850499D01*
X140057483Y-71844091D01*
X140192331Y-71793796D01*
X140307546Y-71707546D01*
X140393796Y-71592331D01*
X140444091Y-71457483D01*
X140450500Y-71397873D01*
X140450499Y-70777128D01*
X140444091Y-70717517D01*
X140433422Y-70688913D01*
X140393797Y-70582671D01*
X140393793Y-70582664D01*
X140307547Y-70467455D01*
X140307544Y-70467452D01*
X140192335Y-70381206D01*
X140192328Y-70381202D01*
X140057482Y-70330908D01*
X140057483Y-70330908D01*
X139997883Y-70324501D01*
X139997881Y-70324500D01*
X139997873Y-70324500D01*
X139997864Y-70324500D01*
X139002129Y-70324500D01*
X139002118Y-70324501D01*
X138956135Y-70329444D01*
X138887376Y-70317036D01*
X138855203Y-70293835D01*
X138326819Y-69765451D01*
X138293334Y-69704128D01*
X138290500Y-69677770D01*
X138290500Y-66424500D01*
X138310185Y-66357461D01*
X138362989Y-66311706D01*
X138414500Y-66300500D01*
X138517176Y-66300500D01*
X138517177Y-66300499D01*
X138590240Y-66285966D01*
X138673101Y-66230601D01*
X138728466Y-66147740D01*
X138743000Y-66074674D01*
X138743000Y-64025326D01*
X138743000Y-64025323D01*
X138742999Y-64025321D01*
X138728467Y-63952264D01*
X138728466Y-63952260D01*
X138725984Y-63948546D01*
X138673101Y-63869399D01*
X138590240Y-63814034D01*
X138590239Y-63814033D01*
X138590235Y-63814032D01*
X138517177Y-63799500D01*
X138517174Y-63799500D01*
X136651230Y-63799500D01*
X136584191Y-63779815D01*
X136538436Y-63727011D01*
X136528492Y-63657853D01*
X136557517Y-63594297D01*
X136563549Y-63587819D01*
X136814549Y-63336819D01*
X136875872Y-63303334D01*
X136902230Y-63300500D01*
X140677770Y-63300500D01*
X140744809Y-63320185D01*
X140765451Y-63336819D01*
X141253181Y-63824548D01*
X141286666Y-63885871D01*
X141289500Y-63912229D01*
X141289500Y-69613918D01*
X141289500Y-69613920D01*
X141289499Y-69613920D01*
X141318340Y-69758907D01*
X141318343Y-69758917D01*
X141374914Y-69895492D01*
X141407812Y-69944727D01*
X141407813Y-69944730D01*
X141457046Y-70018414D01*
X141457052Y-70018421D01*
X143417000Y-71978367D01*
X143450485Y-72039690D01*
X143445501Y-72109381D01*
X143414044Y-72151509D01*
X143416581Y-72154046D01*
X143410307Y-72160318D01*
X143328374Y-72269769D01*
X143328372Y-72269773D01*
X143328372Y-72269774D01*
X143319913Y-72292454D01*
X143280587Y-72397889D01*
X143274500Y-72454498D01*
X143274500Y-72513188D01*
X143272117Y-72537380D01*
X143249500Y-72651079D01*
X143249500Y-72798919D01*
X143272117Y-72912621D01*
X143274500Y-72936811D01*
X143274500Y-72995479D01*
X143274501Y-72995490D01*
X143280587Y-73052114D01*
X143328372Y-73180226D01*
X143410313Y-73289687D01*
X143519774Y-73371628D01*
X143647886Y-73419412D01*
X143669950Y-73421784D01*
X143704501Y-73425499D01*
X143704506Y-73425499D01*
X143704515Y-73425500D01*
X143705315Y-73425499D01*
X143705611Y-73425558D01*
X143707823Y-73425677D01*
X143707813Y-73425855D01*
X143707819Y-73425856D01*
X143707807Y-73425959D01*
X143707805Y-73425995D01*
X143752795Y-73434938D01*
X143781087Y-73446658D01*
X143781089Y-73446658D01*
X143781091Y-73446659D01*
X143926079Y-73475500D01*
X143926082Y-73475500D01*
X144862770Y-73475500D01*
X144929809Y-73495185D01*
X144950451Y-73511819D01*
X146417000Y-74978367D01*
X146450485Y-75039690D01*
X146445501Y-75109382D01*
X146414044Y-75151509D01*
X146416581Y-75154046D01*
X146410307Y-75160318D01*
X146328374Y-75269769D01*
X146328372Y-75269773D01*
X146328372Y-75269774D01*
X146316977Y-75300326D01*
X146280587Y-75397889D01*
X146274500Y-75454498D01*
X146274500Y-75513188D01*
X146272117Y-75537380D01*
X146249500Y-75651079D01*
X146249500Y-75798919D01*
X146272117Y-75912621D01*
X146274500Y-75936811D01*
X146274500Y-75995479D01*
X146274501Y-75995490D01*
X146280587Y-76052114D01*
X146322368Y-76164128D01*
X146328372Y-76180226D01*
X146410313Y-76289687D01*
X146519774Y-76371628D01*
X146647886Y-76419412D01*
X146669950Y-76421784D01*
X146704501Y-76425499D01*
X146704506Y-76425499D01*
X146704515Y-76425500D01*
X146705315Y-76425499D01*
X146705611Y-76425558D01*
X146707823Y-76425677D01*
X146707813Y-76425855D01*
X146707819Y-76425856D01*
X146707807Y-76425959D01*
X146707805Y-76425995D01*
X146752795Y-76434938D01*
X146781087Y-76446658D01*
X146781089Y-76446658D01*
X146781091Y-76446659D01*
X146926079Y-76475500D01*
X146926082Y-76475500D01*
X147862770Y-76475500D01*
X147929809Y-76495185D01*
X147950451Y-76511819D01*
X151417049Y-79978416D01*
X151512551Y-80073918D01*
X151521585Y-80082952D01*
X151644498Y-80165080D01*
X151644511Y-80165087D01*
X151781082Y-80221656D01*
X151781087Y-80221658D01*
X151781091Y-80221658D01*
X151781092Y-80221659D01*
X151926079Y-80250500D01*
X151926082Y-80250500D01*
X153426082Y-80250500D01*
X153869600Y-80250500D01*
X153936639Y-80270185D01*
X153982394Y-80322989D01*
X153993600Y-80374500D01*
X153993600Y-82178978D01*
X154008132Y-82252035D01*
X154008133Y-82252039D01*
X154008134Y-82252040D01*
X154063499Y-82334901D01*
X154146360Y-82390266D01*
X154146364Y-82390267D01*
X154219421Y-82404799D01*
X154219424Y-82404800D01*
X154219426Y-82404800D01*
X156275376Y-82404800D01*
X156275377Y-82404799D01*
X156348440Y-82390266D01*
X156431301Y-82334901D01*
X156486666Y-82252040D01*
X156492315Y-82223642D01*
X156496360Y-82203309D01*
X156528745Y-82141398D01*
X156589460Y-82106824D01*
X156617977Y-82103500D01*
X157382023Y-82103500D01*
X157449062Y-82123185D01*
X157494817Y-82175989D01*
X157503640Y-82203309D01*
X157513332Y-82252035D01*
X157513333Y-82252039D01*
X157513334Y-82252040D01*
X157568699Y-82334901D01*
X157651560Y-82390266D01*
X157651564Y-82390267D01*
X157724621Y-82404799D01*
X157724624Y-82404800D01*
X157724626Y-82404800D01*
X159780576Y-82404800D01*
X159780577Y-82404799D01*
X159853640Y-82390266D01*
X159936501Y-82334901D01*
X159991866Y-82252040D01*
X160006400Y-82178974D01*
X160006400Y-76821026D01*
X160006400Y-76821023D01*
X160006399Y-76821021D01*
X159991867Y-76747964D01*
X159991866Y-76747960D01*
X159990651Y-76746142D01*
X159936501Y-76665099D01*
X159853640Y-76609734D01*
X159853639Y-76609733D01*
X159853635Y-76609732D01*
X159780577Y-76595200D01*
X159780574Y-76595200D01*
X159066508Y-76595200D01*
X158999469Y-76575515D01*
X158978827Y-76558881D01*
X154914674Y-72494727D01*
X154914673Y-72494726D01*
X154914669Y-72494723D01*
X154808127Y-72423535D01*
X154806152Y-72422717D01*
X154689744Y-72374499D01*
X154689738Y-72374497D01*
X154564071Y-72349500D01*
X154564069Y-72349500D01*
X153820808Y-72349500D01*
X153753769Y-72329815D01*
X153733127Y-72313181D01*
X153556834Y-72136888D01*
X153523349Y-72075565D01*
X153528333Y-72005873D01*
X153570205Y-71949940D01*
X153635669Y-71925523D01*
X153687846Y-71933024D01*
X153717517Y-71944091D01*
X153777127Y-71950500D01*
X154397872Y-71950499D01*
X154457483Y-71944091D01*
X154592331Y-71893796D01*
X154707546Y-71807546D01*
X154793796Y-71692331D01*
X154844091Y-71557483D01*
X154850500Y-71497873D01*
X154850499Y-70502128D01*
X154844091Y-70442517D01*
X154836592Y-70422412D01*
X154793797Y-70307671D01*
X154793793Y-70307664D01*
X154707547Y-70192455D01*
X154707544Y-70192452D01*
X154592335Y-70106206D01*
X154592328Y-70106202D01*
X154457482Y-70055908D01*
X154457483Y-70055908D01*
X154397883Y-70049501D01*
X154397881Y-70049500D01*
X154397873Y-70049500D01*
X154397865Y-70049500D01*
X154374500Y-70049500D01*
X154307461Y-70029815D01*
X154261706Y-69977011D01*
X154250500Y-69925500D01*
X154250500Y-69492105D01*
X154270185Y-69425066D01*
X154305609Y-69389003D01*
X154355601Y-69355601D01*
X154410966Y-69272740D01*
X154425500Y-69199674D01*
X154425500Y-67800326D01*
X154425500Y-67800323D01*
X154425499Y-67800321D01*
X154410967Y-67727264D01*
X154410966Y-67727260D01*
X154389003Y-67694390D01*
X154355601Y-67644399D01*
X154272740Y-67589034D01*
X154272739Y-67589033D01*
X154272735Y-67589032D01*
X154199677Y-67574500D01*
X154199674Y-67574500D01*
X152800326Y-67574500D01*
X152800323Y-67574500D01*
X152727264Y-67589032D01*
X152727260Y-67589033D01*
X152644397Y-67644400D01*
X152610996Y-67694390D01*
X152604905Y-67699480D01*
X152601607Y-67706703D01*
X152578476Y-67721567D01*
X152557384Y-67739196D01*
X152548009Y-67741147D01*
X152542829Y-67744477D01*
X152507894Y-67749500D01*
X152399730Y-67749500D01*
X152332691Y-67729815D01*
X152312049Y-67713181D01*
X151586818Y-66987950D01*
X151553333Y-66926627D01*
X151550499Y-66900269D01*
X151550499Y-66768482D01*
X151543294Y-66722989D01*
X151535646Y-66674696D01*
X151478050Y-66561658D01*
X151478045Y-66561653D01*
X151472311Y-66553759D01*
X151473665Y-66552774D01*
X151445590Y-66501368D01*
X151450569Y-66431676D01*
X151473013Y-66396751D01*
X151472311Y-66396241D01*
X151478042Y-66388349D01*
X151478050Y-66388342D01*
X151535646Y-66275304D01*
X151535646Y-66275302D01*
X151535647Y-66275301D01*
X151550499Y-66181524D01*
X151550500Y-66181519D01*
X151550499Y-65824499D01*
X151570183Y-65757461D01*
X151622987Y-65711706D01*
X151674499Y-65700500D01*
X152201365Y-65700500D01*
X152216348Y-65704419D01*
X152229164Y-65703656D01*
X152253348Y-65714097D01*
X152262084Y-65716383D01*
X152266258Y-65718727D01*
X152353692Y-65777148D01*
X152410070Y-65800500D01*
X152472074Y-65826183D01*
X152472078Y-65826183D01*
X152472079Y-65826184D01*
X152597746Y-65851182D01*
X152597749Y-65851182D01*
X152597750Y-65851182D01*
X152725887Y-65851182D01*
X157435931Y-65851182D01*
X157564069Y-65851182D01*
X158379874Y-65851182D01*
X158409317Y-65859827D01*
X158439300Y-65866350D01*
X158444315Y-65870104D01*
X158446913Y-65870867D01*
X158467550Y-65887496D01*
X158588182Y-66008127D01*
X158621666Y-66069448D01*
X158624500Y-66095807D01*
X158624500Y-66904192D01*
X158604815Y-66971231D01*
X158588181Y-66991873D01*
X158566191Y-67013863D01*
X158504868Y-67047348D01*
X158478510Y-67050182D01*
X157935929Y-67050182D01*
X157810261Y-67075179D01*
X157810255Y-67075181D01*
X157691875Y-67124215D01*
X157691866Y-67124220D01*
X157585331Y-67195405D01*
X157585327Y-67195408D01*
X157494726Y-67286009D01*
X157494723Y-67286013D01*
X157423538Y-67392548D01*
X157423533Y-67392557D01*
X157374499Y-67510937D01*
X157374497Y-67510943D01*
X157349500Y-67636610D01*
X157349500Y-72564071D01*
X157367489Y-72654503D01*
X157367489Y-72654504D01*
X157374497Y-72689737D01*
X157374498Y-72689741D01*
X157374499Y-72689744D01*
X157423535Y-72808127D01*
X157493355Y-72912621D01*
X157494726Y-72914673D01*
X157494727Y-72914674D01*
X159494724Y-74914669D01*
X159558422Y-74978367D01*
X159585332Y-75005277D01*
X159691866Y-75076461D01*
X159691875Y-75076466D01*
X159718692Y-75087574D01*
X159810256Y-75125501D01*
X159810260Y-75125501D01*
X159810261Y-75125502D01*
X159935928Y-75150500D01*
X159935931Y-75150500D01*
X161179192Y-75150500D01*
X161246231Y-75170185D01*
X161266873Y-75186819D01*
X162313181Y-76233127D01*
X162346666Y-76294450D01*
X162349500Y-76320808D01*
X162349500Y-80679191D01*
X162329815Y-80746230D01*
X162313181Y-80766872D01*
X158994727Y-84085325D01*
X158994726Y-84085326D01*
X158971431Y-84120190D01*
X158926639Y-84187229D01*
X158924969Y-84189728D01*
X158924959Y-84189743D01*
X158923534Y-84191873D01*
X158874499Y-84310255D01*
X158874497Y-84310261D01*
X158849500Y-84435928D01*
X158849500Y-84823035D01*
X158847117Y-84847227D01*
X158824500Y-84960928D01*
X158824500Y-86441100D01*
X158804815Y-86508139D01*
X158752011Y-86553894D01*
X158700500Y-86565100D01*
X158448523Y-86565100D01*
X158375464Y-86579632D01*
X158375460Y-86579633D01*
X158292599Y-86634999D01*
X158237233Y-86717860D01*
X158237232Y-86717864D01*
X158222700Y-86790921D01*
X158222700Y-87399078D01*
X158237232Y-87472135D01*
X158237233Y-87472139D01*
X158237234Y-87472140D01*
X158292599Y-87555001D01*
X158338802Y-87585872D01*
X158375460Y-87610366D01*
X158386744Y-87615040D01*
X158385225Y-87618706D01*
X158427405Y-87640775D01*
X158461974Y-87701494D01*
X158458228Y-87771263D01*
X158417357Y-87827932D01*
X158385682Y-87842396D01*
X158386744Y-87844960D01*
X158375460Y-87849633D01*
X158292599Y-87904999D01*
X158237233Y-87987860D01*
X158237232Y-87987864D01*
X158222700Y-88060921D01*
X158222700Y-88669078D01*
X158237232Y-88742135D01*
X158237233Y-88742139D01*
X158237234Y-88742140D01*
X158292599Y-88825001D01*
X158375460Y-88880366D01*
X158386744Y-88885040D01*
X158385225Y-88888706D01*
X158427405Y-88910775D01*
X158461974Y-88971494D01*
X158458228Y-89041263D01*
X158417357Y-89097932D01*
X158385682Y-89112396D01*
X158386744Y-89114960D01*
X158375460Y-89119633D01*
X158292599Y-89174999D01*
X158237233Y-89257860D01*
X158237232Y-89257864D01*
X158222700Y-89330921D01*
X158222700Y-89939078D01*
X158237232Y-90012135D01*
X158237233Y-90012139D01*
X158237234Y-90012140D01*
X158292599Y-90095001D01*
X158375460Y-90150366D01*
X158386744Y-90155040D01*
X158385225Y-90158706D01*
X158427405Y-90180775D01*
X158461974Y-90241494D01*
X158458228Y-90311263D01*
X158417357Y-90367932D01*
X158385682Y-90382396D01*
X158386744Y-90384960D01*
X158375460Y-90389633D01*
X158292599Y-90444999D01*
X158237233Y-90527860D01*
X158237232Y-90527864D01*
X158222700Y-90600921D01*
X158222700Y-91209078D01*
X158237232Y-91282135D01*
X158237233Y-91282139D01*
X158237234Y-91282140D01*
X158292599Y-91365001D01*
X158361893Y-91411301D01*
X158375460Y-91420366D01*
X158375464Y-91420367D01*
X158448521Y-91434899D01*
X158448524Y-91434900D01*
X158448526Y-91434900D01*
X160479076Y-91434900D01*
X160479077Y-91434899D01*
X160552140Y-91420366D01*
X160635001Y-91365001D01*
X160690366Y-91282140D01*
X160704900Y-91209074D01*
X160704900Y-90600926D01*
X160704900Y-90600923D01*
X160704899Y-90600921D01*
X160690367Y-90527864D01*
X160690366Y-90527860D01*
X160657329Y-90478416D01*
X160635001Y-90444999D01*
X160552140Y-90389634D01*
X160552139Y-90389633D01*
X160540856Y-90384960D01*
X160542375Y-90381292D01*
X160500203Y-90359233D01*
X160465628Y-90298518D01*
X160469367Y-90228748D01*
X160510233Y-90172076D01*
X160541918Y-90157605D01*
X160540856Y-90155040D01*
X160552138Y-90150366D01*
X160552140Y-90150366D01*
X160635001Y-90095001D01*
X160690366Y-90012140D01*
X160704900Y-89939074D01*
X160704900Y-89330926D01*
X160704900Y-89330923D01*
X160704899Y-89330921D01*
X160690367Y-89257864D01*
X160690366Y-89257860D01*
X160635001Y-89174999D01*
X160552140Y-89119634D01*
X160552139Y-89119633D01*
X160540856Y-89114960D01*
X160542375Y-89111292D01*
X160500203Y-89089233D01*
X160465628Y-89028518D01*
X160469367Y-88958748D01*
X160510233Y-88902076D01*
X160541918Y-88887605D01*
X160540856Y-88885040D01*
X160552138Y-88880366D01*
X160552140Y-88880366D01*
X160635001Y-88825001D01*
X160690366Y-88742140D01*
X160704900Y-88669074D01*
X160704900Y-88060926D01*
X160704900Y-88060925D01*
X160704900Y-88060923D01*
X160704899Y-88060921D01*
X160690367Y-87987864D01*
X160690366Y-87987860D01*
X160635001Y-87904999D01*
X160552140Y-87849634D01*
X160552139Y-87849633D01*
X160540856Y-87844960D01*
X160542375Y-87841292D01*
X160500203Y-87819233D01*
X160465628Y-87758518D01*
X160469367Y-87688748D01*
X160510233Y-87632076D01*
X160541918Y-87617605D01*
X160540856Y-87615040D01*
X160552138Y-87610366D01*
X160552140Y-87610366D01*
X160635001Y-87555001D01*
X160690366Y-87472140D01*
X160704900Y-87399074D01*
X160704900Y-86790926D01*
X160704900Y-86790923D01*
X160704899Y-86790921D01*
X160690367Y-86717864D01*
X160690366Y-86717860D01*
X160635001Y-86634999D01*
X160552140Y-86579634D01*
X160552139Y-86579633D01*
X160552135Y-86579632D01*
X160479077Y-86565100D01*
X160479074Y-86565100D01*
X160249500Y-86565100D01*
X160240814Y-86562549D01*
X160231853Y-86563838D01*
X160207812Y-86552859D01*
X160182461Y-86545415D01*
X160176533Y-86538574D01*
X160168297Y-86534813D01*
X160154007Y-86512578D01*
X160136706Y-86492611D01*
X160134418Y-86482096D01*
X160130523Y-86476035D01*
X160125500Y-86441100D01*
X160125500Y-86296410D01*
X160145185Y-86229371D01*
X160197989Y-86183616D01*
X160267147Y-86173672D01*
X160292833Y-86180228D01*
X160397886Y-86219412D01*
X160454515Y-86225500D01*
X160995484Y-86225499D01*
X161052114Y-86219412D01*
X161180226Y-86171628D01*
X161289687Y-86089687D01*
X161289688Y-86089686D01*
X161295961Y-86083414D01*
X161296401Y-86083854D01*
X161318696Y-86062720D01*
X161404669Y-86005276D01*
X161495276Y-85914669D01*
X161566465Y-85808127D01*
X161615501Y-85689744D01*
X161640500Y-85564069D01*
X161640500Y-85435931D01*
X161640500Y-85435928D01*
X161615502Y-85310261D01*
X161615501Y-85310260D01*
X161615501Y-85310256D01*
X161566465Y-85191873D01*
X161566464Y-85191872D01*
X161566461Y-85191866D01*
X161495276Y-85085331D01*
X161495273Y-85085327D01*
X161404672Y-84994726D01*
X161404668Y-84994723D01*
X161318696Y-84937278D01*
X161296402Y-84916147D01*
X161295962Y-84916588D01*
X161289689Y-84910316D01*
X161289687Y-84910313D01*
X161216576Y-84855583D01*
X161180228Y-84828373D01*
X161180226Y-84828372D01*
X161052114Y-84780588D01*
X161052112Y-84780587D01*
X161052110Y-84780587D01*
X160995493Y-84774500D01*
X160454518Y-84774500D01*
X160451194Y-84774679D01*
X160451110Y-84773118D01*
X160388369Y-84761469D01*
X160337475Y-84713599D01*
X160320541Y-84645812D01*
X160342943Y-84579631D01*
X160356751Y-84563194D01*
X163505276Y-81414670D01*
X163540870Y-81361398D01*
X163576464Y-81308129D01*
X163600749Y-81249500D01*
X163625501Y-81189744D01*
X163650500Y-81064069D01*
X163650500Y-75935931D01*
X163650500Y-75935928D01*
X163625502Y-75810261D01*
X163625501Y-75810260D01*
X163625501Y-75810256D01*
X163576465Y-75691873D01*
X163549210Y-75651083D01*
X163505276Y-75585330D01*
X163505274Y-75585328D01*
X163505272Y-75585325D01*
X161914673Y-73994726D01*
X161914669Y-73994723D01*
X161808127Y-73923535D01*
X161689744Y-73874499D01*
X161689738Y-73874497D01*
X161564071Y-73849500D01*
X161564069Y-73849500D01*
X160320807Y-73849500D01*
X160253768Y-73829815D01*
X160233126Y-73813181D01*
X158686819Y-72266873D01*
X158653334Y-72205550D01*
X158650500Y-72179192D01*
X158650500Y-68489344D01*
X158670185Y-68422305D01*
X158722989Y-68376550D01*
X158792147Y-68366606D01*
X158855703Y-68395631D01*
X158874816Y-68416457D01*
X158950828Y-68521078D01*
X159103922Y-68674172D01*
X159279081Y-68801433D01*
X159338797Y-68831860D01*
X159471990Y-68899726D01*
X159471993Y-68899727D01*
X159574947Y-68933178D01*
X159677903Y-68966630D01*
X159891746Y-69000500D01*
X159891747Y-69000500D01*
X160108253Y-69000500D01*
X160108254Y-69000500D01*
X160322097Y-68966630D01*
X160528009Y-68899726D01*
X160645923Y-68839644D01*
X160678017Y-68828515D01*
X160689744Y-68826183D01*
X160808127Y-68777147D01*
X160914669Y-68705958D01*
X161005276Y-68615351D01*
X161076465Y-68508809D01*
X161095224Y-68463519D01*
X161109459Y-68438099D01*
X161176433Y-68345919D01*
X161274726Y-68153009D01*
X161341630Y-67947097D01*
X161375500Y-67733254D01*
X161375500Y-66396530D01*
X167949500Y-66396530D01*
X167949500Y-66603469D01*
X167989868Y-66806412D01*
X167989870Y-66806420D01*
X168069058Y-66997596D01*
X168184024Y-67169657D01*
X168330342Y-67315975D01*
X168330345Y-67315977D01*
X168502402Y-67430941D01*
X168693580Y-67510130D01*
X168896530Y-67550499D01*
X168896534Y-67550500D01*
X168896535Y-67550500D01*
X169103466Y-67550500D01*
X169103467Y-67550499D01*
X169306420Y-67510130D01*
X169497598Y-67430941D01*
X169669655Y-67315977D01*
X169815977Y-67169655D01*
X169930941Y-66997598D01*
X170010130Y-66806420D01*
X170050500Y-66603465D01*
X170050500Y-66396535D01*
X170010130Y-66193580D01*
X169930941Y-66002402D01*
X169815977Y-65830345D01*
X169815975Y-65830342D01*
X169669657Y-65684024D01*
X169561343Y-65611652D01*
X169497598Y-65569059D01*
X169474011Y-65559289D01*
X169306420Y-65489870D01*
X169306412Y-65489868D01*
X169103469Y-65449500D01*
X169103465Y-65449500D01*
X168896535Y-65449500D01*
X168896530Y-65449500D01*
X168693587Y-65489868D01*
X168693579Y-65489870D01*
X168502403Y-65569058D01*
X168330342Y-65684024D01*
X168184024Y-65830342D01*
X168069058Y-66002403D01*
X167989870Y-66193579D01*
X167989868Y-66193587D01*
X167949500Y-66396530D01*
X161375500Y-66396530D01*
X161375500Y-65266746D01*
X161341630Y-65052903D01*
X161294491Y-64907822D01*
X161274727Y-64846993D01*
X161274726Y-64846990D01*
X161210427Y-64720797D01*
X161176433Y-64654081D01*
X161049172Y-64478922D01*
X160896078Y-64325828D01*
X160720919Y-64198567D01*
X160683082Y-64179288D01*
X160528009Y-64100273D01*
X160528006Y-64100272D01*
X160322098Y-64033370D01*
X160212947Y-64016082D01*
X160108254Y-63999500D01*
X159891746Y-63999500D01*
X159820465Y-64010790D01*
X159677901Y-64033370D01*
X159471993Y-64100272D01*
X159471990Y-64100273D01*
X159279080Y-64198567D01*
X159179145Y-64271174D01*
X159103922Y-64325828D01*
X159103920Y-64325830D01*
X159103919Y-64325830D01*
X158950825Y-64478924D01*
X158928751Y-64509307D01*
X158873421Y-64551972D01*
X158804243Y-64558037D01*
X158764754Y-64550182D01*
X158764751Y-64550182D01*
X158315103Y-64550182D01*
X158248064Y-64530497D01*
X158202309Y-64477693D01*
X158192365Y-64408535D01*
X158221390Y-64344979D01*
X158240792Y-64326916D01*
X158300240Y-64282412D01*
X158332546Y-64258228D01*
X158418796Y-64143013D01*
X158469091Y-64008165D01*
X158475500Y-63948555D01*
X158475499Y-63352810D01*
X158469091Y-63293199D01*
X158432470Y-63195014D01*
X158418797Y-63158353D01*
X158418793Y-63158346D01*
X158332547Y-63043137D01*
X158332544Y-63043134D01*
X158217335Y-62956888D01*
X158217328Y-62956884D01*
X158082482Y-62906590D01*
X158082483Y-62906590D01*
X158022883Y-62900183D01*
X158022881Y-62900182D01*
X158022873Y-62900182D01*
X158022864Y-62900182D01*
X156977129Y-62900182D01*
X156977123Y-62900183D01*
X156917516Y-62906590D01*
X156782671Y-62956884D01*
X156782664Y-62956888D01*
X156667455Y-63043134D01*
X156667452Y-63043137D01*
X156581206Y-63158346D01*
X156581202Y-63158353D01*
X156530910Y-63293195D01*
X156530909Y-63293199D01*
X156524500Y-63352809D01*
X156524500Y-63352816D01*
X156524500Y-63352817D01*
X156524500Y-63948552D01*
X156524501Y-63948558D01*
X156530908Y-64008165D01*
X156581202Y-64143010D01*
X156581206Y-64143017D01*
X156667452Y-64258226D01*
X156667455Y-64258229D01*
X156759208Y-64326916D01*
X156801079Y-64382850D01*
X156806063Y-64452541D01*
X156772577Y-64513864D01*
X156711254Y-64547348D01*
X156684897Y-64550182D01*
X152971589Y-64550182D01*
X152904550Y-64530497D01*
X152902699Y-64529284D01*
X152819265Y-64473535D01*
X152700880Y-64424499D01*
X152700874Y-64424497D01*
X152575207Y-64399500D01*
X152575205Y-64399500D01*
X151412000Y-64399500D01*
X151344961Y-64379815D01*
X151299206Y-64327011D01*
X151288000Y-64275500D01*
X151288000Y-64123428D01*
X151263002Y-63997761D01*
X151263001Y-63997760D01*
X151263001Y-63997756D01*
X151213965Y-63879373D01*
X151208430Y-63871089D01*
X151208429Y-63871088D01*
X151208428Y-63871087D01*
X151142774Y-63772827D01*
X149736818Y-62366871D01*
X149703333Y-62305548D01*
X149700499Y-62279190D01*
X149700499Y-61977129D01*
X149700498Y-61977123D01*
X149700497Y-61977116D01*
X149694091Y-61917517D01*
X149681931Y-61884915D01*
X149643797Y-61782671D01*
X149643793Y-61782664D01*
X149557547Y-61667455D01*
X149557544Y-61667452D01*
X149442335Y-61581206D01*
X149442328Y-61581202D01*
X149307486Y-61530910D01*
X149307485Y-61530909D01*
X149307483Y-61530909D01*
X149247873Y-61524500D01*
X149247863Y-61524500D01*
X148652129Y-61524500D01*
X148652123Y-61524501D01*
X148592516Y-61530908D01*
X148457671Y-61581202D01*
X148457664Y-61581206D01*
X148342455Y-61667452D01*
X148342452Y-61667455D01*
X148256206Y-61782664D01*
X148256202Y-61782671D01*
X148205909Y-61917516D01*
X148205908Y-61917516D01*
X148200583Y-61967050D01*
X148199501Y-61977123D01*
X148199500Y-61977135D01*
X148199500Y-63022870D01*
X148199501Y-63022876D01*
X148205908Y-63082483D01*
X148256202Y-63217328D01*
X148256206Y-63217335D01*
X148342452Y-63332544D01*
X148342455Y-63332547D01*
X148457664Y-63418793D01*
X148457671Y-63418797D01*
X148472182Y-63424209D01*
X148592517Y-63469091D01*
X148652127Y-63475500D01*
X148954191Y-63475499D01*
X149021230Y-63495183D01*
X149041872Y-63511818D01*
X149908723Y-64378669D01*
X149942208Y-64439992D01*
X149937224Y-64509684D01*
X149895352Y-64565617D01*
X149893927Y-64566668D01*
X149886657Y-64571949D01*
X149796954Y-64661652D01*
X149796951Y-64661657D01*
X149739352Y-64774698D01*
X149724500Y-64868475D01*
X149724500Y-65231517D01*
X149730080Y-65266746D01*
X149739354Y-65325304D01*
X149796950Y-65438342D01*
X149796953Y-65438345D01*
X149802689Y-65446241D01*
X149801334Y-65447224D01*
X149829411Y-65498642D01*
X149824427Y-65568334D01*
X149801987Y-65603249D01*
X149802689Y-65603759D01*
X149796951Y-65611657D01*
X149739352Y-65724698D01*
X149724500Y-65818475D01*
X149724500Y-66181517D01*
X149726411Y-66193580D01*
X149739354Y-66275304D01*
X149796950Y-66388342D01*
X149796953Y-66388345D01*
X149802689Y-66396241D01*
X149801334Y-66397224D01*
X149829411Y-66448642D01*
X149824427Y-66518334D01*
X149801987Y-66553249D01*
X149802689Y-66553759D01*
X149796951Y-66561657D01*
X149796950Y-66561658D01*
X149784888Y-66585331D01*
X149739352Y-66674698D01*
X149724500Y-66768475D01*
X149724500Y-67131517D01*
X149730541Y-67169657D01*
X149739354Y-67225304D01*
X149796950Y-67338342D01*
X149796952Y-67338344D01*
X149796954Y-67338347D01*
X149886652Y-67428045D01*
X149886661Y-67428052D01*
X149960048Y-67465445D01*
X150006855Y-67507038D01*
X150054549Y-67578418D01*
X150054552Y-67578421D01*
X151559084Y-69082952D01*
X151559086Y-69082954D01*
X151584556Y-69099971D01*
X151622765Y-69125501D01*
X151682005Y-69165084D01*
X151682007Y-69165085D01*
X151682011Y-69165087D01*
X151818582Y-69221656D01*
X151818587Y-69221658D01*
X151818591Y-69221658D01*
X151818592Y-69221659D01*
X151963579Y-69250500D01*
X151963582Y-69250500D01*
X151963583Y-69250500D01*
X152111417Y-69250500D01*
X152507894Y-69250500D01*
X152574933Y-69270185D01*
X152595575Y-69286818D01*
X152604210Y-69295453D01*
X152644399Y-69355601D01*
X152704549Y-69395791D01*
X152713181Y-69404423D01*
X152724307Y-69424800D01*
X152739195Y-69442613D01*
X152742375Y-69457888D01*
X152746666Y-69465746D01*
X152745987Y-69475234D01*
X152749500Y-69492105D01*
X152749500Y-70486418D01*
X152749500Y-70486420D01*
X152749499Y-70486420D01*
X152778340Y-70631407D01*
X152778343Y-70631417D01*
X152834914Y-70767992D01*
X152834915Y-70767994D01*
X152834916Y-70767995D01*
X152841018Y-70777128D01*
X152867812Y-70817227D01*
X152867813Y-70817230D01*
X152917046Y-70890914D01*
X152917052Y-70890921D01*
X153288181Y-71262049D01*
X153321666Y-71323372D01*
X153324500Y-71349729D01*
X153324500Y-71497869D01*
X153324501Y-71497876D01*
X153330908Y-71557483D01*
X153341974Y-71587150D01*
X153346958Y-71656841D01*
X153313473Y-71718164D01*
X153252150Y-71751649D01*
X153182458Y-71746665D01*
X153138111Y-71718164D01*
X150914673Y-69494726D01*
X150914669Y-69494723D01*
X150808127Y-69423535D01*
X150786732Y-69414673D01*
X150689744Y-69374499D01*
X150689738Y-69374497D01*
X150564071Y-69349500D01*
X150564069Y-69349500D01*
X145183308Y-69349500D01*
X145116269Y-69329815D01*
X145095627Y-69313181D01*
X144549319Y-68766873D01*
X144515834Y-68705550D01*
X144513000Y-68679192D01*
X144513000Y-67320808D01*
X144532685Y-67253769D01*
X144549319Y-67233127D01*
X144870627Y-66911819D01*
X144931950Y-66878334D01*
X144958308Y-66875500D01*
X145370282Y-66875500D01*
X145375903Y-66876513D01*
X145379115Y-66875815D01*
X145413601Y-66883312D01*
X145414945Y-66883813D01*
X145470882Y-66925679D01*
X145495306Y-66991140D01*
X145480462Y-67059415D01*
X145431062Y-67108826D01*
X145414958Y-67116181D01*
X145382273Y-67128372D01*
X145272813Y-67210313D01*
X145190873Y-67319771D01*
X145172573Y-67368834D01*
X145150489Y-67428045D01*
X145143087Y-67447889D01*
X145137000Y-67504498D01*
X145137000Y-68045481D01*
X145137001Y-68045490D01*
X145143087Y-68102114D01*
X145162071Y-68153009D01*
X145190872Y-68230226D01*
X145272813Y-68339687D01*
X145382274Y-68421628D01*
X145510386Y-68469412D01*
X145567015Y-68475500D01*
X145776862Y-68475499D01*
X145792349Y-68479648D01*
X145806090Y-68478993D01*
X145838855Y-68492107D01*
X145843383Y-68494721D01*
X145843387Y-68494724D01*
X145875009Y-68512981D01*
X145875010Y-68512982D01*
X145875012Y-68512982D01*
X145875015Y-68512984D01*
X146015025Y-68550500D01*
X146015026Y-68550500D01*
X146015028Y-68550500D01*
X147384972Y-68550500D01*
X147384974Y-68550500D01*
X147384975Y-68550500D01*
X147524985Y-68512984D01*
X147556613Y-68494723D01*
X147556615Y-68494723D01*
X147650508Y-68440514D01*
X147650507Y-68440514D01*
X147650515Y-68440510D01*
X148554206Y-67536817D01*
X148615529Y-67503333D01*
X148641887Y-67500499D01*
X148906517Y-67500499D01*
X148906518Y-67500499D01*
X149000304Y-67485646D01*
X149113342Y-67428050D01*
X149203050Y-67338342D01*
X149260646Y-67225304D01*
X149260646Y-67225302D01*
X149260647Y-67225301D01*
X149275499Y-67131524D01*
X149275500Y-67131519D01*
X149275499Y-66768482D01*
X149260646Y-66674696D01*
X149203050Y-66561658D01*
X149203045Y-66561653D01*
X149197311Y-66553759D01*
X149198665Y-66552774D01*
X149170590Y-66501368D01*
X149175569Y-66431676D01*
X149198013Y-66396751D01*
X149197311Y-66396241D01*
X149203042Y-66388349D01*
X149203050Y-66388342D01*
X149260646Y-66275304D01*
X149260646Y-66275302D01*
X149260647Y-66275301D01*
X149275499Y-66181524D01*
X149275500Y-66181519D01*
X149275499Y-65818482D01*
X149260646Y-65724696D01*
X149203050Y-65611658D01*
X149203046Y-65611654D01*
X149203045Y-65611652D01*
X149113347Y-65521954D01*
X149113344Y-65521952D01*
X149113342Y-65521950D01*
X149036517Y-65482805D01*
X149000301Y-65464352D01*
X148906524Y-65449500D01*
X148906519Y-65449500D01*
X148747101Y-65449500D01*
X148680062Y-65429815D01*
X148678247Y-65428626D01*
X148670627Y-65423535D01*
X148670624Y-65423533D01*
X148670623Y-65423533D01*
X148552244Y-65374499D01*
X148552238Y-65374497D01*
X148426571Y-65349500D01*
X148426569Y-65349500D01*
X146023431Y-65349500D01*
X146023429Y-65349500D01*
X145897761Y-65374497D01*
X145897755Y-65374499D01*
X145779374Y-65423534D01*
X145672827Y-65494725D01*
X145670835Y-65496360D01*
X145669145Y-65497185D01*
X145667766Y-65498107D01*
X145667641Y-65497920D01*
X145619436Y-65521467D01*
X145605973Y-65524500D01*
X145567016Y-65524501D01*
X145510386Y-65530588D01*
X145405741Y-65569618D01*
X145397540Y-65571467D01*
X145389830Y-65570973D01*
X145370282Y-65574500D01*
X144573429Y-65574500D01*
X144447761Y-65599497D01*
X144447757Y-65599498D01*
X144418402Y-65611658D01*
X144418401Y-65611658D01*
X144329381Y-65648530D01*
X144329363Y-65648540D01*
X144222832Y-65719721D01*
X144222825Y-65719727D01*
X143357224Y-66585328D01*
X143297512Y-66674694D01*
X143297513Y-66674695D01*
X143286033Y-66691875D01*
X143236999Y-66810255D01*
X143236997Y-66810261D01*
X143212000Y-66935928D01*
X143212000Y-66935931D01*
X143212000Y-69064069D01*
X143224219Y-69125498D01*
X143224220Y-69125500D01*
X143224220Y-69125502D01*
X143232093Y-69165084D01*
X143236999Y-69189744D01*
X143286035Y-69308127D01*
X143330383Y-69374499D01*
X143357226Y-69414673D01*
X144447825Y-70505272D01*
X144447832Y-70505278D01*
X144505662Y-70543918D01*
X144554374Y-70576466D01*
X144623721Y-70605189D01*
X144672756Y-70625501D01*
X144672759Y-70625501D01*
X144672760Y-70625502D01*
X144798428Y-70650500D01*
X144798431Y-70650500D01*
X150179192Y-70650500D01*
X150246231Y-70670185D01*
X150266873Y-70686819D01*
X153085333Y-73505279D01*
X153095122Y-73511819D01*
X153126143Y-73532546D01*
X153191873Y-73576465D01*
X153310256Y-73625501D01*
X153310260Y-73625501D01*
X153310261Y-73625502D01*
X153435928Y-73650500D01*
X153435931Y-73650500D01*
X154179192Y-73650500D01*
X154246231Y-73670185D01*
X154266873Y-73686819D01*
X157264873Y-76684819D01*
X157298358Y-76746142D01*
X157293374Y-76815834D01*
X157251502Y-76871767D01*
X157186038Y-76896184D01*
X157177192Y-76896500D01*
X156617977Y-76896500D01*
X156550938Y-76876815D01*
X156505183Y-76824011D01*
X156496360Y-76796691D01*
X156486667Y-76747964D01*
X156486666Y-76747960D01*
X156485451Y-76746142D01*
X156431301Y-76665099D01*
X156348440Y-76609734D01*
X156348439Y-76609733D01*
X156348435Y-76609732D01*
X156275377Y-76595200D01*
X156275374Y-76595200D01*
X154219426Y-76595200D01*
X154219423Y-76595200D01*
X154146364Y-76609732D01*
X154146360Y-76609733D01*
X154063499Y-76665099D01*
X154008133Y-76747960D01*
X154008132Y-76747964D01*
X153993600Y-76821021D01*
X153993600Y-78132870D01*
X153973915Y-78199909D01*
X153921111Y-78245664D01*
X153851953Y-78255608D01*
X153788397Y-78226583D01*
X153781919Y-78220551D01*
X151786819Y-76225451D01*
X151753334Y-76164128D01*
X151750500Y-76137770D01*
X151750500Y-75492105D01*
X151770185Y-75425066D01*
X151805609Y-75389003D01*
X151855601Y-75355601D01*
X151910966Y-75272740D01*
X151925500Y-75199674D01*
X151925500Y-73800326D01*
X151925500Y-73800323D01*
X151925499Y-73800321D01*
X151910967Y-73727264D01*
X151910966Y-73727260D01*
X151889533Y-73695183D01*
X151855601Y-73644399D01*
X151772740Y-73589034D01*
X151772739Y-73589033D01*
X151772735Y-73589032D01*
X151699677Y-73574500D01*
X151699674Y-73574500D01*
X150300326Y-73574500D01*
X150300323Y-73574500D01*
X150227264Y-73589032D01*
X150227260Y-73589033D01*
X150144399Y-73644399D01*
X150089033Y-73727260D01*
X150089032Y-73727264D01*
X150074500Y-73800321D01*
X150074500Y-75199678D01*
X150089032Y-75272735D01*
X150089033Y-75272739D01*
X150089034Y-75272740D01*
X150144399Y-75355601D01*
X150194390Y-75389003D01*
X150239195Y-75442613D01*
X150249500Y-75492105D01*
X150249500Y-76388770D01*
X150229815Y-76455809D01*
X150177011Y-76501564D01*
X150107853Y-76511508D01*
X150044297Y-76482483D01*
X150037819Y-76476451D01*
X148699097Y-75137728D01*
X148699074Y-75137707D01*
X145699097Y-72137728D01*
X145699074Y-72137707D01*
X142826819Y-69265451D01*
X142793334Y-69204128D01*
X142790500Y-69177770D01*
X142790500Y-63476079D01*
X142779104Y-63418793D01*
X142769069Y-63368342D01*
X142761659Y-63331088D01*
X142706263Y-63197354D01*
X142705424Y-63195014D01*
X142650205Y-63112373D01*
X142622952Y-63071585D01*
X141830558Y-62279190D01*
X141518421Y-61967052D01*
X141518414Y-61967046D01*
X141444286Y-61917516D01*
X141444286Y-61917517D01*
X141395491Y-61884913D01*
X141258917Y-61828343D01*
X141258907Y-61828340D01*
X141113920Y-61799500D01*
X141113918Y-61799500D01*
X136613918Y-61799500D01*
X129876082Y-61799500D01*
X129876076Y-61799500D01*
X129847242Y-61805234D01*
X129847243Y-61805235D01*
X129731093Y-61828339D01*
X129731083Y-61828342D01*
X129651081Y-61861479D01*
X129651082Y-61861480D01*
X129594505Y-61884915D01*
X129512372Y-61939795D01*
X129471585Y-61967047D01*
X129471581Y-61967050D01*
X125417052Y-66021578D01*
X125417049Y-66021581D01*
X125374454Y-66085329D01*
X125374455Y-66085330D01*
X125334914Y-66144508D01*
X125278343Y-66281082D01*
X125278340Y-66281092D01*
X125249500Y-66426079D01*
X125249500Y-73362679D01*
X125229815Y-73429718D01*
X125199813Y-73461944D01*
X125192459Y-73467449D01*
X125192451Y-73467457D01*
X125106206Y-73582664D01*
X125106202Y-73582671D01*
X125055910Y-73717513D01*
X125055909Y-73717517D01*
X125049500Y-73777127D01*
X124500500Y-73777127D01*
X124500500Y-60624500D01*
X124520185Y-60557461D01*
X124572989Y-60511706D01*
X124624500Y-60500500D01*
X172375500Y-60500500D01*
X172442539Y-60520185D01*
G37*
%TD.AperFunction*%
%TD*%
M02*
