%TF.GenerationSoftware,KiCad,Pcbnew,10.0.1*%
%TF.CreationDate,2026-06-24T22:24:27-04:00*%
%TF.ProjectId,dc_programmable_load,64635f70-726f-4677-9261-6d6d61626c65,rev?*%
%TF.SameCoordinates,Original*%
%TF.FileFunction,Soldermask,Top*%
%TF.FilePolarity,Negative*%
%FSLAX46Y46*%
G04 Gerber Fmt 4.6, Leading zero omitted, Abs format (unit mm)*
G04 Created by KiCad (PCBNEW 10.0.1) date 2026-06-24 22:24:27*
%MOMM*%
%LPD*%
G01*
G04 APERTURE LIST*
G04 Aperture macros list*
%AMRoundRect*
0 Rectangle with rounded corners*
0 $1 Rounding radius*
0 $2 $3 $4 $5 $6 $7 $8 $9 X,Y pos of 4 corners*
0 Add a 4 corners polygon primitive as box body*
4,1,4,$2,$3,$4,$5,$6,$7,$8,$9,$2,$3,0*
0 Add four circle primitives for the rounded corners*
1,1,$1+$1,$2,$3*
1,1,$1+$1,$4,$5*
1,1,$1+$1,$6,$7*
1,1,$1+$1,$8,$9*
0 Add four rect primitives between the rounded corners*
20,1,$1+$1,$2,$3,$4,$5,0*
20,1,$1+$1,$4,$5,$6,$7,0*
20,1,$1+$1,$6,$7,$8,$9,0*
20,1,$1+$1,$8,$9,$2,$3,0*%
G04 Aperture macros list end*
%ADD10C,1.600000*%
%ADD11O,4.204000X2.204000*%
%ADD12O,2.204000X4.204000*%
%ADD13O,2.454000X4.704000*%
%ADD14R,1.350000X1.350000*%
%ADD15RoundRect,0.250000X-0.450000X0.262500X-0.450000X-0.262500X0.450000X-0.262500X0.450000X0.262500X0*%
%ADD16RoundRect,0.150000X-0.150000X0.512500X-0.150000X-0.512500X0.150000X-0.512500X0.150000X0.512500X0*%
%ADD17RoundRect,0.250000X0.262500X0.450000X-0.262500X0.450000X-0.262500X-0.450000X0.262500X-0.450000X0*%
%ADD18RoundRect,0.250000X0.475000X-0.250000X0.475000X0.250000X-0.475000X0.250000X-0.475000X-0.250000X0*%
%ADD19RoundRect,0.075000X0.650000X0.075000X-0.650000X0.075000X-0.650000X-0.075000X0.650000X-0.075000X0*%
%ADD20R,2.006600X5.308600*%
%ADD21R,1.905000X2.000000*%
%ADD22O,1.905000X2.000000*%
%ADD23RoundRect,0.225000X0.250000X-0.225000X0.250000X0.225000X-0.250000X0.225000X-0.250000X-0.225000X0*%
%ADD24RoundRect,0.225000X-0.225000X-0.250000X0.225000X-0.250000X0.225000X0.250000X-0.225000X0.250000X0*%
%ADD25RoundRect,0.225000X0.225000X0.250000X-0.225000X0.250000X-0.225000X-0.250000X0.225000X-0.250000X0*%
%ADD26RoundRect,0.250000X-0.250000X-0.475000X0.250000X-0.475000X0.250000X0.475000X-0.250000X0.475000X0*%
%ADD27RoundRect,0.250000X0.450000X-0.262500X0.450000X0.262500X-0.450000X0.262500X-0.450000X-0.262500X0*%
%ADD28R,1.981200X0.558800*%
%ADD29R,1.600000X1.600000*%
%ADD30O,1.600000X1.600000*%
%ADD31RoundRect,0.062500X-0.337500X-0.062500X0.337500X-0.062500X0.337500X0.062500X-0.337500X0.062500X0*%
%ADD32R,1.700000X1.400000*%
%ADD33C,1.350000*%
%ADD34RoundRect,0.250000X0.362500X1.425000X-0.362500X1.425000X-0.362500X-1.425000X0.362500X-1.425000X0*%
%ADD35RoundRect,0.150000X0.512500X0.150000X-0.512500X0.150000X-0.512500X-0.150000X0.512500X-0.150000X0*%
G04 APERTURE END LIST*
D10*
%TO.C,J1*%
X169000000Y-66500000D03*
D11*
X167000000Y-71000000D03*
X167000000Y-62000000D03*
D12*
X166000000Y-66500000D03*
D13*
X160000000Y-66500000D03*
%TD*%
D14*
%TO.C,J10*%
X141500000Y-84000000D03*
%TD*%
D15*
%TO.C,R2*%
X128500000Y-86587500D03*
X128500000Y-88412500D03*
%TD*%
D16*
%TO.C,DAC1*%
X147500000Y-93000000D03*
X146550000Y-93000000D03*
X145600000Y-93000000D03*
X145600000Y-95275000D03*
X146550000Y-95275000D03*
X147500000Y-95275000D03*
%TD*%
D17*
%TO.C,R8*%
X155912500Y-71000000D03*
X154087500Y-71000000D03*
%TD*%
D18*
%TO.C,C6*%
X131500000Y-90450000D03*
X131500000Y-88550000D03*
%TD*%
D15*
%TO.C,R1*%
X126000000Y-74087500D03*
X126000000Y-75912500D03*
%TD*%
D14*
%TO.C,J13*%
X151000000Y-74500000D03*
%TD*%
D18*
%TO.C,C4*%
X157500000Y-63650682D03*
X157500000Y-61750682D03*
%TD*%
D19*
%TO.C,ADC1*%
X139650000Y-92500000D03*
X139650000Y-92000000D03*
X139650000Y-91500000D03*
X139650000Y-91000000D03*
X139650000Y-90500000D03*
X135350000Y-90500000D03*
X135350000Y-91000000D03*
X135350000Y-91500000D03*
X135350000Y-92000000D03*
X135350000Y-92500000D03*
%TD*%
D20*
%TO.C,L1*%
X155247400Y-79500000D03*
X158752600Y-79500000D03*
%TD*%
D21*
%TO.C,Q1*%
X137540000Y-65050000D03*
D22*
X135000000Y-65050000D03*
X132460000Y-65050000D03*
%TD*%
D23*
%TO.C,C15*%
X147000000Y-77275000D03*
X147000000Y-75725000D03*
%TD*%
D14*
%TO.C,J6*%
X143500000Y-98500000D03*
%TD*%
D24*
%TO.C,C9*%
X160725000Y-85500000D03*
X162275000Y-85500000D03*
%TD*%
D25*
%TO.C,C5*%
X130275000Y-92500000D03*
X128725000Y-92500000D03*
%TD*%
D26*
%TO.C,C11*%
X147050000Y-62500000D03*
X148950000Y-62500000D03*
%TD*%
D23*
%TO.C,C12*%
X145862500Y-67775000D03*
X145862500Y-66225000D03*
%TD*%
D27*
%TO.C,R6*%
X139500000Y-72912500D03*
X139500000Y-71087500D03*
%TD*%
D23*
%TO.C,C14*%
X144000000Y-74275000D03*
X144000000Y-72725000D03*
%TD*%
D28*
%TO.C,U1*%
X154536200Y-87095000D03*
X154536200Y-88365000D03*
X154536200Y-89635000D03*
X154536200Y-90905000D03*
X159463800Y-90905000D03*
X159463800Y-89635000D03*
X159463800Y-88365000D03*
X159463800Y-87095000D03*
%TD*%
D29*
%TO.C,A1*%
X130380000Y-117110000D03*
D30*
X132920000Y-117110000D03*
X135460000Y-117110000D03*
X138000000Y-117110000D03*
X140540000Y-117110000D03*
X143080000Y-117110000D03*
X145620000Y-117110000D03*
X148160000Y-117110000D03*
X150700000Y-117110000D03*
X153240000Y-117110000D03*
X155780000Y-117110000D03*
X158320000Y-117110000D03*
X160860000Y-117110000D03*
X163400000Y-117110000D03*
X165940000Y-117110000D03*
X165940000Y-101870000D03*
X163400000Y-101870000D03*
X160860000Y-101870000D03*
X158320000Y-101870000D03*
X155780000Y-101870000D03*
X153240000Y-101870000D03*
X150700000Y-101870000D03*
X148160000Y-101870000D03*
X145620000Y-101870000D03*
X143080000Y-101870000D03*
X140540000Y-101870000D03*
X138000000Y-101870000D03*
X135460000Y-101870000D03*
X132920000Y-101870000D03*
X130380000Y-101870000D03*
%TD*%
D31*
%TO.C,TS1*%
X154625000Y-93400000D03*
X154625000Y-93900000D03*
X154625000Y-94400000D03*
X154625000Y-94900000D03*
X157525000Y-94900000D03*
X157525000Y-94400000D03*
X157525000Y-93900000D03*
X157525000Y-93400000D03*
D32*
X156075000Y-94150000D03*
%TD*%
D18*
%TO.C,C2*%
X138000000Y-99450000D03*
X138000000Y-97550000D03*
%TD*%
D23*
%TO.C,C7*%
X142000000Y-93775000D03*
X142000000Y-92225000D03*
%TD*%
D14*
%TO.C,J9*%
X145500000Y-87500000D03*
%TD*%
%TO.C,J12*%
X138500000Y-76000000D03*
%TD*%
D24*
%TO.C,C10*%
X160225000Y-93000000D03*
X161775000Y-93000000D03*
%TD*%
D14*
%TO.C,J5*%
X150500000Y-98500000D03*
%TD*%
%TO.C,J7*%
X156500000Y-98500000D03*
D33*
X158500000Y-98500000D03*
X160500000Y-98500000D03*
%TD*%
D14*
%TO.C,J2*%
X167000000Y-95000000D03*
D33*
X167000000Y-93000000D03*
X167000000Y-91000000D03*
%TD*%
D26*
%TO.C,C1*%
X165050000Y-99000000D03*
X166950000Y-99000000D03*
%TD*%
D14*
%TO.C,J8*%
X168500000Y-80500000D03*
D33*
X168500000Y-82500000D03*
X168500000Y-84500000D03*
%TD*%
D14*
%TO.C,J14*%
X153500000Y-68500000D03*
%TD*%
D34*
%TO.C,Shunt1*%
X134962500Y-78000000D03*
X129037500Y-78000000D03*
%TD*%
D14*
%TO.C,J11*%
X138692500Y-81000000D03*
%TD*%
D18*
%TO.C,C8*%
X144000000Y-91950000D03*
X144000000Y-90050000D03*
%TD*%
D35*
%TO.C,U3*%
X150637500Y-66950000D03*
X150637500Y-66000000D03*
X150637500Y-65050000D03*
X148362500Y-65050000D03*
X148362500Y-66000000D03*
X148362500Y-66950000D03*
%TD*%
M02*
