%TF.GenerationSoftware,KiCad,Pcbnew,10.0.1*%
%TF.CreationDate,2026-06-24T22:24:27-04:00*%
%TF.ProjectId,dc_programmable_load,64635f70-726f-4677-9261-6d6d61626c65,rev?*%
%TF.SameCoordinates,Original*%
%TF.FileFunction,Copper,L2,Bot*%
%TF.FilePolarity,Positive*%
%FSLAX46Y46*%
G04 Gerber Fmt 4.6, Leading zero omitted, Abs format (unit mm)*
G04 Created by KiCad (PCBNEW 10.0.1) date 2026-06-24 22:24:27*
%MOMM*%
%LPD*%
G01*
G04 APERTURE LIST*
%TA.AperFunction,ComponentPad*%
%ADD10O,4.000000X2.000000*%
%TD*%
%TA.AperFunction,ComponentPad*%
%ADD11O,2.000000X4.000000*%
%TD*%
%TA.AperFunction,ComponentPad*%
%ADD12O,2.250000X4.500000*%
%TD*%
%TA.AperFunction,ComponentPad*%
%ADD13R,1.350000X1.350000*%
%TD*%
%TA.AperFunction,ComponentPad*%
%ADD14R,1.905000X2.000000*%
%TD*%
%TA.AperFunction,ComponentPad*%
%ADD15O,1.905000X2.000000*%
%TD*%
%TA.AperFunction,ComponentPad*%
%ADD16R,1.600000X1.600000*%
%TD*%
%TA.AperFunction,ComponentPad*%
%ADD17O,1.600000X1.600000*%
%TD*%
%TA.AperFunction,ComponentPad*%
%ADD18C,1.350000*%
%TD*%
%TA.AperFunction,ViaPad*%
%ADD19C,0.600000*%
%TD*%
%TA.AperFunction,Conductor*%
%ADD20C,0.200000*%
%TD*%
%TA.AperFunction,Conductor*%
%ADD21C,0.300000*%
%TD*%
G04 APERTURE END LIST*
D10*
%TO.P,J1,S2,SHIELD__1_S2*%
%TO.N,GND*%
X167000000Y-71000000D03*
%TO.P,J1,S1,SHIELD_S1*%
X167000000Y-62000000D03*
D11*
%TO.P,J1,2*%
X166000000Y-66500000D03*
D12*
%TO.P,J1,1*%
%TO.N,/12V*%
X160000000Y-66500000D03*
%TD*%
D13*
%TO.P,J10,1,Pin_1_1*%
%TO.N,Net-(J10-Pin_1)*%
X141500000Y-84000000D03*
%TD*%
%TO.P,J13,1,Pin_1_1*%
%TO.N,/Power Supply*%
X151000000Y-74500000D03*
%TD*%
D14*
%TO.P,Q1,1,G_1*%
%TO.N,Net-(Q1-G)*%
X137540000Y-65050000D03*
D15*
%TO.P,Q1,2,D_2*%
%TO.N,/Power Supply*%
X135000000Y-65050000D03*
%TO.P,Q1,3,S_3*%
%TO.N,/A0*%
X132460000Y-65050000D03*
%TD*%
D13*
%TO.P,J6,1,Pin_1_1*%
%TO.N,/scl*%
X143500000Y-98500000D03*
%TD*%
D16*
%TO.P,A1,1,D1/TX_1*%
%TO.N,unconnected-(A1-D1{slash}TX-Pad1)*%
X130380000Y-117110000D03*
D17*
%TO.P,A1,2,D0/RX_2*%
%TO.N,unconnected-(A1-D0{slash}RX-Pad2)*%
X132920000Y-117110000D03*
%TO.P,A1,3,~{RESET}_3*%
%TO.N,unconnected-(A1-~{RESET}-Pad3)*%
X135460000Y-117110000D03*
%TO.P,A1,4,GND_4*%
%TO.N,unconnected-(A1-GND-Pad4)*%
X138000000Y-117110000D03*
%TO.P,A1,5,D2_5*%
%TO.N,unconnected-(A1-D2-Pad5)*%
X140540000Y-117110000D03*
%TO.P,A1,6,D3_6*%
%TO.N,unconnected-(A1-D3-Pad6)*%
X143080000Y-117110000D03*
%TO.P,A1,7,D4_7*%
%TO.N,unconnected-(A1-D4-Pad7)*%
X145620000Y-117110000D03*
%TO.P,A1,8,D5_8*%
%TO.N,unconnected-(A1-D5-Pad8)*%
X148160000Y-117110000D03*
%TO.P,A1,9,D6_9*%
%TO.N,unconnected-(A1-D6-Pad9)*%
X150700000Y-117110000D03*
%TO.P,A1,10,D7_10*%
%TO.N,unconnected-(A1-D7-Pad10)*%
X153240000Y-117110000D03*
%TO.P,A1,11,D8_11*%
%TO.N,unconnected-(A1-D8-Pad11)*%
X155780000Y-117110000D03*
%TO.P,A1,12,D9_12*%
%TO.N,unconnected-(A1-D9-Pad12)*%
X158320000Y-117110000D03*
%TO.P,A1,13,D10_13*%
%TO.N,unconnected-(A1-D10-Pad13)*%
X160860000Y-117110000D03*
%TO.P,A1,14,D11_14*%
%TO.N,unconnected-(A1-D11-Pad14)*%
X163400000Y-117110000D03*
%TO.P,A1,15,D12_15*%
%TO.N,unconnected-(A1-D12-Pad15)*%
X165940000Y-117110000D03*
%TO.P,A1,16,D13_16*%
%TO.N,unconnected-(A1-D13-Pad16)*%
X165940000Y-101870000D03*
%TO.P,A1,17,3V3_17*%
%TO.N,/3v3*%
X163400000Y-101870000D03*
%TO.P,A1,18,AREF_18*%
%TO.N,unconnected-(A1-AREF-Pad18)*%
X160860000Y-101870000D03*
%TO.P,A1,19,A0_19*%
%TO.N,unconnected-(A1-A0-Pad19)*%
X158320000Y-101870000D03*
%TO.P,A1,20,A1_20*%
%TO.N,unconnected-(A1-A1-Pad20)*%
X155780000Y-101870000D03*
%TO.P,A1,21,A2_21*%
%TO.N,unconnected-(A1-A2-Pad21)*%
X153240000Y-101870000D03*
%TO.P,A1,22,A3_22*%
%TO.N,unconnected-(A1-A3-Pad22)*%
X150700000Y-101870000D03*
%TO.P,A1,23,A4_23*%
%TO.N,/sda*%
X148160000Y-101870000D03*
%TO.P,A1,24,A5_24*%
%TO.N,/scl*%
X145620000Y-101870000D03*
%TO.P,A1,25,A6_25*%
%TO.N,unconnected-(A1-A6-Pad25)*%
X143080000Y-101870000D03*
%TO.P,A1,26,A7_26*%
%TO.N,unconnected-(A1-A7-Pad26)*%
X140540000Y-101870000D03*
%TO.P,A1,27,+5V_27*%
%TO.N,/5V*%
X138000000Y-101870000D03*
%TO.P,A1,28,~{RESET}_28*%
%TO.N,unconnected-(A1-~{RESET}-Pad28)*%
X135460000Y-101870000D03*
%TO.P,A1,29,GND_29*%
%TO.N,GND*%
X132920000Y-101870000D03*
%TO.P,A1,30,VIN_30*%
%TO.N,unconnected-(A1-VIN-Pad30)*%
X130380000Y-101870000D03*
%TD*%
D13*
%TO.P,J9,1,Pin_1_1*%
%TO.N,GND*%
X145500000Y-87500000D03*
%TD*%
%TO.P,J12,1,Pin_1_1*%
%TO.N,/opamp_output*%
X138500000Y-76000000D03*
%TD*%
%TO.P,J5,1,Pin_1_1*%
%TO.N,/sda*%
X150500000Y-98500000D03*
%TD*%
%TO.P,J7,1,Pin_1_1*%
%TO.N,/3v3*%
X156500000Y-98500000D03*
D18*
%TO.P,J7,2,Pin_2_2*%
X158500000Y-98500000D03*
%TO.P,J7,3,Pin_3_3*%
X160500000Y-98500000D03*
%TD*%
D13*
%TO.P,J2,1,Pin_1_1*%
%TO.N,Net-(J2-Pin_1)*%
X167000000Y-95000000D03*
D18*
%TO.P,J2,2,Pin_2_2*%
%TO.N,Net-(J2-Pin_2)*%
X167000000Y-93000000D03*
%TO.P,J2,3,Pin_3_3*%
%TO.N,Net-(J2-Pin_3)*%
X167000000Y-91000000D03*
%TD*%
D13*
%TO.P,J8,1,Pin_1_1*%
%TO.N,GND*%
X168500000Y-80500000D03*
D18*
%TO.P,J8,2,Pin_2_2*%
X168500000Y-82500000D03*
%TO.P,J8,3,Pin_3_3*%
X168500000Y-84500000D03*
%TD*%
D13*
%TO.P,J14,1,Pin_1_1*%
%TO.N,Net-(J14-Pin_1)*%
X153500000Y-68500000D03*
%TD*%
%TO.P,J11,1,Pin_1_1*%
%TO.N,Net-(J10-Pin_1)*%
X138692500Y-81000000D03*
%TD*%
D19*
%TO.N,GND*%
X125337599Y-93474983D03*
X146000000Y-63500000D03*
X127500000Y-78000000D03*
X125500000Y-89500000D03*
X130000000Y-89000000D03*
X170500000Y-97000000D03*
X157500000Y-84000000D03*
X137000000Y-87000000D03*
X165500000Y-84000000D03*
X146000000Y-61500000D03*
X138500000Y-94500000D03*
X156000000Y-61700682D03*
X133000000Y-88000000D03*
X132500000Y-74000000D03*
X156500000Y-92000000D03*
X152500000Y-99500000D03*
X154500000Y-96500000D03*
X137500000Y-61000000D03*
X146000000Y-71500000D03*
%TO.N,/scl*%
X146000000Y-100000000D03*
%TO.N,GND*%
X166500000Y-89000000D03*
X156500000Y-96000000D03*
%TO.N,/scl*%
X146500000Y-98500000D03*
%TO.N,GND*%
X164000000Y-96000000D03*
X125500000Y-86000000D03*
X143000000Y-91000000D03*
X127500000Y-70500000D03*
X125500000Y-63500000D03*
X134500000Y-97000000D03*
X130000000Y-72000000D03*
X169500000Y-89000000D03*
X131500000Y-83500000D03*
X152362500Y-62000000D03*
X163000000Y-85500000D03*
X149500000Y-94000000D03*
X149500000Y-80000000D03*
X136500000Y-91000000D03*
X128500000Y-89500000D03*
X144000000Y-64500000D03*
X162500000Y-70200682D03*
X156500000Y-72500000D03*
X144000000Y-84500000D03*
%TO.N,/sda*%
X147150000Y-97000000D03*
%TO.N,GND*%
X148500000Y-98500000D03*
X146000000Y-91000000D03*
X130500000Y-99500000D03*
X171500000Y-78500000D03*
X129000000Y-96000000D03*
X163000000Y-91000000D03*
X165000000Y-89000000D03*
X127500000Y-92500000D03*
%TO.N,/3v3*%
X161250000Y-95750000D03*
%TO.N,GND*%
X162500000Y-92000000D03*
%TO.N,/3v3*%
X159000000Y-93000000D03*
%TO.N,GND*%
X148000000Y-90000000D03*
X148000000Y-88000000D03*
X135000000Y-84000000D03*
X161000000Y-77500000D03*
X152500000Y-83000000D03*
X140000000Y-69500000D03*
X133500000Y-90500000D03*
X153000000Y-92000000D03*
X164000000Y-85500000D03*
X170000000Y-91000000D03*
X170500000Y-74500000D03*
X125500000Y-102500000D03*
X155500000Y-85500000D03*
X127000000Y-99500000D03*
X128500000Y-74500000D03*
X136000000Y-97500000D03*
X132000000Y-87500000D03*
X163500000Y-89500000D03*
X156075000Y-94150000D03*
X161500000Y-90000000D03*
X136500000Y-94000000D03*
X165000000Y-81000000D03*
X171000000Y-100000000D03*
X128500000Y-68000000D03*
X170500000Y-83500000D03*
X137500000Y-78500000D03*
X132970536Y-99379589D03*
X159000000Y-96000000D03*
%TO.N,/sda*%
X145950000Y-97000000D03*
%TO.N,GND*%
X131000000Y-81000000D03*
X127500000Y-61500000D03*
X171500000Y-62500000D03*
X170479503Y-69500000D03*
X146500000Y-92000000D03*
%TO.N,/sda*%
X135000000Y-95000000D03*
%TO.N,GND*%
X133500000Y-89500000D03*
X146500000Y-94000000D03*
X130500000Y-87500000D03*
X141000000Y-92000000D03*
X148500000Y-84000000D03*
X168447086Y-64790742D03*
X145500000Y-90000000D03*
X163500000Y-88000000D03*
X168000000Y-89000000D03*
X128000000Y-94000000D03*
%TO.N,/5V*%
X142250000Y-96250000D03*
%TO.N,GND*%
X148500000Y-94000000D03*
X155500000Y-62500000D03*
X138000000Y-91000000D03*
X127000000Y-83000000D03*
X151500000Y-92500000D03*
X143000000Y-74000000D03*
X138000000Y-97000000D03*
X131500000Y-61000000D03*
X138714716Y-83674487D03*
X163000000Y-63700682D03*
X149500000Y-68500000D03*
X146000000Y-76500000D03*
X165000000Y-74000000D03*
X172000000Y-89000000D03*
X127000000Y-89500000D03*
X126067606Y-97778186D03*
X168000000Y-99000000D03*
X154000000Y-75500000D03*
X142000000Y-91500000D03*
X144000000Y-95500000D03*
X140000000Y-93500000D03*
X141890889Y-87192184D03*
X145000000Y-75500000D03*
X136000000Y-71000000D03*
X167870142Y-75455324D03*
X154500000Y-92000000D03*
X141000000Y-78500000D03*
X143000000Y-62000000D03*
X143500000Y-80000000D03*
X156000000Y-67500000D03*
%TO.N,/sda*%
X133400000Y-95000000D03*
%TO.N,/5V*%
X140500000Y-98000000D03*
%TO.N,GND*%
X171000000Y-89000000D03*
X150500000Y-93500000D03*
X171000000Y-93500000D03*
X148500000Y-72500000D03*
X141500000Y-100000000D03*
X166000000Y-77000000D03*
X168500000Y-98000000D03*
%TD*%
%TO.N,/sda*%
D20*
X145950000Y-97000000D02*
X147150000Y-97000000D01*
%TO.N,/scl*%
X146000000Y-99000000D02*
X146500000Y-98500000D01*
%TO.N,/5V*%
D21*
X140500000Y-98000000D02*
X142250000Y-96250000D01*
%TO.N,/sda*%
D20*
X135000000Y-95000000D02*
X133400000Y-95000000D01*
%TO.N,/3v3*%
D21*
X159000000Y-93500000D02*
X161250000Y-95750000D01*
X159000000Y-93500000D02*
X159000000Y-93000000D01*
%TO.N,/scl*%
D20*
X146000000Y-100000000D02*
X146000000Y-99000000D01*
%TD*%
%TA.AperFunction,Conductor*%
%TO.N,GND*%
G36*
X172442539Y-60520185D02*
G01*
X172488294Y-60572989D01*
X172499500Y-60624500D01*
X172499500Y-103876000D01*
X172479815Y-103943039D01*
X172427011Y-103988794D01*
X172375500Y-104000000D01*
X124624500Y-104000000D01*
X124557461Y-103980315D01*
X124511706Y-103927511D01*
X124500500Y-103876000D01*
X124500500Y-101766530D01*
X129329500Y-101766530D01*
X129329500Y-101973469D01*
X129369868Y-102176412D01*
X129369870Y-102176420D01*
X129449058Y-102367596D01*
X129564024Y-102539657D01*
X129710342Y-102685975D01*
X129710345Y-102685977D01*
X129882402Y-102800941D01*
X130073580Y-102880130D01*
X130276530Y-102920499D01*
X130276534Y-102920500D01*
X130276535Y-102920500D01*
X130483466Y-102920500D01*
X130483467Y-102920499D01*
X130686420Y-102880130D01*
X130877598Y-102800941D01*
X131049655Y-102685977D01*
X131195977Y-102539655D01*
X131310941Y-102367598D01*
X131390130Y-102176420D01*
X131430500Y-101973465D01*
X131430500Y-101766535D01*
X131430499Y-101766530D01*
X134409500Y-101766530D01*
X134409500Y-101973469D01*
X134449868Y-102176412D01*
X134449870Y-102176420D01*
X134529058Y-102367596D01*
X134644024Y-102539657D01*
X134790342Y-102685975D01*
X134790345Y-102685977D01*
X134962402Y-102800941D01*
X135153580Y-102880130D01*
X135356530Y-102920499D01*
X135356534Y-102920500D01*
X135356535Y-102920500D01*
X135563466Y-102920500D01*
X135563467Y-102920499D01*
X135766420Y-102880130D01*
X135957598Y-102800941D01*
X136129655Y-102685977D01*
X136275977Y-102539655D01*
X136390941Y-102367598D01*
X136470130Y-102176420D01*
X136510500Y-101973465D01*
X136510500Y-101766535D01*
X136510499Y-101766530D01*
X136949500Y-101766530D01*
X136949500Y-101973469D01*
X136989868Y-102176412D01*
X136989870Y-102176420D01*
X137069058Y-102367596D01*
X137184024Y-102539657D01*
X137330342Y-102685975D01*
X137330345Y-102685977D01*
X137502402Y-102800941D01*
X137693580Y-102880130D01*
X137896530Y-102920499D01*
X137896534Y-102920500D01*
X137896535Y-102920500D01*
X138103466Y-102920500D01*
X138103467Y-102920499D01*
X138306420Y-102880130D01*
X138497598Y-102800941D01*
X138669655Y-102685977D01*
X138815977Y-102539655D01*
X138930941Y-102367598D01*
X139010130Y-102176420D01*
X139050500Y-101973465D01*
X139050500Y-101766535D01*
X139050499Y-101766530D01*
X139489500Y-101766530D01*
X139489500Y-101973469D01*
X139529868Y-102176412D01*
X139529870Y-102176420D01*
X139609058Y-102367596D01*
X139724024Y-102539657D01*
X139870342Y-102685975D01*
X139870345Y-102685977D01*
X140042402Y-102800941D01*
X140233580Y-102880130D01*
X140436530Y-102920499D01*
X140436534Y-102920500D01*
X140436535Y-102920500D01*
X140643466Y-102920500D01*
X140643467Y-102920499D01*
X140846420Y-102880130D01*
X141037598Y-102800941D01*
X141209655Y-102685977D01*
X141355977Y-102539655D01*
X141470941Y-102367598D01*
X141550130Y-102176420D01*
X141590500Y-101973465D01*
X141590500Y-101766535D01*
X141590499Y-101766530D01*
X142029500Y-101766530D01*
X142029500Y-101973469D01*
X142069868Y-102176412D01*
X142069870Y-102176420D01*
X142149058Y-102367596D01*
X142264024Y-102539657D01*
X142410342Y-102685975D01*
X142410345Y-102685977D01*
X142582402Y-102800941D01*
X142773580Y-102880130D01*
X142976530Y-102920499D01*
X142976534Y-102920500D01*
X142976535Y-102920500D01*
X143183466Y-102920500D01*
X143183467Y-102920499D01*
X143386420Y-102880130D01*
X143577598Y-102800941D01*
X143749655Y-102685977D01*
X143895977Y-102539655D01*
X144010941Y-102367598D01*
X144090130Y-102176420D01*
X144130500Y-101973465D01*
X144130500Y-101766535D01*
X144130499Y-101766530D01*
X144569500Y-101766530D01*
X144569500Y-101973469D01*
X144609868Y-102176412D01*
X144609870Y-102176420D01*
X144689058Y-102367596D01*
X144804024Y-102539657D01*
X144950342Y-102685975D01*
X144950345Y-102685977D01*
X145122402Y-102800941D01*
X145313580Y-102880130D01*
X145516530Y-102920499D01*
X145516534Y-102920500D01*
X145516535Y-102920500D01*
X145723466Y-102920500D01*
X145723467Y-102920499D01*
X145926420Y-102880130D01*
X146117598Y-102800941D01*
X146289655Y-102685977D01*
X146435977Y-102539655D01*
X146550941Y-102367598D01*
X146630130Y-102176420D01*
X146670500Y-101973465D01*
X146670500Y-101766535D01*
X146670499Y-101766530D01*
X147109500Y-101766530D01*
X147109500Y-101973469D01*
X147149868Y-102176412D01*
X147149870Y-102176420D01*
X147229058Y-102367596D01*
X147344024Y-102539657D01*
X147490342Y-102685975D01*
X147490345Y-102685977D01*
X147662402Y-102800941D01*
X147853580Y-102880130D01*
X148056530Y-102920499D01*
X148056534Y-102920500D01*
X148056535Y-102920500D01*
X148263466Y-102920500D01*
X148263467Y-102920499D01*
X148466420Y-102880130D01*
X148657598Y-102800941D01*
X148829655Y-102685977D01*
X148975977Y-102539655D01*
X149090941Y-102367598D01*
X149170130Y-102176420D01*
X149210500Y-101973465D01*
X149210500Y-101766535D01*
X149210499Y-101766530D01*
X149649500Y-101766530D01*
X149649500Y-101973469D01*
X149689868Y-102176412D01*
X149689870Y-102176420D01*
X149769058Y-102367596D01*
X149884024Y-102539657D01*
X150030342Y-102685975D01*
X150030345Y-102685977D01*
X150202402Y-102800941D01*
X150393580Y-102880130D01*
X150596530Y-102920499D01*
X150596534Y-102920500D01*
X150596535Y-102920500D01*
X150803466Y-102920500D01*
X150803467Y-102920499D01*
X151006420Y-102880130D01*
X151197598Y-102800941D01*
X151369655Y-102685977D01*
X151515977Y-102539655D01*
X151630941Y-102367598D01*
X151710130Y-102176420D01*
X151750500Y-101973465D01*
X151750500Y-101766535D01*
X151750499Y-101766530D01*
X152189500Y-101766530D01*
X152189500Y-101973469D01*
X152229868Y-102176412D01*
X152229870Y-102176420D01*
X152309058Y-102367596D01*
X152424024Y-102539657D01*
X152570342Y-102685975D01*
X152570345Y-102685977D01*
X152742402Y-102800941D01*
X152933580Y-102880130D01*
X153136530Y-102920499D01*
X153136534Y-102920500D01*
X153136535Y-102920500D01*
X153343466Y-102920500D01*
X153343467Y-102920499D01*
X153546420Y-102880130D01*
X153737598Y-102800941D01*
X153909655Y-102685977D01*
X154055977Y-102539655D01*
X154170941Y-102367598D01*
X154250130Y-102176420D01*
X154290500Y-101973465D01*
X154290500Y-101766535D01*
X154290499Y-101766530D01*
X154729500Y-101766530D01*
X154729500Y-101973469D01*
X154769868Y-102176412D01*
X154769870Y-102176420D01*
X154849058Y-102367596D01*
X154964024Y-102539657D01*
X155110342Y-102685975D01*
X155110345Y-102685977D01*
X155282402Y-102800941D01*
X155473580Y-102880130D01*
X155676530Y-102920499D01*
X155676534Y-102920500D01*
X155676535Y-102920500D01*
X155883466Y-102920500D01*
X155883467Y-102920499D01*
X156086420Y-102880130D01*
X156277598Y-102800941D01*
X156449655Y-102685977D01*
X156595977Y-102539655D01*
X156710941Y-102367598D01*
X156790130Y-102176420D01*
X156830500Y-101973465D01*
X156830500Y-101766535D01*
X156830499Y-101766530D01*
X157269500Y-101766530D01*
X157269500Y-101973469D01*
X157309868Y-102176412D01*
X157309870Y-102176420D01*
X157389058Y-102367596D01*
X157504024Y-102539657D01*
X157650342Y-102685975D01*
X157650345Y-102685977D01*
X157822402Y-102800941D01*
X158013580Y-102880130D01*
X158216530Y-102920499D01*
X158216534Y-102920500D01*
X158216535Y-102920500D01*
X158423466Y-102920500D01*
X158423467Y-102920499D01*
X158626420Y-102880130D01*
X158817598Y-102800941D01*
X158989655Y-102685977D01*
X159135977Y-102539655D01*
X159250941Y-102367598D01*
X159330130Y-102176420D01*
X159370500Y-101973465D01*
X159370500Y-101766535D01*
X159370499Y-101766530D01*
X159809500Y-101766530D01*
X159809500Y-101973469D01*
X159849868Y-102176412D01*
X159849870Y-102176420D01*
X159929058Y-102367596D01*
X160044024Y-102539657D01*
X160190342Y-102685975D01*
X160190345Y-102685977D01*
X160362402Y-102800941D01*
X160553580Y-102880130D01*
X160756530Y-102920499D01*
X160756534Y-102920500D01*
X160756535Y-102920500D01*
X160963466Y-102920500D01*
X160963467Y-102920499D01*
X161166420Y-102880130D01*
X161357598Y-102800941D01*
X161529655Y-102685977D01*
X161675977Y-102539655D01*
X161790941Y-102367598D01*
X161870130Y-102176420D01*
X161910500Y-101973465D01*
X161910500Y-101766535D01*
X161910499Y-101766530D01*
X162349500Y-101766530D01*
X162349500Y-101973469D01*
X162389868Y-102176412D01*
X162389870Y-102176420D01*
X162469058Y-102367596D01*
X162584024Y-102539657D01*
X162730342Y-102685975D01*
X162730345Y-102685977D01*
X162902402Y-102800941D01*
X163093580Y-102880130D01*
X163296530Y-102920499D01*
X163296534Y-102920500D01*
X163296535Y-102920500D01*
X163503466Y-102920500D01*
X163503467Y-102920499D01*
X163706420Y-102880130D01*
X163897598Y-102800941D01*
X164069655Y-102685977D01*
X164215977Y-102539655D01*
X164330941Y-102367598D01*
X164410130Y-102176420D01*
X164450500Y-101973465D01*
X164450500Y-101766535D01*
X164450499Y-101766530D01*
X164889500Y-101766530D01*
X164889500Y-101973469D01*
X164929868Y-102176412D01*
X164929870Y-102176420D01*
X165009058Y-102367596D01*
X165124024Y-102539657D01*
X165270342Y-102685975D01*
X165270345Y-102685977D01*
X165442402Y-102800941D01*
X165633580Y-102880130D01*
X165836530Y-102920499D01*
X165836534Y-102920500D01*
X165836535Y-102920500D01*
X166043466Y-102920500D01*
X166043467Y-102920499D01*
X166246420Y-102880130D01*
X166437598Y-102800941D01*
X166609655Y-102685977D01*
X166755977Y-102539655D01*
X166870941Y-102367598D01*
X166950130Y-102176420D01*
X166990500Y-101973465D01*
X166990500Y-101766535D01*
X166950130Y-101563580D01*
X166870941Y-101372402D01*
X166755977Y-101200345D01*
X166755975Y-101200342D01*
X166609657Y-101054024D01*
X166523626Y-100996541D01*
X166437598Y-100939059D01*
X166246420Y-100859870D01*
X166246412Y-100859868D01*
X166043469Y-100819500D01*
X166043465Y-100819500D01*
X165836535Y-100819500D01*
X165836530Y-100819500D01*
X165633587Y-100859868D01*
X165633579Y-100859870D01*
X165442403Y-100939058D01*
X165270342Y-101054024D01*
X165124024Y-101200342D01*
X165009058Y-101372403D01*
X164929870Y-101563579D01*
X164929868Y-101563587D01*
X164889500Y-101766530D01*
X164450499Y-101766530D01*
X164410130Y-101563580D01*
X164330941Y-101372402D01*
X164215977Y-101200345D01*
X164215975Y-101200342D01*
X164069657Y-101054024D01*
X163983626Y-100996541D01*
X163897598Y-100939059D01*
X163706420Y-100859870D01*
X163706412Y-100859868D01*
X163503469Y-100819500D01*
X163503465Y-100819500D01*
X163296535Y-100819500D01*
X163296530Y-100819500D01*
X163093587Y-100859868D01*
X163093579Y-100859870D01*
X162902403Y-100939058D01*
X162730342Y-101054024D01*
X162584024Y-101200342D01*
X162469058Y-101372403D01*
X162389870Y-101563579D01*
X162389868Y-101563587D01*
X162349500Y-101766530D01*
X161910499Y-101766530D01*
X161870130Y-101563580D01*
X161790941Y-101372402D01*
X161675977Y-101200345D01*
X161675975Y-101200342D01*
X161529657Y-101054024D01*
X161443626Y-100996541D01*
X161357598Y-100939059D01*
X161166420Y-100859870D01*
X161166412Y-100859868D01*
X160963469Y-100819500D01*
X160963465Y-100819500D01*
X160756535Y-100819500D01*
X160756530Y-100819500D01*
X160553587Y-100859868D01*
X160553579Y-100859870D01*
X160362403Y-100939058D01*
X160190342Y-101054024D01*
X160044024Y-101200342D01*
X159929058Y-101372403D01*
X159849870Y-101563579D01*
X159849868Y-101563587D01*
X159809500Y-101766530D01*
X159370499Y-101766530D01*
X159330130Y-101563580D01*
X159250941Y-101372402D01*
X159135977Y-101200345D01*
X159135975Y-101200342D01*
X158989657Y-101054024D01*
X158903626Y-100996541D01*
X158817598Y-100939059D01*
X158626420Y-100859870D01*
X158626412Y-100859868D01*
X158423469Y-100819500D01*
X158423465Y-100819500D01*
X158216535Y-100819500D01*
X158216530Y-100819500D01*
X158013587Y-100859868D01*
X158013579Y-100859870D01*
X157822403Y-100939058D01*
X157650342Y-101054024D01*
X157504024Y-101200342D01*
X157389058Y-101372403D01*
X157309870Y-101563579D01*
X157309868Y-101563587D01*
X157269500Y-101766530D01*
X156830499Y-101766530D01*
X156790130Y-101563580D01*
X156710941Y-101372402D01*
X156595977Y-101200345D01*
X156595975Y-101200342D01*
X156449657Y-101054024D01*
X156363626Y-100996541D01*
X156277598Y-100939059D01*
X156086420Y-100859870D01*
X156086412Y-100859868D01*
X155883469Y-100819500D01*
X155883465Y-100819500D01*
X155676535Y-100819500D01*
X155676530Y-100819500D01*
X155473587Y-100859868D01*
X155473579Y-100859870D01*
X155282403Y-100939058D01*
X155110342Y-101054024D01*
X154964024Y-101200342D01*
X154849058Y-101372403D01*
X154769870Y-101563579D01*
X154769868Y-101563587D01*
X154729500Y-101766530D01*
X154290499Y-101766530D01*
X154250130Y-101563580D01*
X154170941Y-101372402D01*
X154055977Y-101200345D01*
X154055975Y-101200342D01*
X153909657Y-101054024D01*
X153823626Y-100996541D01*
X153737598Y-100939059D01*
X153546420Y-100859870D01*
X153546412Y-100859868D01*
X153343469Y-100819500D01*
X153343465Y-100819500D01*
X153136535Y-100819500D01*
X153136530Y-100819500D01*
X152933587Y-100859868D01*
X152933579Y-100859870D01*
X152742403Y-100939058D01*
X152570342Y-101054024D01*
X152424024Y-101200342D01*
X152309058Y-101372403D01*
X152229870Y-101563579D01*
X152229868Y-101563587D01*
X152189500Y-101766530D01*
X151750499Y-101766530D01*
X151710130Y-101563580D01*
X151630941Y-101372402D01*
X151515977Y-101200345D01*
X151515975Y-101200342D01*
X151369657Y-101054024D01*
X151283626Y-100996541D01*
X151197598Y-100939059D01*
X151006420Y-100859870D01*
X151006412Y-100859868D01*
X150803469Y-100819500D01*
X150803465Y-100819500D01*
X150596535Y-100819500D01*
X150596530Y-100819500D01*
X150393587Y-100859868D01*
X150393579Y-100859870D01*
X150202403Y-100939058D01*
X150030342Y-101054024D01*
X149884024Y-101200342D01*
X149769058Y-101372403D01*
X149689870Y-101563579D01*
X149689868Y-101563587D01*
X149649500Y-101766530D01*
X149210499Y-101766530D01*
X149170130Y-101563580D01*
X149090941Y-101372402D01*
X148975977Y-101200345D01*
X148975975Y-101200342D01*
X148829657Y-101054024D01*
X148743626Y-100996541D01*
X148657598Y-100939059D01*
X148466420Y-100859870D01*
X148466412Y-100859868D01*
X148263469Y-100819500D01*
X148263465Y-100819500D01*
X148056535Y-100819500D01*
X148056530Y-100819500D01*
X147853587Y-100859868D01*
X147853579Y-100859870D01*
X147662403Y-100939058D01*
X147490342Y-101054024D01*
X147344024Y-101200342D01*
X147229058Y-101372403D01*
X147149870Y-101563579D01*
X147149868Y-101563587D01*
X147109500Y-101766530D01*
X146670499Y-101766530D01*
X146630130Y-101563580D01*
X146550941Y-101372402D01*
X146435977Y-101200345D01*
X146435975Y-101200342D01*
X146289657Y-101054024D01*
X146203626Y-100996541D01*
X146117598Y-100939059D01*
X145926420Y-100859870D01*
X145926412Y-100859868D01*
X145723469Y-100819500D01*
X145723465Y-100819500D01*
X145516535Y-100819500D01*
X145516530Y-100819500D01*
X145313587Y-100859868D01*
X145313579Y-100859870D01*
X145122403Y-100939058D01*
X144950342Y-101054024D01*
X144804024Y-101200342D01*
X144689058Y-101372403D01*
X144609870Y-101563579D01*
X144609868Y-101563587D01*
X144569500Y-101766530D01*
X144130499Y-101766530D01*
X144090130Y-101563580D01*
X144010941Y-101372402D01*
X143895977Y-101200345D01*
X143895975Y-101200342D01*
X143749657Y-101054024D01*
X143663626Y-100996541D01*
X143577598Y-100939059D01*
X143386420Y-100859870D01*
X143386412Y-100859868D01*
X143183469Y-100819500D01*
X143183465Y-100819500D01*
X142976535Y-100819500D01*
X142976530Y-100819500D01*
X142773587Y-100859868D01*
X142773579Y-100859870D01*
X142582403Y-100939058D01*
X142410342Y-101054024D01*
X142264024Y-101200342D01*
X142149058Y-101372403D01*
X142069870Y-101563579D01*
X142069868Y-101563587D01*
X142029500Y-101766530D01*
X141590499Y-101766530D01*
X141550130Y-101563580D01*
X141470941Y-101372402D01*
X141355977Y-101200345D01*
X141355975Y-101200342D01*
X141209657Y-101054024D01*
X141123626Y-100996541D01*
X141037598Y-100939059D01*
X140846420Y-100859870D01*
X140846412Y-100859868D01*
X140643469Y-100819500D01*
X140643465Y-100819500D01*
X140436535Y-100819500D01*
X140436530Y-100819500D01*
X140233587Y-100859868D01*
X140233579Y-100859870D01*
X140042403Y-100939058D01*
X139870342Y-101054024D01*
X139724024Y-101200342D01*
X139609058Y-101372403D01*
X139529870Y-101563579D01*
X139529868Y-101563587D01*
X139489500Y-101766530D01*
X139050499Y-101766530D01*
X139010130Y-101563580D01*
X138930941Y-101372402D01*
X138815977Y-101200345D01*
X138815975Y-101200342D01*
X138669657Y-101054024D01*
X138583626Y-100996541D01*
X138497598Y-100939059D01*
X138306420Y-100859870D01*
X138306412Y-100859868D01*
X138103469Y-100819500D01*
X138103465Y-100819500D01*
X137896535Y-100819500D01*
X137896530Y-100819500D01*
X137693587Y-100859868D01*
X137693579Y-100859870D01*
X137502403Y-100939058D01*
X137330342Y-101054024D01*
X137184024Y-101200342D01*
X137069058Y-101372403D01*
X136989870Y-101563579D01*
X136989868Y-101563587D01*
X136949500Y-101766530D01*
X136510499Y-101766530D01*
X136470130Y-101563580D01*
X136390941Y-101372402D01*
X136275977Y-101200345D01*
X136275975Y-101200342D01*
X136129657Y-101054024D01*
X136043626Y-100996541D01*
X135957598Y-100939059D01*
X135766420Y-100859870D01*
X135766412Y-100859868D01*
X135563469Y-100819500D01*
X135563465Y-100819500D01*
X135356535Y-100819500D01*
X135356530Y-100819500D01*
X135153587Y-100859868D01*
X135153579Y-100859870D01*
X134962403Y-100939058D01*
X134790342Y-101054024D01*
X134644024Y-101200342D01*
X134529058Y-101372403D01*
X134449870Y-101563579D01*
X134449868Y-101563587D01*
X134409500Y-101766530D01*
X131430499Y-101766530D01*
X131390130Y-101563580D01*
X131310941Y-101372402D01*
X131195977Y-101200345D01*
X131195975Y-101200342D01*
X131049657Y-101054024D01*
X130963626Y-100996541D01*
X130877598Y-100939059D01*
X130686420Y-100859870D01*
X130686412Y-100859868D01*
X130483469Y-100819500D01*
X130483465Y-100819500D01*
X130276535Y-100819500D01*
X130276530Y-100819500D01*
X130073587Y-100859868D01*
X130073579Y-100859870D01*
X129882403Y-100939058D01*
X129710342Y-101054024D01*
X129564024Y-101200342D01*
X129449058Y-101372403D01*
X129369870Y-101563579D01*
X129369868Y-101563587D01*
X129329500Y-101766530D01*
X124500500Y-101766530D01*
X124500500Y-99927525D01*
X145449500Y-99927525D01*
X145449500Y-100072475D01*
X145487016Y-100212485D01*
X145487017Y-100212488D01*
X145559488Y-100338011D01*
X145559490Y-100338013D01*
X145559491Y-100338015D01*
X145661985Y-100440509D01*
X145661986Y-100440510D01*
X145661988Y-100440511D01*
X145787511Y-100512982D01*
X145787512Y-100512982D01*
X145787515Y-100512984D01*
X145927525Y-100550500D01*
X145927528Y-100550500D01*
X146072472Y-100550500D01*
X146072475Y-100550500D01*
X146212485Y-100512984D01*
X146338015Y-100440509D01*
X146440509Y-100338015D01*
X146512984Y-100212485D01*
X146550500Y-100072475D01*
X146550500Y-99927525D01*
X146512984Y-99787515D01*
X146440509Y-99661985D01*
X146386819Y-99608295D01*
X146353334Y-99546972D01*
X146350500Y-99520614D01*
X146350500Y-99196544D01*
X146359144Y-99167103D01*
X146365668Y-99137117D01*
X146369422Y-99132101D01*
X146370185Y-99129505D01*
X146386819Y-99108863D01*
X146408863Y-99086819D01*
X146470186Y-99053334D01*
X146496544Y-99050500D01*
X146572472Y-99050500D01*
X146572475Y-99050500D01*
X146712485Y-99012984D01*
X146838015Y-98940509D01*
X146940509Y-98838015D01*
X147012984Y-98712485D01*
X147050500Y-98572475D01*
X147050500Y-98427525D01*
X147012984Y-98287515D01*
X147007710Y-98278381D01*
X146940511Y-98161988D01*
X146940506Y-98161982D01*
X146838017Y-98059493D01*
X146838011Y-98059488D01*
X146712488Y-97987017D01*
X146712489Y-97987017D01*
X146701006Y-97983940D01*
X146572475Y-97949500D01*
X146427525Y-97949500D01*
X146298993Y-97983940D01*
X146287511Y-97987017D01*
X146161988Y-98059488D01*
X146161982Y-98059493D01*
X146059493Y-98161982D01*
X146059488Y-98161988D01*
X145987017Y-98287511D01*
X145982583Y-98304055D01*
X145949500Y-98427525D01*
X145949500Y-98427527D01*
X145949500Y-98503456D01*
X145929815Y-98570495D01*
X145913181Y-98591137D01*
X145719531Y-98784786D01*
X145719527Y-98784791D01*
X145673387Y-98864709D01*
X145673386Y-98864712D01*
X145649500Y-98953856D01*
X145649500Y-99520614D01*
X145629815Y-99587653D01*
X145613181Y-99608295D01*
X145559493Y-99661982D01*
X145559488Y-99661988D01*
X145487017Y-99787511D01*
X145487016Y-99787515D01*
X145449500Y-99927525D01*
X124500500Y-99927525D01*
X124500500Y-97927525D01*
X139949500Y-97927525D01*
X139949500Y-98072475D01*
X139987016Y-98212485D01*
X139987017Y-98212488D01*
X140059488Y-98338011D01*
X140059490Y-98338013D01*
X140059491Y-98338015D01*
X140161985Y-98440509D01*
X140161986Y-98440510D01*
X140161988Y-98440511D01*
X140287511Y-98512982D01*
X140287512Y-98512982D01*
X140287515Y-98512984D01*
X140427525Y-98550500D01*
X140427528Y-98550500D01*
X140572472Y-98550500D01*
X140572475Y-98550500D01*
X140712485Y-98512984D01*
X140838015Y-98440509D01*
X140940509Y-98338015D01*
X141012984Y-98212485D01*
X141050500Y-98072475D01*
X141050500Y-98067254D01*
X141070185Y-98000215D01*
X141086819Y-97979573D01*
X141266071Y-97800321D01*
X142574500Y-97800321D01*
X142574500Y-99199678D01*
X142589032Y-99272735D01*
X142589033Y-99272739D01*
X142589034Y-99272740D01*
X142644399Y-99355601D01*
X142695783Y-99389934D01*
X142727260Y-99410966D01*
X142727264Y-99410967D01*
X142800321Y-99425499D01*
X142800324Y-99425500D01*
X142800326Y-99425500D01*
X144199676Y-99425500D01*
X144199677Y-99425499D01*
X144272740Y-99410966D01*
X144355601Y-99355601D01*
X144410966Y-99272740D01*
X144425500Y-99199674D01*
X144425500Y-97800326D01*
X144425500Y-97800323D01*
X144425499Y-97800321D01*
X149574500Y-97800321D01*
X149574500Y-99199678D01*
X149589032Y-99272735D01*
X149589033Y-99272739D01*
X149589034Y-99272740D01*
X149644399Y-99355601D01*
X149695783Y-99389934D01*
X149727260Y-99410966D01*
X149727264Y-99410967D01*
X149800321Y-99425499D01*
X149800324Y-99425500D01*
X149800326Y-99425500D01*
X151199676Y-99425500D01*
X151199677Y-99425499D01*
X151272740Y-99410966D01*
X151355601Y-99355601D01*
X151410966Y-99272740D01*
X151425500Y-99199674D01*
X151425500Y-97800326D01*
X151425500Y-97800323D01*
X151425499Y-97800321D01*
X155574500Y-97800321D01*
X155574500Y-99199678D01*
X155589032Y-99272735D01*
X155589033Y-99272739D01*
X155589034Y-99272740D01*
X155644399Y-99355601D01*
X155695783Y-99389934D01*
X155727260Y-99410966D01*
X155727264Y-99410967D01*
X155800321Y-99425499D01*
X155800324Y-99425500D01*
X155800326Y-99425500D01*
X157199676Y-99425500D01*
X157199677Y-99425499D01*
X157272740Y-99410966D01*
X157355601Y-99355601D01*
X157410966Y-99272740D01*
X157425500Y-99199674D01*
X157425500Y-98947765D01*
X157445185Y-98880726D01*
X157497989Y-98834971D01*
X157567147Y-98825027D01*
X157630703Y-98854052D01*
X157664061Y-98900313D01*
X157679831Y-98938387D01*
X157679833Y-98938391D01*
X157781113Y-99089967D01*
X157781119Y-99089975D01*
X157910024Y-99218880D01*
X157910032Y-99218886D01*
X158061608Y-99320166D01*
X158061612Y-99320168D01*
X158230037Y-99389931D01*
X158230042Y-99389933D01*
X158230046Y-99389933D01*
X158230047Y-99389934D01*
X158408843Y-99425500D01*
X158408846Y-99425500D01*
X158591156Y-99425500D01*
X158711445Y-99401572D01*
X158769958Y-99389933D01*
X158938389Y-99320167D01*
X158938391Y-99320166D01*
X159013672Y-99269864D01*
X159089972Y-99218883D01*
X159218883Y-99089972D01*
X159270326Y-99012982D01*
X159320166Y-98938391D01*
X159320168Y-98938387D01*
X159385439Y-98780808D01*
X159429280Y-98726404D01*
X159495574Y-98704339D01*
X159563273Y-98721618D01*
X159610884Y-98772755D01*
X159614561Y-98780808D01*
X159679831Y-98938387D01*
X159679833Y-98938391D01*
X159781113Y-99089967D01*
X159781119Y-99089975D01*
X159910024Y-99218880D01*
X159910032Y-99218886D01*
X160061608Y-99320166D01*
X160061612Y-99320168D01*
X160230037Y-99389931D01*
X160230042Y-99389933D01*
X160230046Y-99389933D01*
X160230047Y-99389934D01*
X160408843Y-99425500D01*
X160408846Y-99425500D01*
X160591156Y-99425500D01*
X160711445Y-99401572D01*
X160769958Y-99389933D01*
X160938389Y-99320167D01*
X160938391Y-99320166D01*
X161013672Y-99269864D01*
X161089972Y-99218883D01*
X161218883Y-99089972D01*
X161270326Y-99012982D01*
X161320166Y-98938391D01*
X161320168Y-98938387D01*
X161383791Y-98784786D01*
X161389933Y-98769958D01*
X161425500Y-98591154D01*
X161425500Y-98408846D01*
X161425500Y-98408843D01*
X161389934Y-98230047D01*
X161389933Y-98230046D01*
X161389933Y-98230042D01*
X161382661Y-98212485D01*
X161320168Y-98061612D01*
X161320166Y-98061608D01*
X161218886Y-97910032D01*
X161218880Y-97910024D01*
X161089975Y-97781119D01*
X161089967Y-97781113D01*
X160938391Y-97679833D01*
X160938387Y-97679831D01*
X160769962Y-97610068D01*
X160769952Y-97610065D01*
X160591156Y-97574500D01*
X160591154Y-97574500D01*
X160408846Y-97574500D01*
X160408844Y-97574500D01*
X160230047Y-97610065D01*
X160230037Y-97610068D01*
X160061612Y-97679831D01*
X160061608Y-97679833D01*
X159910032Y-97781113D01*
X159910024Y-97781119D01*
X159781119Y-97910024D01*
X159781113Y-97910032D01*
X159679833Y-98061608D01*
X159614561Y-98219192D01*
X159570720Y-98273595D01*
X159504426Y-98295660D01*
X159436727Y-98278381D01*
X159389116Y-98227244D01*
X159385439Y-98219192D01*
X159320166Y-98061608D01*
X159218886Y-97910032D01*
X159218880Y-97910024D01*
X159089975Y-97781119D01*
X159089967Y-97781113D01*
X158938391Y-97679833D01*
X158938387Y-97679831D01*
X158769962Y-97610068D01*
X158769952Y-97610065D01*
X158591156Y-97574500D01*
X158591154Y-97574500D01*
X158408846Y-97574500D01*
X158408844Y-97574500D01*
X158230047Y-97610065D01*
X158230037Y-97610068D01*
X158061612Y-97679831D01*
X158061608Y-97679833D01*
X157910032Y-97781113D01*
X157910024Y-97781119D01*
X157781119Y-97910024D01*
X157781113Y-97910032D01*
X157679833Y-98061608D01*
X157679833Y-98061609D01*
X157664061Y-98099687D01*
X157620220Y-98154090D01*
X157553925Y-98176155D01*
X157486226Y-98158876D01*
X157438616Y-98107738D01*
X157425500Y-98052234D01*
X157425500Y-97800323D01*
X157425499Y-97800321D01*
X157410967Y-97727264D01*
X157410966Y-97727260D01*
X157355601Y-97644399D01*
X157272740Y-97589034D01*
X157272739Y-97589033D01*
X157272735Y-97589032D01*
X157199677Y-97574500D01*
X157199674Y-97574500D01*
X155800326Y-97574500D01*
X155800323Y-97574500D01*
X155727264Y-97589032D01*
X155727260Y-97589033D01*
X155644399Y-97644399D01*
X155589033Y-97727260D01*
X155589032Y-97727264D01*
X155574500Y-97800321D01*
X151425499Y-97800321D01*
X151410967Y-97727264D01*
X151410966Y-97727260D01*
X151355601Y-97644399D01*
X151272740Y-97589034D01*
X151272739Y-97589033D01*
X151272735Y-97589032D01*
X151199677Y-97574500D01*
X151199674Y-97574500D01*
X149800326Y-97574500D01*
X149800323Y-97574500D01*
X149727264Y-97589032D01*
X149727260Y-97589033D01*
X149644399Y-97644399D01*
X149589033Y-97727260D01*
X149589032Y-97727264D01*
X149574500Y-97800321D01*
X144425499Y-97800321D01*
X144410967Y-97727264D01*
X144410966Y-97727260D01*
X144355601Y-97644399D01*
X144272740Y-97589034D01*
X144272739Y-97589033D01*
X144272735Y-97589032D01*
X144199677Y-97574500D01*
X144199674Y-97574500D01*
X142800326Y-97574500D01*
X142800323Y-97574500D01*
X142727264Y-97589032D01*
X142727260Y-97589033D01*
X142644399Y-97644399D01*
X142589033Y-97727260D01*
X142589032Y-97727264D01*
X142574500Y-97800321D01*
X141266071Y-97800321D01*
X142138867Y-96927525D01*
X145399500Y-96927525D01*
X145399500Y-97072475D01*
X145437016Y-97212485D01*
X145437017Y-97212488D01*
X145509488Y-97338011D01*
X145509490Y-97338013D01*
X145509491Y-97338015D01*
X145611985Y-97440509D01*
X145611986Y-97440510D01*
X145611988Y-97440511D01*
X145737511Y-97512982D01*
X145737512Y-97512982D01*
X145737515Y-97512984D01*
X145877525Y-97550500D01*
X145877528Y-97550500D01*
X146022472Y-97550500D01*
X146022475Y-97550500D01*
X146162485Y-97512984D01*
X146288015Y-97440509D01*
X146341705Y-97386819D01*
X146368632Y-97372115D01*
X146394451Y-97355523D01*
X146400651Y-97354631D01*
X146403028Y-97353334D01*
X146429386Y-97350500D01*
X146670614Y-97350500D01*
X146737653Y-97370185D01*
X146758295Y-97386819D01*
X146811985Y-97440509D01*
X146811986Y-97440510D01*
X146811988Y-97440511D01*
X146937511Y-97512982D01*
X146937512Y-97512982D01*
X146937515Y-97512984D01*
X147077525Y-97550500D01*
X147077528Y-97550500D01*
X147222472Y-97550500D01*
X147222475Y-97550500D01*
X147362485Y-97512984D01*
X147488015Y-97440509D01*
X147590509Y-97338015D01*
X147662984Y-97212485D01*
X147700500Y-97072475D01*
X147700500Y-96927525D01*
X147662984Y-96787515D01*
X147606977Y-96690509D01*
X147590511Y-96661988D01*
X147590506Y-96661982D01*
X147488017Y-96559493D01*
X147488011Y-96559488D01*
X147362488Y-96487017D01*
X147362489Y-96487017D01*
X147351006Y-96483940D01*
X147222475Y-96449500D01*
X147077525Y-96449500D01*
X146948993Y-96483940D01*
X146937511Y-96487017D01*
X146811988Y-96559488D01*
X146811982Y-96559493D01*
X146758295Y-96613181D01*
X146731367Y-96627884D01*
X146705549Y-96644477D01*
X146699348Y-96645368D01*
X146696972Y-96646666D01*
X146670614Y-96649500D01*
X146429386Y-96649500D01*
X146362347Y-96629815D01*
X146341705Y-96613181D01*
X146288017Y-96559493D01*
X146288011Y-96559488D01*
X146162488Y-96487017D01*
X146162489Y-96487017D01*
X146151006Y-96483940D01*
X146022475Y-96449500D01*
X145877525Y-96449500D01*
X145748993Y-96483940D01*
X145737511Y-96487017D01*
X145611988Y-96559488D01*
X145611982Y-96559493D01*
X145509493Y-96661982D01*
X145509488Y-96661988D01*
X145437017Y-96787511D01*
X145437016Y-96787515D01*
X145399500Y-96927525D01*
X142138867Y-96927525D01*
X142229573Y-96836819D01*
X142249941Y-96825697D01*
X142267752Y-96810809D01*
X142283035Y-96807626D01*
X142290896Y-96803334D01*
X142301788Y-96801468D01*
X142309488Y-96800500D01*
X142322475Y-96800500D01*
X142462485Y-96762984D01*
X142588015Y-96690509D01*
X142690509Y-96588015D01*
X142762984Y-96462485D01*
X142800500Y-96322475D01*
X142800500Y-96177525D01*
X142762984Y-96037515D01*
X142719665Y-95962485D01*
X142690511Y-95911988D01*
X142690506Y-95911982D01*
X142588017Y-95809493D01*
X142588011Y-95809488D01*
X142462488Y-95737017D01*
X142462489Y-95737017D01*
X142451006Y-95733940D01*
X142322475Y-95699500D01*
X142177525Y-95699500D01*
X142048993Y-95733940D01*
X142037511Y-95737017D01*
X141911988Y-95809488D01*
X141911982Y-95809493D01*
X141809493Y-95911982D01*
X141809488Y-95911988D01*
X141737017Y-96037511D01*
X141737016Y-96037515D01*
X141699500Y-96177525D01*
X141699500Y-96177527D01*
X141699500Y-96182745D01*
X141679815Y-96249784D01*
X141663181Y-96270426D01*
X140520426Y-97413181D01*
X140459103Y-97446666D01*
X140432745Y-97449500D01*
X140427525Y-97449500D01*
X140298993Y-97483940D01*
X140287511Y-97487017D01*
X140161988Y-97559488D01*
X140161982Y-97559493D01*
X140059493Y-97661982D01*
X140059488Y-97661988D01*
X139987017Y-97787511D01*
X139987016Y-97787515D01*
X139949500Y-97927525D01*
X124500500Y-97927525D01*
X124500500Y-94927525D01*
X132849500Y-94927525D01*
X132849500Y-95072475D01*
X132873805Y-95163181D01*
X132887017Y-95212488D01*
X132959488Y-95338011D01*
X132959490Y-95338013D01*
X132959491Y-95338015D01*
X133061985Y-95440509D01*
X133061986Y-95440510D01*
X133061988Y-95440511D01*
X133187511Y-95512982D01*
X133187512Y-95512982D01*
X133187515Y-95512984D01*
X133327525Y-95550500D01*
X133327528Y-95550500D01*
X133472472Y-95550500D01*
X133472475Y-95550500D01*
X133612485Y-95512984D01*
X133738015Y-95440509D01*
X133791705Y-95386819D01*
X133853028Y-95353334D01*
X133879386Y-95350500D01*
X134520614Y-95350500D01*
X134587653Y-95370185D01*
X134608295Y-95386819D01*
X134661985Y-95440509D01*
X134661986Y-95440510D01*
X134661988Y-95440511D01*
X134787511Y-95512982D01*
X134787512Y-95512982D01*
X134787515Y-95512984D01*
X134927525Y-95550500D01*
X134927528Y-95550500D01*
X135072472Y-95550500D01*
X135072475Y-95550500D01*
X135212485Y-95512984D01*
X135338015Y-95440509D01*
X135440509Y-95338015D01*
X135512984Y-95212485D01*
X135550500Y-95072475D01*
X135550500Y-94927525D01*
X135512984Y-94787515D01*
X135440509Y-94661985D01*
X135338015Y-94559491D01*
X135338013Y-94559490D01*
X135338011Y-94559488D01*
X135212488Y-94487017D01*
X135212489Y-94487017D01*
X135201006Y-94483940D01*
X135072475Y-94449500D01*
X134927525Y-94449500D01*
X134798993Y-94483940D01*
X134787511Y-94487017D01*
X134661988Y-94559488D01*
X134661982Y-94559493D01*
X134608295Y-94613181D01*
X134546972Y-94646666D01*
X134520614Y-94649500D01*
X133879386Y-94649500D01*
X133812347Y-94629815D01*
X133791705Y-94613181D01*
X133738017Y-94559493D01*
X133738011Y-94559488D01*
X133612488Y-94487017D01*
X133612489Y-94487017D01*
X133601006Y-94483940D01*
X133472475Y-94449500D01*
X133327525Y-94449500D01*
X133198993Y-94483940D01*
X133187511Y-94487017D01*
X133061988Y-94559488D01*
X133061982Y-94559493D01*
X132959493Y-94661982D01*
X132959488Y-94661988D01*
X132887017Y-94787511D01*
X132887016Y-94787515D01*
X132849500Y-94927525D01*
X124500500Y-94927525D01*
X124500500Y-92927525D01*
X158449500Y-92927525D01*
X158449500Y-93072475D01*
X158454506Y-93091156D01*
X158487017Y-93212488D01*
X158559488Y-93338011D01*
X158559493Y-93338017D01*
X158563181Y-93341705D01*
X158596666Y-93403028D01*
X158599500Y-93429386D01*
X158599500Y-93552726D01*
X158626793Y-93654589D01*
X158653156Y-93700250D01*
X158679520Y-93745913D01*
X158679521Y-93745914D01*
X158679522Y-93745915D01*
X160663181Y-95729573D01*
X160696666Y-95790896D01*
X160699500Y-95817254D01*
X160699500Y-95822475D01*
X160727106Y-95925499D01*
X160737017Y-95962488D01*
X160809488Y-96088011D01*
X160809490Y-96088013D01*
X160809491Y-96088015D01*
X160911985Y-96190509D01*
X160911986Y-96190510D01*
X160911988Y-96190511D01*
X161037511Y-96262982D01*
X161037512Y-96262982D01*
X161037515Y-96262984D01*
X161177525Y-96300500D01*
X161177528Y-96300500D01*
X161322472Y-96300500D01*
X161322475Y-96300500D01*
X161462485Y-96262984D01*
X161588015Y-96190509D01*
X161690509Y-96088015D01*
X161762984Y-95962485D01*
X161800500Y-95822475D01*
X161800500Y-95677525D01*
X161762984Y-95537515D01*
X161706977Y-95440509D01*
X161690511Y-95411988D01*
X161690506Y-95411982D01*
X161588017Y-95309493D01*
X161588011Y-95309488D01*
X161462488Y-95237017D01*
X161462489Y-95237017D01*
X161451006Y-95233940D01*
X161322475Y-95199500D01*
X161322472Y-95199500D01*
X161317254Y-95199500D01*
X161250215Y-95179815D01*
X161229573Y-95163181D01*
X159494575Y-93428182D01*
X159461090Y-93366859D01*
X159466074Y-93297167D01*
X159474870Y-93278500D01*
X159512984Y-93212485D01*
X159550500Y-93072475D01*
X159550500Y-92927525D01*
X159512984Y-92787515D01*
X159440509Y-92661985D01*
X159338015Y-92559491D01*
X159338013Y-92559490D01*
X159338011Y-92559488D01*
X159212488Y-92487017D01*
X159212489Y-92487017D01*
X159201006Y-92483940D01*
X159072475Y-92449500D01*
X158927525Y-92449500D01*
X158798993Y-92483940D01*
X158787511Y-92487017D01*
X158661988Y-92559488D01*
X158661982Y-92559493D01*
X158559493Y-92661982D01*
X158559488Y-92661988D01*
X158487017Y-92787511D01*
X158487016Y-92787515D01*
X158449500Y-92927525D01*
X124500500Y-92927525D01*
X124500500Y-91091156D01*
X166074499Y-91091156D01*
X166110065Y-91269952D01*
X166110068Y-91269962D01*
X166179831Y-91438387D01*
X166179833Y-91438391D01*
X166281113Y-91589967D01*
X166281119Y-91589975D01*
X166410024Y-91718880D01*
X166410032Y-91718886D01*
X166561608Y-91820166D01*
X166719192Y-91885439D01*
X166773595Y-91929280D01*
X166795660Y-91995574D01*
X166778381Y-92063273D01*
X166727244Y-92110884D01*
X166719192Y-92114561D01*
X166561608Y-92179833D01*
X166410032Y-92281113D01*
X166410024Y-92281119D01*
X166281119Y-92410024D01*
X166281113Y-92410032D01*
X166179833Y-92561608D01*
X166179831Y-92561612D01*
X166110068Y-92730037D01*
X166110065Y-92730047D01*
X166074500Y-92908843D01*
X166074500Y-92908846D01*
X166074500Y-93091154D01*
X166074500Y-93091156D01*
X166074499Y-93091156D01*
X166110065Y-93269952D01*
X166110068Y-93269962D01*
X166179831Y-93438387D01*
X166179833Y-93438391D01*
X166281113Y-93589967D01*
X166281119Y-93589975D01*
X166410024Y-93718880D01*
X166410032Y-93718886D01*
X166561608Y-93820166D01*
X166561612Y-93820168D01*
X166599687Y-93835939D01*
X166654091Y-93879780D01*
X166676156Y-93946074D01*
X166658877Y-94013773D01*
X166607740Y-94061384D01*
X166552235Y-94074500D01*
X166300323Y-94074500D01*
X166227264Y-94089032D01*
X166227260Y-94089033D01*
X166144399Y-94144399D01*
X166089033Y-94227260D01*
X166089032Y-94227264D01*
X166074500Y-94300321D01*
X166074500Y-95699678D01*
X166089032Y-95772735D01*
X166089033Y-95772739D01*
X166089034Y-95772740D01*
X166144399Y-95855601D01*
X166227260Y-95910966D01*
X166227264Y-95910967D01*
X166300321Y-95925499D01*
X166300324Y-95925500D01*
X166300326Y-95925500D01*
X167699676Y-95925500D01*
X167699677Y-95925499D01*
X167772740Y-95910966D01*
X167855601Y-95855601D01*
X167910966Y-95772740D01*
X167925500Y-95699674D01*
X167925500Y-94300326D01*
X167925500Y-94300323D01*
X167925499Y-94300321D01*
X167910967Y-94227264D01*
X167910966Y-94227260D01*
X167855601Y-94144399D01*
X167772740Y-94089034D01*
X167772739Y-94089033D01*
X167772735Y-94089032D01*
X167699677Y-94074500D01*
X167699674Y-94074500D01*
X167447765Y-94074500D01*
X167380726Y-94054815D01*
X167334971Y-94002011D01*
X167325027Y-93932853D01*
X167354052Y-93869297D01*
X167400313Y-93835939D01*
X167438387Y-93820168D01*
X167438391Y-93820166D01*
X167513672Y-93769864D01*
X167589972Y-93718883D01*
X167718883Y-93589972D01*
X167820167Y-93438389D01*
X167889933Y-93269958D01*
X167925500Y-93091154D01*
X167925500Y-92908846D01*
X167925500Y-92908843D01*
X167889934Y-92730047D01*
X167889933Y-92730046D01*
X167889933Y-92730042D01*
X167889931Y-92730037D01*
X167820168Y-92561612D01*
X167820166Y-92561608D01*
X167718886Y-92410032D01*
X167718880Y-92410024D01*
X167589975Y-92281119D01*
X167589967Y-92281113D01*
X167438391Y-92179833D01*
X167438387Y-92179831D01*
X167280808Y-92114561D01*
X167226404Y-92070720D01*
X167204339Y-92004426D01*
X167221618Y-91936727D01*
X167272755Y-91889116D01*
X167280808Y-91885439D01*
X167438387Y-91820168D01*
X167438391Y-91820166D01*
X167513672Y-91769864D01*
X167589972Y-91718883D01*
X167718883Y-91589972D01*
X167820167Y-91438389D01*
X167889933Y-91269958D01*
X167925500Y-91091154D01*
X167925500Y-90908846D01*
X167925500Y-90908843D01*
X167889934Y-90730047D01*
X167889933Y-90730046D01*
X167889933Y-90730042D01*
X167889931Y-90730037D01*
X167820168Y-90561612D01*
X167820166Y-90561608D01*
X167718886Y-90410032D01*
X167718880Y-90410024D01*
X167589975Y-90281119D01*
X167589967Y-90281113D01*
X167438391Y-90179833D01*
X167438387Y-90179831D01*
X167269962Y-90110068D01*
X167269952Y-90110065D01*
X167091156Y-90074500D01*
X167091154Y-90074500D01*
X166908846Y-90074500D01*
X166908844Y-90074500D01*
X166730047Y-90110065D01*
X166730037Y-90110068D01*
X166561612Y-90179831D01*
X166561608Y-90179833D01*
X166410032Y-90281113D01*
X166410024Y-90281119D01*
X166281119Y-90410024D01*
X166281113Y-90410032D01*
X166179833Y-90561608D01*
X166179831Y-90561612D01*
X166110068Y-90730037D01*
X166110065Y-90730047D01*
X166074500Y-90908843D01*
X166074500Y-90908846D01*
X166074500Y-91091154D01*
X166074500Y-91091156D01*
X166074499Y-91091156D01*
X124500500Y-91091156D01*
X124500500Y-83300321D01*
X140574500Y-83300321D01*
X140574500Y-84699678D01*
X140589032Y-84772735D01*
X140589033Y-84772739D01*
X140589034Y-84772740D01*
X140644399Y-84855601D01*
X140727260Y-84910966D01*
X140727264Y-84910967D01*
X140800321Y-84925499D01*
X140800324Y-84925500D01*
X140800326Y-84925500D01*
X142199676Y-84925500D01*
X142199677Y-84925499D01*
X142272740Y-84910966D01*
X142355601Y-84855601D01*
X142410966Y-84772740D01*
X142425500Y-84699674D01*
X142425500Y-83300326D01*
X142425500Y-83300323D01*
X142425499Y-83300321D01*
X142410967Y-83227264D01*
X142410966Y-83227260D01*
X142355601Y-83144399D01*
X142272740Y-83089034D01*
X142272739Y-83089033D01*
X142272735Y-83089032D01*
X142199677Y-83074500D01*
X142199674Y-83074500D01*
X140800326Y-83074500D01*
X140800323Y-83074500D01*
X140727264Y-83089032D01*
X140727260Y-83089033D01*
X140644399Y-83144399D01*
X140589033Y-83227260D01*
X140589032Y-83227264D01*
X140574500Y-83300321D01*
X124500500Y-83300321D01*
X124500500Y-80300321D01*
X137767000Y-80300321D01*
X137767000Y-81699678D01*
X137781532Y-81772735D01*
X137781533Y-81772739D01*
X137781534Y-81772740D01*
X137836899Y-81855601D01*
X137919760Y-81910966D01*
X137919764Y-81910967D01*
X137992821Y-81925499D01*
X137992824Y-81925500D01*
X137992826Y-81925500D01*
X139392176Y-81925500D01*
X139392177Y-81925499D01*
X139465240Y-81910966D01*
X139548101Y-81855601D01*
X139603466Y-81772740D01*
X139618000Y-81699674D01*
X139618000Y-80300326D01*
X139618000Y-80300323D01*
X139617999Y-80300321D01*
X139603467Y-80227264D01*
X139603466Y-80227260D01*
X139548101Y-80144399D01*
X139465240Y-80089034D01*
X139465239Y-80089033D01*
X139465235Y-80089032D01*
X139392177Y-80074500D01*
X139392174Y-80074500D01*
X137992826Y-80074500D01*
X137992823Y-80074500D01*
X137919764Y-80089032D01*
X137919760Y-80089033D01*
X137836899Y-80144399D01*
X137781533Y-80227260D01*
X137781532Y-80227264D01*
X137767000Y-80300321D01*
X124500500Y-80300321D01*
X124500500Y-75300321D01*
X137574500Y-75300321D01*
X137574500Y-76699678D01*
X137589032Y-76772735D01*
X137589033Y-76772739D01*
X137589034Y-76772740D01*
X137644399Y-76855601D01*
X137727260Y-76910966D01*
X137727264Y-76910967D01*
X137800321Y-76925499D01*
X137800324Y-76925500D01*
X137800326Y-76925500D01*
X139199676Y-76925500D01*
X139199677Y-76925499D01*
X139272740Y-76910966D01*
X139355601Y-76855601D01*
X139410966Y-76772740D01*
X139425500Y-76699674D01*
X139425500Y-75300326D01*
X139425500Y-75300323D01*
X139425499Y-75300321D01*
X139410967Y-75227264D01*
X139410966Y-75227260D01*
X139355601Y-75144399D01*
X139272740Y-75089034D01*
X139272739Y-75089033D01*
X139272735Y-75089032D01*
X139199677Y-75074500D01*
X139199674Y-75074500D01*
X137800326Y-75074500D01*
X137800323Y-75074500D01*
X137727264Y-75089032D01*
X137727260Y-75089033D01*
X137644399Y-75144399D01*
X137589033Y-75227260D01*
X137589032Y-75227264D01*
X137574500Y-75300321D01*
X124500500Y-75300321D01*
X124500500Y-73800321D01*
X150074500Y-73800321D01*
X150074500Y-75199678D01*
X150089032Y-75272735D01*
X150089033Y-75272739D01*
X150089034Y-75272740D01*
X150144399Y-75355601D01*
X150227260Y-75410966D01*
X150227264Y-75410967D01*
X150300321Y-75425499D01*
X150300324Y-75425500D01*
X150300326Y-75425500D01*
X151699676Y-75425500D01*
X151699677Y-75425499D01*
X151772740Y-75410966D01*
X151855601Y-75355601D01*
X151910966Y-75272740D01*
X151925500Y-75199674D01*
X151925500Y-73800326D01*
X151925500Y-73800323D01*
X151925499Y-73800321D01*
X151910967Y-73727264D01*
X151910966Y-73727260D01*
X151855601Y-73644399D01*
X151772740Y-73589034D01*
X151772739Y-73589033D01*
X151772735Y-73589032D01*
X151699677Y-73574500D01*
X151699674Y-73574500D01*
X150300326Y-73574500D01*
X150300323Y-73574500D01*
X150227264Y-73589032D01*
X150227260Y-73589033D01*
X150144399Y-73644399D01*
X150089033Y-73727260D01*
X150089032Y-73727264D01*
X150074500Y-73800321D01*
X124500500Y-73800321D01*
X124500500Y-67800321D01*
X152574500Y-67800321D01*
X152574500Y-69199678D01*
X152589032Y-69272735D01*
X152589033Y-69272739D01*
X152589034Y-69272740D01*
X152644399Y-69355601D01*
X152727260Y-69410966D01*
X152727264Y-69410967D01*
X152800321Y-69425499D01*
X152800324Y-69425500D01*
X152800326Y-69425500D01*
X154199676Y-69425500D01*
X154199677Y-69425499D01*
X154272740Y-69410966D01*
X154355601Y-69355601D01*
X154410966Y-69272740D01*
X154425500Y-69199674D01*
X154425500Y-67800326D01*
X154425500Y-67800323D01*
X154425499Y-67800321D01*
X154410967Y-67727264D01*
X154410966Y-67727260D01*
X154355601Y-67644399D01*
X154272740Y-67589034D01*
X154272739Y-67589033D01*
X154272735Y-67589032D01*
X154199677Y-67574500D01*
X154199674Y-67574500D01*
X152800326Y-67574500D01*
X152800323Y-67574500D01*
X152727264Y-67589032D01*
X152727260Y-67589033D01*
X152644399Y-67644399D01*
X152589033Y-67727260D01*
X152589032Y-67727264D01*
X152574500Y-67800321D01*
X124500500Y-67800321D01*
X124500500Y-64907822D01*
X131257000Y-64907822D01*
X131257000Y-65192178D01*
X131271811Y-65285690D01*
X131286622Y-65379204D01*
X131345134Y-65559289D01*
X131345135Y-65559292D01*
X131408690Y-65684023D01*
X131431102Y-65728009D01*
X131542403Y-65881202D01*
X131676298Y-66015097D01*
X131829491Y-66126398D01*
X131871375Y-66147739D01*
X131998207Y-66212364D01*
X131998210Y-66212365D01*
X132054333Y-66230600D01*
X132178297Y-66270878D01*
X132365322Y-66300500D01*
X132365323Y-66300500D01*
X132554677Y-66300500D01*
X132554678Y-66300500D01*
X132741703Y-66270878D01*
X132921792Y-66212364D01*
X133090509Y-66126398D01*
X133243702Y-66015097D01*
X133377597Y-65881202D01*
X133488898Y-65728009D01*
X133574864Y-65559292D01*
X133612069Y-65444786D01*
X133651506Y-65387111D01*
X133715864Y-65359912D01*
X133784711Y-65371826D01*
X133836187Y-65419070D01*
X133847931Y-65444786D01*
X133885134Y-65559289D01*
X133885135Y-65559292D01*
X133948690Y-65684023D01*
X133971102Y-65728009D01*
X134082403Y-65881202D01*
X134216298Y-66015097D01*
X134369491Y-66126398D01*
X134411375Y-66147739D01*
X134538207Y-66212364D01*
X134538210Y-66212365D01*
X134594333Y-66230600D01*
X134718297Y-66270878D01*
X134905322Y-66300500D01*
X134905323Y-66300500D01*
X135094677Y-66300500D01*
X135094678Y-66300500D01*
X135281703Y-66270878D01*
X135461792Y-66212364D01*
X135630509Y-66126398D01*
X135783702Y-66015097D01*
X135917597Y-65881202D01*
X136028898Y-65728009D01*
X136102515Y-65583527D01*
X136150490Y-65532732D01*
X136218311Y-65515937D01*
X136284446Y-65538475D01*
X136327897Y-65593190D01*
X136337000Y-65639823D01*
X136337000Y-66074678D01*
X136351532Y-66147735D01*
X136351533Y-66147739D01*
X136351534Y-66147740D01*
X136406899Y-66230601D01*
X136467179Y-66270878D01*
X136489760Y-66285966D01*
X136489764Y-66285967D01*
X136562821Y-66300499D01*
X136562824Y-66300500D01*
X136562826Y-66300500D01*
X138517176Y-66300500D01*
X138517177Y-66300499D01*
X138590240Y-66285966D01*
X138673101Y-66230601D01*
X138728466Y-66147740D01*
X138743000Y-66074674D01*
X138743000Y-65266746D01*
X158624500Y-65266746D01*
X158624500Y-67733253D01*
X158658370Y-67947098D01*
X158725272Y-68153006D01*
X158725273Y-68153009D01*
X158823567Y-68345919D01*
X158950828Y-68521078D01*
X159103922Y-68674172D01*
X159279081Y-68801433D01*
X159373697Y-68849642D01*
X159471990Y-68899726D01*
X159471993Y-68899727D01*
X159574947Y-68933178D01*
X159677903Y-68966630D01*
X159891746Y-69000500D01*
X159891747Y-69000500D01*
X160108253Y-69000500D01*
X160108254Y-69000500D01*
X160322097Y-68966630D01*
X160528009Y-68899726D01*
X160720919Y-68801433D01*
X160896078Y-68674172D01*
X161049172Y-68521078D01*
X161176433Y-68345919D01*
X161274726Y-68153009D01*
X161341630Y-67947097D01*
X161375500Y-67733254D01*
X161375500Y-66396530D01*
X167949500Y-66396530D01*
X167949500Y-66603469D01*
X167989868Y-66806412D01*
X167989870Y-66806420D01*
X168069058Y-66997596D01*
X168184024Y-67169657D01*
X168330342Y-67315975D01*
X168330345Y-67315977D01*
X168502402Y-67430941D01*
X168693580Y-67510130D01*
X168896530Y-67550499D01*
X168896534Y-67550500D01*
X168896535Y-67550500D01*
X169103466Y-67550500D01*
X169103467Y-67550499D01*
X169306420Y-67510130D01*
X169497598Y-67430941D01*
X169669655Y-67315977D01*
X169815977Y-67169655D01*
X169930941Y-66997598D01*
X170010130Y-66806420D01*
X170050500Y-66603465D01*
X170050500Y-66396535D01*
X170010130Y-66193580D01*
X169930941Y-66002402D01*
X169815977Y-65830345D01*
X169815975Y-65830342D01*
X169669657Y-65684024D01*
X169533713Y-65593190D01*
X169497598Y-65569059D01*
X169474011Y-65559289D01*
X169306420Y-65489870D01*
X169306412Y-65489868D01*
X169103469Y-65449500D01*
X169103465Y-65449500D01*
X168896535Y-65449500D01*
X168896530Y-65449500D01*
X168693587Y-65489868D01*
X168693579Y-65489870D01*
X168502403Y-65569058D01*
X168330342Y-65684024D01*
X168184024Y-65830342D01*
X168069058Y-66002403D01*
X167989870Y-66193579D01*
X167989868Y-66193587D01*
X167949500Y-66396530D01*
X161375500Y-66396530D01*
X161375500Y-65266746D01*
X161341630Y-65052903D01*
X161274726Y-64846991D01*
X161274726Y-64846990D01*
X161210427Y-64720797D01*
X161176433Y-64654081D01*
X161049172Y-64478922D01*
X160896078Y-64325828D01*
X160720919Y-64198567D01*
X160528009Y-64100273D01*
X160528006Y-64100272D01*
X160322098Y-64033370D01*
X160215175Y-64016435D01*
X160108254Y-63999500D01*
X159891746Y-63999500D01*
X159820465Y-64010790D01*
X159677901Y-64033370D01*
X159471993Y-64100272D01*
X159471990Y-64100273D01*
X159279080Y-64198567D01*
X159179145Y-64271174D01*
X159103922Y-64325828D01*
X159103920Y-64325830D01*
X159103919Y-64325830D01*
X158950830Y-64478919D01*
X158950830Y-64478920D01*
X158950828Y-64478922D01*
X158923547Y-64516471D01*
X158823567Y-64654080D01*
X158725273Y-64846990D01*
X158725272Y-64846993D01*
X158658370Y-65052901D01*
X158624500Y-65266746D01*
X138743000Y-65266746D01*
X138743000Y-64025326D01*
X138743000Y-64025323D01*
X138742999Y-64025321D01*
X138728467Y-63952264D01*
X138728466Y-63952260D01*
X138685286Y-63887636D01*
X138673101Y-63869399D01*
X138590240Y-63814034D01*
X138590239Y-63814033D01*
X138590235Y-63814032D01*
X138517177Y-63799500D01*
X138517174Y-63799500D01*
X136562826Y-63799500D01*
X136562823Y-63799500D01*
X136489764Y-63814032D01*
X136489760Y-63814033D01*
X136406899Y-63869399D01*
X136351533Y-63952260D01*
X136351532Y-63952264D01*
X136337000Y-64025321D01*
X136337000Y-64460176D01*
X136317315Y-64527215D01*
X136264511Y-64572970D01*
X136195353Y-64582914D01*
X136131797Y-64553889D01*
X136102515Y-64516471D01*
X136028897Y-64371990D01*
X135995360Y-64325830D01*
X135917597Y-64218798D01*
X135783702Y-64084903D01*
X135630509Y-63973602D01*
X135588631Y-63952264D01*
X135461792Y-63887635D01*
X135461789Y-63887634D01*
X135281704Y-63829122D01*
X135186429Y-63814032D01*
X135094678Y-63799500D01*
X134905322Y-63799500D01*
X134842980Y-63809374D01*
X134718295Y-63829122D01*
X134538210Y-63887634D01*
X134538207Y-63887635D01*
X134369490Y-63973602D01*
X134216295Y-64084905D01*
X134082405Y-64218795D01*
X133971102Y-64371990D01*
X133885135Y-64540707D01*
X133885134Y-64540710D01*
X133847931Y-64655213D01*
X133808494Y-64712888D01*
X133744135Y-64740087D01*
X133675289Y-64728173D01*
X133623813Y-64680929D01*
X133612069Y-64655213D01*
X133574865Y-64540710D01*
X133574864Y-64540707D01*
X133488897Y-64371990D01*
X133455360Y-64325830D01*
X133377597Y-64218798D01*
X133243702Y-64084903D01*
X133090509Y-63973602D01*
X133048631Y-63952264D01*
X132921792Y-63887635D01*
X132921789Y-63887634D01*
X132741704Y-63829122D01*
X132646429Y-63814032D01*
X132554678Y-63799500D01*
X132365322Y-63799500D01*
X132302980Y-63809374D01*
X132178295Y-63829122D01*
X131998210Y-63887634D01*
X131998207Y-63887635D01*
X131829490Y-63973602D01*
X131676295Y-64084905D01*
X131542405Y-64218795D01*
X131431102Y-64371990D01*
X131345135Y-64540707D01*
X131345134Y-64540710D01*
X131286622Y-64720795D01*
X131266635Y-64846990D01*
X131257000Y-64907822D01*
X124500500Y-64907822D01*
X124500500Y-60624500D01*
X124520185Y-60557461D01*
X124572989Y-60511706D01*
X124624500Y-60500500D01*
X172375500Y-60500500D01*
X172442539Y-60520185D01*
G37*
%TD.AperFunction*%
%TD*%
M02*
