%TF.GenerationSoftware,KiCad,Pcbnew,10.0.1*%
%TF.CreationDate,2026-06-24T22:24:27-04:00*%
%TF.ProjectId,dc_programmable_load,64635f70-726f-4677-9261-6d6d61626c65,rev?*%
%TF.SameCoordinates,Original*%
%TF.FileFunction,Legend,Top*%
%TF.FilePolarity,Positive*%
%FSLAX46Y46*%
G04 Gerber Fmt 4.6, Leading zero omitted, Abs format (unit mm)*
G04 Created by KiCad (PCBNEW 10.0.1) date 2026-06-24 22:24:27*
%MOMM*%
%LPD*%
G01*
G04 APERTURE LIST*
%ADD10C,0.150000*%
%ADD11C,0.127000*%
%ADD12C,0.400000*%
%ADD13C,0.120000*%
%ADD14C,0.152400*%
G04 APERTURE END LIST*
D10*
X161552015Y-58828051D02*
X161552015Y-59542500D01*
X161552015Y-59542500D02*
X161504386Y-59685390D01*
X161504386Y-59685390D02*
X161409126Y-59780650D01*
X161409126Y-59780650D02*
X161266236Y-59828279D01*
X161266236Y-59828279D02*
X161170976Y-59828279D01*
X162552243Y-59828279D02*
X161980684Y-59828279D01*
X162266464Y-59828279D02*
X162266464Y-58828051D01*
X162266464Y-58828051D02*
X162171204Y-58970941D01*
X162171204Y-58970941D02*
X162075944Y-59066201D01*
X162075944Y-59066201D02*
X161980684Y-59113831D01*
X140690476Y-81344819D02*
X140690476Y-82059104D01*
X140690476Y-82059104D02*
X140642857Y-82201961D01*
X140642857Y-82201961D02*
X140547619Y-82297200D01*
X140547619Y-82297200D02*
X140404762Y-82344819D01*
X140404762Y-82344819D02*
X140309524Y-82344819D01*
X141690476Y-82344819D02*
X141119048Y-82344819D01*
X141404762Y-82344819D02*
X141404762Y-81344819D01*
X141404762Y-81344819D02*
X141309524Y-81487676D01*
X141309524Y-81487676D02*
X141214286Y-81582914D01*
X141214286Y-81582914D02*
X141119048Y-81630533D01*
X142309524Y-81344819D02*
X142404762Y-81344819D01*
X142404762Y-81344819D02*
X142500000Y-81392438D01*
X142500000Y-81392438D02*
X142547619Y-81440057D01*
X142547619Y-81440057D02*
X142595238Y-81535295D01*
X142595238Y-81535295D02*
X142642857Y-81725771D01*
X142642857Y-81725771D02*
X142642857Y-81963866D01*
X142642857Y-81963866D02*
X142595238Y-82154342D01*
X142595238Y-82154342D02*
X142547619Y-82249580D01*
X142547619Y-82249580D02*
X142500000Y-82297200D01*
X142500000Y-82297200D02*
X142404762Y-82344819D01*
X142404762Y-82344819D02*
X142309524Y-82344819D01*
X142309524Y-82344819D02*
X142214286Y-82297200D01*
X142214286Y-82297200D02*
X142166667Y-82249580D01*
X142166667Y-82249580D02*
X142119048Y-82154342D01*
X142119048Y-82154342D02*
X142071429Y-81963866D01*
X142071429Y-81963866D02*
X142071429Y-81725771D01*
X142071429Y-81725771D02*
X142119048Y-81535295D01*
X142119048Y-81535295D02*
X142166667Y-81440057D01*
X142166667Y-81440057D02*
X142214286Y-81392438D01*
X142214286Y-81392438D02*
X142309524Y-81344819D01*
X130604819Y-87666666D02*
X130128628Y-87999999D01*
X130604819Y-88238094D02*
X129604819Y-88238094D01*
X129604819Y-88238094D02*
X129604819Y-87857142D01*
X129604819Y-87857142D02*
X129652438Y-87761904D01*
X129652438Y-87761904D02*
X129700057Y-87714285D01*
X129700057Y-87714285D02*
X129795295Y-87666666D01*
X129795295Y-87666666D02*
X129938152Y-87666666D01*
X129938152Y-87666666D02*
X130033390Y-87714285D01*
X130033390Y-87714285D02*
X130081009Y-87761904D01*
X130081009Y-87761904D02*
X130128628Y-87857142D01*
X130128628Y-87857142D02*
X130128628Y-88238094D01*
X129700057Y-87285713D02*
X129652438Y-87238094D01*
X129652438Y-87238094D02*
X129604819Y-87142856D01*
X129604819Y-87142856D02*
X129604819Y-86904761D01*
X129604819Y-86904761D02*
X129652438Y-86809523D01*
X129652438Y-86809523D02*
X129700057Y-86761904D01*
X129700057Y-86761904D02*
X129795295Y-86714285D01*
X129795295Y-86714285D02*
X129890533Y-86714285D01*
X129890533Y-86714285D02*
X130033390Y-86761904D01*
X130033390Y-86761904D02*
X130604819Y-87333332D01*
X130604819Y-87333332D02*
X130604819Y-86714285D01*
X150454819Y-95166666D02*
X149454819Y-95166666D01*
X149454819Y-95166666D02*
X149454819Y-94928571D01*
X149454819Y-94928571D02*
X149502438Y-94785714D01*
X149502438Y-94785714D02*
X149597676Y-94690476D01*
X149597676Y-94690476D02*
X149692914Y-94642857D01*
X149692914Y-94642857D02*
X149883390Y-94595238D01*
X149883390Y-94595238D02*
X150026247Y-94595238D01*
X150026247Y-94595238D02*
X150216723Y-94642857D01*
X150216723Y-94642857D02*
X150311961Y-94690476D01*
X150311961Y-94690476D02*
X150407200Y-94785714D01*
X150407200Y-94785714D02*
X150454819Y-94928571D01*
X150454819Y-94928571D02*
X150454819Y-95166666D01*
X150169104Y-94214285D02*
X150169104Y-93738095D01*
X150454819Y-94309523D02*
X149454819Y-93976190D01*
X149454819Y-93976190D02*
X150454819Y-93642857D01*
X150359580Y-92738095D02*
X150407200Y-92785714D01*
X150407200Y-92785714D02*
X150454819Y-92928571D01*
X150454819Y-92928571D02*
X150454819Y-93023809D01*
X150454819Y-93023809D02*
X150407200Y-93166666D01*
X150407200Y-93166666D02*
X150311961Y-93261904D01*
X150311961Y-93261904D02*
X150216723Y-93309523D01*
X150216723Y-93309523D02*
X150026247Y-93357142D01*
X150026247Y-93357142D02*
X149883390Y-93357142D01*
X149883390Y-93357142D02*
X149692914Y-93309523D01*
X149692914Y-93309523D02*
X149597676Y-93261904D01*
X149597676Y-93261904D02*
X149502438Y-93166666D01*
X149502438Y-93166666D02*
X149454819Y-93023809D01*
X149454819Y-93023809D02*
X149454819Y-92928571D01*
X149454819Y-92928571D02*
X149502438Y-92785714D01*
X149502438Y-92785714D02*
X149550057Y-92738095D01*
X150454819Y-91785714D02*
X150454819Y-92357142D01*
X150454819Y-92071428D02*
X149454819Y-92071428D01*
X149454819Y-92071428D02*
X149597676Y-92166666D01*
X149597676Y-92166666D02*
X149692914Y-92261904D01*
X149692914Y-92261904D02*
X149740533Y-92357142D01*
X154833333Y-73104819D02*
X154500000Y-72628628D01*
X154261905Y-73104819D02*
X154261905Y-72104819D01*
X154261905Y-72104819D02*
X154642857Y-72104819D01*
X154642857Y-72104819D02*
X154738095Y-72152438D01*
X154738095Y-72152438D02*
X154785714Y-72200057D01*
X154785714Y-72200057D02*
X154833333Y-72295295D01*
X154833333Y-72295295D02*
X154833333Y-72438152D01*
X154833333Y-72438152D02*
X154785714Y-72533390D01*
X154785714Y-72533390D02*
X154738095Y-72581009D01*
X154738095Y-72581009D02*
X154642857Y-72628628D01*
X154642857Y-72628628D02*
X154261905Y-72628628D01*
X155404762Y-72533390D02*
X155309524Y-72485771D01*
X155309524Y-72485771D02*
X155261905Y-72438152D01*
X155261905Y-72438152D02*
X155214286Y-72342914D01*
X155214286Y-72342914D02*
X155214286Y-72295295D01*
X155214286Y-72295295D02*
X155261905Y-72200057D01*
X155261905Y-72200057D02*
X155309524Y-72152438D01*
X155309524Y-72152438D02*
X155404762Y-72104819D01*
X155404762Y-72104819D02*
X155595238Y-72104819D01*
X155595238Y-72104819D02*
X155690476Y-72152438D01*
X155690476Y-72152438D02*
X155738095Y-72200057D01*
X155738095Y-72200057D02*
X155785714Y-72295295D01*
X155785714Y-72295295D02*
X155785714Y-72342914D01*
X155785714Y-72342914D02*
X155738095Y-72438152D01*
X155738095Y-72438152D02*
X155690476Y-72485771D01*
X155690476Y-72485771D02*
X155595238Y-72533390D01*
X155595238Y-72533390D02*
X155404762Y-72533390D01*
X155404762Y-72533390D02*
X155309524Y-72581009D01*
X155309524Y-72581009D02*
X155261905Y-72628628D01*
X155261905Y-72628628D02*
X155214286Y-72723866D01*
X155214286Y-72723866D02*
X155214286Y-72914342D01*
X155214286Y-72914342D02*
X155261905Y-73009580D01*
X155261905Y-73009580D02*
X155309524Y-73057200D01*
X155309524Y-73057200D02*
X155404762Y-73104819D01*
X155404762Y-73104819D02*
X155595238Y-73104819D01*
X155595238Y-73104819D02*
X155690476Y-73057200D01*
X155690476Y-73057200D02*
X155738095Y-73009580D01*
X155738095Y-73009580D02*
X155785714Y-72914342D01*
X155785714Y-72914342D02*
X155785714Y-72723866D01*
X155785714Y-72723866D02*
X155738095Y-72628628D01*
X155738095Y-72628628D02*
X155690476Y-72581009D01*
X155690476Y-72581009D02*
X155595238Y-72533390D01*
X129679580Y-90166666D02*
X129727200Y-90214285D01*
X129727200Y-90214285D02*
X129774819Y-90357142D01*
X129774819Y-90357142D02*
X129774819Y-90452380D01*
X129774819Y-90452380D02*
X129727200Y-90595237D01*
X129727200Y-90595237D02*
X129631961Y-90690475D01*
X129631961Y-90690475D02*
X129536723Y-90738094D01*
X129536723Y-90738094D02*
X129346247Y-90785713D01*
X129346247Y-90785713D02*
X129203390Y-90785713D01*
X129203390Y-90785713D02*
X129012914Y-90738094D01*
X129012914Y-90738094D02*
X128917676Y-90690475D01*
X128917676Y-90690475D02*
X128822438Y-90595237D01*
X128822438Y-90595237D02*
X128774819Y-90452380D01*
X128774819Y-90452380D02*
X128774819Y-90357142D01*
X128774819Y-90357142D02*
X128822438Y-90214285D01*
X128822438Y-90214285D02*
X128870057Y-90166666D01*
X128774819Y-89309523D02*
X128774819Y-89499999D01*
X128774819Y-89499999D02*
X128822438Y-89595237D01*
X128822438Y-89595237D02*
X128870057Y-89642856D01*
X128870057Y-89642856D02*
X129012914Y-89738094D01*
X129012914Y-89738094D02*
X129203390Y-89785713D01*
X129203390Y-89785713D02*
X129584342Y-89785713D01*
X129584342Y-89785713D02*
X129679580Y-89738094D01*
X129679580Y-89738094D02*
X129727200Y-89690475D01*
X129727200Y-89690475D02*
X129774819Y-89595237D01*
X129774819Y-89595237D02*
X129774819Y-89404761D01*
X129774819Y-89404761D02*
X129727200Y-89309523D01*
X129727200Y-89309523D02*
X129679580Y-89261904D01*
X129679580Y-89261904D02*
X129584342Y-89214285D01*
X129584342Y-89214285D02*
X129346247Y-89214285D01*
X129346247Y-89214285D02*
X129251009Y-89261904D01*
X129251009Y-89261904D02*
X129203390Y-89309523D01*
X129203390Y-89309523D02*
X129155771Y-89404761D01*
X129155771Y-89404761D02*
X129155771Y-89595237D01*
X129155771Y-89595237D02*
X129203390Y-89690475D01*
X129203390Y-89690475D02*
X129251009Y-89738094D01*
X129251009Y-89738094D02*
X129346247Y-89785713D01*
X128104819Y-75166666D02*
X127628628Y-75499999D01*
X128104819Y-75738094D02*
X127104819Y-75738094D01*
X127104819Y-75738094D02*
X127104819Y-75357142D01*
X127104819Y-75357142D02*
X127152438Y-75261904D01*
X127152438Y-75261904D02*
X127200057Y-75214285D01*
X127200057Y-75214285D02*
X127295295Y-75166666D01*
X127295295Y-75166666D02*
X127438152Y-75166666D01*
X127438152Y-75166666D02*
X127533390Y-75214285D01*
X127533390Y-75214285D02*
X127581009Y-75261904D01*
X127581009Y-75261904D02*
X127628628Y-75357142D01*
X127628628Y-75357142D02*
X127628628Y-75738094D01*
X128104819Y-74214285D02*
X128104819Y-74785713D01*
X128104819Y-74499999D02*
X127104819Y-74499999D01*
X127104819Y-74499999D02*
X127247676Y-74595237D01*
X127247676Y-74595237D02*
X127342914Y-74690475D01*
X127342914Y-74690475D02*
X127390533Y-74785713D01*
X150190476Y-71844819D02*
X150190476Y-72559104D01*
X150190476Y-72559104D02*
X150142857Y-72701961D01*
X150142857Y-72701961D02*
X150047619Y-72797200D01*
X150047619Y-72797200D02*
X149904762Y-72844819D01*
X149904762Y-72844819D02*
X149809524Y-72844819D01*
X151190476Y-72844819D02*
X150619048Y-72844819D01*
X150904762Y-72844819D02*
X150904762Y-71844819D01*
X150904762Y-71844819D02*
X150809524Y-71987676D01*
X150809524Y-71987676D02*
X150714286Y-72082914D01*
X150714286Y-72082914D02*
X150619048Y-72130533D01*
X151523810Y-71844819D02*
X152142857Y-71844819D01*
X152142857Y-71844819D02*
X151809524Y-72225771D01*
X151809524Y-72225771D02*
X151952381Y-72225771D01*
X151952381Y-72225771D02*
X152047619Y-72273390D01*
X152047619Y-72273390D02*
X152095238Y-72321009D01*
X152095238Y-72321009D02*
X152142857Y-72416247D01*
X152142857Y-72416247D02*
X152142857Y-72654342D01*
X152142857Y-72654342D02*
X152095238Y-72749580D01*
X152095238Y-72749580D02*
X152047619Y-72797200D01*
X152047619Y-72797200D02*
X151952381Y-72844819D01*
X151952381Y-72844819D02*
X151666667Y-72844819D01*
X151666667Y-72844819D02*
X151571429Y-72797200D01*
X151571429Y-72797200D02*
X151523810Y-72749580D01*
X156179580Y-62867348D02*
X156227200Y-62914967D01*
X156227200Y-62914967D02*
X156274819Y-63057824D01*
X156274819Y-63057824D02*
X156274819Y-63153062D01*
X156274819Y-63153062D02*
X156227200Y-63295919D01*
X156227200Y-63295919D02*
X156131961Y-63391157D01*
X156131961Y-63391157D02*
X156036723Y-63438776D01*
X156036723Y-63438776D02*
X155846247Y-63486395D01*
X155846247Y-63486395D02*
X155703390Y-63486395D01*
X155703390Y-63486395D02*
X155512914Y-63438776D01*
X155512914Y-63438776D02*
X155417676Y-63391157D01*
X155417676Y-63391157D02*
X155322438Y-63295919D01*
X155322438Y-63295919D02*
X155274819Y-63153062D01*
X155274819Y-63153062D02*
X155274819Y-63057824D01*
X155274819Y-63057824D02*
X155322438Y-62914967D01*
X155322438Y-62914967D02*
X155370057Y-62867348D01*
X155608152Y-62010205D02*
X156274819Y-62010205D01*
X155227200Y-62248300D02*
X155941485Y-62486395D01*
X155941485Y-62486395D02*
X155941485Y-61867348D01*
X135785714Y-94119104D02*
X136261904Y-94119104D01*
X135690476Y-94404819D02*
X136023809Y-93404819D01*
X136023809Y-93404819D02*
X136357142Y-94404819D01*
X136690476Y-94404819D02*
X136690476Y-93404819D01*
X136690476Y-93404819D02*
X136928571Y-93404819D01*
X136928571Y-93404819D02*
X137071428Y-93452438D01*
X137071428Y-93452438D02*
X137166666Y-93547676D01*
X137166666Y-93547676D02*
X137214285Y-93642914D01*
X137214285Y-93642914D02*
X137261904Y-93833390D01*
X137261904Y-93833390D02*
X137261904Y-93976247D01*
X137261904Y-93976247D02*
X137214285Y-94166723D01*
X137214285Y-94166723D02*
X137166666Y-94261961D01*
X137166666Y-94261961D02*
X137071428Y-94357200D01*
X137071428Y-94357200D02*
X136928571Y-94404819D01*
X136928571Y-94404819D02*
X136690476Y-94404819D01*
X138261904Y-94309580D02*
X138214285Y-94357200D01*
X138214285Y-94357200D02*
X138071428Y-94404819D01*
X138071428Y-94404819D02*
X137976190Y-94404819D01*
X137976190Y-94404819D02*
X137833333Y-94357200D01*
X137833333Y-94357200D02*
X137738095Y-94261961D01*
X137738095Y-94261961D02*
X137690476Y-94166723D01*
X137690476Y-94166723D02*
X137642857Y-93976247D01*
X137642857Y-93976247D02*
X137642857Y-93833390D01*
X137642857Y-93833390D02*
X137690476Y-93642914D01*
X137690476Y-93642914D02*
X137738095Y-93547676D01*
X137738095Y-93547676D02*
X137833333Y-93452438D01*
X137833333Y-93452438D02*
X137976190Y-93404819D01*
X137976190Y-93404819D02*
X138071428Y-93404819D01*
X138071428Y-93404819D02*
X138214285Y-93452438D01*
X138214285Y-93452438D02*
X138261904Y-93500057D01*
X139214285Y-94404819D02*
X138642857Y-94404819D01*
X138928571Y-94404819D02*
X138928571Y-93404819D01*
X138928571Y-93404819D02*
X138833333Y-93547676D01*
X138833333Y-93547676D02*
X138738095Y-93642914D01*
X138738095Y-93642914D02*
X138642857Y-93690533D01*
X156833333Y-83954819D02*
X156357143Y-83954819D01*
X156357143Y-83954819D02*
X156357143Y-82954819D01*
X157690476Y-83954819D02*
X157119048Y-83954819D01*
X157404762Y-83954819D02*
X157404762Y-82954819D01*
X157404762Y-82954819D02*
X157309524Y-83097676D01*
X157309524Y-83097676D02*
X157214286Y-83192914D01*
X157214286Y-83192914D02*
X157119048Y-83240533D01*
X134904761Y-69700057D02*
X134809523Y-69652438D01*
X134809523Y-69652438D02*
X134714285Y-69557200D01*
X134714285Y-69557200D02*
X134571428Y-69414342D01*
X134571428Y-69414342D02*
X134476190Y-69366723D01*
X134476190Y-69366723D02*
X134380952Y-69366723D01*
X134428571Y-69604819D02*
X134333333Y-69557200D01*
X134333333Y-69557200D02*
X134238095Y-69461961D01*
X134238095Y-69461961D02*
X134190476Y-69271485D01*
X134190476Y-69271485D02*
X134190476Y-68938152D01*
X134190476Y-68938152D02*
X134238095Y-68747676D01*
X134238095Y-68747676D02*
X134333333Y-68652438D01*
X134333333Y-68652438D02*
X134428571Y-68604819D01*
X134428571Y-68604819D02*
X134619047Y-68604819D01*
X134619047Y-68604819D02*
X134714285Y-68652438D01*
X134714285Y-68652438D02*
X134809523Y-68747676D01*
X134809523Y-68747676D02*
X134857142Y-68938152D01*
X134857142Y-68938152D02*
X134857142Y-69271485D01*
X134857142Y-69271485D02*
X134809523Y-69461961D01*
X134809523Y-69461961D02*
X134714285Y-69557200D01*
X134714285Y-69557200D02*
X134619047Y-69604819D01*
X134619047Y-69604819D02*
X134428571Y-69604819D01*
X135809523Y-69604819D02*
X135238095Y-69604819D01*
X135523809Y-69604819D02*
X135523809Y-68604819D01*
X135523809Y-68604819D02*
X135428571Y-68747676D01*
X135428571Y-68747676D02*
X135333333Y-68842914D01*
X135333333Y-68842914D02*
X135238095Y-68890533D01*
X145929580Y-77142857D02*
X145977200Y-77190476D01*
X145977200Y-77190476D02*
X146024819Y-77333333D01*
X146024819Y-77333333D02*
X146024819Y-77428571D01*
X146024819Y-77428571D02*
X145977200Y-77571428D01*
X145977200Y-77571428D02*
X145881961Y-77666666D01*
X145881961Y-77666666D02*
X145786723Y-77714285D01*
X145786723Y-77714285D02*
X145596247Y-77761904D01*
X145596247Y-77761904D02*
X145453390Y-77761904D01*
X145453390Y-77761904D02*
X145262914Y-77714285D01*
X145262914Y-77714285D02*
X145167676Y-77666666D01*
X145167676Y-77666666D02*
X145072438Y-77571428D01*
X145072438Y-77571428D02*
X145024819Y-77428571D01*
X145024819Y-77428571D02*
X145024819Y-77333333D01*
X145024819Y-77333333D02*
X145072438Y-77190476D01*
X145072438Y-77190476D02*
X145120057Y-77142857D01*
X146024819Y-76190476D02*
X146024819Y-76761904D01*
X146024819Y-76476190D02*
X145024819Y-76476190D01*
X145024819Y-76476190D02*
X145167676Y-76571428D01*
X145167676Y-76571428D02*
X145262914Y-76666666D01*
X145262914Y-76666666D02*
X145310533Y-76761904D01*
X145024819Y-75285714D02*
X145024819Y-75761904D01*
X145024819Y-75761904D02*
X145501009Y-75809523D01*
X145501009Y-75809523D02*
X145453390Y-75761904D01*
X145453390Y-75761904D02*
X145405771Y-75666666D01*
X145405771Y-75666666D02*
X145405771Y-75428571D01*
X145405771Y-75428571D02*
X145453390Y-75333333D01*
X145453390Y-75333333D02*
X145501009Y-75285714D01*
X145501009Y-75285714D02*
X145596247Y-75238095D01*
X145596247Y-75238095D02*
X145834342Y-75238095D01*
X145834342Y-75238095D02*
X145929580Y-75285714D01*
X145929580Y-75285714D02*
X145977200Y-75333333D01*
X145977200Y-75333333D02*
X146024819Y-75428571D01*
X146024819Y-75428571D02*
X146024819Y-75666666D01*
X146024819Y-75666666D02*
X145977200Y-75761904D01*
X145977200Y-75761904D02*
X145929580Y-75809523D01*
X143166666Y-95844819D02*
X143166666Y-96559104D01*
X143166666Y-96559104D02*
X143119047Y-96701961D01*
X143119047Y-96701961D02*
X143023809Y-96797200D01*
X143023809Y-96797200D02*
X142880952Y-96844819D01*
X142880952Y-96844819D02*
X142785714Y-96844819D01*
X144071428Y-95844819D02*
X143880952Y-95844819D01*
X143880952Y-95844819D02*
X143785714Y-95892438D01*
X143785714Y-95892438D02*
X143738095Y-95940057D01*
X143738095Y-95940057D02*
X143642857Y-96082914D01*
X143642857Y-96082914D02*
X143595238Y-96273390D01*
X143595238Y-96273390D02*
X143595238Y-96654342D01*
X143595238Y-96654342D02*
X143642857Y-96749580D01*
X143642857Y-96749580D02*
X143690476Y-96797200D01*
X143690476Y-96797200D02*
X143785714Y-96844819D01*
X143785714Y-96844819D02*
X143976190Y-96844819D01*
X143976190Y-96844819D02*
X144071428Y-96797200D01*
X144071428Y-96797200D02*
X144119047Y-96749580D01*
X144119047Y-96749580D02*
X144166666Y-96654342D01*
X144166666Y-96654342D02*
X144166666Y-96416247D01*
X144166666Y-96416247D02*
X144119047Y-96321009D01*
X144119047Y-96321009D02*
X144071428Y-96273390D01*
X144071428Y-96273390D02*
X143976190Y-96225771D01*
X143976190Y-96225771D02*
X143785714Y-96225771D01*
X143785714Y-96225771D02*
X143690476Y-96273390D01*
X143690476Y-96273390D02*
X143642857Y-96321009D01*
X143642857Y-96321009D02*
X143595238Y-96416247D01*
X161333333Y-84429580D02*
X161285714Y-84477200D01*
X161285714Y-84477200D02*
X161142857Y-84524819D01*
X161142857Y-84524819D02*
X161047619Y-84524819D01*
X161047619Y-84524819D02*
X160904762Y-84477200D01*
X160904762Y-84477200D02*
X160809524Y-84381961D01*
X160809524Y-84381961D02*
X160761905Y-84286723D01*
X160761905Y-84286723D02*
X160714286Y-84096247D01*
X160714286Y-84096247D02*
X160714286Y-83953390D01*
X160714286Y-83953390D02*
X160761905Y-83762914D01*
X160761905Y-83762914D02*
X160809524Y-83667676D01*
X160809524Y-83667676D02*
X160904762Y-83572438D01*
X160904762Y-83572438D02*
X161047619Y-83524819D01*
X161047619Y-83524819D02*
X161142857Y-83524819D01*
X161142857Y-83524819D02*
X161285714Y-83572438D01*
X161285714Y-83572438D02*
X161333333Y-83620057D01*
X161809524Y-84524819D02*
X162000000Y-84524819D01*
X162000000Y-84524819D02*
X162095238Y-84477200D01*
X162095238Y-84477200D02*
X162142857Y-84429580D01*
X162142857Y-84429580D02*
X162238095Y-84286723D01*
X162238095Y-84286723D02*
X162285714Y-84096247D01*
X162285714Y-84096247D02*
X162285714Y-83715295D01*
X162285714Y-83715295D02*
X162238095Y-83620057D01*
X162238095Y-83620057D02*
X162190476Y-83572438D01*
X162190476Y-83572438D02*
X162095238Y-83524819D01*
X162095238Y-83524819D02*
X161904762Y-83524819D01*
X161904762Y-83524819D02*
X161809524Y-83572438D01*
X161809524Y-83572438D02*
X161761905Y-83620057D01*
X161761905Y-83620057D02*
X161714286Y-83715295D01*
X161714286Y-83715295D02*
X161714286Y-83953390D01*
X161714286Y-83953390D02*
X161761905Y-84048628D01*
X161761905Y-84048628D02*
X161809524Y-84096247D01*
X161809524Y-84096247D02*
X161904762Y-84143866D01*
X161904762Y-84143866D02*
X162095238Y-84143866D01*
X162095238Y-84143866D02*
X162190476Y-84096247D01*
X162190476Y-84096247D02*
X162238095Y-84048628D01*
X162238095Y-84048628D02*
X162285714Y-83953390D01*
X129333333Y-94289580D02*
X129285714Y-94337200D01*
X129285714Y-94337200D02*
X129142857Y-94384819D01*
X129142857Y-94384819D02*
X129047619Y-94384819D01*
X129047619Y-94384819D02*
X128904762Y-94337200D01*
X128904762Y-94337200D02*
X128809524Y-94241961D01*
X128809524Y-94241961D02*
X128761905Y-94146723D01*
X128761905Y-94146723D02*
X128714286Y-93956247D01*
X128714286Y-93956247D02*
X128714286Y-93813390D01*
X128714286Y-93813390D02*
X128761905Y-93622914D01*
X128761905Y-93622914D02*
X128809524Y-93527676D01*
X128809524Y-93527676D02*
X128904762Y-93432438D01*
X128904762Y-93432438D02*
X129047619Y-93384819D01*
X129047619Y-93384819D02*
X129142857Y-93384819D01*
X129142857Y-93384819D02*
X129285714Y-93432438D01*
X129285714Y-93432438D02*
X129333333Y-93480057D01*
X130238095Y-93384819D02*
X129761905Y-93384819D01*
X129761905Y-93384819D02*
X129714286Y-93861009D01*
X129714286Y-93861009D02*
X129761905Y-93813390D01*
X129761905Y-93813390D02*
X129857143Y-93765771D01*
X129857143Y-93765771D02*
X130095238Y-93765771D01*
X130095238Y-93765771D02*
X130190476Y-93813390D01*
X130190476Y-93813390D02*
X130238095Y-93861009D01*
X130238095Y-93861009D02*
X130285714Y-93956247D01*
X130285714Y-93956247D02*
X130285714Y-94194342D01*
X130285714Y-94194342D02*
X130238095Y-94289580D01*
X130238095Y-94289580D02*
X130190476Y-94337200D01*
X130190476Y-94337200D02*
X130095238Y-94384819D01*
X130095238Y-94384819D02*
X129857143Y-94384819D01*
X129857143Y-94384819D02*
X129761905Y-94337200D01*
X129761905Y-94337200D02*
X129714286Y-94289580D01*
X144357142Y-62859580D02*
X144309523Y-62907200D01*
X144309523Y-62907200D02*
X144166666Y-62954819D01*
X144166666Y-62954819D02*
X144071428Y-62954819D01*
X144071428Y-62954819D02*
X143928571Y-62907200D01*
X143928571Y-62907200D02*
X143833333Y-62811961D01*
X143833333Y-62811961D02*
X143785714Y-62716723D01*
X143785714Y-62716723D02*
X143738095Y-62526247D01*
X143738095Y-62526247D02*
X143738095Y-62383390D01*
X143738095Y-62383390D02*
X143785714Y-62192914D01*
X143785714Y-62192914D02*
X143833333Y-62097676D01*
X143833333Y-62097676D02*
X143928571Y-62002438D01*
X143928571Y-62002438D02*
X144071428Y-61954819D01*
X144071428Y-61954819D02*
X144166666Y-61954819D01*
X144166666Y-61954819D02*
X144309523Y-62002438D01*
X144309523Y-62002438D02*
X144357142Y-62050057D01*
X145309523Y-62954819D02*
X144738095Y-62954819D01*
X145023809Y-62954819D02*
X145023809Y-61954819D01*
X145023809Y-61954819D02*
X144928571Y-62097676D01*
X144928571Y-62097676D02*
X144833333Y-62192914D01*
X144833333Y-62192914D02*
X144738095Y-62240533D01*
X146261904Y-62954819D02*
X145690476Y-62954819D01*
X145976190Y-62954819D02*
X145976190Y-61954819D01*
X145976190Y-61954819D02*
X145880952Y-62097676D01*
X145880952Y-62097676D02*
X145785714Y-62192914D01*
X145785714Y-62192914D02*
X145690476Y-62240533D01*
X144792080Y-67642857D02*
X144839700Y-67690476D01*
X144839700Y-67690476D02*
X144887319Y-67833333D01*
X144887319Y-67833333D02*
X144887319Y-67928571D01*
X144887319Y-67928571D02*
X144839700Y-68071428D01*
X144839700Y-68071428D02*
X144744461Y-68166666D01*
X144744461Y-68166666D02*
X144649223Y-68214285D01*
X144649223Y-68214285D02*
X144458747Y-68261904D01*
X144458747Y-68261904D02*
X144315890Y-68261904D01*
X144315890Y-68261904D02*
X144125414Y-68214285D01*
X144125414Y-68214285D02*
X144030176Y-68166666D01*
X144030176Y-68166666D02*
X143934938Y-68071428D01*
X143934938Y-68071428D02*
X143887319Y-67928571D01*
X143887319Y-67928571D02*
X143887319Y-67833333D01*
X143887319Y-67833333D02*
X143934938Y-67690476D01*
X143934938Y-67690476D02*
X143982557Y-67642857D01*
X144887319Y-66690476D02*
X144887319Y-67261904D01*
X144887319Y-66976190D02*
X143887319Y-66976190D01*
X143887319Y-66976190D02*
X144030176Y-67071428D01*
X144030176Y-67071428D02*
X144125414Y-67166666D01*
X144125414Y-67166666D02*
X144173033Y-67261904D01*
X143982557Y-66309523D02*
X143934938Y-66261904D01*
X143934938Y-66261904D02*
X143887319Y-66166666D01*
X143887319Y-66166666D02*
X143887319Y-65928571D01*
X143887319Y-65928571D02*
X143934938Y-65833333D01*
X143934938Y-65833333D02*
X143982557Y-65785714D01*
X143982557Y-65785714D02*
X144077795Y-65738095D01*
X144077795Y-65738095D02*
X144173033Y-65738095D01*
X144173033Y-65738095D02*
X144315890Y-65785714D01*
X144315890Y-65785714D02*
X144887319Y-66357142D01*
X144887319Y-66357142D02*
X144887319Y-65738095D01*
X138304819Y-72166666D02*
X137828628Y-72499999D01*
X138304819Y-72738094D02*
X137304819Y-72738094D01*
X137304819Y-72738094D02*
X137304819Y-72357142D01*
X137304819Y-72357142D02*
X137352438Y-72261904D01*
X137352438Y-72261904D02*
X137400057Y-72214285D01*
X137400057Y-72214285D02*
X137495295Y-72166666D01*
X137495295Y-72166666D02*
X137638152Y-72166666D01*
X137638152Y-72166666D02*
X137733390Y-72214285D01*
X137733390Y-72214285D02*
X137781009Y-72261904D01*
X137781009Y-72261904D02*
X137828628Y-72357142D01*
X137828628Y-72357142D02*
X137828628Y-72738094D01*
X137304819Y-71309523D02*
X137304819Y-71499999D01*
X137304819Y-71499999D02*
X137352438Y-71595237D01*
X137352438Y-71595237D02*
X137400057Y-71642856D01*
X137400057Y-71642856D02*
X137542914Y-71738094D01*
X137542914Y-71738094D02*
X137733390Y-71785713D01*
X137733390Y-71785713D02*
X138114342Y-71785713D01*
X138114342Y-71785713D02*
X138209580Y-71738094D01*
X138209580Y-71738094D02*
X138257200Y-71690475D01*
X138257200Y-71690475D02*
X138304819Y-71595237D01*
X138304819Y-71595237D02*
X138304819Y-71404761D01*
X138304819Y-71404761D02*
X138257200Y-71309523D01*
X138257200Y-71309523D02*
X138209580Y-71261904D01*
X138209580Y-71261904D02*
X138114342Y-71214285D01*
X138114342Y-71214285D02*
X137876247Y-71214285D01*
X137876247Y-71214285D02*
X137781009Y-71261904D01*
X137781009Y-71261904D02*
X137733390Y-71309523D01*
X137733390Y-71309523D02*
X137685771Y-71404761D01*
X137685771Y-71404761D02*
X137685771Y-71595237D01*
X137685771Y-71595237D02*
X137733390Y-71690475D01*
X137733390Y-71690475D02*
X137781009Y-71738094D01*
X137781009Y-71738094D02*
X137876247Y-71785713D01*
X142929580Y-74142857D02*
X142977200Y-74190476D01*
X142977200Y-74190476D02*
X143024819Y-74333333D01*
X143024819Y-74333333D02*
X143024819Y-74428571D01*
X143024819Y-74428571D02*
X142977200Y-74571428D01*
X142977200Y-74571428D02*
X142881961Y-74666666D01*
X142881961Y-74666666D02*
X142786723Y-74714285D01*
X142786723Y-74714285D02*
X142596247Y-74761904D01*
X142596247Y-74761904D02*
X142453390Y-74761904D01*
X142453390Y-74761904D02*
X142262914Y-74714285D01*
X142262914Y-74714285D02*
X142167676Y-74666666D01*
X142167676Y-74666666D02*
X142072438Y-74571428D01*
X142072438Y-74571428D02*
X142024819Y-74428571D01*
X142024819Y-74428571D02*
X142024819Y-74333333D01*
X142024819Y-74333333D02*
X142072438Y-74190476D01*
X142072438Y-74190476D02*
X142120057Y-74142857D01*
X143024819Y-73190476D02*
X143024819Y-73761904D01*
X143024819Y-73476190D02*
X142024819Y-73476190D01*
X142024819Y-73476190D02*
X142167676Y-73571428D01*
X142167676Y-73571428D02*
X142262914Y-73666666D01*
X142262914Y-73666666D02*
X142310533Y-73761904D01*
X142358152Y-72333333D02*
X143024819Y-72333333D01*
X141977200Y-72571428D02*
X142691485Y-72809523D01*
X142691485Y-72809523D02*
X142691485Y-72190476D01*
X156238095Y-88454819D02*
X156238095Y-89264342D01*
X156238095Y-89264342D02*
X156285714Y-89359580D01*
X156285714Y-89359580D02*
X156333333Y-89407200D01*
X156333333Y-89407200D02*
X156428571Y-89454819D01*
X156428571Y-89454819D02*
X156619047Y-89454819D01*
X156619047Y-89454819D02*
X156714285Y-89407200D01*
X156714285Y-89407200D02*
X156761904Y-89359580D01*
X156761904Y-89359580D02*
X156809523Y-89264342D01*
X156809523Y-89264342D02*
X156809523Y-88454819D01*
X157809523Y-89454819D02*
X157238095Y-89454819D01*
X157523809Y-89454819D02*
X157523809Y-88454819D01*
X157523809Y-88454819D02*
X157428571Y-88597676D01*
X157428571Y-88597676D02*
X157333333Y-88692914D01*
X157333333Y-88692914D02*
X157238095Y-88740533D01*
X128169104Y-99714285D02*
X128169104Y-99238095D01*
X128454819Y-99809523D02*
X127454819Y-99476190D01*
X127454819Y-99476190D02*
X128454819Y-99142857D01*
X128454819Y-98285714D02*
X128454819Y-98857142D01*
X128454819Y-98571428D02*
X127454819Y-98571428D01*
X127454819Y-98571428D02*
X127597676Y-98666666D01*
X127597676Y-98666666D02*
X127692914Y-98761904D01*
X127692914Y-98761904D02*
X127740533Y-98857142D01*
X165394819Y-110751904D02*
X166204342Y-110751904D01*
X166204342Y-110751904D02*
X166299580Y-110704285D01*
X166299580Y-110704285D02*
X166347200Y-110656666D01*
X166347200Y-110656666D02*
X166394819Y-110561428D01*
X166394819Y-110561428D02*
X166394819Y-110370952D01*
X166394819Y-110370952D02*
X166347200Y-110275714D01*
X166347200Y-110275714D02*
X166299580Y-110228095D01*
X166299580Y-110228095D02*
X166204342Y-110180476D01*
X166204342Y-110180476D02*
X165394819Y-110180476D01*
X166347200Y-109751904D02*
X166394819Y-109609047D01*
X166394819Y-109609047D02*
X166394819Y-109370952D01*
X166394819Y-109370952D02*
X166347200Y-109275714D01*
X166347200Y-109275714D02*
X166299580Y-109228095D01*
X166299580Y-109228095D02*
X166204342Y-109180476D01*
X166204342Y-109180476D02*
X166109104Y-109180476D01*
X166109104Y-109180476D02*
X166013866Y-109228095D01*
X166013866Y-109228095D02*
X165966247Y-109275714D01*
X165966247Y-109275714D02*
X165918628Y-109370952D01*
X165918628Y-109370952D02*
X165871009Y-109561428D01*
X165871009Y-109561428D02*
X165823390Y-109656666D01*
X165823390Y-109656666D02*
X165775771Y-109704285D01*
X165775771Y-109704285D02*
X165680533Y-109751904D01*
X165680533Y-109751904D02*
X165585295Y-109751904D01*
X165585295Y-109751904D02*
X165490057Y-109704285D01*
X165490057Y-109704285D02*
X165442438Y-109656666D01*
X165442438Y-109656666D02*
X165394819Y-109561428D01*
X165394819Y-109561428D02*
X165394819Y-109323333D01*
X165394819Y-109323333D02*
X165442438Y-109180476D01*
X165871009Y-108418571D02*
X165918628Y-108275714D01*
X165918628Y-108275714D02*
X165966247Y-108228095D01*
X165966247Y-108228095D02*
X166061485Y-108180476D01*
X166061485Y-108180476D02*
X166204342Y-108180476D01*
X166204342Y-108180476D02*
X166299580Y-108228095D01*
X166299580Y-108228095D02*
X166347200Y-108275714D01*
X166347200Y-108275714D02*
X166394819Y-108370952D01*
X166394819Y-108370952D02*
X166394819Y-108751904D01*
X166394819Y-108751904D02*
X165394819Y-108751904D01*
X165394819Y-108751904D02*
X165394819Y-108418571D01*
X165394819Y-108418571D02*
X165442438Y-108323333D01*
X165442438Y-108323333D02*
X165490057Y-108275714D01*
X165490057Y-108275714D02*
X165585295Y-108228095D01*
X165585295Y-108228095D02*
X165680533Y-108228095D01*
X165680533Y-108228095D02*
X165775771Y-108275714D01*
X165775771Y-108275714D02*
X165823390Y-108323333D01*
X165823390Y-108323333D02*
X165871009Y-108418571D01*
X165871009Y-108418571D02*
X165871009Y-108751904D01*
X154761905Y-95454819D02*
X155333333Y-95454819D01*
X155047619Y-96454819D02*
X155047619Y-95454819D01*
X155619048Y-96407200D02*
X155761905Y-96454819D01*
X155761905Y-96454819D02*
X156000000Y-96454819D01*
X156000000Y-96454819D02*
X156095238Y-96407200D01*
X156095238Y-96407200D02*
X156142857Y-96359580D01*
X156142857Y-96359580D02*
X156190476Y-96264342D01*
X156190476Y-96264342D02*
X156190476Y-96169104D01*
X156190476Y-96169104D02*
X156142857Y-96073866D01*
X156142857Y-96073866D02*
X156095238Y-96026247D01*
X156095238Y-96026247D02*
X156000000Y-95978628D01*
X156000000Y-95978628D02*
X155809524Y-95931009D01*
X155809524Y-95931009D02*
X155714286Y-95883390D01*
X155714286Y-95883390D02*
X155666667Y-95835771D01*
X155666667Y-95835771D02*
X155619048Y-95740533D01*
X155619048Y-95740533D02*
X155619048Y-95645295D01*
X155619048Y-95645295D02*
X155666667Y-95550057D01*
X155666667Y-95550057D02*
X155714286Y-95502438D01*
X155714286Y-95502438D02*
X155809524Y-95454819D01*
X155809524Y-95454819D02*
X156047619Y-95454819D01*
X156047619Y-95454819D02*
X156190476Y-95502438D01*
X157142857Y-96454819D02*
X156571429Y-96454819D01*
X156857143Y-96454819D02*
X156857143Y-95454819D01*
X156857143Y-95454819D02*
X156761905Y-95597676D01*
X156761905Y-95597676D02*
X156666667Y-95692914D01*
X156666667Y-95692914D02*
X156571429Y-95740533D01*
X136679580Y-98666666D02*
X136727200Y-98714285D01*
X136727200Y-98714285D02*
X136774819Y-98857142D01*
X136774819Y-98857142D02*
X136774819Y-98952380D01*
X136774819Y-98952380D02*
X136727200Y-99095237D01*
X136727200Y-99095237D02*
X136631961Y-99190475D01*
X136631961Y-99190475D02*
X136536723Y-99238094D01*
X136536723Y-99238094D02*
X136346247Y-99285713D01*
X136346247Y-99285713D02*
X136203390Y-99285713D01*
X136203390Y-99285713D02*
X136012914Y-99238094D01*
X136012914Y-99238094D02*
X135917676Y-99190475D01*
X135917676Y-99190475D02*
X135822438Y-99095237D01*
X135822438Y-99095237D02*
X135774819Y-98952380D01*
X135774819Y-98952380D02*
X135774819Y-98857142D01*
X135774819Y-98857142D02*
X135822438Y-98714285D01*
X135822438Y-98714285D02*
X135870057Y-98666666D01*
X135870057Y-98285713D02*
X135822438Y-98238094D01*
X135822438Y-98238094D02*
X135774819Y-98142856D01*
X135774819Y-98142856D02*
X135774819Y-97904761D01*
X135774819Y-97904761D02*
X135822438Y-97809523D01*
X135822438Y-97809523D02*
X135870057Y-97761904D01*
X135870057Y-97761904D02*
X135965295Y-97714285D01*
X135965295Y-97714285D02*
X136060533Y-97714285D01*
X136060533Y-97714285D02*
X136203390Y-97761904D01*
X136203390Y-97761904D02*
X136774819Y-98333332D01*
X136774819Y-98333332D02*
X136774819Y-97714285D01*
X140859580Y-94666666D02*
X140907200Y-94714285D01*
X140907200Y-94714285D02*
X140954819Y-94857142D01*
X140954819Y-94857142D02*
X140954819Y-94952380D01*
X140954819Y-94952380D02*
X140907200Y-95095237D01*
X140907200Y-95095237D02*
X140811961Y-95190475D01*
X140811961Y-95190475D02*
X140716723Y-95238094D01*
X140716723Y-95238094D02*
X140526247Y-95285713D01*
X140526247Y-95285713D02*
X140383390Y-95285713D01*
X140383390Y-95285713D02*
X140192914Y-95238094D01*
X140192914Y-95238094D02*
X140097676Y-95190475D01*
X140097676Y-95190475D02*
X140002438Y-95095237D01*
X140002438Y-95095237D02*
X139954819Y-94952380D01*
X139954819Y-94952380D02*
X139954819Y-94857142D01*
X139954819Y-94857142D02*
X140002438Y-94714285D01*
X140002438Y-94714285D02*
X140050057Y-94666666D01*
X139954819Y-94333332D02*
X139954819Y-93666666D01*
X139954819Y-93666666D02*
X140954819Y-94095237D01*
X145166666Y-84844819D02*
X145166666Y-85559104D01*
X145166666Y-85559104D02*
X145119047Y-85701961D01*
X145119047Y-85701961D02*
X145023809Y-85797200D01*
X145023809Y-85797200D02*
X144880952Y-85844819D01*
X144880952Y-85844819D02*
X144785714Y-85844819D01*
X145690476Y-85844819D02*
X145880952Y-85844819D01*
X145880952Y-85844819D02*
X145976190Y-85797200D01*
X145976190Y-85797200D02*
X146023809Y-85749580D01*
X146023809Y-85749580D02*
X146119047Y-85606723D01*
X146119047Y-85606723D02*
X146166666Y-85416247D01*
X146166666Y-85416247D02*
X146166666Y-85035295D01*
X146166666Y-85035295D02*
X146119047Y-84940057D01*
X146119047Y-84940057D02*
X146071428Y-84892438D01*
X146071428Y-84892438D02*
X145976190Y-84844819D01*
X145976190Y-84844819D02*
X145785714Y-84844819D01*
X145785714Y-84844819D02*
X145690476Y-84892438D01*
X145690476Y-84892438D02*
X145642857Y-84940057D01*
X145642857Y-84940057D02*
X145595238Y-85035295D01*
X145595238Y-85035295D02*
X145595238Y-85273390D01*
X145595238Y-85273390D02*
X145642857Y-85368628D01*
X145642857Y-85368628D02*
X145690476Y-85416247D01*
X145690476Y-85416247D02*
X145785714Y-85463866D01*
X145785714Y-85463866D02*
X145976190Y-85463866D01*
X145976190Y-85463866D02*
X146071428Y-85416247D01*
X146071428Y-85416247D02*
X146119047Y-85368628D01*
X146119047Y-85368628D02*
X146166666Y-85273390D01*
X136690476Y-73344819D02*
X136690476Y-74059104D01*
X136690476Y-74059104D02*
X136642857Y-74201961D01*
X136642857Y-74201961D02*
X136547619Y-74297200D01*
X136547619Y-74297200D02*
X136404762Y-74344819D01*
X136404762Y-74344819D02*
X136309524Y-74344819D01*
X137690476Y-74344819D02*
X137119048Y-74344819D01*
X137404762Y-74344819D02*
X137404762Y-73344819D01*
X137404762Y-73344819D02*
X137309524Y-73487676D01*
X137309524Y-73487676D02*
X137214286Y-73582914D01*
X137214286Y-73582914D02*
X137119048Y-73630533D01*
X138071429Y-73440057D02*
X138119048Y-73392438D01*
X138119048Y-73392438D02*
X138214286Y-73344819D01*
X138214286Y-73344819D02*
X138452381Y-73344819D01*
X138452381Y-73344819D02*
X138547619Y-73392438D01*
X138547619Y-73392438D02*
X138595238Y-73440057D01*
X138595238Y-73440057D02*
X138642857Y-73535295D01*
X138642857Y-73535295D02*
X138642857Y-73630533D01*
X138642857Y-73630533D02*
X138595238Y-73773390D01*
X138595238Y-73773390D02*
X138023810Y-74344819D01*
X138023810Y-74344819D02*
X138642857Y-74344819D01*
X161857142Y-91929580D02*
X161809523Y-91977200D01*
X161809523Y-91977200D02*
X161666666Y-92024819D01*
X161666666Y-92024819D02*
X161571428Y-92024819D01*
X161571428Y-92024819D02*
X161428571Y-91977200D01*
X161428571Y-91977200D02*
X161333333Y-91881961D01*
X161333333Y-91881961D02*
X161285714Y-91786723D01*
X161285714Y-91786723D02*
X161238095Y-91596247D01*
X161238095Y-91596247D02*
X161238095Y-91453390D01*
X161238095Y-91453390D02*
X161285714Y-91262914D01*
X161285714Y-91262914D02*
X161333333Y-91167676D01*
X161333333Y-91167676D02*
X161428571Y-91072438D01*
X161428571Y-91072438D02*
X161571428Y-91024819D01*
X161571428Y-91024819D02*
X161666666Y-91024819D01*
X161666666Y-91024819D02*
X161809523Y-91072438D01*
X161809523Y-91072438D02*
X161857142Y-91120057D01*
X162809523Y-92024819D02*
X162238095Y-92024819D01*
X162523809Y-92024819D02*
X162523809Y-91024819D01*
X162523809Y-91024819D02*
X162428571Y-91167676D01*
X162428571Y-91167676D02*
X162333333Y-91262914D01*
X162333333Y-91262914D02*
X162238095Y-91310533D01*
X163428571Y-91024819D02*
X163523809Y-91024819D01*
X163523809Y-91024819D02*
X163619047Y-91072438D01*
X163619047Y-91072438D02*
X163666666Y-91120057D01*
X163666666Y-91120057D02*
X163714285Y-91215295D01*
X163714285Y-91215295D02*
X163761904Y-91405771D01*
X163761904Y-91405771D02*
X163761904Y-91643866D01*
X163761904Y-91643866D02*
X163714285Y-91834342D01*
X163714285Y-91834342D02*
X163666666Y-91929580D01*
X163666666Y-91929580D02*
X163619047Y-91977200D01*
X163619047Y-91977200D02*
X163523809Y-92024819D01*
X163523809Y-92024819D02*
X163428571Y-92024819D01*
X163428571Y-92024819D02*
X163333333Y-91977200D01*
X163333333Y-91977200D02*
X163285714Y-91929580D01*
X163285714Y-91929580D02*
X163238095Y-91834342D01*
X163238095Y-91834342D02*
X163190476Y-91643866D01*
X163190476Y-91643866D02*
X163190476Y-91405771D01*
X163190476Y-91405771D02*
X163238095Y-91215295D01*
X163238095Y-91215295D02*
X163285714Y-91120057D01*
X163285714Y-91120057D02*
X163333333Y-91072438D01*
X163333333Y-91072438D02*
X163428571Y-91024819D01*
X150166666Y-95844819D02*
X150166666Y-96559104D01*
X150166666Y-96559104D02*
X150119047Y-96701961D01*
X150119047Y-96701961D02*
X150023809Y-96797200D01*
X150023809Y-96797200D02*
X149880952Y-96844819D01*
X149880952Y-96844819D02*
X149785714Y-96844819D01*
X151119047Y-95844819D02*
X150642857Y-95844819D01*
X150642857Y-95844819D02*
X150595238Y-96321009D01*
X150595238Y-96321009D02*
X150642857Y-96273390D01*
X150642857Y-96273390D02*
X150738095Y-96225771D01*
X150738095Y-96225771D02*
X150976190Y-96225771D01*
X150976190Y-96225771D02*
X151071428Y-96273390D01*
X151071428Y-96273390D02*
X151119047Y-96321009D01*
X151119047Y-96321009D02*
X151166666Y-96416247D01*
X151166666Y-96416247D02*
X151166666Y-96654342D01*
X151166666Y-96654342D02*
X151119047Y-96749580D01*
X151119047Y-96749580D02*
X151071428Y-96797200D01*
X151071428Y-96797200D02*
X150976190Y-96844819D01*
X150976190Y-96844819D02*
X150738095Y-96844819D01*
X150738095Y-96844819D02*
X150642857Y-96797200D01*
X150642857Y-96797200D02*
X150595238Y-96749580D01*
X153844819Y-98833333D02*
X154559104Y-98833333D01*
X154559104Y-98833333D02*
X154701961Y-98880952D01*
X154701961Y-98880952D02*
X154797200Y-98976190D01*
X154797200Y-98976190D02*
X154844819Y-99119047D01*
X154844819Y-99119047D02*
X154844819Y-99214285D01*
X153844819Y-98452380D02*
X153844819Y-97785714D01*
X153844819Y-97785714D02*
X154844819Y-98214285D01*
X166666666Y-87954819D02*
X166666666Y-88669104D01*
X166666666Y-88669104D02*
X166619047Y-88811961D01*
X166619047Y-88811961D02*
X166523809Y-88907200D01*
X166523809Y-88907200D02*
X166380952Y-88954819D01*
X166380952Y-88954819D02*
X166285714Y-88954819D01*
X167095238Y-88050057D02*
X167142857Y-88002438D01*
X167142857Y-88002438D02*
X167238095Y-87954819D01*
X167238095Y-87954819D02*
X167476190Y-87954819D01*
X167476190Y-87954819D02*
X167571428Y-88002438D01*
X167571428Y-88002438D02*
X167619047Y-88050057D01*
X167619047Y-88050057D02*
X167666666Y-88145295D01*
X167666666Y-88145295D02*
X167666666Y-88240533D01*
X167666666Y-88240533D02*
X167619047Y-88383390D01*
X167619047Y-88383390D02*
X167047619Y-88954819D01*
X167047619Y-88954819D02*
X167666666Y-88954819D01*
X165833333Y-97679580D02*
X165785714Y-97727200D01*
X165785714Y-97727200D02*
X165642857Y-97774819D01*
X165642857Y-97774819D02*
X165547619Y-97774819D01*
X165547619Y-97774819D02*
X165404762Y-97727200D01*
X165404762Y-97727200D02*
X165309524Y-97631961D01*
X165309524Y-97631961D02*
X165261905Y-97536723D01*
X165261905Y-97536723D02*
X165214286Y-97346247D01*
X165214286Y-97346247D02*
X165214286Y-97203390D01*
X165214286Y-97203390D02*
X165261905Y-97012914D01*
X165261905Y-97012914D02*
X165309524Y-96917676D01*
X165309524Y-96917676D02*
X165404762Y-96822438D01*
X165404762Y-96822438D02*
X165547619Y-96774819D01*
X165547619Y-96774819D02*
X165642857Y-96774819D01*
X165642857Y-96774819D02*
X165785714Y-96822438D01*
X165785714Y-96822438D02*
X165833333Y-96870057D01*
X166785714Y-97774819D02*
X166214286Y-97774819D01*
X166500000Y-97774819D02*
X166500000Y-96774819D01*
X166500000Y-96774819D02*
X166404762Y-96917676D01*
X166404762Y-96917676D02*
X166309524Y-97012914D01*
X166309524Y-97012914D02*
X166214286Y-97060533D01*
X168166666Y-77844819D02*
X168166666Y-78559104D01*
X168166666Y-78559104D02*
X168119047Y-78701961D01*
X168119047Y-78701961D02*
X168023809Y-78797200D01*
X168023809Y-78797200D02*
X167880952Y-78844819D01*
X167880952Y-78844819D02*
X167785714Y-78844819D01*
X168785714Y-78273390D02*
X168690476Y-78225771D01*
X168690476Y-78225771D02*
X168642857Y-78178152D01*
X168642857Y-78178152D02*
X168595238Y-78082914D01*
X168595238Y-78082914D02*
X168595238Y-78035295D01*
X168595238Y-78035295D02*
X168642857Y-77940057D01*
X168642857Y-77940057D02*
X168690476Y-77892438D01*
X168690476Y-77892438D02*
X168785714Y-77844819D01*
X168785714Y-77844819D02*
X168976190Y-77844819D01*
X168976190Y-77844819D02*
X169071428Y-77892438D01*
X169071428Y-77892438D02*
X169119047Y-77940057D01*
X169119047Y-77940057D02*
X169166666Y-78035295D01*
X169166666Y-78035295D02*
X169166666Y-78082914D01*
X169166666Y-78082914D02*
X169119047Y-78178152D01*
X169119047Y-78178152D02*
X169071428Y-78225771D01*
X169071428Y-78225771D02*
X168976190Y-78273390D01*
X168976190Y-78273390D02*
X168785714Y-78273390D01*
X168785714Y-78273390D02*
X168690476Y-78321009D01*
X168690476Y-78321009D02*
X168642857Y-78368628D01*
X168642857Y-78368628D02*
X168595238Y-78463866D01*
X168595238Y-78463866D02*
X168595238Y-78654342D01*
X168595238Y-78654342D02*
X168642857Y-78749580D01*
X168642857Y-78749580D02*
X168690476Y-78797200D01*
X168690476Y-78797200D02*
X168785714Y-78844819D01*
X168785714Y-78844819D02*
X168976190Y-78844819D01*
X168976190Y-78844819D02*
X169071428Y-78797200D01*
X169071428Y-78797200D02*
X169119047Y-78749580D01*
X169119047Y-78749580D02*
X169166666Y-78654342D01*
X169166666Y-78654342D02*
X169166666Y-78463866D01*
X169166666Y-78463866D02*
X169119047Y-78368628D01*
X169119047Y-78368628D02*
X169071428Y-78321009D01*
X169071428Y-78321009D02*
X168976190Y-78273390D01*
X152690476Y-65844819D02*
X152690476Y-66559104D01*
X152690476Y-66559104D02*
X152642857Y-66701961D01*
X152642857Y-66701961D02*
X152547619Y-66797200D01*
X152547619Y-66797200D02*
X152404762Y-66844819D01*
X152404762Y-66844819D02*
X152309524Y-66844819D01*
X153690476Y-66844819D02*
X153119048Y-66844819D01*
X153404762Y-66844819D02*
X153404762Y-65844819D01*
X153404762Y-65844819D02*
X153309524Y-65987676D01*
X153309524Y-65987676D02*
X153214286Y-66082914D01*
X153214286Y-66082914D02*
X153119048Y-66130533D01*
X154547619Y-66178152D02*
X154547619Y-66844819D01*
X154309524Y-65797200D02*
X154071429Y-66511485D01*
X154071429Y-66511485D02*
X154690476Y-66511485D01*
X129595238Y-81037200D02*
X129738095Y-81084819D01*
X129738095Y-81084819D02*
X129976190Y-81084819D01*
X129976190Y-81084819D02*
X130071428Y-81037200D01*
X130071428Y-81037200D02*
X130119047Y-80989580D01*
X130119047Y-80989580D02*
X130166666Y-80894342D01*
X130166666Y-80894342D02*
X130166666Y-80799104D01*
X130166666Y-80799104D02*
X130119047Y-80703866D01*
X130119047Y-80703866D02*
X130071428Y-80656247D01*
X130071428Y-80656247D02*
X129976190Y-80608628D01*
X129976190Y-80608628D02*
X129785714Y-80561009D01*
X129785714Y-80561009D02*
X129690476Y-80513390D01*
X129690476Y-80513390D02*
X129642857Y-80465771D01*
X129642857Y-80465771D02*
X129595238Y-80370533D01*
X129595238Y-80370533D02*
X129595238Y-80275295D01*
X129595238Y-80275295D02*
X129642857Y-80180057D01*
X129642857Y-80180057D02*
X129690476Y-80132438D01*
X129690476Y-80132438D02*
X129785714Y-80084819D01*
X129785714Y-80084819D02*
X130023809Y-80084819D01*
X130023809Y-80084819D02*
X130166666Y-80132438D01*
X130595238Y-81084819D02*
X130595238Y-80084819D01*
X131023809Y-81084819D02*
X131023809Y-80561009D01*
X131023809Y-80561009D02*
X130976190Y-80465771D01*
X130976190Y-80465771D02*
X130880952Y-80418152D01*
X130880952Y-80418152D02*
X130738095Y-80418152D01*
X130738095Y-80418152D02*
X130642857Y-80465771D01*
X130642857Y-80465771D02*
X130595238Y-80513390D01*
X131928571Y-80418152D02*
X131928571Y-81084819D01*
X131500000Y-80418152D02*
X131500000Y-80941961D01*
X131500000Y-80941961D02*
X131547619Y-81037200D01*
X131547619Y-81037200D02*
X131642857Y-81084819D01*
X131642857Y-81084819D02*
X131785714Y-81084819D01*
X131785714Y-81084819D02*
X131880952Y-81037200D01*
X131880952Y-81037200D02*
X131928571Y-80989580D01*
X132404762Y-80418152D02*
X132404762Y-81084819D01*
X132404762Y-80513390D02*
X132452381Y-80465771D01*
X132452381Y-80465771D02*
X132547619Y-80418152D01*
X132547619Y-80418152D02*
X132690476Y-80418152D01*
X132690476Y-80418152D02*
X132785714Y-80465771D01*
X132785714Y-80465771D02*
X132833333Y-80561009D01*
X132833333Y-80561009D02*
X132833333Y-81084819D01*
X133166667Y-80418152D02*
X133547619Y-80418152D01*
X133309524Y-80084819D02*
X133309524Y-80941961D01*
X133309524Y-80941961D02*
X133357143Y-81037200D01*
X133357143Y-81037200D02*
X133452381Y-81084819D01*
X133452381Y-81084819D02*
X133547619Y-81084819D01*
X134404762Y-81084819D02*
X133833334Y-81084819D01*
X134119048Y-81084819D02*
X134119048Y-80084819D01*
X134119048Y-80084819D02*
X134023810Y-80227676D01*
X134023810Y-80227676D02*
X133928572Y-80322914D01*
X133928572Y-80322914D02*
X133833334Y-80370533D01*
X137882976Y-78344819D02*
X137882976Y-79059104D01*
X137882976Y-79059104D02*
X137835357Y-79201961D01*
X137835357Y-79201961D02*
X137740119Y-79297200D01*
X137740119Y-79297200D02*
X137597262Y-79344819D01*
X137597262Y-79344819D02*
X137502024Y-79344819D01*
X138882976Y-79344819D02*
X138311548Y-79344819D01*
X138597262Y-79344819D02*
X138597262Y-78344819D01*
X138597262Y-78344819D02*
X138502024Y-78487676D01*
X138502024Y-78487676D02*
X138406786Y-78582914D01*
X138406786Y-78582914D02*
X138311548Y-78630533D01*
X139835357Y-79344819D02*
X139263929Y-79344819D01*
X139549643Y-79344819D02*
X139549643Y-78344819D01*
X139549643Y-78344819D02*
X139454405Y-78487676D01*
X139454405Y-78487676D02*
X139359167Y-78582914D01*
X139359167Y-78582914D02*
X139263929Y-78630533D01*
X146359580Y-90666666D02*
X146407200Y-90714285D01*
X146407200Y-90714285D02*
X146454819Y-90857142D01*
X146454819Y-90857142D02*
X146454819Y-90952380D01*
X146454819Y-90952380D02*
X146407200Y-91095237D01*
X146407200Y-91095237D02*
X146311961Y-91190475D01*
X146311961Y-91190475D02*
X146216723Y-91238094D01*
X146216723Y-91238094D02*
X146026247Y-91285713D01*
X146026247Y-91285713D02*
X145883390Y-91285713D01*
X145883390Y-91285713D02*
X145692914Y-91238094D01*
X145692914Y-91238094D02*
X145597676Y-91190475D01*
X145597676Y-91190475D02*
X145502438Y-91095237D01*
X145502438Y-91095237D02*
X145454819Y-90952380D01*
X145454819Y-90952380D02*
X145454819Y-90857142D01*
X145454819Y-90857142D02*
X145502438Y-90714285D01*
X145502438Y-90714285D02*
X145550057Y-90666666D01*
X145883390Y-90095237D02*
X145835771Y-90190475D01*
X145835771Y-90190475D02*
X145788152Y-90238094D01*
X145788152Y-90238094D02*
X145692914Y-90285713D01*
X145692914Y-90285713D02*
X145645295Y-90285713D01*
X145645295Y-90285713D02*
X145550057Y-90238094D01*
X145550057Y-90238094D02*
X145502438Y-90190475D01*
X145502438Y-90190475D02*
X145454819Y-90095237D01*
X145454819Y-90095237D02*
X145454819Y-89904761D01*
X145454819Y-89904761D02*
X145502438Y-89809523D01*
X145502438Y-89809523D02*
X145550057Y-89761904D01*
X145550057Y-89761904D02*
X145645295Y-89714285D01*
X145645295Y-89714285D02*
X145692914Y-89714285D01*
X145692914Y-89714285D02*
X145788152Y-89761904D01*
X145788152Y-89761904D02*
X145835771Y-89809523D01*
X145835771Y-89809523D02*
X145883390Y-89904761D01*
X145883390Y-89904761D02*
X145883390Y-90095237D01*
X145883390Y-90095237D02*
X145931009Y-90190475D01*
X145931009Y-90190475D02*
X145978628Y-90238094D01*
X145978628Y-90238094D02*
X146073866Y-90285713D01*
X146073866Y-90285713D02*
X146264342Y-90285713D01*
X146264342Y-90285713D02*
X146359580Y-90238094D01*
X146359580Y-90238094D02*
X146407200Y-90190475D01*
X146407200Y-90190475D02*
X146454819Y-90095237D01*
X146454819Y-90095237D02*
X146454819Y-89904761D01*
X146454819Y-89904761D02*
X146407200Y-89809523D01*
X146407200Y-89809523D02*
X146359580Y-89761904D01*
X146359580Y-89761904D02*
X146264342Y-89714285D01*
X146264342Y-89714285D02*
X146073866Y-89714285D01*
X146073866Y-89714285D02*
X145978628Y-89761904D01*
X145978628Y-89761904D02*
X145931009Y-89809523D01*
X145931009Y-89809523D02*
X145883390Y-89904761D01*
X148738095Y-67854819D02*
X148738095Y-68664342D01*
X148738095Y-68664342D02*
X148785714Y-68759580D01*
X148785714Y-68759580D02*
X148833333Y-68807200D01*
X148833333Y-68807200D02*
X148928571Y-68854819D01*
X148928571Y-68854819D02*
X149119047Y-68854819D01*
X149119047Y-68854819D02*
X149214285Y-68807200D01*
X149214285Y-68807200D02*
X149261904Y-68759580D01*
X149261904Y-68759580D02*
X149309523Y-68664342D01*
X149309523Y-68664342D02*
X149309523Y-67854819D01*
X149690476Y-67854819D02*
X150309523Y-67854819D01*
X150309523Y-67854819D02*
X149976190Y-68235771D01*
X149976190Y-68235771D02*
X150119047Y-68235771D01*
X150119047Y-68235771D02*
X150214285Y-68283390D01*
X150214285Y-68283390D02*
X150261904Y-68331009D01*
X150261904Y-68331009D02*
X150309523Y-68426247D01*
X150309523Y-68426247D02*
X150309523Y-68664342D01*
X150309523Y-68664342D02*
X150261904Y-68759580D01*
X150261904Y-68759580D02*
X150214285Y-68807200D01*
X150214285Y-68807200D02*
X150119047Y-68854819D01*
X150119047Y-68854819D02*
X149833333Y-68854819D01*
X149833333Y-68854819D02*
X149738095Y-68807200D01*
X149738095Y-68807200D02*
X149690476Y-68759580D01*
%TO.C,J1*%
D11*
X169200000Y-61500000D02*
X172000000Y-61500000D01*
X159000000Y-61500000D02*
X164800000Y-61500000D01*
X159000000Y-64300000D02*
X159000000Y-61500000D01*
X159000000Y-71500000D02*
X159000000Y-68600000D01*
X164800000Y-71500000D02*
X159000000Y-71500000D01*
X172000000Y-71500000D02*
X169200000Y-71500000D01*
X172000000Y-61500000D02*
X172000000Y-71500000D01*
D12*
X158400000Y-66500000D02*
G75*
G02*
X158000000Y-66500000I-200000J0D01*
G01*
X158000000Y-66500000D02*
G75*
G02*
X158400000Y-66500000I200000J0D01*
G01*
%TO.C,J10*%
D13*
X140390000Y-82890000D02*
X141500000Y-82890000D01*
X140390000Y-84000000D02*
X140390000Y-82890000D01*
X140390000Y-85000000D02*
X140390000Y-85110000D01*
X140390000Y-85000000D02*
X142610000Y-85000000D01*
X140390000Y-85110000D02*
X142610000Y-85110000D01*
X142610000Y-85000000D02*
X142610000Y-85110000D01*
%TO.C,R2*%
X127765000Y-87272936D02*
X127765000Y-87727064D01*
X129235000Y-87272936D02*
X129235000Y-87727064D01*
%TO.C,DAC1*%
X144990000Y-93227500D02*
X145040000Y-93227500D01*
X144990000Y-95047500D02*
X144990000Y-93227500D01*
X145040000Y-95047500D02*
X144990000Y-95047500D01*
X148060000Y-93227500D02*
X148110000Y-93227500D01*
X148110000Y-93227500D02*
X148110000Y-95047500D01*
X148110000Y-95047500D02*
X148060000Y-95047500D01*
X148390000Y-92927500D02*
X148060000Y-92687500D01*
X148390000Y-92447500D01*
X148390000Y-92927500D01*
G36*
X148390000Y-92927500D02*
G01*
X148060000Y-92687500D01*
X148390000Y-92447500D01*
X148390000Y-92927500D01*
G37*
%TO.C,R8*%
X155227064Y-70265000D02*
X154772936Y-70265000D01*
X155227064Y-71735000D02*
X154772936Y-71735000D01*
%TO.C,C6*%
X130765000Y-89761252D02*
X130765000Y-89238748D01*
X132235000Y-89761252D02*
X132235000Y-89238748D01*
%TO.C,R1*%
X125265000Y-74772936D02*
X125265000Y-75227064D01*
X126735000Y-74772936D02*
X126735000Y-75227064D01*
%TO.C,J13*%
X149890000Y-73390000D02*
X151000000Y-73390000D01*
X149890000Y-74500000D02*
X149890000Y-73390000D01*
X149890000Y-75500000D02*
X149890000Y-75610000D01*
X149890000Y-75500000D02*
X152110000Y-75500000D01*
X149890000Y-75610000D02*
X152110000Y-75610000D01*
X152110000Y-75500000D02*
X152110000Y-75610000D01*
%TO.C,C4*%
X156765000Y-62961934D02*
X156765000Y-62439430D01*
X158235000Y-62961934D02*
X158235000Y-62439430D01*
%TO.C,ADC1*%
X135890000Y-89890000D02*
X139110000Y-89890000D01*
X135890000Y-90090000D02*
X135890000Y-89890000D01*
X135890000Y-93110000D02*
X135890000Y-92910000D01*
X139110000Y-89890000D02*
X139110000Y-90090000D01*
X139110000Y-92910000D02*
X139110000Y-93110000D01*
X139110000Y-93110000D02*
X135890000Y-93110000D01*
X139900000Y-93240000D02*
X139420000Y-93240000D01*
X139660000Y-92910000D01*
X139900000Y-93240000D01*
G36*
X139900000Y-93240000D02*
G01*
X139420000Y-93240000D01*
X139660000Y-92910000D01*
X139900000Y-93240000D01*
G37*
%TO.C,L1*%
D14*
X156583440Y-82128900D02*
X157416560Y-82128900D01*
X157416560Y-76871100D02*
X156583440Y-76871100D01*
%TO.C,Q1*%
D13*
X129890000Y-63690000D02*
X140110000Y-63690000D01*
X129890000Y-68310000D02*
X129890000Y-63690000D01*
X133150000Y-68310000D02*
X133150000Y-66930000D01*
X136850000Y-68310000D02*
X136850000Y-66930000D01*
X140110000Y-63690000D02*
X140110000Y-68310000D01*
X140110000Y-66930000D02*
X129890000Y-66930000D01*
X140110000Y-68310000D02*
X129890000Y-68310000D01*
%TO.C,C15*%
X146490000Y-76640580D02*
X146490000Y-76359420D01*
X147510000Y-76640580D02*
X147510000Y-76359420D01*
%TO.C,J6*%
X142390000Y-97390000D02*
X143500000Y-97390000D01*
X142390000Y-98500000D02*
X142390000Y-97390000D01*
X142390000Y-99500000D02*
X142390000Y-99610000D01*
X142390000Y-99500000D02*
X144610000Y-99500000D01*
X142390000Y-99610000D02*
X144610000Y-99610000D01*
X144610000Y-99500000D02*
X144610000Y-99610000D01*
%TO.C,C9*%
X161359420Y-84990000D02*
X161640580Y-84990000D01*
X161359420Y-86010000D02*
X161640580Y-86010000D01*
%TO.C,C5*%
X129640580Y-91990000D02*
X129359420Y-91990000D01*
X129640580Y-93010000D02*
X129359420Y-93010000D01*
%TO.C,C11*%
X147738748Y-61765000D02*
X148261252Y-61765000D01*
X147738748Y-63235000D02*
X148261252Y-63235000D01*
%TO.C,C12*%
X145352500Y-67140580D02*
X145352500Y-66859420D01*
X146372500Y-67140580D02*
X146372500Y-66859420D01*
%TO.C,R6*%
X138765000Y-72227064D02*
X138765000Y-71772936D01*
X140235000Y-72227064D02*
X140235000Y-71772936D01*
%TO.C,C14*%
X143490000Y-73640580D02*
X143490000Y-73359420D01*
X144510000Y-73640580D02*
X144510000Y-73359420D01*
%TO.C,U1*%
D14*
X155626347Y-91501900D02*
X158373653Y-91501900D01*
X158373653Y-86498100D02*
X155626347Y-86498100D01*
X157304800Y-86498100D02*
G75*
G02*
X156695200Y-86498100I-304800J0D01*
G01*
%TO.C,A1*%
D13*
X126440000Y-100470000D02*
X126440000Y-118510000D01*
X126440000Y-118510000D02*
X129110000Y-118510000D01*
X129110000Y-103140000D02*
X129110000Y-100470000D01*
X129110000Y-103140000D02*
X167210000Y-103140000D01*
X129110000Y-115840000D02*
X129110000Y-118510000D01*
X131650000Y-115840000D02*
X129110000Y-115840000D01*
X131650000Y-115840000D02*
X131650000Y-118510000D01*
X131650000Y-115840000D02*
X167210000Y-115840000D01*
X131650000Y-118510000D02*
X169880000Y-118510000D01*
X162000000Y-105550000D02*
X172420000Y-105550000D01*
X162000000Y-113430000D02*
X162000000Y-105550000D01*
X167210000Y-103140000D02*
X167210000Y-100470000D01*
X167210000Y-115840000D02*
X167210000Y-118510000D01*
X169880000Y-100470000D02*
X126440000Y-100470000D01*
X169880000Y-100470000D02*
X169880000Y-105550000D01*
X169880000Y-118510000D02*
X169880000Y-113430000D01*
X172420000Y-105550000D02*
X172420000Y-113430000D01*
X172420000Y-113430000D02*
X162000000Y-113430000D01*
%TO.C,TS1*%
X154889432Y-93015000D02*
X157685000Y-93015000D01*
X157685000Y-95285000D02*
X154465000Y-95285000D01*
X154595000Y-93010000D02*
X154455000Y-92820000D01*
X154735000Y-92820000D01*
X154595000Y-93010000D01*
G36*
X154595000Y-93010000D02*
G01*
X154455000Y-92820000D01*
X154735000Y-92820000D01*
X154595000Y-93010000D01*
G37*
%TO.C,C2*%
X137265000Y-98761252D02*
X137265000Y-98238748D01*
X138735000Y-98761252D02*
X138735000Y-98238748D01*
%TO.C,C7*%
X141490000Y-93140580D02*
X141490000Y-92859420D01*
X142510000Y-93140580D02*
X142510000Y-92859420D01*
%TO.C,J9*%
X144390000Y-86390000D02*
X145500000Y-86390000D01*
X144390000Y-87500000D02*
X144390000Y-86390000D01*
X144390000Y-88500000D02*
X144390000Y-88610000D01*
X144390000Y-88500000D02*
X146610000Y-88500000D01*
X144390000Y-88610000D02*
X146610000Y-88610000D01*
X146610000Y-88500000D02*
X146610000Y-88610000D01*
%TO.C,J12*%
X137390000Y-74890000D02*
X138500000Y-74890000D01*
X137390000Y-76000000D02*
X137390000Y-74890000D01*
X137390000Y-77000000D02*
X137390000Y-77110000D01*
X137390000Y-77000000D02*
X139610000Y-77000000D01*
X137390000Y-77110000D02*
X139610000Y-77110000D01*
X139610000Y-77000000D02*
X139610000Y-77110000D01*
%TO.C,C10*%
X160859420Y-92490000D02*
X161140580Y-92490000D01*
X160859420Y-93510000D02*
X161140580Y-93510000D01*
%TO.C,J5*%
X149390000Y-97390000D02*
X150500000Y-97390000D01*
X149390000Y-98500000D02*
X149390000Y-97390000D01*
X149390000Y-99500000D02*
X149390000Y-99610000D01*
X149390000Y-99500000D02*
X151610000Y-99500000D01*
X149390000Y-99610000D02*
X151610000Y-99610000D01*
X151610000Y-99500000D02*
X151610000Y-99610000D01*
%TO.C,J7*%
X155390000Y-99610000D02*
X155390000Y-98500000D01*
X156500000Y-99610000D02*
X155390000Y-99610000D01*
X157500000Y-97390000D02*
X161610000Y-97390000D01*
X157500000Y-99610000D02*
X157500000Y-97390000D01*
X157500000Y-99610000D02*
X161610000Y-99610000D01*
X161610000Y-99610000D02*
X161610000Y-97390000D01*
%TO.C,J2*%
X165890000Y-94000000D02*
X165890000Y-89890000D01*
X168110000Y-89890000D02*
X165890000Y-89890000D01*
X168110000Y-94000000D02*
X165890000Y-94000000D01*
X168110000Y-94000000D02*
X168110000Y-89890000D01*
X168110000Y-95000000D02*
X168110000Y-96110000D01*
X168110000Y-96110000D02*
X167000000Y-96110000D01*
%TO.C,C1*%
X165738748Y-98265000D02*
X166261252Y-98265000D01*
X165738748Y-99735000D02*
X166261252Y-99735000D01*
%TO.C,J8*%
X167390000Y-79390000D02*
X168500000Y-79390000D01*
X167390000Y-80500000D02*
X167390000Y-79390000D01*
X167390000Y-81500000D02*
X167390000Y-85610000D01*
X167390000Y-81500000D02*
X169610000Y-81500000D01*
X167390000Y-85610000D02*
X169610000Y-85610000D01*
X169610000Y-81500000D02*
X169610000Y-85610000D01*
%TO.C,J14*%
X152390000Y-67390000D02*
X153500000Y-67390000D01*
X152390000Y-68500000D02*
X152390000Y-67390000D01*
X152390000Y-69500000D02*
X152390000Y-69610000D01*
X152390000Y-69500000D02*
X154610000Y-69500000D01*
X152390000Y-69610000D02*
X154610000Y-69610000D01*
X154610000Y-69500000D02*
X154610000Y-69610000D01*
%TO.C,Shunt1*%
X134177064Y-76290000D02*
X129822936Y-76290000D01*
X134177064Y-79710000D02*
X129822936Y-79710000D01*
%TO.C,J11*%
X137582500Y-79890000D02*
X138692500Y-79890000D01*
X137582500Y-81000000D02*
X137582500Y-79890000D01*
X137582500Y-82000000D02*
X137582500Y-82110000D01*
X137582500Y-82000000D02*
X139802500Y-82000000D01*
X137582500Y-82110000D02*
X139802500Y-82110000D01*
X139802500Y-82000000D02*
X139802500Y-82110000D01*
%TO.C,C8*%
X143265000Y-91261252D02*
X143265000Y-90738748D01*
X144735000Y-91261252D02*
X144735000Y-90738748D01*
%TO.C,U3*%
X148590000Y-64440000D02*
X150410000Y-64440000D01*
X148590000Y-64490000D02*
X148590000Y-64440000D01*
X148590000Y-67560000D02*
X148590000Y-67510000D01*
X150410000Y-64440000D02*
X150410000Y-64490000D01*
X150410000Y-67510000D02*
X150410000Y-67560000D01*
X150410000Y-67560000D02*
X148590000Y-67560000D01*
X151190000Y-67840000D02*
X150710000Y-67840000D01*
X150950000Y-67510000D01*
X151190000Y-67840000D01*
G36*
X151190000Y-67840000D02*
G01*
X150710000Y-67840000D01*
X150950000Y-67510000D01*
X151190000Y-67840000D01*
G37*
%TD*%
M02*
