M48
; DRILL file KiCad 10.0.1 date 2026-06-24T22:24:33
; FORMAT={-:-/ absolute / metric / decimal}
; #@! TF.CreationDate,2026-06-24T22:24:33-04:00
; #@! TF.GenerationSoftware,Kicad,Pcbnew,10.0.1
; #@! TF.FileFunction,Plated,1,2,PTH
FMAT,2
METRIC
; #@! TA.AperFunction,Plated,PTH,ViaDrill
T1C0.300
; #@! TA.AperFunction,Plated,PTH,ComponentDrill
T2C0.800
; #@! TA.AperFunction,Plated,PTH,ComponentDrill
T3C1.000
; #@! TA.AperFunction,Plated,PTH,ComponentDrill
T4C1.100
%
G90
G05
T1
X125.338Y-93.475
X125.5Y-63.5
X125.5Y-86.0
X125.5Y-89.5
X125.5Y-102.5
X126.068Y-97.778
X127.0Y-83.0
X127.0Y-89.5
X127.0Y-99.5
X127.5Y-61.5
X127.5Y-70.5
X127.5Y-78.0
X127.5Y-92.5
X128.0Y-94.0
X128.5Y-68.0
X128.5Y-74.5
X128.5Y-89.5
X129.0Y-96.0
X130.0Y-72.0
X130.0Y-89.0
X130.5Y-87.5
X130.5Y-99.5
X131.0Y-81.0
X131.5Y-61.0
X131.5Y-83.5
X132.0Y-87.5
X132.5Y-74.0
X132.971Y-99.38
X133.0Y-88.0
X133.4Y-95.0
X133.5Y-89.5
X133.5Y-90.5
X134.5Y-97.0
X135.0Y-84.0
X135.0Y-95.0
X136.0Y-71.0
X136.0Y-97.5
X136.5Y-91.0
X136.5Y-94.0
X137.0Y-87.0
X137.5Y-61.0
X137.5Y-78.5
X138.0Y-91.0
X138.0Y-97.0
X138.5Y-94.5
X138.715Y-83.674
X140.0Y-69.5
X140.0Y-93.5
X140.5Y-98.0
X141.0Y-78.5
X141.0Y-92.0
X141.5Y-100.0
X141.891Y-87.192
X142.0Y-91.5
X142.25Y-96.25
X143.0Y-62.0
X143.0Y-74.0
X143.0Y-91.0
X143.5Y-80.0
X144.0Y-64.5
X144.0Y-84.5
X144.0Y-95.5
X145.0Y-75.5
X145.5Y-90.0
X145.95Y-97.0
X146.0Y-61.5
X146.0Y-63.5
X146.0Y-71.5
X146.0Y-76.5
X146.0Y-91.0
X146.0Y-100.0
X146.5Y-92.0
X146.5Y-94.0
X146.5Y-98.5
X147.15Y-97.0
X148.0Y-88.0
X148.0Y-90.0
X148.5Y-72.5
X148.5Y-84.0
X148.5Y-94.0
X148.5Y-98.5
X149.5Y-68.5
X149.5Y-80.0
X149.5Y-94.0
X150.5Y-93.5
X151.5Y-92.5
X152.362Y-62.0
X152.5Y-83.0
X152.5Y-99.5
X153.0Y-92.0
X154.0Y-75.5
X154.5Y-92.0
X154.5Y-96.5
X155.5Y-62.5
X155.5Y-85.5
X156.0Y-61.701
X156.0Y-67.5
X156.075Y-94.15
X156.5Y-72.5
X156.5Y-92.0
X156.5Y-96.0
X157.5Y-84.0
X159.0Y-93.0
X159.0Y-96.0
X161.0Y-77.5
X161.25Y-95.75
X161.5Y-90.0
X162.5Y-70.201
X162.5Y-92.0
X163.0Y-63.701
X163.0Y-85.5
X163.0Y-91.0
X163.5Y-88.0
X163.5Y-89.5
X164.0Y-85.5
X164.0Y-96.0
X165.0Y-74.0
X165.0Y-81.0
X165.0Y-89.0
X165.5Y-84.0
X166.0Y-77.0
X166.5Y-89.0
X167.87Y-75.455
X168.0Y-89.0
X168.0Y-99.0
X168.447Y-64.791
X168.5Y-98.0
X169.5Y-89.0
X170.0Y-91.0
X170.48Y-69.5
X170.5Y-74.5
X170.5Y-83.5
X170.5Y-97.0
X171.0Y-89.0
X171.0Y-93.5
X171.0Y-100.0
X171.5Y-62.5
X171.5Y-78.5
X172.0Y-89.0
T2
X138.5Y-76.0
X138.692Y-81.0
X141.5Y-84.0
X143.5Y-98.5
X145.5Y-87.5
X150.5Y-98.5
X151.0Y-74.5
X153.5Y-68.5
X156.5Y-98.5
X158.5Y-98.5
X160.5Y-98.5
X167.0Y-91.0
X167.0Y-93.0
X167.0Y-95.0
X168.5Y-80.5
X168.5Y-82.5
X168.5Y-84.5
T3
X130.38Y-101.87
X130.38Y-117.11
X132.92Y-101.87
X132.92Y-117.11
X135.46Y-101.87
X135.46Y-117.11
X138.0Y-101.87
X138.0Y-117.11
X140.54Y-101.87
X140.54Y-117.11
X143.08Y-101.87
X143.08Y-117.11
X145.62Y-101.87
X145.62Y-117.11
X148.16Y-101.87
X148.16Y-117.11
X150.7Y-101.87
X150.7Y-117.11
X153.24Y-101.87
X153.24Y-117.11
X155.78Y-101.87
X155.78Y-117.11
X158.32Y-101.87
X158.32Y-117.11
X160.86Y-101.87
X160.86Y-117.11
X163.4Y-101.87
X163.4Y-117.11
X165.94Y-101.87
X165.94Y-117.11
T4
X132.46Y-65.05
X135.0Y-65.05
X137.54Y-65.05
T3
X160.0Y-65.5G85X160.0Y-67.5
G05
X166.0Y-65.85G85X166.0Y-67.15
G05
X166.25Y-62.0G85X167.75Y-62.0
G05
X166.25Y-71.0G85X167.75Y-71.0
G05
M30
