M48
; DRILL file KiCad 10.0.1 date 2026-07-16T11:16:20
; FORMAT={-:-/ absolute / metric / decimal}
; #@! TF.CreationDate,2026-07-16T11:16:20-04:00
; #@! TF.GenerationSoftware,Kicad,Pcbnew,10.0.1
; #@! TF.FileFunction,Plated,1,2,PTH
FMAT,2
METRIC
; #@! TA.AperFunction,Plated,PTH,ViaDrill
T1C0.300
; #@! TA.AperFunction,Plated,PTH,ComponentDrill
T2C0.750
; #@! TA.AperFunction,Plated,PTH,ComponentDrill
T3C0.800
; #@! TA.AperFunction,Plated,PTH,ComponentDrill
T4C0.813
; #@! TA.AperFunction,Plated,PTH,ComponentDrill
T5C1.000
; #@! TA.AperFunction,Plated,PTH,ComponentDrill
T6C1.100
%
G90
G05
T1
X125.416Y-63.492
X125.5Y-136.0
X126.0Y-124.5
X126.924Y-128.472
X128.25Y-61.75
X129.0Y-64.25
X131.5Y-66.0
X131.5Y-69.75
X131.5Y-130.0
X131.545Y-75.979
X131.922Y-108.607
X131.935Y-85.872
X133.25Y-80.0
X133.431Y-100.334
X133.5Y-62.5
X134.0Y-73.75
X134.0Y-93.0
X134.0Y-118.0
X136.25Y-68.75
X136.5Y-75.5
X136.5Y-77.0
X136.5Y-78.5
X136.5Y-80.0
X136.5Y-82.0
X136.5Y-83.5
X136.5Y-85.0
X136.5Y-87.0
X136.5Y-88.5
X137.0Y-74.5
X137.0Y-90.5
X137.0Y-92.0
X137.0Y-93.5
X137.5Y-95.0
X138.0Y-73.5
X138.0Y-96.5
X138.0Y-98.0
X138.0Y-100.0
X138.0Y-101.5
X138.0Y-103.5
X138.0Y-105.0
X138.75Y-106.25
X139.0Y-62.5
X139.0Y-72.5
X139.5Y-107.0
X139.5Y-121.5
X140.0Y-71.5
X140.0Y-113.0
X140.037Y-83.976
X140.5Y-67.5
X140.5Y-69.0
X140.5Y-70.5
X140.5Y-93.5
X140.54Y-134.978
X141.0Y-100.5
X141.0Y-107.0
X141.25Y-63.0
X141.25Y-66.75
X141.5Y-126.5
X142.0Y-66.25
X142.5Y-106.5
X143.0Y-63.5
X143.0Y-105.0
X143.0Y-117.0
X143.25Y-66.25
X143.699Y-77.576
X144.037Y-81.976
X144.25Y-66.25
X144.5Y-62.25
X144.5Y-105.0
X144.537Y-84.476
X145.151Y-120.5
X145.25Y-66.25
X145.25Y-82.024
X145.471Y-116.88
X145.5Y-64.5
X145.5Y-91.5
X145.5Y-105.5
X145.9Y-112.5
X146.0Y-98.5
X146.0Y-107.0
X146.0Y-108.0
X146.25Y-66.25
X146.5Y-131.25
X147.0Y-88.0
X147.0Y-114.5
X147.25Y-66.25
X147.5Y-112.5
X148.25Y-66.274
X148.5Y-83.75
X148.5Y-115.0
X148.75Y-94.75
X149.0Y-108.5
X149.0Y-111.5
X149.037Y-75.25
X149.25Y-66.25
X149.5Y-104.5
X150.0Y-138.5
X150.25Y-66.25
X150.5Y-108.5
X150.5Y-114.5
X151.0Y-66.25
X151.0Y-112.0
X151.0Y-121.5
X151.75Y-65.5
X152.0Y-64.5
X152.25Y-63.5
X152.5Y-62.5
X152.5Y-111.0
X152.75Y-61.5
X153.0Y-115.5
X153.037Y-73.75
X153.5Y-109.5
X154.0Y-132.5
X154.037Y-82.75
X154.391Y-104.692
X154.5Y-93.0
X154.5Y-109.0
X154.75Y-113.75
X155.0Y-103.0
X155.5Y-108.5
X155.963Y-98.592
X156.037Y-78.25
X156.5Y-108.0
X156.537Y-84.25
X156.56Y-123.39
X157.0Y-90.0
X157.037Y-85.476
X157.25Y-62.5
X157.5Y-136.5
X158.0Y-107.5
X158.0Y-113.0
X158.037Y-76.476
X158.45Y-114.5
X158.5Y-67.0
X159.037Y-77.476
X159.5Y-108.0
X159.65Y-114.5
X160.0Y-94.5
X160.45Y-109.5
X160.45Y-111.5
X160.5Y-105.5
X160.5Y-108.5
X160.5Y-114.242
X160.5Y-115.5
X160.75Y-70.75
X161.0Y-117.0
X161.25Y-129.25
X161.901Y-120.117
X162.0Y-62.0
X162.45Y-111.5
X162.5Y-112.5
X163.0Y-111.0
X163.0Y-133.0
X163.159Y-80.925
X163.5Y-65.5
X163.5Y-126.5
X164.0Y-110.0
X165.5Y-91.0
X165.5Y-101.5
X165.5Y-110.0
X165.75Y-75.5
X166.0Y-95.5
X166.5Y-110.0
X166.5Y-116.5
X166.637Y-62.5
X166.637Y-64.5
X167.5Y-118.5
X168.0Y-110.0
X169.0Y-71.0
X169.0Y-112.0
X169.0Y-117.0
X169.5Y-86.0
X169.5Y-105.0
X169.5Y-110.0
X169.5Y-135.5
X170.137Y-69.5
X171.0Y-76.5
X171.0Y-96.0
X171.0Y-110.0
X171.5Y-82.0
X171.5Y-114.5
X172.5Y-110.0
X172.5Y-131.5
X172.56Y-120.89
X173.0Y-63.0
X174.0Y-90.0
X174.0Y-110.0
X174.0Y-117.5
X174.54Y-61.511
X175.0Y-73.0
X175.0Y-100.5
X175.5Y-110.0
X176.637Y-68.5
X177.0Y-64.5
X177.0Y-110.0
X178.115Y-134.634
X178.5Y-95.0
X178.5Y-103.5
X178.5Y-110.0
X180.0Y-110.0
X181.0Y-64.5
X181.39Y-126.446
X181.536Y-100.905
X182.0Y-114.0
X182.036Y-109.905
X183.0Y-89.0
X183.0Y-119.0
X183.536Y-109.905
X183.846Y-131.402
X184.536Y-103.405
X185.0Y-62.5
X185.0Y-70.0
X185.0Y-98.0
X185.536Y-109.905
X186.536Y-101.905
X187.0Y-75.0
X187.0Y-110.0
X187.0Y-125.5
X187.5Y-61.5
X188.0Y-86.0
X188.0Y-110.0
X189.5Y-61.0
X189.5Y-110.0
X190.0Y-79.5
X190.439Y-134.677
X190.5Y-110.0
X191.0Y-107.0
X191.5Y-110.0
X192.0Y-130.0
X192.036Y-103.405
X192.5Y-94.0
X192.5Y-110.0
X193.0Y-85.0
X193.0Y-116.0
X193.5Y-69.5
X193.5Y-110.0
X194.0Y-63.0
X194.5Y-110.0
X195.25Y-106.0
X195.5Y-110.0
X196.0Y-113.5
X196.5Y-79.5
X196.5Y-89.5
X197.0Y-110.0
X197.5Y-99.5
X198.5Y-110.0
X199.0Y-105.0
X199.06Y-119.89
X199.447Y-64.09
X199.56Y-118.89
X200.0Y-110.0
X200.5Y-136.5
X201.47Y-123.344
X201.48Y-68.799
X201.5Y-77.5
X201.5Y-88.0
X201.5Y-110.0
X201.56Y-117.89
X202.06Y-114.39
X202.06Y-120.89
X202.5Y-61.799
X202.56Y-99.39
X203.06Y-109.89
T2
X146.96Y-64.0
X148.23Y-64.0
X149.5Y-64.0
T3
X127.5Y-137.5
X129.5Y-137.5
X131.5Y-137.5
X133.5Y-137.5
X160.5Y-99.0
X160.5Y-101.0
X163.0Y-86.0
X165.0Y-86.0
X177.0Y-117.0
X179.0Y-117.0
X185.5Y-113.0
X185.5Y-118.0
X187.5Y-113.0
X187.5Y-118.0
X189.5Y-113.0
X189.5Y-118.0
T4
X184.654Y-78.654
X184.654Y-81.194
X184.654Y-83.734
X184.654Y-86.274
X192.274Y-81.194
T5
X126.69Y-133.5
X129.23Y-133.5
X131.77Y-133.5
X134.31Y-133.5
X161.44Y-122.76
X161.44Y-138.0
X163.98Y-122.76
X163.98Y-138.0
X166.52Y-122.76
X166.52Y-138.0
X169.06Y-122.76
X169.06Y-138.0
X171.6Y-122.76
X171.6Y-138.0
X174.14Y-122.76
X174.14Y-138.0
X176.68Y-122.76
X176.68Y-138.0
X179.22Y-122.76
X179.22Y-138.0
X181.76Y-122.76
X181.76Y-138.0
X184.3Y-122.76
X184.3Y-138.0
X186.84Y-122.76
X186.84Y-138.0
X189.38Y-122.76
X189.38Y-138.0
X191.92Y-122.76
X191.92Y-138.0
X194.46Y-122.76
X194.46Y-138.0
X197.0Y-122.76
X197.0Y-138.0
T6
X145.498Y-69.3
X148.037Y-69.3
X150.577Y-69.3
T5
X191.5Y-67.0G85X191.5Y-65.0
G05
X197.5Y-66.65G85X197.5Y-65.35
G05
X197.75Y-61.5G85X199.25Y-61.5
G05
X197.75Y-70.5G85X199.25Y-70.5
G05
M30
