%TF.GenerationSoftware,KiCad,Pcbnew,10.0.1*%
%TF.CreationDate,2026-07-16T11:16:02-04:00*%
%TF.ProjectId,dc_programmable_load_v2,64635f70-726f-4677-9261-6d6d61626c65,rev?*%
%TF.SameCoordinates,Original*%
%TF.FileFunction,Legend,Top*%
%TF.FilePolarity,Positive*%
%FSLAX46Y46*%
G04 Gerber Fmt 4.6, Leading zero omitted, Abs format (unit mm)*
G04 Created by KiCad (PCBNEW 10.0.1) date 2026-07-16 11:16:02*
%MOMM*%
%LPD*%
G01*
G04 APERTURE LIST*
%ADD10C,0.200000*%
%ADD11C,0.150000*%
%ADD12C,0.120000*%
%ADD13C,0.152400*%
G04 APERTURE END LIST*
D10*
X143499999Y-132849712D02*
X143642856Y-132897331D01*
X143642856Y-132897331D02*
X143880951Y-132897331D01*
X143880951Y-132897331D02*
X143976189Y-132849712D01*
X143976189Y-132849712D02*
X144023808Y-132802092D01*
X144023808Y-132802092D02*
X144071427Y-132706854D01*
X144071427Y-132706854D02*
X144071427Y-132611616D01*
X144071427Y-132611616D02*
X144023808Y-132516378D01*
X144023808Y-132516378D02*
X143976189Y-132468759D01*
X143976189Y-132468759D02*
X143880951Y-132421140D01*
X143880951Y-132421140D02*
X143690475Y-132373521D01*
X143690475Y-132373521D02*
X143595237Y-132325902D01*
X143595237Y-132325902D02*
X143547618Y-132278283D01*
X143547618Y-132278283D02*
X143499999Y-132183045D01*
X143499999Y-132183045D02*
X143499999Y-132087807D01*
X143499999Y-132087807D02*
X143547618Y-131992569D01*
X143547618Y-131992569D02*
X143595237Y-131944950D01*
X143595237Y-131944950D02*
X143690475Y-131897331D01*
X143690475Y-131897331D02*
X143928570Y-131897331D01*
X143928570Y-131897331D02*
X144071427Y-131944950D01*
X144499999Y-132897331D02*
X144499999Y-131897331D01*
X144928570Y-132897331D02*
X144928570Y-132373521D01*
X144928570Y-132373521D02*
X144880951Y-132278283D01*
X144880951Y-132278283D02*
X144785713Y-132230664D01*
X144785713Y-132230664D02*
X144642856Y-132230664D01*
X144642856Y-132230664D02*
X144547618Y-132278283D01*
X144547618Y-132278283D02*
X144499999Y-132325902D01*
X145547618Y-132897331D02*
X145452380Y-132849712D01*
X145452380Y-132849712D02*
X145404761Y-132802092D01*
X145404761Y-132802092D02*
X145357142Y-132706854D01*
X145357142Y-132706854D02*
X145357142Y-132421140D01*
X145357142Y-132421140D02*
X145404761Y-132325902D01*
X145404761Y-132325902D02*
X145452380Y-132278283D01*
X145452380Y-132278283D02*
X145547618Y-132230664D01*
X145547618Y-132230664D02*
X145690475Y-132230664D01*
X145690475Y-132230664D02*
X145785713Y-132278283D01*
X145785713Y-132278283D02*
X145833332Y-132325902D01*
X145833332Y-132325902D02*
X145880951Y-132421140D01*
X145880951Y-132421140D02*
X145880951Y-132706854D01*
X145880951Y-132706854D02*
X145833332Y-132802092D01*
X145833332Y-132802092D02*
X145785713Y-132849712D01*
X145785713Y-132849712D02*
X145690475Y-132897331D01*
X145690475Y-132897331D02*
X145547618Y-132897331D01*
X146309523Y-132897331D02*
X146309523Y-132230664D01*
X146309523Y-132421140D02*
X146357142Y-132325902D01*
X146357142Y-132325902D02*
X146404761Y-132278283D01*
X146404761Y-132278283D02*
X146499999Y-132230664D01*
X146499999Y-132230664D02*
X146595237Y-132230664D01*
X146785714Y-132230664D02*
X147166666Y-132230664D01*
X146928571Y-131897331D02*
X146928571Y-132754473D01*
X146928571Y-132754473D02*
X146976190Y-132849712D01*
X146976190Y-132849712D02*
X147071428Y-132897331D01*
X147071428Y-132897331D02*
X147166666Y-132897331D01*
X148833333Y-132802092D02*
X148785714Y-132849712D01*
X148785714Y-132849712D02*
X148642857Y-132897331D01*
X148642857Y-132897331D02*
X148547619Y-132897331D01*
X148547619Y-132897331D02*
X148404762Y-132849712D01*
X148404762Y-132849712D02*
X148309524Y-132754473D01*
X148309524Y-132754473D02*
X148261905Y-132659235D01*
X148261905Y-132659235D02*
X148214286Y-132468759D01*
X148214286Y-132468759D02*
X148214286Y-132325902D01*
X148214286Y-132325902D02*
X148261905Y-132135426D01*
X148261905Y-132135426D02*
X148309524Y-132040188D01*
X148309524Y-132040188D02*
X148404762Y-131944950D01*
X148404762Y-131944950D02*
X148547619Y-131897331D01*
X148547619Y-131897331D02*
X148642857Y-131897331D01*
X148642857Y-131897331D02*
X148785714Y-131944950D01*
X148785714Y-131944950D02*
X148833333Y-131992569D01*
X149261905Y-132897331D02*
X149261905Y-132230664D01*
X149261905Y-131897331D02*
X149214286Y-131944950D01*
X149214286Y-131944950D02*
X149261905Y-131992569D01*
X149261905Y-131992569D02*
X149309524Y-131944950D01*
X149309524Y-131944950D02*
X149261905Y-131897331D01*
X149261905Y-131897331D02*
X149261905Y-131992569D01*
X149738095Y-132897331D02*
X149738095Y-132230664D01*
X149738095Y-132421140D02*
X149785714Y-132325902D01*
X149785714Y-132325902D02*
X149833333Y-132278283D01*
X149833333Y-132278283D02*
X149928571Y-132230664D01*
X149928571Y-132230664D02*
X150023809Y-132230664D01*
X150785714Y-132849712D02*
X150690476Y-132897331D01*
X150690476Y-132897331D02*
X150500000Y-132897331D01*
X150500000Y-132897331D02*
X150404762Y-132849712D01*
X150404762Y-132849712D02*
X150357143Y-132802092D01*
X150357143Y-132802092D02*
X150309524Y-132706854D01*
X150309524Y-132706854D02*
X150309524Y-132421140D01*
X150309524Y-132421140D02*
X150357143Y-132325902D01*
X150357143Y-132325902D02*
X150404762Y-132278283D01*
X150404762Y-132278283D02*
X150500000Y-132230664D01*
X150500000Y-132230664D02*
X150690476Y-132230664D01*
X150690476Y-132230664D02*
X150785714Y-132278283D01*
X151642857Y-132230664D02*
X151642857Y-132897331D01*
X151214286Y-132230664D02*
X151214286Y-132754473D01*
X151214286Y-132754473D02*
X151261905Y-132849712D01*
X151261905Y-132849712D02*
X151357143Y-132897331D01*
X151357143Y-132897331D02*
X151500000Y-132897331D01*
X151500000Y-132897331D02*
X151595238Y-132849712D01*
X151595238Y-132849712D02*
X151642857Y-132802092D01*
X152119048Y-132897331D02*
X152119048Y-132230664D01*
X152119048Y-131897331D02*
X152071429Y-131944950D01*
X152071429Y-131944950D02*
X152119048Y-131992569D01*
X152119048Y-131992569D02*
X152166667Y-131944950D01*
X152166667Y-131944950D02*
X152119048Y-131897331D01*
X152119048Y-131897331D02*
X152119048Y-131992569D01*
X152452381Y-132230664D02*
X152833333Y-132230664D01*
X152595238Y-131897331D02*
X152595238Y-132754473D01*
X152595238Y-132754473D02*
X152642857Y-132849712D01*
X152642857Y-132849712D02*
X152738095Y-132897331D01*
X152738095Y-132897331D02*
X152833333Y-132897331D01*
X141571428Y-134507275D02*
X141571428Y-133507275D01*
X141571428Y-133507275D02*
X141809523Y-133507275D01*
X141809523Y-133507275D02*
X141952380Y-133554894D01*
X141952380Y-133554894D02*
X142047618Y-133650132D01*
X142047618Y-133650132D02*
X142095237Y-133745370D01*
X142095237Y-133745370D02*
X142142856Y-133935846D01*
X142142856Y-133935846D02*
X142142856Y-134078703D01*
X142142856Y-134078703D02*
X142095237Y-134269179D01*
X142095237Y-134269179D02*
X142047618Y-134364417D01*
X142047618Y-134364417D02*
X141952380Y-134459656D01*
X141952380Y-134459656D02*
X141809523Y-134507275D01*
X141809523Y-134507275D02*
X141571428Y-134507275D01*
X143142856Y-134412036D02*
X143095237Y-134459656D01*
X143095237Y-134459656D02*
X142952380Y-134507275D01*
X142952380Y-134507275D02*
X142857142Y-134507275D01*
X142857142Y-134507275D02*
X142714285Y-134459656D01*
X142714285Y-134459656D02*
X142619047Y-134364417D01*
X142619047Y-134364417D02*
X142571428Y-134269179D01*
X142571428Y-134269179D02*
X142523809Y-134078703D01*
X142523809Y-134078703D02*
X142523809Y-133935846D01*
X142523809Y-133935846D02*
X142571428Y-133745370D01*
X142571428Y-133745370D02*
X142619047Y-133650132D01*
X142619047Y-133650132D02*
X142714285Y-133554894D01*
X142714285Y-133554894D02*
X142857142Y-133507275D01*
X142857142Y-133507275D02*
X142952380Y-133507275D01*
X142952380Y-133507275D02*
X143095237Y-133554894D01*
X143095237Y-133554894D02*
X143142856Y-133602513D01*
X144333333Y-134507275D02*
X144333333Y-133507275D01*
X144333333Y-133507275D02*
X144714285Y-133507275D01*
X144714285Y-133507275D02*
X144809523Y-133554894D01*
X144809523Y-133554894D02*
X144857142Y-133602513D01*
X144857142Y-133602513D02*
X144904761Y-133697751D01*
X144904761Y-133697751D02*
X144904761Y-133840608D01*
X144904761Y-133840608D02*
X144857142Y-133935846D01*
X144857142Y-133935846D02*
X144809523Y-133983465D01*
X144809523Y-133983465D02*
X144714285Y-134031084D01*
X144714285Y-134031084D02*
X144333333Y-134031084D01*
X145333333Y-134507275D02*
X145333333Y-133840608D01*
X145333333Y-134031084D02*
X145380952Y-133935846D01*
X145380952Y-133935846D02*
X145428571Y-133888227D01*
X145428571Y-133888227D02*
X145523809Y-133840608D01*
X145523809Y-133840608D02*
X145619047Y-133840608D01*
X146095238Y-134507275D02*
X146000000Y-134459656D01*
X146000000Y-134459656D02*
X145952381Y-134412036D01*
X145952381Y-134412036D02*
X145904762Y-134316798D01*
X145904762Y-134316798D02*
X145904762Y-134031084D01*
X145904762Y-134031084D02*
X145952381Y-133935846D01*
X145952381Y-133935846D02*
X146000000Y-133888227D01*
X146000000Y-133888227D02*
X146095238Y-133840608D01*
X146095238Y-133840608D02*
X146238095Y-133840608D01*
X146238095Y-133840608D02*
X146333333Y-133888227D01*
X146333333Y-133888227D02*
X146380952Y-133935846D01*
X146380952Y-133935846D02*
X146428571Y-134031084D01*
X146428571Y-134031084D02*
X146428571Y-134316798D01*
X146428571Y-134316798D02*
X146380952Y-134412036D01*
X146380952Y-134412036D02*
X146333333Y-134459656D01*
X146333333Y-134459656D02*
X146238095Y-134507275D01*
X146238095Y-134507275D02*
X146095238Y-134507275D01*
X147285714Y-133840608D02*
X147285714Y-134650132D01*
X147285714Y-134650132D02*
X147238095Y-134745370D01*
X147238095Y-134745370D02*
X147190476Y-134792989D01*
X147190476Y-134792989D02*
X147095238Y-134840608D01*
X147095238Y-134840608D02*
X146952381Y-134840608D01*
X146952381Y-134840608D02*
X146857143Y-134792989D01*
X147285714Y-134459656D02*
X147190476Y-134507275D01*
X147190476Y-134507275D02*
X147000000Y-134507275D01*
X147000000Y-134507275D02*
X146904762Y-134459656D01*
X146904762Y-134459656D02*
X146857143Y-134412036D01*
X146857143Y-134412036D02*
X146809524Y-134316798D01*
X146809524Y-134316798D02*
X146809524Y-134031084D01*
X146809524Y-134031084D02*
X146857143Y-133935846D01*
X146857143Y-133935846D02*
X146904762Y-133888227D01*
X146904762Y-133888227D02*
X147000000Y-133840608D01*
X147000000Y-133840608D02*
X147190476Y-133840608D01*
X147190476Y-133840608D02*
X147285714Y-133888227D01*
X147761905Y-134507275D02*
X147761905Y-133840608D01*
X147761905Y-134031084D02*
X147809524Y-133935846D01*
X147809524Y-133935846D02*
X147857143Y-133888227D01*
X147857143Y-133888227D02*
X147952381Y-133840608D01*
X147952381Y-133840608D02*
X148047619Y-133840608D01*
X148809524Y-134507275D02*
X148809524Y-133983465D01*
X148809524Y-133983465D02*
X148761905Y-133888227D01*
X148761905Y-133888227D02*
X148666667Y-133840608D01*
X148666667Y-133840608D02*
X148476191Y-133840608D01*
X148476191Y-133840608D02*
X148380953Y-133888227D01*
X148809524Y-134459656D02*
X148714286Y-134507275D01*
X148714286Y-134507275D02*
X148476191Y-134507275D01*
X148476191Y-134507275D02*
X148380953Y-134459656D01*
X148380953Y-134459656D02*
X148333334Y-134364417D01*
X148333334Y-134364417D02*
X148333334Y-134269179D01*
X148333334Y-134269179D02*
X148380953Y-134173941D01*
X148380953Y-134173941D02*
X148476191Y-134126322D01*
X148476191Y-134126322D02*
X148714286Y-134126322D01*
X148714286Y-134126322D02*
X148809524Y-134078703D01*
X149285715Y-134507275D02*
X149285715Y-133840608D01*
X149285715Y-133935846D02*
X149333334Y-133888227D01*
X149333334Y-133888227D02*
X149428572Y-133840608D01*
X149428572Y-133840608D02*
X149571429Y-133840608D01*
X149571429Y-133840608D02*
X149666667Y-133888227D01*
X149666667Y-133888227D02*
X149714286Y-133983465D01*
X149714286Y-133983465D02*
X149714286Y-134507275D01*
X149714286Y-133983465D02*
X149761905Y-133888227D01*
X149761905Y-133888227D02*
X149857143Y-133840608D01*
X149857143Y-133840608D02*
X150000000Y-133840608D01*
X150000000Y-133840608D02*
X150095239Y-133888227D01*
X150095239Y-133888227D02*
X150142858Y-133983465D01*
X150142858Y-133983465D02*
X150142858Y-134507275D01*
X150619048Y-134507275D02*
X150619048Y-133840608D01*
X150619048Y-133935846D02*
X150666667Y-133888227D01*
X150666667Y-133888227D02*
X150761905Y-133840608D01*
X150761905Y-133840608D02*
X150904762Y-133840608D01*
X150904762Y-133840608D02*
X151000000Y-133888227D01*
X151000000Y-133888227D02*
X151047619Y-133983465D01*
X151047619Y-133983465D02*
X151047619Y-134507275D01*
X151047619Y-133983465D02*
X151095238Y-133888227D01*
X151095238Y-133888227D02*
X151190476Y-133840608D01*
X151190476Y-133840608D02*
X151333333Y-133840608D01*
X151333333Y-133840608D02*
X151428572Y-133888227D01*
X151428572Y-133888227D02*
X151476191Y-133983465D01*
X151476191Y-133983465D02*
X151476191Y-134507275D01*
X152380952Y-134507275D02*
X152380952Y-133983465D01*
X152380952Y-133983465D02*
X152333333Y-133888227D01*
X152333333Y-133888227D02*
X152238095Y-133840608D01*
X152238095Y-133840608D02*
X152047619Y-133840608D01*
X152047619Y-133840608D02*
X151952381Y-133888227D01*
X152380952Y-134459656D02*
X152285714Y-134507275D01*
X152285714Y-134507275D02*
X152047619Y-134507275D01*
X152047619Y-134507275D02*
X151952381Y-134459656D01*
X151952381Y-134459656D02*
X151904762Y-134364417D01*
X151904762Y-134364417D02*
X151904762Y-134269179D01*
X151904762Y-134269179D02*
X151952381Y-134173941D01*
X151952381Y-134173941D02*
X152047619Y-134126322D01*
X152047619Y-134126322D02*
X152285714Y-134126322D01*
X152285714Y-134126322D02*
X152380952Y-134078703D01*
X152857143Y-134507275D02*
X152857143Y-133507275D01*
X152857143Y-133888227D02*
X152952381Y-133840608D01*
X152952381Y-133840608D02*
X153142857Y-133840608D01*
X153142857Y-133840608D02*
X153238095Y-133888227D01*
X153238095Y-133888227D02*
X153285714Y-133935846D01*
X153285714Y-133935846D02*
X153333333Y-134031084D01*
X153333333Y-134031084D02*
X153333333Y-134316798D01*
X153333333Y-134316798D02*
X153285714Y-134412036D01*
X153285714Y-134412036D02*
X153238095Y-134459656D01*
X153238095Y-134459656D02*
X153142857Y-134507275D01*
X153142857Y-134507275D02*
X152952381Y-134507275D01*
X152952381Y-134507275D02*
X152857143Y-134459656D01*
X153904762Y-134507275D02*
X153809524Y-134459656D01*
X153809524Y-134459656D02*
X153761905Y-134364417D01*
X153761905Y-134364417D02*
X153761905Y-133507275D01*
X154666667Y-134459656D02*
X154571429Y-134507275D01*
X154571429Y-134507275D02*
X154380953Y-134507275D01*
X154380953Y-134507275D02*
X154285715Y-134459656D01*
X154285715Y-134459656D02*
X154238096Y-134364417D01*
X154238096Y-134364417D02*
X154238096Y-133983465D01*
X154238096Y-133983465D02*
X154285715Y-133888227D01*
X154285715Y-133888227D02*
X154380953Y-133840608D01*
X154380953Y-133840608D02*
X154571429Y-133840608D01*
X154571429Y-133840608D02*
X154666667Y-133888227D01*
X154666667Y-133888227D02*
X154714286Y-133983465D01*
X154714286Y-133983465D02*
X154714286Y-134078703D01*
X154714286Y-134078703D02*
X154238096Y-134173941D01*
X147452380Y-136117219D02*
X146976190Y-136117219D01*
X146976190Y-136117219D02*
X146976190Y-135117219D01*
X147928571Y-136117219D02*
X147833333Y-136069600D01*
X147833333Y-136069600D02*
X147785714Y-136021980D01*
X147785714Y-136021980D02*
X147738095Y-135926742D01*
X147738095Y-135926742D02*
X147738095Y-135641028D01*
X147738095Y-135641028D02*
X147785714Y-135545790D01*
X147785714Y-135545790D02*
X147833333Y-135498171D01*
X147833333Y-135498171D02*
X147928571Y-135450552D01*
X147928571Y-135450552D02*
X148071428Y-135450552D01*
X148071428Y-135450552D02*
X148166666Y-135498171D01*
X148166666Y-135498171D02*
X148214285Y-135545790D01*
X148214285Y-135545790D02*
X148261904Y-135641028D01*
X148261904Y-135641028D02*
X148261904Y-135926742D01*
X148261904Y-135926742D02*
X148214285Y-136021980D01*
X148214285Y-136021980D02*
X148166666Y-136069600D01*
X148166666Y-136069600D02*
X148071428Y-136117219D01*
X148071428Y-136117219D02*
X147928571Y-136117219D01*
X149119047Y-136117219D02*
X149119047Y-135593409D01*
X149119047Y-135593409D02*
X149071428Y-135498171D01*
X149071428Y-135498171D02*
X148976190Y-135450552D01*
X148976190Y-135450552D02*
X148785714Y-135450552D01*
X148785714Y-135450552D02*
X148690476Y-135498171D01*
X149119047Y-136069600D02*
X149023809Y-136117219D01*
X149023809Y-136117219D02*
X148785714Y-136117219D01*
X148785714Y-136117219D02*
X148690476Y-136069600D01*
X148690476Y-136069600D02*
X148642857Y-135974361D01*
X148642857Y-135974361D02*
X148642857Y-135879123D01*
X148642857Y-135879123D02*
X148690476Y-135783885D01*
X148690476Y-135783885D02*
X148785714Y-135736266D01*
X148785714Y-135736266D02*
X149023809Y-135736266D01*
X149023809Y-135736266D02*
X149119047Y-135688647D01*
X150023809Y-136117219D02*
X150023809Y-135117219D01*
X150023809Y-136069600D02*
X149928571Y-136117219D01*
X149928571Y-136117219D02*
X149738095Y-136117219D01*
X149738095Y-136117219D02*
X149642857Y-136069600D01*
X149642857Y-136069600D02*
X149595238Y-136021980D01*
X149595238Y-136021980D02*
X149547619Y-135926742D01*
X149547619Y-135926742D02*
X149547619Y-135641028D01*
X149547619Y-135641028D02*
X149595238Y-135545790D01*
X149595238Y-135545790D02*
X149642857Y-135498171D01*
X149642857Y-135498171D02*
X149738095Y-135450552D01*
X149738095Y-135450552D02*
X149928571Y-135450552D01*
X149928571Y-135450552D02*
X150023809Y-135498171D01*
D11*
X143104819Y-87916666D02*
X142628628Y-88249999D01*
X143104819Y-88488094D02*
X142104819Y-88488094D01*
X142104819Y-88488094D02*
X142104819Y-88107142D01*
X142104819Y-88107142D02*
X142152438Y-88011904D01*
X142152438Y-88011904D02*
X142200057Y-87964285D01*
X142200057Y-87964285D02*
X142295295Y-87916666D01*
X142295295Y-87916666D02*
X142438152Y-87916666D01*
X142438152Y-87916666D02*
X142533390Y-87964285D01*
X142533390Y-87964285D02*
X142581009Y-88011904D01*
X142581009Y-88011904D02*
X142628628Y-88107142D01*
X142628628Y-88107142D02*
X142628628Y-88488094D01*
X142200057Y-87535713D02*
X142152438Y-87488094D01*
X142152438Y-87488094D02*
X142104819Y-87392856D01*
X142104819Y-87392856D02*
X142104819Y-87154761D01*
X142104819Y-87154761D02*
X142152438Y-87059523D01*
X142152438Y-87059523D02*
X142200057Y-87011904D01*
X142200057Y-87011904D02*
X142295295Y-86964285D01*
X142295295Y-86964285D02*
X142390533Y-86964285D01*
X142390533Y-86964285D02*
X142533390Y-87011904D01*
X142533390Y-87011904D02*
X143104819Y-87583332D01*
X143104819Y-87583332D02*
X143104819Y-86964285D01*
X164404819Y-112666666D02*
X163404819Y-112666666D01*
X163404819Y-112666666D02*
X163404819Y-112428571D01*
X163404819Y-112428571D02*
X163452438Y-112285714D01*
X163452438Y-112285714D02*
X163547676Y-112190476D01*
X163547676Y-112190476D02*
X163642914Y-112142857D01*
X163642914Y-112142857D02*
X163833390Y-112095238D01*
X163833390Y-112095238D02*
X163976247Y-112095238D01*
X163976247Y-112095238D02*
X164166723Y-112142857D01*
X164166723Y-112142857D02*
X164261961Y-112190476D01*
X164261961Y-112190476D02*
X164357200Y-112285714D01*
X164357200Y-112285714D02*
X164404819Y-112428571D01*
X164404819Y-112428571D02*
X164404819Y-112666666D01*
X164119104Y-111714285D02*
X164119104Y-111238095D01*
X164404819Y-111809523D02*
X163404819Y-111476190D01*
X163404819Y-111476190D02*
X164404819Y-111142857D01*
X164309580Y-110238095D02*
X164357200Y-110285714D01*
X164357200Y-110285714D02*
X164404819Y-110428571D01*
X164404819Y-110428571D02*
X164404819Y-110523809D01*
X164404819Y-110523809D02*
X164357200Y-110666666D01*
X164357200Y-110666666D02*
X164261961Y-110761904D01*
X164261961Y-110761904D02*
X164166723Y-110809523D01*
X164166723Y-110809523D02*
X163976247Y-110857142D01*
X163976247Y-110857142D02*
X163833390Y-110857142D01*
X163833390Y-110857142D02*
X163642914Y-110809523D01*
X163642914Y-110809523D02*
X163547676Y-110761904D01*
X163547676Y-110761904D02*
X163452438Y-110666666D01*
X163452438Y-110666666D02*
X163404819Y-110523809D01*
X163404819Y-110523809D02*
X163404819Y-110428571D01*
X163404819Y-110428571D02*
X163452438Y-110285714D01*
X163452438Y-110285714D02*
X163500057Y-110238095D01*
X164404819Y-109285714D02*
X164404819Y-109857142D01*
X164404819Y-109571428D02*
X163404819Y-109571428D01*
X163404819Y-109571428D02*
X163547676Y-109666666D01*
X163547676Y-109666666D02*
X163642914Y-109761904D01*
X163642914Y-109761904D02*
X163690533Y-109857142D01*
X179076942Y-77434619D02*
X178743609Y-76958428D01*
X178505514Y-77434619D02*
X178505514Y-76434619D01*
X178505514Y-76434619D02*
X178886466Y-76434619D01*
X178886466Y-76434619D02*
X178981704Y-76482238D01*
X178981704Y-76482238D02*
X179029323Y-76529857D01*
X179029323Y-76529857D02*
X179076942Y-76625095D01*
X179076942Y-76625095D02*
X179076942Y-76767952D01*
X179076942Y-76767952D02*
X179029323Y-76863190D01*
X179029323Y-76863190D02*
X178981704Y-76910809D01*
X178981704Y-76910809D02*
X178886466Y-76958428D01*
X178886466Y-76958428D02*
X178505514Y-76958428D01*
X180029323Y-77434619D02*
X179457895Y-77434619D01*
X179743609Y-77434619D02*
X179743609Y-76434619D01*
X179743609Y-76434619D02*
X179648371Y-76577476D01*
X179648371Y-76577476D02*
X179553133Y-76672714D01*
X179553133Y-76672714D02*
X179457895Y-76720333D01*
X180981704Y-77434619D02*
X180410276Y-77434619D01*
X180695990Y-77434619D02*
X180695990Y-76434619D01*
X180695990Y-76434619D02*
X180600752Y-76577476D01*
X180600752Y-76577476D02*
X180505514Y-76672714D01*
X180505514Y-76672714D02*
X180410276Y-76720333D01*
X180833333Y-70704819D02*
X180500000Y-70228628D01*
X180261905Y-70704819D02*
X180261905Y-69704819D01*
X180261905Y-69704819D02*
X180642857Y-69704819D01*
X180642857Y-69704819D02*
X180738095Y-69752438D01*
X180738095Y-69752438D02*
X180785714Y-69800057D01*
X180785714Y-69800057D02*
X180833333Y-69895295D01*
X180833333Y-69895295D02*
X180833333Y-70038152D01*
X180833333Y-70038152D02*
X180785714Y-70133390D01*
X180785714Y-70133390D02*
X180738095Y-70181009D01*
X180738095Y-70181009D02*
X180642857Y-70228628D01*
X180642857Y-70228628D02*
X180261905Y-70228628D01*
X181404762Y-70133390D02*
X181309524Y-70085771D01*
X181309524Y-70085771D02*
X181261905Y-70038152D01*
X181261905Y-70038152D02*
X181214286Y-69942914D01*
X181214286Y-69942914D02*
X181214286Y-69895295D01*
X181214286Y-69895295D02*
X181261905Y-69800057D01*
X181261905Y-69800057D02*
X181309524Y-69752438D01*
X181309524Y-69752438D02*
X181404762Y-69704819D01*
X181404762Y-69704819D02*
X181595238Y-69704819D01*
X181595238Y-69704819D02*
X181690476Y-69752438D01*
X181690476Y-69752438D02*
X181738095Y-69800057D01*
X181738095Y-69800057D02*
X181785714Y-69895295D01*
X181785714Y-69895295D02*
X181785714Y-69942914D01*
X181785714Y-69942914D02*
X181738095Y-70038152D01*
X181738095Y-70038152D02*
X181690476Y-70085771D01*
X181690476Y-70085771D02*
X181595238Y-70133390D01*
X181595238Y-70133390D02*
X181404762Y-70133390D01*
X181404762Y-70133390D02*
X181309524Y-70181009D01*
X181309524Y-70181009D02*
X181261905Y-70228628D01*
X181261905Y-70228628D02*
X181214286Y-70323866D01*
X181214286Y-70323866D02*
X181214286Y-70514342D01*
X181214286Y-70514342D02*
X181261905Y-70609580D01*
X181261905Y-70609580D02*
X181309524Y-70657200D01*
X181309524Y-70657200D02*
X181404762Y-70704819D01*
X181404762Y-70704819D02*
X181595238Y-70704819D01*
X181595238Y-70704819D02*
X181690476Y-70657200D01*
X181690476Y-70657200D02*
X181738095Y-70609580D01*
X181738095Y-70609580D02*
X181785714Y-70514342D01*
X181785714Y-70514342D02*
X181785714Y-70323866D01*
X181785714Y-70323866D02*
X181738095Y-70228628D01*
X181738095Y-70228628D02*
X181690476Y-70181009D01*
X181690476Y-70181009D02*
X181595238Y-70133390D01*
X142179580Y-107666666D02*
X142227200Y-107714285D01*
X142227200Y-107714285D02*
X142274819Y-107857142D01*
X142274819Y-107857142D02*
X142274819Y-107952380D01*
X142274819Y-107952380D02*
X142227200Y-108095237D01*
X142227200Y-108095237D02*
X142131961Y-108190475D01*
X142131961Y-108190475D02*
X142036723Y-108238094D01*
X142036723Y-108238094D02*
X141846247Y-108285713D01*
X141846247Y-108285713D02*
X141703390Y-108285713D01*
X141703390Y-108285713D02*
X141512914Y-108238094D01*
X141512914Y-108238094D02*
X141417676Y-108190475D01*
X141417676Y-108190475D02*
X141322438Y-108095237D01*
X141322438Y-108095237D02*
X141274819Y-107952380D01*
X141274819Y-107952380D02*
X141274819Y-107857142D01*
X141274819Y-107857142D02*
X141322438Y-107714285D01*
X141322438Y-107714285D02*
X141370057Y-107666666D01*
X141274819Y-106809523D02*
X141274819Y-106999999D01*
X141274819Y-106999999D02*
X141322438Y-107095237D01*
X141322438Y-107095237D02*
X141370057Y-107142856D01*
X141370057Y-107142856D02*
X141512914Y-107238094D01*
X141512914Y-107238094D02*
X141703390Y-107285713D01*
X141703390Y-107285713D02*
X142084342Y-107285713D01*
X142084342Y-107285713D02*
X142179580Y-107238094D01*
X142179580Y-107238094D02*
X142227200Y-107190475D01*
X142227200Y-107190475D02*
X142274819Y-107095237D01*
X142274819Y-107095237D02*
X142274819Y-106904761D01*
X142274819Y-106904761D02*
X142227200Y-106809523D01*
X142227200Y-106809523D02*
X142179580Y-106761904D01*
X142179580Y-106761904D02*
X142084342Y-106714285D01*
X142084342Y-106714285D02*
X141846247Y-106714285D01*
X141846247Y-106714285D02*
X141751009Y-106761904D01*
X141751009Y-106761904D02*
X141703390Y-106809523D01*
X141703390Y-106809523D02*
X141655771Y-106904761D01*
X141655771Y-106904761D02*
X141655771Y-107095237D01*
X141655771Y-107095237D02*
X141703390Y-107190475D01*
X141703390Y-107190475D02*
X141751009Y-107238094D01*
X141751009Y-107238094D02*
X141846247Y-107285713D01*
X188654819Y-66333333D02*
X189369104Y-66333333D01*
X189369104Y-66333333D02*
X189511961Y-66380952D01*
X189511961Y-66380952D02*
X189607200Y-66476190D01*
X189607200Y-66476190D02*
X189654819Y-66619047D01*
X189654819Y-66619047D02*
X189654819Y-66714285D01*
X189654819Y-65333333D02*
X189654819Y-65904761D01*
X189654819Y-65619047D02*
X188654819Y-65619047D01*
X188654819Y-65619047D02*
X188797676Y-65714285D01*
X188797676Y-65714285D02*
X188892914Y-65809523D01*
X188892914Y-65809523D02*
X188940533Y-65904761D01*
X144104819Y-81440416D02*
X143628628Y-81773749D01*
X144104819Y-82011844D02*
X143104819Y-82011844D01*
X143104819Y-82011844D02*
X143104819Y-81630892D01*
X143104819Y-81630892D02*
X143152438Y-81535654D01*
X143152438Y-81535654D02*
X143200057Y-81488035D01*
X143200057Y-81488035D02*
X143295295Y-81440416D01*
X143295295Y-81440416D02*
X143438152Y-81440416D01*
X143438152Y-81440416D02*
X143533390Y-81488035D01*
X143533390Y-81488035D02*
X143581009Y-81535654D01*
X143581009Y-81535654D02*
X143628628Y-81630892D01*
X143628628Y-81630892D02*
X143628628Y-82011844D01*
X144104819Y-80488035D02*
X144104819Y-81059463D01*
X144104819Y-80773749D02*
X143104819Y-80773749D01*
X143104819Y-80773749D02*
X143247676Y-80868987D01*
X143247676Y-80868987D02*
X143342914Y-80964225D01*
X143342914Y-80964225D02*
X143390533Y-81059463D01*
X158499999Y-86454819D02*
X158166666Y-85978628D01*
X157928571Y-86454819D02*
X157928571Y-85454819D01*
X157928571Y-85454819D02*
X158309523Y-85454819D01*
X158309523Y-85454819D02*
X158404761Y-85502438D01*
X158404761Y-85502438D02*
X158452380Y-85550057D01*
X158452380Y-85550057D02*
X158499999Y-85645295D01*
X158499999Y-85645295D02*
X158499999Y-85788152D01*
X158499999Y-85788152D02*
X158452380Y-85883390D01*
X158452380Y-85883390D02*
X158404761Y-85931009D01*
X158404761Y-85931009D02*
X158309523Y-85978628D01*
X158309523Y-85978628D02*
X157928571Y-85978628D01*
X159309523Y-86407200D02*
X159214285Y-86454819D01*
X159214285Y-86454819D02*
X159023809Y-86454819D01*
X159023809Y-86454819D02*
X158928571Y-86407200D01*
X158928571Y-86407200D02*
X158880952Y-86311961D01*
X158880952Y-86311961D02*
X158880952Y-85931009D01*
X158880952Y-85931009D02*
X158928571Y-85835771D01*
X158928571Y-85835771D02*
X159023809Y-85788152D01*
X159023809Y-85788152D02*
X159214285Y-85788152D01*
X159214285Y-85788152D02*
X159309523Y-85835771D01*
X159309523Y-85835771D02*
X159357142Y-85931009D01*
X159357142Y-85931009D02*
X159357142Y-86026247D01*
X159357142Y-86026247D02*
X158880952Y-86121485D01*
X159738095Y-86407200D02*
X159833333Y-86454819D01*
X159833333Y-86454819D02*
X160023809Y-86454819D01*
X160023809Y-86454819D02*
X160119047Y-86407200D01*
X160119047Y-86407200D02*
X160166666Y-86311961D01*
X160166666Y-86311961D02*
X160166666Y-86264342D01*
X160166666Y-86264342D02*
X160119047Y-86169104D01*
X160119047Y-86169104D02*
X160023809Y-86121485D01*
X160023809Y-86121485D02*
X159880952Y-86121485D01*
X159880952Y-86121485D02*
X159785714Y-86073866D01*
X159785714Y-86073866D02*
X159738095Y-85978628D01*
X159738095Y-85978628D02*
X159738095Y-85931009D01*
X159738095Y-85931009D02*
X159785714Y-85835771D01*
X159785714Y-85835771D02*
X159880952Y-85788152D01*
X159880952Y-85788152D02*
X160023809Y-85788152D01*
X160023809Y-85788152D02*
X160119047Y-85835771D01*
X161119047Y-86454819D02*
X160547619Y-86454819D01*
X160833333Y-86454819D02*
X160833333Y-85454819D01*
X160833333Y-85454819D02*
X160738095Y-85597676D01*
X160738095Y-85597676D02*
X160642857Y-85692914D01*
X160642857Y-85692914D02*
X160547619Y-85740533D01*
X187179580Y-63166666D02*
X187227200Y-63214285D01*
X187227200Y-63214285D02*
X187274819Y-63357142D01*
X187274819Y-63357142D02*
X187274819Y-63452380D01*
X187274819Y-63452380D02*
X187227200Y-63595237D01*
X187227200Y-63595237D02*
X187131961Y-63690475D01*
X187131961Y-63690475D02*
X187036723Y-63738094D01*
X187036723Y-63738094D02*
X186846247Y-63785713D01*
X186846247Y-63785713D02*
X186703390Y-63785713D01*
X186703390Y-63785713D02*
X186512914Y-63738094D01*
X186512914Y-63738094D02*
X186417676Y-63690475D01*
X186417676Y-63690475D02*
X186322438Y-63595237D01*
X186322438Y-63595237D02*
X186274819Y-63452380D01*
X186274819Y-63452380D02*
X186274819Y-63357142D01*
X186274819Y-63357142D02*
X186322438Y-63214285D01*
X186322438Y-63214285D02*
X186370057Y-63166666D01*
X186608152Y-62309523D02*
X187274819Y-62309523D01*
X186227200Y-62547618D02*
X186941485Y-62785713D01*
X186941485Y-62785713D02*
X186941485Y-62166666D01*
X148285714Y-111619104D02*
X148761904Y-111619104D01*
X148190476Y-111904819D02*
X148523809Y-110904819D01*
X148523809Y-110904819D02*
X148857142Y-111904819D01*
X149190476Y-111904819D02*
X149190476Y-110904819D01*
X149190476Y-110904819D02*
X149428571Y-110904819D01*
X149428571Y-110904819D02*
X149571428Y-110952438D01*
X149571428Y-110952438D02*
X149666666Y-111047676D01*
X149666666Y-111047676D02*
X149714285Y-111142914D01*
X149714285Y-111142914D02*
X149761904Y-111333390D01*
X149761904Y-111333390D02*
X149761904Y-111476247D01*
X149761904Y-111476247D02*
X149714285Y-111666723D01*
X149714285Y-111666723D02*
X149666666Y-111761961D01*
X149666666Y-111761961D02*
X149571428Y-111857200D01*
X149571428Y-111857200D02*
X149428571Y-111904819D01*
X149428571Y-111904819D02*
X149190476Y-111904819D01*
X150761904Y-111809580D02*
X150714285Y-111857200D01*
X150714285Y-111857200D02*
X150571428Y-111904819D01*
X150571428Y-111904819D02*
X150476190Y-111904819D01*
X150476190Y-111904819D02*
X150333333Y-111857200D01*
X150333333Y-111857200D02*
X150238095Y-111761961D01*
X150238095Y-111761961D02*
X150190476Y-111666723D01*
X150190476Y-111666723D02*
X150142857Y-111476247D01*
X150142857Y-111476247D02*
X150142857Y-111333390D01*
X150142857Y-111333390D02*
X150190476Y-111142914D01*
X150190476Y-111142914D02*
X150238095Y-111047676D01*
X150238095Y-111047676D02*
X150333333Y-110952438D01*
X150333333Y-110952438D02*
X150476190Y-110904819D01*
X150476190Y-110904819D02*
X150571428Y-110904819D01*
X150571428Y-110904819D02*
X150714285Y-110952438D01*
X150714285Y-110952438D02*
X150761904Y-111000057D01*
X151714285Y-111904819D02*
X151142857Y-111904819D01*
X151428571Y-111904819D02*
X151428571Y-110904819D01*
X151428571Y-110904819D02*
X151333333Y-111047676D01*
X151333333Y-111047676D02*
X151238095Y-111142914D01*
X151238095Y-111142914D02*
X151142857Y-111190533D01*
X186833333Y-97454819D02*
X186357143Y-97454819D01*
X186357143Y-97454819D02*
X186357143Y-96454819D01*
X187690476Y-97454819D02*
X187119048Y-97454819D01*
X187404762Y-97454819D02*
X187404762Y-96454819D01*
X187404762Y-96454819D02*
X187309524Y-96597676D01*
X187309524Y-96597676D02*
X187214286Y-96692914D01*
X187214286Y-96692914D02*
X187119048Y-96740533D01*
X147942261Y-73950057D02*
X147847023Y-73902438D01*
X147847023Y-73902438D02*
X147751785Y-73807200D01*
X147751785Y-73807200D02*
X147608928Y-73664342D01*
X147608928Y-73664342D02*
X147513690Y-73616723D01*
X147513690Y-73616723D02*
X147418452Y-73616723D01*
X147466071Y-73854819D02*
X147370833Y-73807200D01*
X147370833Y-73807200D02*
X147275595Y-73711961D01*
X147275595Y-73711961D02*
X147227976Y-73521485D01*
X147227976Y-73521485D02*
X147227976Y-73188152D01*
X147227976Y-73188152D02*
X147275595Y-72997676D01*
X147275595Y-72997676D02*
X147370833Y-72902438D01*
X147370833Y-72902438D02*
X147466071Y-72854819D01*
X147466071Y-72854819D02*
X147656547Y-72854819D01*
X147656547Y-72854819D02*
X147751785Y-72902438D01*
X147751785Y-72902438D02*
X147847023Y-72997676D01*
X147847023Y-72997676D02*
X147894642Y-73188152D01*
X147894642Y-73188152D02*
X147894642Y-73521485D01*
X147894642Y-73521485D02*
X147847023Y-73711961D01*
X147847023Y-73711961D02*
X147751785Y-73807200D01*
X147751785Y-73807200D02*
X147656547Y-73854819D01*
X147656547Y-73854819D02*
X147466071Y-73854819D01*
X148847023Y-73854819D02*
X148275595Y-73854819D01*
X148561309Y-73854819D02*
X148561309Y-72854819D01*
X148561309Y-72854819D02*
X148466071Y-72997676D01*
X148466071Y-72997676D02*
X148370833Y-73092914D01*
X148370833Y-73092914D02*
X148275595Y-73140533D01*
X151238095Y-60954819D02*
X151238095Y-61764342D01*
X151238095Y-61764342D02*
X151285714Y-61859580D01*
X151285714Y-61859580D02*
X151333333Y-61907200D01*
X151333333Y-61907200D02*
X151428571Y-61954819D01*
X151428571Y-61954819D02*
X151619047Y-61954819D01*
X151619047Y-61954819D02*
X151714285Y-61907200D01*
X151714285Y-61907200D02*
X151761904Y-61859580D01*
X151761904Y-61859580D02*
X151809523Y-61764342D01*
X151809523Y-61764342D02*
X151809523Y-60954819D01*
X152714285Y-61288152D02*
X152714285Y-61954819D01*
X152476190Y-60907200D02*
X152238095Y-61621485D01*
X152238095Y-61621485D02*
X152857142Y-61621485D01*
X171929580Y-79892857D02*
X171977200Y-79940476D01*
X171977200Y-79940476D02*
X172024819Y-80083333D01*
X172024819Y-80083333D02*
X172024819Y-80178571D01*
X172024819Y-80178571D02*
X171977200Y-80321428D01*
X171977200Y-80321428D02*
X171881961Y-80416666D01*
X171881961Y-80416666D02*
X171786723Y-80464285D01*
X171786723Y-80464285D02*
X171596247Y-80511904D01*
X171596247Y-80511904D02*
X171453390Y-80511904D01*
X171453390Y-80511904D02*
X171262914Y-80464285D01*
X171262914Y-80464285D02*
X171167676Y-80416666D01*
X171167676Y-80416666D02*
X171072438Y-80321428D01*
X171072438Y-80321428D02*
X171024819Y-80178571D01*
X171024819Y-80178571D02*
X171024819Y-80083333D01*
X171024819Y-80083333D02*
X171072438Y-79940476D01*
X171072438Y-79940476D02*
X171120057Y-79892857D01*
X172024819Y-78940476D02*
X172024819Y-79511904D01*
X172024819Y-79226190D02*
X171024819Y-79226190D01*
X171024819Y-79226190D02*
X171167676Y-79321428D01*
X171167676Y-79321428D02*
X171262914Y-79416666D01*
X171262914Y-79416666D02*
X171310533Y-79511904D01*
X171024819Y-78035714D02*
X171024819Y-78511904D01*
X171024819Y-78511904D02*
X171501009Y-78559523D01*
X171501009Y-78559523D02*
X171453390Y-78511904D01*
X171453390Y-78511904D02*
X171405771Y-78416666D01*
X171405771Y-78416666D02*
X171405771Y-78178571D01*
X171405771Y-78178571D02*
X171453390Y-78083333D01*
X171453390Y-78083333D02*
X171501009Y-78035714D01*
X171501009Y-78035714D02*
X171596247Y-77988095D01*
X171596247Y-77988095D02*
X171834342Y-77988095D01*
X171834342Y-77988095D02*
X171929580Y-78035714D01*
X171929580Y-78035714D02*
X171977200Y-78083333D01*
X171977200Y-78083333D02*
X172024819Y-78178571D01*
X172024819Y-78178571D02*
X172024819Y-78416666D01*
X172024819Y-78416666D02*
X171977200Y-78511904D01*
X171977200Y-78511904D02*
X171929580Y-78559523D01*
X190369533Y-102334580D02*
X190321914Y-102382200D01*
X190321914Y-102382200D02*
X190179057Y-102429819D01*
X190179057Y-102429819D02*
X190083819Y-102429819D01*
X190083819Y-102429819D02*
X189940962Y-102382200D01*
X189940962Y-102382200D02*
X189845724Y-102286961D01*
X189845724Y-102286961D02*
X189798105Y-102191723D01*
X189798105Y-102191723D02*
X189750486Y-102001247D01*
X189750486Y-102001247D02*
X189750486Y-101858390D01*
X189750486Y-101858390D02*
X189798105Y-101667914D01*
X189798105Y-101667914D02*
X189845724Y-101572676D01*
X189845724Y-101572676D02*
X189940962Y-101477438D01*
X189940962Y-101477438D02*
X190083819Y-101429819D01*
X190083819Y-101429819D02*
X190179057Y-101429819D01*
X190179057Y-101429819D02*
X190321914Y-101477438D01*
X190321914Y-101477438D02*
X190369533Y-101525057D01*
X190845724Y-102429819D02*
X191036200Y-102429819D01*
X191036200Y-102429819D02*
X191131438Y-102382200D01*
X191131438Y-102382200D02*
X191179057Y-102334580D01*
X191179057Y-102334580D02*
X191274295Y-102191723D01*
X191274295Y-102191723D02*
X191321914Y-102001247D01*
X191321914Y-102001247D02*
X191321914Y-101620295D01*
X191321914Y-101620295D02*
X191274295Y-101525057D01*
X191274295Y-101525057D02*
X191226676Y-101477438D01*
X191226676Y-101477438D02*
X191131438Y-101429819D01*
X191131438Y-101429819D02*
X190940962Y-101429819D01*
X190940962Y-101429819D02*
X190845724Y-101477438D01*
X190845724Y-101477438D02*
X190798105Y-101525057D01*
X190798105Y-101525057D02*
X190750486Y-101620295D01*
X190750486Y-101620295D02*
X190750486Y-101858390D01*
X190750486Y-101858390D02*
X190798105Y-101953628D01*
X190798105Y-101953628D02*
X190845724Y-102001247D01*
X190845724Y-102001247D02*
X190940962Y-102048866D01*
X190940962Y-102048866D02*
X191131438Y-102048866D01*
X191131438Y-102048866D02*
X191226676Y-102001247D01*
X191226676Y-102001247D02*
X191274295Y-101953628D01*
X191274295Y-101953628D02*
X191321914Y-101858390D01*
X141833333Y-111789580D02*
X141785714Y-111837200D01*
X141785714Y-111837200D02*
X141642857Y-111884819D01*
X141642857Y-111884819D02*
X141547619Y-111884819D01*
X141547619Y-111884819D02*
X141404762Y-111837200D01*
X141404762Y-111837200D02*
X141309524Y-111741961D01*
X141309524Y-111741961D02*
X141261905Y-111646723D01*
X141261905Y-111646723D02*
X141214286Y-111456247D01*
X141214286Y-111456247D02*
X141214286Y-111313390D01*
X141214286Y-111313390D02*
X141261905Y-111122914D01*
X141261905Y-111122914D02*
X141309524Y-111027676D01*
X141309524Y-111027676D02*
X141404762Y-110932438D01*
X141404762Y-110932438D02*
X141547619Y-110884819D01*
X141547619Y-110884819D02*
X141642857Y-110884819D01*
X141642857Y-110884819D02*
X141785714Y-110932438D01*
X141785714Y-110932438D02*
X141833333Y-110980057D01*
X142738095Y-110884819D02*
X142261905Y-110884819D01*
X142261905Y-110884819D02*
X142214286Y-111361009D01*
X142214286Y-111361009D02*
X142261905Y-111313390D01*
X142261905Y-111313390D02*
X142357143Y-111265771D01*
X142357143Y-111265771D02*
X142595238Y-111265771D01*
X142595238Y-111265771D02*
X142690476Y-111313390D01*
X142690476Y-111313390D02*
X142738095Y-111361009D01*
X142738095Y-111361009D02*
X142785714Y-111456247D01*
X142785714Y-111456247D02*
X142785714Y-111694342D01*
X142785714Y-111694342D02*
X142738095Y-111789580D01*
X142738095Y-111789580D02*
X142690476Y-111837200D01*
X142690476Y-111837200D02*
X142595238Y-111884819D01*
X142595238Y-111884819D02*
X142357143Y-111884819D01*
X142357143Y-111884819D02*
X142261905Y-111837200D01*
X142261905Y-111837200D02*
X142214286Y-111789580D01*
X187701895Y-81918619D02*
X187701895Y-82728142D01*
X187701895Y-82728142D02*
X187749514Y-82823380D01*
X187749514Y-82823380D02*
X187797133Y-82871000D01*
X187797133Y-82871000D02*
X187892371Y-82918619D01*
X187892371Y-82918619D02*
X188082847Y-82918619D01*
X188082847Y-82918619D02*
X188178085Y-82871000D01*
X188178085Y-82871000D02*
X188225704Y-82823380D01*
X188225704Y-82823380D02*
X188273323Y-82728142D01*
X188273323Y-82728142D02*
X188273323Y-81918619D01*
X189225704Y-81918619D02*
X188749514Y-81918619D01*
X188749514Y-81918619D02*
X188701895Y-82394809D01*
X188701895Y-82394809D02*
X188749514Y-82347190D01*
X188749514Y-82347190D02*
X188844752Y-82299571D01*
X188844752Y-82299571D02*
X189082847Y-82299571D01*
X189082847Y-82299571D02*
X189178085Y-82347190D01*
X189178085Y-82347190D02*
X189225704Y-82394809D01*
X189225704Y-82394809D02*
X189273323Y-82490047D01*
X189273323Y-82490047D02*
X189273323Y-82728142D01*
X189273323Y-82728142D02*
X189225704Y-82823380D01*
X189225704Y-82823380D02*
X189178085Y-82871000D01*
X189178085Y-82871000D02*
X189082847Y-82918619D01*
X189082847Y-82918619D02*
X188844752Y-82918619D01*
X188844752Y-82918619D02*
X188749514Y-82871000D01*
X188749514Y-82871000D02*
X188701895Y-82823380D01*
X164994642Y-63859580D02*
X164947023Y-63907200D01*
X164947023Y-63907200D02*
X164804166Y-63954819D01*
X164804166Y-63954819D02*
X164708928Y-63954819D01*
X164708928Y-63954819D02*
X164566071Y-63907200D01*
X164566071Y-63907200D02*
X164470833Y-63811961D01*
X164470833Y-63811961D02*
X164423214Y-63716723D01*
X164423214Y-63716723D02*
X164375595Y-63526247D01*
X164375595Y-63526247D02*
X164375595Y-63383390D01*
X164375595Y-63383390D02*
X164423214Y-63192914D01*
X164423214Y-63192914D02*
X164470833Y-63097676D01*
X164470833Y-63097676D02*
X164566071Y-63002438D01*
X164566071Y-63002438D02*
X164708928Y-62954819D01*
X164708928Y-62954819D02*
X164804166Y-62954819D01*
X164804166Y-62954819D02*
X164947023Y-63002438D01*
X164947023Y-63002438D02*
X164994642Y-63050057D01*
X165947023Y-63954819D02*
X165375595Y-63954819D01*
X165661309Y-63954819D02*
X165661309Y-62954819D01*
X165661309Y-62954819D02*
X165566071Y-63097676D01*
X165566071Y-63097676D02*
X165470833Y-63192914D01*
X165470833Y-63192914D02*
X165375595Y-63240533D01*
X166899404Y-63954819D02*
X166327976Y-63954819D01*
X166613690Y-63954819D02*
X166613690Y-62954819D01*
X166613690Y-62954819D02*
X166518452Y-63097676D01*
X166518452Y-63097676D02*
X166423214Y-63192914D01*
X166423214Y-63192914D02*
X166327976Y-63240533D01*
X135454819Y-137833333D02*
X136169104Y-137833333D01*
X136169104Y-137833333D02*
X136311961Y-137880952D01*
X136311961Y-137880952D02*
X136407200Y-137976190D01*
X136407200Y-137976190D02*
X136454819Y-138119047D01*
X136454819Y-138119047D02*
X136454819Y-138214285D01*
X135454819Y-137452380D02*
X135454819Y-136833333D01*
X135454819Y-136833333D02*
X135835771Y-137166666D01*
X135835771Y-137166666D02*
X135835771Y-137023809D01*
X135835771Y-137023809D02*
X135883390Y-136928571D01*
X135883390Y-136928571D02*
X135931009Y-136880952D01*
X135931009Y-136880952D02*
X136026247Y-136833333D01*
X136026247Y-136833333D02*
X136264342Y-136833333D01*
X136264342Y-136833333D02*
X136359580Y-136880952D01*
X136359580Y-136880952D02*
X136407200Y-136928571D01*
X136407200Y-136928571D02*
X136454819Y-137023809D01*
X136454819Y-137023809D02*
X136454819Y-137309523D01*
X136454819Y-137309523D02*
X136407200Y-137404761D01*
X136407200Y-137404761D02*
X136359580Y-137452380D01*
X165429580Y-68642857D02*
X165477200Y-68690476D01*
X165477200Y-68690476D02*
X165524819Y-68833333D01*
X165524819Y-68833333D02*
X165524819Y-68928571D01*
X165524819Y-68928571D02*
X165477200Y-69071428D01*
X165477200Y-69071428D02*
X165381961Y-69166666D01*
X165381961Y-69166666D02*
X165286723Y-69214285D01*
X165286723Y-69214285D02*
X165096247Y-69261904D01*
X165096247Y-69261904D02*
X164953390Y-69261904D01*
X164953390Y-69261904D02*
X164762914Y-69214285D01*
X164762914Y-69214285D02*
X164667676Y-69166666D01*
X164667676Y-69166666D02*
X164572438Y-69071428D01*
X164572438Y-69071428D02*
X164524819Y-68928571D01*
X164524819Y-68928571D02*
X164524819Y-68833333D01*
X164524819Y-68833333D02*
X164572438Y-68690476D01*
X164572438Y-68690476D02*
X164620057Y-68642857D01*
X165524819Y-67690476D02*
X165524819Y-68261904D01*
X165524819Y-67976190D02*
X164524819Y-67976190D01*
X164524819Y-67976190D02*
X164667676Y-68071428D01*
X164667676Y-68071428D02*
X164762914Y-68166666D01*
X164762914Y-68166666D02*
X164810533Y-68261904D01*
X164620057Y-67309523D02*
X164572438Y-67261904D01*
X164572438Y-67261904D02*
X164524819Y-67166666D01*
X164524819Y-67166666D02*
X164524819Y-66928571D01*
X164524819Y-66928571D02*
X164572438Y-66833333D01*
X164572438Y-66833333D02*
X164620057Y-66785714D01*
X164620057Y-66785714D02*
X164715295Y-66738095D01*
X164715295Y-66738095D02*
X164810533Y-66738095D01*
X164810533Y-66738095D02*
X164953390Y-66785714D01*
X164953390Y-66785714D02*
X165524819Y-67357142D01*
X165524819Y-67357142D02*
X165524819Y-66738095D01*
X151342319Y-76416666D02*
X150866128Y-76749999D01*
X151342319Y-76988094D02*
X150342319Y-76988094D01*
X150342319Y-76988094D02*
X150342319Y-76607142D01*
X150342319Y-76607142D02*
X150389938Y-76511904D01*
X150389938Y-76511904D02*
X150437557Y-76464285D01*
X150437557Y-76464285D02*
X150532795Y-76416666D01*
X150532795Y-76416666D02*
X150675652Y-76416666D01*
X150675652Y-76416666D02*
X150770890Y-76464285D01*
X150770890Y-76464285D02*
X150818509Y-76511904D01*
X150818509Y-76511904D02*
X150866128Y-76607142D01*
X150866128Y-76607142D02*
X150866128Y-76988094D01*
X150342319Y-75559523D02*
X150342319Y-75749999D01*
X150342319Y-75749999D02*
X150389938Y-75845237D01*
X150389938Y-75845237D02*
X150437557Y-75892856D01*
X150437557Y-75892856D02*
X150580414Y-75988094D01*
X150580414Y-75988094D02*
X150770890Y-76035713D01*
X150770890Y-76035713D02*
X151151842Y-76035713D01*
X151151842Y-76035713D02*
X151247080Y-75988094D01*
X151247080Y-75988094D02*
X151294700Y-75940475D01*
X151294700Y-75940475D02*
X151342319Y-75845237D01*
X151342319Y-75845237D02*
X151342319Y-75654761D01*
X151342319Y-75654761D02*
X151294700Y-75559523D01*
X151294700Y-75559523D02*
X151247080Y-75511904D01*
X151247080Y-75511904D02*
X151151842Y-75464285D01*
X151151842Y-75464285D02*
X150913747Y-75464285D01*
X150913747Y-75464285D02*
X150818509Y-75511904D01*
X150818509Y-75511904D02*
X150770890Y-75559523D01*
X150770890Y-75559523D02*
X150723271Y-75654761D01*
X150723271Y-75654761D02*
X150723271Y-75845237D01*
X150723271Y-75845237D02*
X150770890Y-75940475D01*
X150770890Y-75940475D02*
X150818509Y-75988094D01*
X150818509Y-75988094D02*
X150913747Y-76035713D01*
X168429580Y-79892857D02*
X168477200Y-79940476D01*
X168477200Y-79940476D02*
X168524819Y-80083333D01*
X168524819Y-80083333D02*
X168524819Y-80178571D01*
X168524819Y-80178571D02*
X168477200Y-80321428D01*
X168477200Y-80321428D02*
X168381961Y-80416666D01*
X168381961Y-80416666D02*
X168286723Y-80464285D01*
X168286723Y-80464285D02*
X168096247Y-80511904D01*
X168096247Y-80511904D02*
X167953390Y-80511904D01*
X167953390Y-80511904D02*
X167762914Y-80464285D01*
X167762914Y-80464285D02*
X167667676Y-80416666D01*
X167667676Y-80416666D02*
X167572438Y-80321428D01*
X167572438Y-80321428D02*
X167524819Y-80178571D01*
X167524819Y-80178571D02*
X167524819Y-80083333D01*
X167524819Y-80083333D02*
X167572438Y-79940476D01*
X167572438Y-79940476D02*
X167620057Y-79892857D01*
X168524819Y-78940476D02*
X168524819Y-79511904D01*
X168524819Y-79226190D02*
X167524819Y-79226190D01*
X167524819Y-79226190D02*
X167667676Y-79321428D01*
X167667676Y-79321428D02*
X167762914Y-79416666D01*
X167762914Y-79416666D02*
X167810533Y-79511904D01*
X167858152Y-78083333D02*
X168524819Y-78083333D01*
X167477200Y-78321428D02*
X168191485Y-78559523D01*
X168191485Y-78559523D02*
X168191485Y-77940476D01*
X185274295Y-106359819D02*
X185274295Y-107169342D01*
X185274295Y-107169342D02*
X185321914Y-107264580D01*
X185321914Y-107264580D02*
X185369533Y-107312200D01*
X185369533Y-107312200D02*
X185464771Y-107359819D01*
X185464771Y-107359819D02*
X185655247Y-107359819D01*
X185655247Y-107359819D02*
X185750485Y-107312200D01*
X185750485Y-107312200D02*
X185798104Y-107264580D01*
X185798104Y-107264580D02*
X185845723Y-107169342D01*
X185845723Y-107169342D02*
X185845723Y-106359819D01*
X186845723Y-107359819D02*
X186274295Y-107359819D01*
X186560009Y-107359819D02*
X186560009Y-106359819D01*
X186560009Y-106359819D02*
X186464771Y-106502676D01*
X186464771Y-106502676D02*
X186369533Y-106597914D01*
X186369533Y-106597914D02*
X186274295Y-106645533D01*
X174404762Y-114907200D02*
X174547619Y-114954819D01*
X174547619Y-114954819D02*
X174785714Y-114954819D01*
X174785714Y-114954819D02*
X174880952Y-114907200D01*
X174880952Y-114907200D02*
X174928571Y-114859580D01*
X174928571Y-114859580D02*
X174976190Y-114764342D01*
X174976190Y-114764342D02*
X174976190Y-114669104D01*
X174976190Y-114669104D02*
X174928571Y-114573866D01*
X174928571Y-114573866D02*
X174880952Y-114526247D01*
X174880952Y-114526247D02*
X174785714Y-114478628D01*
X174785714Y-114478628D02*
X174595238Y-114431009D01*
X174595238Y-114431009D02*
X174500000Y-114383390D01*
X174500000Y-114383390D02*
X174452381Y-114335771D01*
X174452381Y-114335771D02*
X174404762Y-114240533D01*
X174404762Y-114240533D02*
X174404762Y-114145295D01*
X174404762Y-114145295D02*
X174452381Y-114050057D01*
X174452381Y-114050057D02*
X174500000Y-114002438D01*
X174500000Y-114002438D02*
X174595238Y-113954819D01*
X174595238Y-113954819D02*
X174833333Y-113954819D01*
X174833333Y-113954819D02*
X174976190Y-114002438D01*
X175404762Y-114954819D02*
X175404762Y-113954819D01*
X175404762Y-113954819D02*
X175642857Y-113954819D01*
X175642857Y-113954819D02*
X175785714Y-114002438D01*
X175785714Y-114002438D02*
X175880952Y-114097676D01*
X175880952Y-114097676D02*
X175928571Y-114192914D01*
X175928571Y-114192914D02*
X175976190Y-114383390D01*
X175976190Y-114383390D02*
X175976190Y-114526247D01*
X175976190Y-114526247D02*
X175928571Y-114716723D01*
X175928571Y-114716723D02*
X175880952Y-114811961D01*
X175880952Y-114811961D02*
X175785714Y-114907200D01*
X175785714Y-114907200D02*
X175642857Y-114954819D01*
X175642857Y-114954819D02*
X175404762Y-114954819D01*
X176357143Y-114669104D02*
X176833333Y-114669104D01*
X176261905Y-114954819D02*
X176595238Y-113954819D01*
X176595238Y-113954819D02*
X176928571Y-114954819D01*
X177976190Y-113907200D02*
X177119048Y-115192914D01*
X178261905Y-114907200D02*
X178404762Y-114954819D01*
X178404762Y-114954819D02*
X178642857Y-114954819D01*
X178642857Y-114954819D02*
X178738095Y-114907200D01*
X178738095Y-114907200D02*
X178785714Y-114859580D01*
X178785714Y-114859580D02*
X178833333Y-114764342D01*
X178833333Y-114764342D02*
X178833333Y-114669104D01*
X178833333Y-114669104D02*
X178785714Y-114573866D01*
X178785714Y-114573866D02*
X178738095Y-114526247D01*
X178738095Y-114526247D02*
X178642857Y-114478628D01*
X178642857Y-114478628D02*
X178452381Y-114431009D01*
X178452381Y-114431009D02*
X178357143Y-114383390D01*
X178357143Y-114383390D02*
X178309524Y-114335771D01*
X178309524Y-114335771D02*
X178261905Y-114240533D01*
X178261905Y-114240533D02*
X178261905Y-114145295D01*
X178261905Y-114145295D02*
X178309524Y-114050057D01*
X178309524Y-114050057D02*
X178357143Y-114002438D01*
X178357143Y-114002438D02*
X178452381Y-113954819D01*
X178452381Y-113954819D02*
X178690476Y-113954819D01*
X178690476Y-113954819D02*
X178833333Y-114002438D01*
X179833333Y-114859580D02*
X179785714Y-114907200D01*
X179785714Y-114907200D02*
X179642857Y-114954819D01*
X179642857Y-114954819D02*
X179547619Y-114954819D01*
X179547619Y-114954819D02*
X179404762Y-114907200D01*
X179404762Y-114907200D02*
X179309524Y-114811961D01*
X179309524Y-114811961D02*
X179261905Y-114716723D01*
X179261905Y-114716723D02*
X179214286Y-114526247D01*
X179214286Y-114526247D02*
X179214286Y-114383390D01*
X179214286Y-114383390D02*
X179261905Y-114192914D01*
X179261905Y-114192914D02*
X179309524Y-114097676D01*
X179309524Y-114097676D02*
X179404762Y-114002438D01*
X179404762Y-114002438D02*
X179547619Y-113954819D01*
X179547619Y-113954819D02*
X179642857Y-113954819D01*
X179642857Y-113954819D02*
X179785714Y-114002438D01*
X179785714Y-114002438D02*
X179833333Y-114050057D01*
X180738095Y-114954819D02*
X180261905Y-114954819D01*
X180261905Y-114954819D02*
X180261905Y-113954819D01*
X181595238Y-114954819D02*
X181023810Y-114954819D01*
X181309524Y-114954819D02*
X181309524Y-113954819D01*
X181309524Y-113954819D02*
X181214286Y-114097676D01*
X181214286Y-114097676D02*
X181119048Y-114192914D01*
X181119048Y-114192914D02*
X181023810Y-114240533D01*
X159229104Y-120604285D02*
X159229104Y-120128095D01*
X159514819Y-120699523D02*
X158514819Y-120366190D01*
X158514819Y-120366190D02*
X159514819Y-120032857D01*
X159514819Y-119175714D02*
X159514819Y-119747142D01*
X159514819Y-119461428D02*
X158514819Y-119461428D01*
X158514819Y-119461428D02*
X158657676Y-119556666D01*
X158657676Y-119556666D02*
X158752914Y-119651904D01*
X158752914Y-119651904D02*
X158800533Y-119747142D01*
X196454819Y-131641904D02*
X197264342Y-131641904D01*
X197264342Y-131641904D02*
X197359580Y-131594285D01*
X197359580Y-131594285D02*
X197407200Y-131546666D01*
X197407200Y-131546666D02*
X197454819Y-131451428D01*
X197454819Y-131451428D02*
X197454819Y-131260952D01*
X197454819Y-131260952D02*
X197407200Y-131165714D01*
X197407200Y-131165714D02*
X197359580Y-131118095D01*
X197359580Y-131118095D02*
X197264342Y-131070476D01*
X197264342Y-131070476D02*
X196454819Y-131070476D01*
X197407200Y-130641904D02*
X197454819Y-130499047D01*
X197454819Y-130499047D02*
X197454819Y-130260952D01*
X197454819Y-130260952D02*
X197407200Y-130165714D01*
X197407200Y-130165714D02*
X197359580Y-130118095D01*
X197359580Y-130118095D02*
X197264342Y-130070476D01*
X197264342Y-130070476D02*
X197169104Y-130070476D01*
X197169104Y-130070476D02*
X197073866Y-130118095D01*
X197073866Y-130118095D02*
X197026247Y-130165714D01*
X197026247Y-130165714D02*
X196978628Y-130260952D01*
X196978628Y-130260952D02*
X196931009Y-130451428D01*
X196931009Y-130451428D02*
X196883390Y-130546666D01*
X196883390Y-130546666D02*
X196835771Y-130594285D01*
X196835771Y-130594285D02*
X196740533Y-130641904D01*
X196740533Y-130641904D02*
X196645295Y-130641904D01*
X196645295Y-130641904D02*
X196550057Y-130594285D01*
X196550057Y-130594285D02*
X196502438Y-130546666D01*
X196502438Y-130546666D02*
X196454819Y-130451428D01*
X196454819Y-130451428D02*
X196454819Y-130213333D01*
X196454819Y-130213333D02*
X196502438Y-130070476D01*
X196931009Y-129308571D02*
X196978628Y-129165714D01*
X196978628Y-129165714D02*
X197026247Y-129118095D01*
X197026247Y-129118095D02*
X197121485Y-129070476D01*
X197121485Y-129070476D02*
X197264342Y-129070476D01*
X197264342Y-129070476D02*
X197359580Y-129118095D01*
X197359580Y-129118095D02*
X197407200Y-129165714D01*
X197407200Y-129165714D02*
X197454819Y-129260952D01*
X197454819Y-129260952D02*
X197454819Y-129641904D01*
X197454819Y-129641904D02*
X196454819Y-129641904D01*
X196454819Y-129641904D02*
X196454819Y-129308571D01*
X196454819Y-129308571D02*
X196502438Y-129213333D01*
X196502438Y-129213333D02*
X196550057Y-129165714D01*
X196550057Y-129165714D02*
X196645295Y-129118095D01*
X196645295Y-129118095D02*
X196740533Y-129118095D01*
X196740533Y-129118095D02*
X196835771Y-129165714D01*
X196835771Y-129165714D02*
X196883390Y-129213333D01*
X196883390Y-129213333D02*
X196931009Y-129308571D01*
X196931009Y-129308571D02*
X196931009Y-129641904D01*
X167359580Y-119166666D02*
X167407200Y-119214285D01*
X167407200Y-119214285D02*
X167454819Y-119357142D01*
X167454819Y-119357142D02*
X167454819Y-119452380D01*
X167454819Y-119452380D02*
X167407200Y-119595237D01*
X167407200Y-119595237D02*
X167311961Y-119690475D01*
X167311961Y-119690475D02*
X167216723Y-119738094D01*
X167216723Y-119738094D02*
X167026247Y-119785713D01*
X167026247Y-119785713D02*
X166883390Y-119785713D01*
X166883390Y-119785713D02*
X166692914Y-119738094D01*
X166692914Y-119738094D02*
X166597676Y-119690475D01*
X166597676Y-119690475D02*
X166502438Y-119595237D01*
X166502438Y-119595237D02*
X166454819Y-119452380D01*
X166454819Y-119452380D02*
X166454819Y-119357142D01*
X166454819Y-119357142D02*
X166502438Y-119214285D01*
X166502438Y-119214285D02*
X166550057Y-119166666D01*
X166550057Y-118785713D02*
X166502438Y-118738094D01*
X166502438Y-118738094D02*
X166454819Y-118642856D01*
X166454819Y-118642856D02*
X166454819Y-118404761D01*
X166454819Y-118404761D02*
X166502438Y-118309523D01*
X166502438Y-118309523D02*
X166550057Y-118261904D01*
X166550057Y-118261904D02*
X166645295Y-118214285D01*
X166645295Y-118214285D02*
X166740533Y-118214285D01*
X166740533Y-118214285D02*
X166883390Y-118261904D01*
X166883390Y-118261904D02*
X167454819Y-118833332D01*
X167454819Y-118833332D02*
X167454819Y-118214285D01*
X154859580Y-112166666D02*
X154907200Y-112214285D01*
X154907200Y-112214285D02*
X154954819Y-112357142D01*
X154954819Y-112357142D02*
X154954819Y-112452380D01*
X154954819Y-112452380D02*
X154907200Y-112595237D01*
X154907200Y-112595237D02*
X154811961Y-112690475D01*
X154811961Y-112690475D02*
X154716723Y-112738094D01*
X154716723Y-112738094D02*
X154526247Y-112785713D01*
X154526247Y-112785713D02*
X154383390Y-112785713D01*
X154383390Y-112785713D02*
X154192914Y-112738094D01*
X154192914Y-112738094D02*
X154097676Y-112690475D01*
X154097676Y-112690475D02*
X154002438Y-112595237D01*
X154002438Y-112595237D02*
X153954819Y-112452380D01*
X153954819Y-112452380D02*
X153954819Y-112357142D01*
X153954819Y-112357142D02*
X154002438Y-112214285D01*
X154002438Y-112214285D02*
X154050057Y-112166666D01*
X153954819Y-111833332D02*
X153954819Y-111166666D01*
X153954819Y-111166666D02*
X154954819Y-111595237D01*
X159499999Y-103564819D02*
X159166666Y-103088628D01*
X158928571Y-103564819D02*
X158928571Y-102564819D01*
X158928571Y-102564819D02*
X159309523Y-102564819D01*
X159309523Y-102564819D02*
X159404761Y-102612438D01*
X159404761Y-102612438D02*
X159452380Y-102660057D01*
X159452380Y-102660057D02*
X159499999Y-102755295D01*
X159499999Y-102755295D02*
X159499999Y-102898152D01*
X159499999Y-102898152D02*
X159452380Y-102993390D01*
X159452380Y-102993390D02*
X159404761Y-103041009D01*
X159404761Y-103041009D02*
X159309523Y-103088628D01*
X159309523Y-103088628D02*
X158928571Y-103088628D01*
X160309523Y-103517200D02*
X160214285Y-103564819D01*
X160214285Y-103564819D02*
X160023809Y-103564819D01*
X160023809Y-103564819D02*
X159928571Y-103517200D01*
X159928571Y-103517200D02*
X159880952Y-103421961D01*
X159880952Y-103421961D02*
X159880952Y-103041009D01*
X159880952Y-103041009D02*
X159928571Y-102945771D01*
X159928571Y-102945771D02*
X160023809Y-102898152D01*
X160023809Y-102898152D02*
X160214285Y-102898152D01*
X160214285Y-102898152D02*
X160309523Y-102945771D01*
X160309523Y-102945771D02*
X160357142Y-103041009D01*
X160357142Y-103041009D02*
X160357142Y-103136247D01*
X160357142Y-103136247D02*
X159880952Y-103231485D01*
X160738095Y-103517200D02*
X160833333Y-103564819D01*
X160833333Y-103564819D02*
X161023809Y-103564819D01*
X161023809Y-103564819D02*
X161119047Y-103517200D01*
X161119047Y-103517200D02*
X161166666Y-103421961D01*
X161166666Y-103421961D02*
X161166666Y-103374342D01*
X161166666Y-103374342D02*
X161119047Y-103279104D01*
X161119047Y-103279104D02*
X161023809Y-103231485D01*
X161023809Y-103231485D02*
X160880952Y-103231485D01*
X160880952Y-103231485D02*
X160785714Y-103183866D01*
X160785714Y-103183866D02*
X160738095Y-103088628D01*
X160738095Y-103088628D02*
X160738095Y-103041009D01*
X160738095Y-103041009D02*
X160785714Y-102945771D01*
X160785714Y-102945771D02*
X160880952Y-102898152D01*
X160880952Y-102898152D02*
X161023809Y-102898152D01*
X161023809Y-102898152D02*
X161119047Y-102945771D01*
X161547619Y-102660057D02*
X161595238Y-102612438D01*
X161595238Y-102612438D02*
X161690476Y-102564819D01*
X161690476Y-102564819D02*
X161928571Y-102564819D01*
X161928571Y-102564819D02*
X162023809Y-102612438D01*
X162023809Y-102612438D02*
X162071428Y-102660057D01*
X162071428Y-102660057D02*
X162119047Y-102755295D01*
X162119047Y-102755295D02*
X162119047Y-102850533D01*
X162119047Y-102850533D02*
X162071428Y-102993390D01*
X162071428Y-102993390D02*
X161500000Y-103564819D01*
X161500000Y-103564819D02*
X162119047Y-103564819D01*
X144109580Y-62892857D02*
X144157200Y-62940476D01*
X144157200Y-62940476D02*
X144204819Y-63083333D01*
X144204819Y-63083333D02*
X144204819Y-63178571D01*
X144204819Y-63178571D02*
X144157200Y-63321428D01*
X144157200Y-63321428D02*
X144061961Y-63416666D01*
X144061961Y-63416666D02*
X143966723Y-63464285D01*
X143966723Y-63464285D02*
X143776247Y-63511904D01*
X143776247Y-63511904D02*
X143633390Y-63511904D01*
X143633390Y-63511904D02*
X143442914Y-63464285D01*
X143442914Y-63464285D02*
X143347676Y-63416666D01*
X143347676Y-63416666D02*
X143252438Y-63321428D01*
X143252438Y-63321428D02*
X143204819Y-63178571D01*
X143204819Y-63178571D02*
X143204819Y-63083333D01*
X143204819Y-63083333D02*
X143252438Y-62940476D01*
X143252438Y-62940476D02*
X143300057Y-62892857D01*
X144204819Y-61940476D02*
X144204819Y-62511904D01*
X144204819Y-62226190D02*
X143204819Y-62226190D01*
X143204819Y-62226190D02*
X143347676Y-62321428D01*
X143347676Y-62321428D02*
X143442914Y-62416666D01*
X143442914Y-62416666D02*
X143490533Y-62511904D01*
X143204819Y-61321428D02*
X143204819Y-61226190D01*
X143204819Y-61226190D02*
X143252438Y-61130952D01*
X143252438Y-61130952D02*
X143300057Y-61083333D01*
X143300057Y-61083333D02*
X143395295Y-61035714D01*
X143395295Y-61035714D02*
X143585771Y-60988095D01*
X143585771Y-60988095D02*
X143823866Y-60988095D01*
X143823866Y-60988095D02*
X144014342Y-61035714D01*
X144014342Y-61035714D02*
X144109580Y-61083333D01*
X144109580Y-61083333D02*
X144157200Y-61130952D01*
X144157200Y-61130952D02*
X144204819Y-61226190D01*
X144204819Y-61226190D02*
X144204819Y-61321428D01*
X144204819Y-61321428D02*
X144157200Y-61416666D01*
X144157200Y-61416666D02*
X144109580Y-61464285D01*
X144109580Y-61464285D02*
X144014342Y-61511904D01*
X144014342Y-61511904D02*
X143823866Y-61559523D01*
X143823866Y-61559523D02*
X143585771Y-61559523D01*
X143585771Y-61559523D02*
X143395295Y-61511904D01*
X143395295Y-61511904D02*
X143300057Y-61464285D01*
X143300057Y-61464285D02*
X143252438Y-61416666D01*
X143252438Y-61416666D02*
X143204819Y-61321428D01*
X182844819Y-119190475D02*
X182844819Y-118571428D01*
X182844819Y-118571428D02*
X183225771Y-118904761D01*
X183225771Y-118904761D02*
X183225771Y-118761904D01*
X183225771Y-118761904D02*
X183273390Y-118666666D01*
X183273390Y-118666666D02*
X183321009Y-118619047D01*
X183321009Y-118619047D02*
X183416247Y-118571428D01*
X183416247Y-118571428D02*
X183654342Y-118571428D01*
X183654342Y-118571428D02*
X183749580Y-118619047D01*
X183749580Y-118619047D02*
X183797200Y-118666666D01*
X183797200Y-118666666D02*
X183844819Y-118761904D01*
X183844819Y-118761904D02*
X183844819Y-119047618D01*
X183844819Y-119047618D02*
X183797200Y-119142856D01*
X183797200Y-119142856D02*
X183749580Y-119190475D01*
X183178152Y-118238094D02*
X183844819Y-117999999D01*
X183844819Y-117999999D02*
X183178152Y-117761904D01*
X182844819Y-117476189D02*
X182844819Y-116857142D01*
X182844819Y-116857142D02*
X183225771Y-117190475D01*
X183225771Y-117190475D02*
X183225771Y-117047618D01*
X183225771Y-117047618D02*
X183273390Y-116952380D01*
X183273390Y-116952380D02*
X183321009Y-116904761D01*
X183321009Y-116904761D02*
X183416247Y-116857142D01*
X183416247Y-116857142D02*
X183654342Y-116857142D01*
X183654342Y-116857142D02*
X183749580Y-116904761D01*
X183749580Y-116904761D02*
X183797200Y-116952380D01*
X183797200Y-116952380D02*
X183844819Y-117047618D01*
X183844819Y-117047618D02*
X183844819Y-117333332D01*
X183844819Y-117333332D02*
X183797200Y-117428570D01*
X183797200Y-117428570D02*
X183749580Y-117476189D01*
X196893333Y-118569580D02*
X196845714Y-118617200D01*
X196845714Y-118617200D02*
X196702857Y-118664819D01*
X196702857Y-118664819D02*
X196607619Y-118664819D01*
X196607619Y-118664819D02*
X196464762Y-118617200D01*
X196464762Y-118617200D02*
X196369524Y-118521961D01*
X196369524Y-118521961D02*
X196321905Y-118426723D01*
X196321905Y-118426723D02*
X196274286Y-118236247D01*
X196274286Y-118236247D02*
X196274286Y-118093390D01*
X196274286Y-118093390D02*
X196321905Y-117902914D01*
X196321905Y-117902914D02*
X196369524Y-117807676D01*
X196369524Y-117807676D02*
X196464762Y-117712438D01*
X196464762Y-117712438D02*
X196607619Y-117664819D01*
X196607619Y-117664819D02*
X196702857Y-117664819D01*
X196702857Y-117664819D02*
X196845714Y-117712438D01*
X196845714Y-117712438D02*
X196893333Y-117760057D01*
X197845714Y-118664819D02*
X197274286Y-118664819D01*
X197560000Y-118664819D02*
X197560000Y-117664819D01*
X197560000Y-117664819D02*
X197464762Y-117807676D01*
X197464762Y-117807676D02*
X197369524Y-117902914D01*
X197369524Y-117902914D02*
X197274286Y-117950533D01*
X182892438Y-114238095D02*
X182844819Y-114333333D01*
X182844819Y-114333333D02*
X182844819Y-114476190D01*
X182844819Y-114476190D02*
X182892438Y-114619047D01*
X182892438Y-114619047D02*
X182987676Y-114714285D01*
X182987676Y-114714285D02*
X183082914Y-114761904D01*
X183082914Y-114761904D02*
X183273390Y-114809523D01*
X183273390Y-114809523D02*
X183416247Y-114809523D01*
X183416247Y-114809523D02*
X183606723Y-114761904D01*
X183606723Y-114761904D02*
X183701961Y-114714285D01*
X183701961Y-114714285D02*
X183797200Y-114619047D01*
X183797200Y-114619047D02*
X183844819Y-114476190D01*
X183844819Y-114476190D02*
X183844819Y-114380952D01*
X183844819Y-114380952D02*
X183797200Y-114238095D01*
X183797200Y-114238095D02*
X183749580Y-114190476D01*
X183749580Y-114190476D02*
X183416247Y-114190476D01*
X183416247Y-114190476D02*
X183416247Y-114380952D01*
X183844819Y-113761904D02*
X182844819Y-113761904D01*
X182844819Y-113761904D02*
X183844819Y-113190476D01*
X183844819Y-113190476D02*
X182844819Y-113190476D01*
X183844819Y-112714285D02*
X182844819Y-112714285D01*
X182844819Y-112714285D02*
X182844819Y-112476190D01*
X182844819Y-112476190D02*
X182892438Y-112333333D01*
X182892438Y-112333333D02*
X182987676Y-112238095D01*
X182987676Y-112238095D02*
X183082914Y-112190476D01*
X183082914Y-112190476D02*
X183273390Y-112142857D01*
X183273390Y-112142857D02*
X183416247Y-112142857D01*
X183416247Y-112142857D02*
X183606723Y-112190476D01*
X183606723Y-112190476D02*
X183701961Y-112238095D01*
X183701961Y-112238095D02*
X183797200Y-112333333D01*
X183797200Y-112333333D02*
X183844819Y-112476190D01*
X183844819Y-112476190D02*
X183844819Y-112714285D01*
X183844819Y-111190476D02*
X183844819Y-111761904D01*
X183844819Y-111476190D02*
X182844819Y-111476190D01*
X182844819Y-111476190D02*
X182987676Y-111571428D01*
X182987676Y-111571428D02*
X183082914Y-111666666D01*
X183082914Y-111666666D02*
X183130533Y-111761904D01*
X179076942Y-80804819D02*
X178743609Y-80328628D01*
X178505514Y-80804819D02*
X178505514Y-79804819D01*
X178505514Y-79804819D02*
X178886466Y-79804819D01*
X178886466Y-79804819D02*
X178981704Y-79852438D01*
X178981704Y-79852438D02*
X179029323Y-79900057D01*
X179029323Y-79900057D02*
X179076942Y-79995295D01*
X179076942Y-79995295D02*
X179076942Y-80138152D01*
X179076942Y-80138152D02*
X179029323Y-80233390D01*
X179029323Y-80233390D02*
X178981704Y-80281009D01*
X178981704Y-80281009D02*
X178886466Y-80328628D01*
X178886466Y-80328628D02*
X178505514Y-80328628D01*
X180029323Y-80804819D02*
X179457895Y-80804819D01*
X179743609Y-80804819D02*
X179743609Y-79804819D01*
X179743609Y-79804819D02*
X179648371Y-79947676D01*
X179648371Y-79947676D02*
X179553133Y-80042914D01*
X179553133Y-80042914D02*
X179457895Y-80090533D01*
X180410276Y-79900057D02*
X180457895Y-79852438D01*
X180457895Y-79852438D02*
X180553133Y-79804819D01*
X180553133Y-79804819D02*
X180791228Y-79804819D01*
X180791228Y-79804819D02*
X180886466Y-79852438D01*
X180886466Y-79852438D02*
X180934085Y-79900057D01*
X180934085Y-79900057D02*
X180981704Y-79995295D01*
X180981704Y-79995295D02*
X180981704Y-80090533D01*
X180981704Y-80090533D02*
X180934085Y-80233390D01*
X180934085Y-80233390D02*
X180362657Y-80804819D01*
X180362657Y-80804819D02*
X180981704Y-80804819D01*
X175261905Y-61754819D02*
X175261905Y-60754819D01*
X175261905Y-60754819D02*
X175500000Y-60754819D01*
X175500000Y-60754819D02*
X175642857Y-60802438D01*
X175642857Y-60802438D02*
X175738095Y-60897676D01*
X175738095Y-60897676D02*
X175785714Y-60992914D01*
X175785714Y-60992914D02*
X175833333Y-61183390D01*
X175833333Y-61183390D02*
X175833333Y-61326247D01*
X175833333Y-61326247D02*
X175785714Y-61516723D01*
X175785714Y-61516723D02*
X175738095Y-61611961D01*
X175738095Y-61611961D02*
X175642857Y-61707200D01*
X175642857Y-61707200D02*
X175500000Y-61754819D01*
X175500000Y-61754819D02*
X175261905Y-61754819D01*
X176785714Y-61754819D02*
X176214286Y-61754819D01*
X176500000Y-61754819D02*
X176500000Y-60754819D01*
X176500000Y-60754819D02*
X176404762Y-60897676D01*
X176404762Y-60897676D02*
X176309524Y-60992914D01*
X176309524Y-60992914D02*
X176214286Y-61040533D01*
X178857142Y-87804819D02*
X178523809Y-87328628D01*
X178285714Y-87804819D02*
X178285714Y-86804819D01*
X178285714Y-86804819D02*
X178666666Y-86804819D01*
X178666666Y-86804819D02*
X178761904Y-86852438D01*
X178761904Y-86852438D02*
X178809523Y-86900057D01*
X178809523Y-86900057D02*
X178857142Y-86995295D01*
X178857142Y-86995295D02*
X178857142Y-87138152D01*
X178857142Y-87138152D02*
X178809523Y-87233390D01*
X178809523Y-87233390D02*
X178761904Y-87281009D01*
X178761904Y-87281009D02*
X178666666Y-87328628D01*
X178666666Y-87328628D02*
X178285714Y-87328628D01*
X179809523Y-87804819D02*
X179238095Y-87804819D01*
X179523809Y-87804819D02*
X179523809Y-86804819D01*
X179523809Y-86804819D02*
X179428571Y-86947676D01*
X179428571Y-86947676D02*
X179333333Y-87042914D01*
X179333333Y-87042914D02*
X179238095Y-87090533D01*
X180428571Y-86804819D02*
X180523809Y-86804819D01*
X180523809Y-86804819D02*
X180619047Y-86852438D01*
X180619047Y-86852438D02*
X180666666Y-86900057D01*
X180666666Y-86900057D02*
X180714285Y-86995295D01*
X180714285Y-86995295D02*
X180761904Y-87185771D01*
X180761904Y-87185771D02*
X180761904Y-87423866D01*
X180761904Y-87423866D02*
X180714285Y-87614342D01*
X180714285Y-87614342D02*
X180666666Y-87709580D01*
X180666666Y-87709580D02*
X180619047Y-87757200D01*
X180619047Y-87757200D02*
X180523809Y-87804819D01*
X180523809Y-87804819D02*
X180428571Y-87804819D01*
X180428571Y-87804819D02*
X180333333Y-87757200D01*
X180333333Y-87757200D02*
X180285714Y-87709580D01*
X180285714Y-87709580D02*
X180238095Y-87614342D01*
X180238095Y-87614342D02*
X180190476Y-87423866D01*
X180190476Y-87423866D02*
X180190476Y-87185771D01*
X180190476Y-87185771D02*
X180238095Y-86995295D01*
X180238095Y-86995295D02*
X180285714Y-86900057D01*
X180285714Y-86900057D02*
X180333333Y-86852438D01*
X180333333Y-86852438D02*
X180428571Y-86804819D01*
X149095238Y-91287200D02*
X149238095Y-91334819D01*
X149238095Y-91334819D02*
X149476190Y-91334819D01*
X149476190Y-91334819D02*
X149571428Y-91287200D01*
X149571428Y-91287200D02*
X149619047Y-91239580D01*
X149619047Y-91239580D02*
X149666666Y-91144342D01*
X149666666Y-91144342D02*
X149666666Y-91049104D01*
X149666666Y-91049104D02*
X149619047Y-90953866D01*
X149619047Y-90953866D02*
X149571428Y-90906247D01*
X149571428Y-90906247D02*
X149476190Y-90858628D01*
X149476190Y-90858628D02*
X149285714Y-90811009D01*
X149285714Y-90811009D02*
X149190476Y-90763390D01*
X149190476Y-90763390D02*
X149142857Y-90715771D01*
X149142857Y-90715771D02*
X149095238Y-90620533D01*
X149095238Y-90620533D02*
X149095238Y-90525295D01*
X149095238Y-90525295D02*
X149142857Y-90430057D01*
X149142857Y-90430057D02*
X149190476Y-90382438D01*
X149190476Y-90382438D02*
X149285714Y-90334819D01*
X149285714Y-90334819D02*
X149523809Y-90334819D01*
X149523809Y-90334819D02*
X149666666Y-90382438D01*
X150095238Y-91334819D02*
X150095238Y-90334819D01*
X150523809Y-91334819D02*
X150523809Y-90811009D01*
X150523809Y-90811009D02*
X150476190Y-90715771D01*
X150476190Y-90715771D02*
X150380952Y-90668152D01*
X150380952Y-90668152D02*
X150238095Y-90668152D01*
X150238095Y-90668152D02*
X150142857Y-90715771D01*
X150142857Y-90715771D02*
X150095238Y-90763390D01*
X151428571Y-90668152D02*
X151428571Y-91334819D01*
X151000000Y-90668152D02*
X151000000Y-91191961D01*
X151000000Y-91191961D02*
X151047619Y-91287200D01*
X151047619Y-91287200D02*
X151142857Y-91334819D01*
X151142857Y-91334819D02*
X151285714Y-91334819D01*
X151285714Y-91334819D02*
X151380952Y-91287200D01*
X151380952Y-91287200D02*
X151428571Y-91239580D01*
X151904762Y-90668152D02*
X151904762Y-91334819D01*
X151904762Y-90763390D02*
X151952381Y-90715771D01*
X151952381Y-90715771D02*
X152047619Y-90668152D01*
X152047619Y-90668152D02*
X152190476Y-90668152D01*
X152190476Y-90668152D02*
X152285714Y-90715771D01*
X152285714Y-90715771D02*
X152333333Y-90811009D01*
X152333333Y-90811009D02*
X152333333Y-91334819D01*
X152666667Y-90668152D02*
X153047619Y-90668152D01*
X152809524Y-90334819D02*
X152809524Y-91191961D01*
X152809524Y-91191961D02*
X152857143Y-91287200D01*
X152857143Y-91287200D02*
X152952381Y-91334819D01*
X152952381Y-91334819D02*
X153047619Y-91334819D01*
X153904762Y-91334819D02*
X153333334Y-91334819D01*
X153619048Y-91334819D02*
X153619048Y-90334819D01*
X153619048Y-90334819D02*
X153523810Y-90477676D01*
X153523810Y-90477676D02*
X153428572Y-90572914D01*
X153428572Y-90572914D02*
X153333334Y-90620533D01*
X181258333Y-61304819D02*
X180925000Y-60828628D01*
X180686905Y-61304819D02*
X180686905Y-60304819D01*
X180686905Y-60304819D02*
X181067857Y-60304819D01*
X181067857Y-60304819D02*
X181163095Y-60352438D01*
X181163095Y-60352438D02*
X181210714Y-60400057D01*
X181210714Y-60400057D02*
X181258333Y-60495295D01*
X181258333Y-60495295D02*
X181258333Y-60638152D01*
X181258333Y-60638152D02*
X181210714Y-60733390D01*
X181210714Y-60733390D02*
X181163095Y-60781009D01*
X181163095Y-60781009D02*
X181067857Y-60828628D01*
X181067857Y-60828628D02*
X180686905Y-60828628D01*
X181591667Y-60304819D02*
X182210714Y-60304819D01*
X182210714Y-60304819D02*
X181877381Y-60685771D01*
X181877381Y-60685771D02*
X182020238Y-60685771D01*
X182020238Y-60685771D02*
X182115476Y-60733390D01*
X182115476Y-60733390D02*
X182163095Y-60781009D01*
X182163095Y-60781009D02*
X182210714Y-60876247D01*
X182210714Y-60876247D02*
X182210714Y-61114342D01*
X182210714Y-61114342D02*
X182163095Y-61209580D01*
X182163095Y-61209580D02*
X182115476Y-61257200D01*
X182115476Y-61257200D02*
X182020238Y-61304819D01*
X182020238Y-61304819D02*
X181734524Y-61304819D01*
X181734524Y-61304819D02*
X181639286Y-61257200D01*
X181639286Y-61257200D02*
X181591667Y-61209580D01*
X159166666Y-76211009D02*
X158833333Y-76211009D01*
X158833333Y-76734819D02*
X158833333Y-75734819D01*
X158833333Y-75734819D02*
X159309523Y-75734819D01*
X160214285Y-76734819D02*
X159642857Y-76734819D01*
X159928571Y-76734819D02*
X159928571Y-75734819D01*
X159928571Y-75734819D02*
X159833333Y-75877676D01*
X159833333Y-75877676D02*
X159738095Y-75972914D01*
X159738095Y-75972914D02*
X159642857Y-76020533D01*
X160309580Y-108166666D02*
X160357200Y-108214285D01*
X160357200Y-108214285D02*
X160404819Y-108357142D01*
X160404819Y-108357142D02*
X160404819Y-108452380D01*
X160404819Y-108452380D02*
X160357200Y-108595237D01*
X160357200Y-108595237D02*
X160261961Y-108690475D01*
X160261961Y-108690475D02*
X160166723Y-108738094D01*
X160166723Y-108738094D02*
X159976247Y-108785713D01*
X159976247Y-108785713D02*
X159833390Y-108785713D01*
X159833390Y-108785713D02*
X159642914Y-108738094D01*
X159642914Y-108738094D02*
X159547676Y-108690475D01*
X159547676Y-108690475D02*
X159452438Y-108595237D01*
X159452438Y-108595237D02*
X159404819Y-108452380D01*
X159404819Y-108452380D02*
X159404819Y-108357142D01*
X159404819Y-108357142D02*
X159452438Y-108214285D01*
X159452438Y-108214285D02*
X159500057Y-108166666D01*
X159833390Y-107595237D02*
X159785771Y-107690475D01*
X159785771Y-107690475D02*
X159738152Y-107738094D01*
X159738152Y-107738094D02*
X159642914Y-107785713D01*
X159642914Y-107785713D02*
X159595295Y-107785713D01*
X159595295Y-107785713D02*
X159500057Y-107738094D01*
X159500057Y-107738094D02*
X159452438Y-107690475D01*
X159452438Y-107690475D02*
X159404819Y-107595237D01*
X159404819Y-107595237D02*
X159404819Y-107404761D01*
X159404819Y-107404761D02*
X159452438Y-107309523D01*
X159452438Y-107309523D02*
X159500057Y-107261904D01*
X159500057Y-107261904D02*
X159595295Y-107214285D01*
X159595295Y-107214285D02*
X159642914Y-107214285D01*
X159642914Y-107214285D02*
X159738152Y-107261904D01*
X159738152Y-107261904D02*
X159785771Y-107309523D01*
X159785771Y-107309523D02*
X159833390Y-107404761D01*
X159833390Y-107404761D02*
X159833390Y-107595237D01*
X159833390Y-107595237D02*
X159881009Y-107690475D01*
X159881009Y-107690475D02*
X159928628Y-107738094D01*
X159928628Y-107738094D02*
X160023866Y-107785713D01*
X160023866Y-107785713D02*
X160214342Y-107785713D01*
X160214342Y-107785713D02*
X160309580Y-107738094D01*
X160309580Y-107738094D02*
X160357200Y-107690475D01*
X160357200Y-107690475D02*
X160404819Y-107595237D01*
X160404819Y-107595237D02*
X160404819Y-107404761D01*
X160404819Y-107404761D02*
X160357200Y-107309523D01*
X160357200Y-107309523D02*
X160309580Y-107261904D01*
X160309580Y-107261904D02*
X160214342Y-107214285D01*
X160214342Y-107214285D02*
X160023866Y-107214285D01*
X160023866Y-107214285D02*
X159928628Y-107261904D01*
X159928628Y-107261904D02*
X159881009Y-107309523D01*
X159881009Y-107309523D02*
X159833390Y-107404761D01*
X138761904Y-135045180D02*
X138761904Y-134235657D01*
X138761904Y-134235657D02*
X138714285Y-134140419D01*
X138714285Y-134140419D02*
X138666666Y-134092800D01*
X138666666Y-134092800D02*
X138571428Y-134045180D01*
X138571428Y-134045180D02*
X138380952Y-134045180D01*
X138380952Y-134045180D02*
X138285714Y-134092800D01*
X138285714Y-134092800D02*
X138238095Y-134140419D01*
X138238095Y-134140419D02*
X138190476Y-134235657D01*
X138190476Y-134235657D02*
X138190476Y-135045180D01*
X137761904Y-134949942D02*
X137714285Y-134997561D01*
X137714285Y-134997561D02*
X137619047Y-135045180D01*
X137619047Y-135045180D02*
X137380952Y-135045180D01*
X137380952Y-135045180D02*
X137285714Y-134997561D01*
X137285714Y-134997561D02*
X137238095Y-134949942D01*
X137238095Y-134949942D02*
X137190476Y-134854704D01*
X137190476Y-134854704D02*
X137190476Y-134759466D01*
X137190476Y-134759466D02*
X137238095Y-134616609D01*
X137238095Y-134616609D02*
X137809523Y-134045180D01*
X137809523Y-134045180D02*
X137190476Y-134045180D01*
X179553133Y-84304819D02*
X179219800Y-83828628D01*
X178981705Y-84304819D02*
X178981705Y-83304819D01*
X178981705Y-83304819D02*
X179362657Y-83304819D01*
X179362657Y-83304819D02*
X179457895Y-83352438D01*
X179457895Y-83352438D02*
X179505514Y-83400057D01*
X179505514Y-83400057D02*
X179553133Y-83495295D01*
X179553133Y-83495295D02*
X179553133Y-83638152D01*
X179553133Y-83638152D02*
X179505514Y-83733390D01*
X179505514Y-83733390D02*
X179457895Y-83781009D01*
X179457895Y-83781009D02*
X179362657Y-83828628D01*
X179362657Y-83828628D02*
X178981705Y-83828628D01*
X180029324Y-84304819D02*
X180219800Y-84304819D01*
X180219800Y-84304819D02*
X180315038Y-84257200D01*
X180315038Y-84257200D02*
X180362657Y-84209580D01*
X180362657Y-84209580D02*
X180457895Y-84066723D01*
X180457895Y-84066723D02*
X180505514Y-83876247D01*
X180505514Y-83876247D02*
X180505514Y-83495295D01*
X180505514Y-83495295D02*
X180457895Y-83400057D01*
X180457895Y-83400057D02*
X180410276Y-83352438D01*
X180410276Y-83352438D02*
X180315038Y-83304819D01*
X180315038Y-83304819D02*
X180124562Y-83304819D01*
X180124562Y-83304819D02*
X180029324Y-83352438D01*
X180029324Y-83352438D02*
X179981705Y-83400057D01*
X179981705Y-83400057D02*
X179934086Y-83495295D01*
X179934086Y-83495295D02*
X179934086Y-83733390D01*
X179934086Y-83733390D02*
X179981705Y-83828628D01*
X179981705Y-83828628D02*
X180029324Y-83876247D01*
X180029324Y-83876247D02*
X180124562Y-83923866D01*
X180124562Y-83923866D02*
X180315038Y-83923866D01*
X180315038Y-83923866D02*
X180410276Y-83876247D01*
X180410276Y-83876247D02*
X180457895Y-83828628D01*
X180457895Y-83828628D02*
X180505514Y-83733390D01*
X169375595Y-68854819D02*
X169375595Y-69664342D01*
X169375595Y-69664342D02*
X169423214Y-69759580D01*
X169423214Y-69759580D02*
X169470833Y-69807200D01*
X169470833Y-69807200D02*
X169566071Y-69854819D01*
X169566071Y-69854819D02*
X169756547Y-69854819D01*
X169756547Y-69854819D02*
X169851785Y-69807200D01*
X169851785Y-69807200D02*
X169899404Y-69759580D01*
X169899404Y-69759580D02*
X169947023Y-69664342D01*
X169947023Y-69664342D02*
X169947023Y-68854819D01*
X170327976Y-68854819D02*
X170947023Y-68854819D01*
X170947023Y-68854819D02*
X170613690Y-69235771D01*
X170613690Y-69235771D02*
X170756547Y-69235771D01*
X170756547Y-69235771D02*
X170851785Y-69283390D01*
X170851785Y-69283390D02*
X170899404Y-69331009D01*
X170899404Y-69331009D02*
X170947023Y-69426247D01*
X170947023Y-69426247D02*
X170947023Y-69664342D01*
X170947023Y-69664342D02*
X170899404Y-69759580D01*
X170899404Y-69759580D02*
X170851785Y-69807200D01*
X170851785Y-69807200D02*
X170756547Y-69854819D01*
X170756547Y-69854819D02*
X170470833Y-69854819D01*
X170470833Y-69854819D02*
X170375595Y-69807200D01*
X170375595Y-69807200D02*
X170327976Y-69759580D01*
X138604819Y-62666666D02*
X138128628Y-62999999D01*
X138604819Y-63238094D02*
X137604819Y-63238094D01*
X137604819Y-63238094D02*
X137604819Y-62857142D01*
X137604819Y-62857142D02*
X137652438Y-62761904D01*
X137652438Y-62761904D02*
X137700057Y-62714285D01*
X137700057Y-62714285D02*
X137795295Y-62666666D01*
X137795295Y-62666666D02*
X137938152Y-62666666D01*
X137938152Y-62666666D02*
X138033390Y-62714285D01*
X138033390Y-62714285D02*
X138081009Y-62761904D01*
X138081009Y-62761904D02*
X138128628Y-62857142D01*
X138128628Y-62857142D02*
X138128628Y-63238094D01*
X137938152Y-61809523D02*
X138604819Y-61809523D01*
X137557200Y-62047618D02*
X138271485Y-62285713D01*
X138271485Y-62285713D02*
X138271485Y-61666666D01*
%TO.C,R2*%
D12*
X140265000Y-87522936D02*
X140265000Y-87977064D01*
X141735000Y-87522936D02*
X141735000Y-87977064D01*
%TO.C,DAC1*%
X158940000Y-110727500D02*
X158990000Y-110727500D01*
X158940000Y-112547500D02*
X158940000Y-110727500D01*
X158990000Y-112547500D02*
X158940000Y-112547500D01*
X162010000Y-110727500D02*
X162060000Y-110727500D01*
X162060000Y-110727500D02*
X162060000Y-112547500D01*
X162060000Y-112547500D02*
X162010000Y-112547500D01*
X162340000Y-110427500D02*
X162010000Y-110187500D01*
X162340000Y-109947500D01*
X162340000Y-110427500D01*
G36*
X162340000Y-110427500D02*
G01*
X162010000Y-110187500D01*
X162340000Y-109947500D01*
X162340000Y-110427500D01*
G37*
%TO.C,R11*%
X179492736Y-77894800D02*
X179946864Y-77894800D01*
X179492736Y-79364800D02*
X179946864Y-79364800D01*
%TO.C,R8*%
X181227064Y-71265000D02*
X180772936Y-71265000D01*
X181227064Y-72735000D02*
X180772936Y-72735000D01*
%TO.C,C6*%
X143265000Y-107261252D02*
X143265000Y-106738748D01*
X144735000Y-107261252D02*
X144735000Y-106738748D01*
%TO.C,J1*%
X190200000Y-67000000D02*
X190200000Y-65000000D01*
X190390000Y-60890000D02*
X196450000Y-60890000D01*
X190390000Y-63700000D02*
X190390000Y-60890000D01*
X190390000Y-71110000D02*
X190390000Y-68300000D01*
X196450000Y-71110000D02*
X190390000Y-71110000D01*
X200550000Y-60890000D02*
X203610000Y-60890000D01*
X203610000Y-60890000D02*
X203610000Y-71110000D01*
X203610000Y-71110000D02*
X200550000Y-71110000D01*
%TO.C,R1*%
X141265000Y-81046686D02*
X141265000Y-81500814D01*
X142735000Y-81046686D02*
X142735000Y-81500814D01*
%TO.C,Res1*%
X161890000Y-87110000D02*
X161890000Y-86000000D01*
X163000000Y-87110000D02*
X161890000Y-87110000D01*
X164000000Y-84890000D02*
X166110000Y-84890000D01*
X164000000Y-87110000D02*
X164000000Y-84890000D01*
X164000000Y-87110000D02*
X166110000Y-87110000D01*
X166110000Y-87110000D02*
X166110000Y-84890000D01*
%TO.C,C4*%
X187765000Y-63261252D02*
X187765000Y-62738748D01*
X189235000Y-63261252D02*
X189235000Y-62738748D01*
%TO.C,ADC1*%
X148390000Y-107390000D02*
X151610000Y-107390000D01*
X148390000Y-107590000D02*
X148390000Y-107390000D01*
X148390000Y-110610000D02*
X148390000Y-110410000D01*
X151610000Y-107390000D02*
X151610000Y-107590000D01*
X151610000Y-110410000D02*
X151610000Y-110610000D01*
X151610000Y-110610000D02*
X148390000Y-110610000D01*
X152400000Y-110740000D02*
X151920000Y-110740000D01*
X152160000Y-110410000D01*
X152400000Y-110740000D01*
G36*
X152400000Y-110740000D02*
G01*
X151920000Y-110740000D01*
X152160000Y-110410000D01*
X152400000Y-110740000D01*
G37*
%TO.C,L1*%
D13*
X186583440Y-95628900D02*
X187416560Y-95628900D01*
X187416560Y-90371100D02*
X186583440Y-90371100D01*
%TO.C,Q1*%
D12*
X142927500Y-67940000D02*
X153147500Y-67940000D01*
X142927500Y-72560000D02*
X142927500Y-67940000D01*
X146187500Y-72560000D02*
X146187500Y-71180000D01*
X149887500Y-72560000D02*
X149887500Y-71180000D01*
X153147500Y-67940000D02*
X153147500Y-72560000D01*
X153147500Y-71180000D02*
X142927500Y-71180000D01*
X153147500Y-72560000D02*
X142927500Y-72560000D01*
%TO.C,U4*%
X146430000Y-65850000D02*
X150030000Y-65850000D01*
X146391522Y-65838478D02*
G75*
G02*
X148230000Y-61399999I1838478J1838478D01*
G01*
X148230000Y-61400000D02*
G75*
G02*
X150068478Y-65838478I0J-2600000D01*
G01*
%TO.C,C15*%
X172490000Y-79390580D02*
X172490000Y-79109420D01*
X173510000Y-79390580D02*
X173510000Y-79109420D01*
%TO.C,C9*%
X190395620Y-102895000D02*
X190676780Y-102895000D01*
X190395620Y-103915000D02*
X190676780Y-103915000D01*
%TO.C,C5*%
X142140580Y-109490000D02*
X141859420Y-109490000D01*
X142140580Y-110510000D02*
X141859420Y-110510000D01*
%TO.C,U5*%
D13*
X183333000Y-77333000D02*
X183333000Y-87594600D01*
X183333000Y-87594600D02*
X193594600Y-87594600D01*
X193594600Y-77333000D02*
X183333000Y-77333000D01*
X193594600Y-87594600D02*
X193594600Y-77333000D01*
%TO.C,C11*%
D12*
X168376248Y-62765000D02*
X168898752Y-62765000D01*
X168376248Y-64235000D02*
X168898752Y-64235000D01*
%TO.C,J3*%
X126390000Y-136390000D02*
X126390000Y-138610000D01*
X132500000Y-136390000D02*
X126390000Y-136390000D01*
X132500000Y-136390000D02*
X132500000Y-138610000D01*
X132500000Y-138610000D02*
X126390000Y-138610000D01*
X133500000Y-136390000D02*
X134610000Y-136390000D01*
X134610000Y-136390000D02*
X134610000Y-137500000D01*
%TO.C,C12*%
X165990000Y-68140580D02*
X165990000Y-67859420D01*
X167010000Y-68140580D02*
X167010000Y-67859420D01*
%TO.C,R6*%
X151802500Y-76477064D02*
X151802500Y-76022936D01*
X153272500Y-76477064D02*
X153272500Y-76022936D01*
%TO.C,C14*%
X168990000Y-79390580D02*
X168990000Y-79109420D01*
X170010000Y-79390580D02*
X170010000Y-79109420D01*
%TO.C,U1*%
D13*
X184662547Y-109406900D02*
X187409853Y-109406900D01*
X187409853Y-104403100D02*
X184662547Y-104403100D01*
X186341000Y-104403100D02*
G75*
G02*
X185731400Y-104403100I-304800J0D01*
G01*
%TO.C,SDA/SCL1*%
D12*
X175890000Y-115890000D02*
X175890000Y-118110000D01*
X178000000Y-115890000D02*
X175890000Y-115890000D01*
X178000000Y-115890000D02*
X178000000Y-118110000D01*
X178000000Y-118110000D02*
X175890000Y-118110000D01*
X179000000Y-115890000D02*
X180110000Y-115890000D01*
X180110000Y-115890000D02*
X180110000Y-117000000D01*
%TO.C,A1*%
X157500000Y-121360000D02*
X157500000Y-139400000D01*
X157500000Y-139400000D02*
X160170000Y-139400000D01*
X160170000Y-124030000D02*
X160170000Y-121360000D01*
X160170000Y-124030000D02*
X198270000Y-124030000D01*
X160170000Y-136730000D02*
X160170000Y-139400000D01*
X162710000Y-136730000D02*
X160170000Y-136730000D01*
X162710000Y-136730000D02*
X162710000Y-139400000D01*
X162710000Y-136730000D02*
X198270000Y-136730000D01*
X162710000Y-139400000D02*
X200940000Y-139400000D01*
X193060000Y-126440000D02*
X203480000Y-126440000D01*
X193060000Y-134320000D02*
X193060000Y-126440000D01*
X198270000Y-124030000D02*
X198270000Y-121360000D01*
X198270000Y-136730000D02*
X198270000Y-139400000D01*
X200940000Y-121360000D02*
X157500000Y-121360000D01*
X200940000Y-121360000D02*
X200940000Y-126440000D01*
X200940000Y-139400000D02*
X200940000Y-134320000D01*
X203480000Y-126440000D02*
X203480000Y-134320000D01*
X203480000Y-134320000D02*
X193060000Y-134320000D01*
%TO.C,C2*%
X168325000Y-119651252D02*
X168325000Y-119128748D01*
X169795000Y-119651252D02*
X169795000Y-119128748D01*
%TO.C,C7*%
X155490000Y-110640580D02*
X155490000Y-110359420D01*
X156510000Y-110640580D02*
X156510000Y-110359420D01*
%TO.C,Res2*%
X159390000Y-100000000D02*
X159390000Y-97890000D01*
X161610000Y-97890000D02*
X159390000Y-97890000D01*
X161610000Y-100000000D02*
X159390000Y-100000000D01*
X161610000Y-100000000D02*
X161610000Y-97890000D01*
X161610000Y-101000000D02*
X161610000Y-102110000D01*
X161610000Y-102110000D02*
X160500000Y-102110000D01*
%TO.C,C10*%
X141740000Y-62109420D02*
X141740000Y-62390580D01*
X142760000Y-62109420D02*
X142760000Y-62390580D01*
%TO.C,3v3*%
X184390000Y-119110000D02*
X184390000Y-118000000D01*
X185500000Y-119110000D02*
X184390000Y-119110000D01*
X186500000Y-116890000D02*
X190610000Y-116890000D01*
X186500000Y-119110000D02*
X186500000Y-116890000D01*
X186500000Y-119110000D02*
X190610000Y-119110000D01*
X190610000Y-119110000D02*
X190610000Y-116890000D01*
%TO.C,C1*%
X196798748Y-119155000D02*
X197321252Y-119155000D01*
X196798748Y-120625000D02*
X197321252Y-120625000D01*
%TO.C,GND1*%
X184390000Y-114110000D02*
X184390000Y-113000000D01*
X185500000Y-114110000D02*
X184390000Y-114110000D01*
X186500000Y-111890000D02*
X190610000Y-111890000D01*
X186500000Y-114110000D02*
X186500000Y-111890000D01*
X186500000Y-114110000D02*
X190610000Y-114110000D01*
X190610000Y-114110000D02*
X190610000Y-111890000D01*
%TO.C,R12*%
X179492736Y-81265000D02*
X179946864Y-81265000D01*
X179492736Y-82735000D02*
X179946864Y-82735000D01*
%TO.C,D1*%
X175859420Y-62220000D02*
X176140580Y-62220000D01*
X175859420Y-63240000D02*
X176140580Y-63240000D01*
%TO.C,R10*%
X179272936Y-88265000D02*
X179727064Y-88265000D01*
X179272936Y-89735000D02*
X179727064Y-89735000D01*
%TO.C,Shunt1*%
X153677064Y-86540000D02*
X149322936Y-86540000D01*
X153677064Y-89960000D02*
X149322936Y-89960000D01*
%TO.C,R3*%
X181197936Y-61765000D02*
X181652064Y-61765000D01*
X181197936Y-63235000D02*
X181652064Y-63235000D01*
%TO.C,F1*%
X160102064Y-72640000D02*
X158897936Y-72640000D01*
X160102064Y-75360000D02*
X158897936Y-75360000D01*
%TO.C,C8*%
X157215000Y-108761252D02*
X157215000Y-108238748D01*
X158685000Y-108761252D02*
X158685000Y-108238748D01*
%TO.C,U2*%
X134310000Y-132120000D02*
X135690000Y-132120000D01*
X135690000Y-133500000D02*
X135690000Y-132120000D01*
X124500000Y-97000000D02*
X136500000Y-97000000D01*
X136500000Y-135000000D01*
X124500000Y-135000000D01*
X124500000Y-97000000D01*
%TO.C,R9*%
X179492736Y-84765000D02*
X179946864Y-84765000D01*
X179492736Y-86235000D02*
X179946864Y-86235000D01*
%TO.C,U3*%
X169227500Y-65440000D02*
X171047500Y-65440000D01*
X169227500Y-65490000D02*
X169227500Y-65440000D01*
X169227500Y-68560000D02*
X169227500Y-68510000D01*
X171047500Y-65440000D02*
X171047500Y-65490000D01*
X171047500Y-68510000D02*
X171047500Y-68560000D01*
X171047500Y-68560000D02*
X169227500Y-68560000D01*
X171827500Y-68840000D02*
X171347500Y-68840000D01*
X171587500Y-68510000D01*
X171827500Y-68840000D01*
G36*
X171827500Y-68840000D02*
G01*
X171347500Y-68840000D01*
X171587500Y-68510000D01*
X171827500Y-68840000D01*
G37*
%TO.C,R4*%
X135765000Y-62272936D02*
X135765000Y-62727064D01*
X137235000Y-62272936D02*
X137235000Y-62727064D01*
%TD*%
M02*
