%TF.GenerationSoftware,KiCad,Pcbnew,10.0.1*%
%TF.CreationDate,2026-07-16T11:16:02-04:00*%
%TF.ProjectId,dc_programmable_load_v2,64635f70-726f-4677-9261-6d6d61626c65,rev?*%
%TF.SameCoordinates,Original*%
%TF.FileFunction,Paste,Top*%
%TF.FilePolarity,Positive*%
%FSLAX46Y46*%
G04 Gerber Fmt 4.6, Leading zero omitted, Abs format (unit mm)*
G04 Created by KiCad (PCBNEW 10.0.1) date 2026-07-16 11:16:02*
%MOMM*%
%LPD*%
G01*
G04 APERTURE LIST*
G04 Aperture macros list*
%AMRoundRect*
0 Rectangle with rounded corners*
0 $1 Rounding radius*
0 $2 $3 $4 $5 $6 $7 $8 $9 X,Y pos of 4 corners*
0 Add a 4 corners polygon primitive as box body*
4,1,4,$2,$3,$4,$5,$6,$7,$8,$9,$2,$3,0*
0 Add four circle primitives for the rounded corners*
1,1,$1+$1,$2,$3*
1,1,$1+$1,$4,$5*
1,1,$1+$1,$6,$7*
1,1,$1+$1,$8,$9*
0 Add four rect primitives between the rounded corners*
20,1,$1+$1,$2,$3,$4,$5,0*
20,1,$1+$1,$4,$5,$6,$7,0*
20,1,$1+$1,$6,$7,$8,$9,0*
20,1,$1+$1,$8,$9,$2,$3,0*%
G04 Aperture macros list end*
%ADD10RoundRect,0.250000X-0.450000X0.262500X-0.450000X-0.262500X0.450000X-0.262500X0.450000X0.262500X0*%
%ADD11RoundRect,0.150000X-0.150000X0.512500X-0.150000X-0.512500X0.150000X-0.512500X0.150000X0.512500X0*%
%ADD12RoundRect,0.250000X-0.262500X-0.450000X0.262500X-0.450000X0.262500X0.450000X-0.262500X0.450000X0*%
%ADD13RoundRect,0.250000X0.262500X0.450000X-0.262500X0.450000X-0.262500X-0.450000X0.262500X-0.450000X0*%
%ADD14RoundRect,0.250000X0.475000X-0.250000X0.475000X0.250000X-0.475000X0.250000X-0.475000X-0.250000X0*%
%ADD15RoundRect,0.075000X0.650000X0.075000X-0.650000X0.075000X-0.650000X-0.075000X0.650000X-0.075000X0*%
%ADD16R,2.006600X5.308600*%
%ADD17RoundRect,0.225000X0.250000X-0.225000X0.250000X0.225000X-0.250000X0.225000X-0.250000X-0.225000X0*%
%ADD18RoundRect,0.225000X-0.225000X-0.250000X0.225000X-0.250000X0.225000X0.250000X-0.225000X0.250000X0*%
%ADD19RoundRect,0.225000X0.225000X0.250000X-0.225000X0.250000X-0.225000X-0.250000X0.225000X-0.250000X0*%
%ADD20RoundRect,0.250000X-0.250000X-0.475000X0.250000X-0.475000X0.250000X0.475000X-0.250000X0.475000X0*%
%ADD21RoundRect,0.250000X0.450000X-0.262500X0.450000X0.262500X-0.450000X0.262500X-0.450000X-0.262500X0*%
%ADD22R,1.981200X0.558800*%
%ADD23RoundRect,0.225000X-0.250000X0.225000X-0.250000X-0.225000X0.250000X-0.225000X0.250000X0.225000X0*%
%ADD24RoundRect,0.250000X0.362500X1.425000X-0.362500X1.425000X-0.362500X-1.425000X0.362500X-1.425000X0*%
%ADD25RoundRect,0.250000X0.375000X1.075000X-0.375000X1.075000X-0.375000X-1.075000X0.375000X-1.075000X0*%
%ADD26RoundRect,0.150000X0.512500X0.150000X-0.512500X0.150000X-0.512500X-0.150000X0.512500X-0.150000X0*%
G04 APERTURE END LIST*
D10*
%TO.C,R2*%
X141000000Y-86837500D03*
X141000000Y-88662500D03*
%TD*%
D11*
%TO.C,DAC1*%
X161450000Y-110500000D03*
X160500000Y-110500000D03*
X159550000Y-110500000D03*
X159550000Y-112775000D03*
X160500000Y-112775000D03*
X161450000Y-112775000D03*
%TD*%
D12*
%TO.C,R11*%
X178807300Y-78629800D03*
X180632300Y-78629800D03*
%TD*%
D13*
%TO.C,R8*%
X181912500Y-72000000D03*
X180087500Y-72000000D03*
%TD*%
D14*
%TO.C,C6*%
X144000000Y-107950000D03*
X144000000Y-106050000D03*
%TD*%
D10*
%TO.C,R1*%
X142000000Y-80361250D03*
X142000000Y-82186250D03*
%TD*%
D14*
%TO.C,C4*%
X188500000Y-63950000D03*
X188500000Y-62050000D03*
%TD*%
D15*
%TO.C,ADC1*%
X152150000Y-110000000D03*
X152150000Y-109500000D03*
X152150000Y-109000000D03*
X152150000Y-108500000D03*
X152150000Y-108000000D03*
X147850000Y-108000000D03*
X147850000Y-108500000D03*
X147850000Y-109000000D03*
X147850000Y-109500000D03*
X147850000Y-110000000D03*
%TD*%
D16*
%TO.C,L1*%
X185247400Y-93000000D03*
X188752600Y-93000000D03*
%TD*%
D17*
%TO.C,C15*%
X173000000Y-80025000D03*
X173000000Y-78475000D03*
%TD*%
D18*
%TO.C,C9*%
X189761200Y-103405000D03*
X191311200Y-103405000D03*
%TD*%
D19*
%TO.C,C5*%
X142775000Y-110000000D03*
X141225000Y-110000000D03*
%TD*%
D20*
%TO.C,C11*%
X167687500Y-63500000D03*
X169587500Y-63500000D03*
%TD*%
D17*
%TO.C,C12*%
X166500000Y-68775000D03*
X166500000Y-67225000D03*
%TD*%
D21*
%TO.C,R6*%
X152537500Y-77162500D03*
X152537500Y-75337500D03*
%TD*%
D17*
%TO.C,C14*%
X169500000Y-80025000D03*
X169500000Y-78475000D03*
%TD*%
D22*
%TO.C,U1*%
X183572400Y-105000000D03*
X183572400Y-106270000D03*
X183572400Y-107540000D03*
X183572400Y-108810000D03*
X188500000Y-108810000D03*
X188500000Y-107540000D03*
X188500000Y-106270000D03*
X188500000Y-105000000D03*
%TD*%
D14*
%TO.C,C2*%
X169060000Y-120340000D03*
X169060000Y-118440000D03*
%TD*%
D17*
%TO.C,C7*%
X156000000Y-111275000D03*
X156000000Y-109725000D03*
%TD*%
D23*
%TO.C,C10*%
X142250000Y-61475000D03*
X142250000Y-63025000D03*
%TD*%
D20*
%TO.C,C1*%
X196110000Y-119890000D03*
X198010000Y-119890000D03*
%TD*%
D12*
%TO.C,R12*%
X178807300Y-82000000D03*
X180632300Y-82000000D03*
%TD*%
D18*
%TO.C,D1*%
X175225000Y-62730000D03*
X176775000Y-62730000D03*
%TD*%
D12*
%TO.C,R10*%
X178587500Y-89000000D03*
X180412500Y-89000000D03*
%TD*%
D24*
%TO.C,Shunt1*%
X154462500Y-88250000D03*
X148537500Y-88250000D03*
%TD*%
D12*
%TO.C,R3*%
X180512500Y-62500000D03*
X182337500Y-62500000D03*
%TD*%
D25*
%TO.C,F1*%
X160900000Y-74000000D03*
X158100000Y-74000000D03*
%TD*%
D14*
%TO.C,C8*%
X157950000Y-109450000D03*
X157950000Y-107550000D03*
%TD*%
D12*
%TO.C,R9*%
X178807300Y-85500000D03*
X180632300Y-85500000D03*
%TD*%
D26*
%TO.C,U3*%
X171275000Y-67950000D03*
X171275000Y-67000000D03*
X171275000Y-66050000D03*
X169000000Y-66050000D03*
X169000000Y-67000000D03*
X169000000Y-67950000D03*
%TD*%
D10*
%TO.C,R4*%
X136500000Y-61587500D03*
X136500000Y-63412500D03*
%TD*%
M02*
