%TF.GenerationSoftware,KiCad,Pcbnew,10.0.1*%
%TF.CreationDate,2026-07-16T11:16:02-04:00*%
%TF.ProjectId,dc_programmable_load_v2,64635f70-726f-4677-9261-6d6d61626c65,rev?*%
%TF.SameCoordinates,Original*%
%TF.FileFunction,Copper,L2,Bot*%
%TF.FilePolarity,Positive*%
%FSLAX46Y46*%
G04 Gerber Fmt 4.6, Leading zero omitted, Abs format (unit mm)*
G04 Created by KiCad (PCBNEW 10.0.1) date 2026-07-16 11:16:02*
%MOMM*%
%LPD*%
G01*
G04 APERTURE LIST*
G04 Aperture macros list*
%AMRoundRect*
0 Rectangle with rounded corners*
0 $1 Rounding radius*
0 $2 $3 $4 $5 $6 $7 $8 $9 X,Y pos of 4 corners*
0 Add a 4 corners polygon primitive as box body*
4,1,4,$2,$3,$4,$5,$6,$7,$8,$9,$2,$3,0*
0 Add four circle primitives for the rounded corners*
1,1,$1+$1,$2,$3*
1,1,$1+$1,$4,$5*
1,1,$1+$1,$6,$7*
1,1,$1+$1,$8,$9*
0 Add four rect primitives between the rounded corners*
20,1,$1+$1,$2,$3,$4,$5,0*
20,1,$1+$1,$4,$5,$6,$7,0*
20,1,$1+$1,$6,$7,$8,$9,0*
20,1,$1+$1,$8,$9,$2,$3,0*%
G04 Aperture macros list end*
%TA.AperFunction,ComponentPad*%
%ADD10R,2.000000X4.000000*%
%TD*%
%TA.AperFunction,ComponentPad*%
%ADD11O,2.000000X3.300000*%
%TD*%
%TA.AperFunction,ComponentPad*%
%ADD12O,3.500000X2.000000*%
%TD*%
%TA.AperFunction,ComponentPad*%
%ADD13R,1.350000X1.350000*%
%TD*%
%TA.AperFunction,ComponentPad*%
%ADD14C,1.350000*%
%TD*%
%TA.AperFunction,ComponentPad*%
%ADD15R,1.905000X2.000000*%
%TD*%
%TA.AperFunction,ComponentPad*%
%ADD16O,1.905000X2.000000*%
%TD*%
%TA.AperFunction,ComponentPad*%
%ADD17R,1.050000X1.500000*%
%TD*%
%TA.AperFunction,ComponentPad*%
%ADD18O,1.050000X1.500000*%
%TD*%
%TA.AperFunction,ComponentPad*%
%ADD19C,1.320800*%
%TD*%
%TA.AperFunction,ComponentPad*%
%ADD20R,1.600000X1.600000*%
%TD*%
%TA.AperFunction,ComponentPad*%
%ADD21O,1.600000X1.600000*%
%TD*%
%TA.AperFunction,ComponentPad*%
%ADD22RoundRect,0.170000X0.680000X0.680000X-0.680000X0.680000X-0.680000X-0.680000X0.680000X-0.680000X0*%
%TD*%
%TA.AperFunction,ComponentPad*%
%ADD23C,1.700000*%
%TD*%
%TA.AperFunction,ViaPad*%
%ADD24C,0.600000*%
%TD*%
%TA.AperFunction,Conductor*%
%ADD25C,0.300000*%
%TD*%
%TA.AperFunction,Conductor*%
%ADD26C,0.200000*%
%TD*%
G04 APERTURE END LIST*
D10*
%TO.P,J1,1*%
%TO.N,/12V*%
X191500000Y-66000000D03*
D11*
%TO.P,J1,2*%
%TO.N,GND*%
X197500000Y-66000000D03*
D12*
%TO.P,J1,MP*%
%TO.N,N/C*%
X198500000Y-70500000D03*
X198500000Y-61500000D03*
%TD*%
D13*
%TO.P,Res1,1,Pin_1_1*%
%TO.N,Net-(Res1-Pin_1)*%
X163000000Y-86000000D03*
D14*
%TO.P,Res1,2,Pin_2_2*%
%TO.N,/opamp_output*%
X165000000Y-86000000D03*
%TD*%
D15*
%TO.P,Q1,1,G_1*%
%TO.N,Net-(Q1-G)*%
X150577500Y-69300000D03*
D16*
%TO.P,Q1,2,D_2*%
%TO.N,/Power Supply*%
X148037500Y-69300000D03*
%TO.P,Q1,3,S_3*%
%TO.N,/A0*%
X145497500Y-69300000D03*
%TD*%
D17*
%TO.P,U4,1,GND_1*%
%TO.N,GND*%
X146960000Y-64000000D03*
D18*
%TO.P,U4,2,DQ_2*%
%TO.N,/temp_pin1*%
X148230000Y-64000000D03*
%TO.P,U4,3,V_{DD}_3*%
%TO.N,/3v3*%
X149500000Y-64000000D03*
%TD*%
D19*
%TO.P,U5,1,1_1*%
%TO.N,Net-(R11-Pad2)*%
X184653800Y-78653800D03*
%TO.P,U5,2,2_2*%
%TO.N,Net-(R12-Pad2)*%
X184653800Y-81193800D03*
%TO.P,U5,3,3_3*%
%TO.N,Net-(R9-Pad2)*%
X184653800Y-83733800D03*
%TO.P,U5,4,4_4*%
%TO.N,Net-(R10-Pad2)*%
X184653800Y-86273800D03*
%TO.P,U5,7,C_7*%
%TO.N,/netbot1*%
X192273800Y-81193800D03*
%TD*%
D13*
%TO.P,J3,1,Pin_1_1*%
%TO.N,Net-(J3-Pin_1)*%
X133500000Y-137500000D03*
D14*
%TO.P,J3,2,Pin_2_2*%
%TO.N,Net-(J3-Pin_2)*%
X131500000Y-137500000D03*
%TO.P,J3,3,Pin_3_3*%
%TO.N,Net-(J3-Pin_3)*%
X129500000Y-137500000D03*
%TO.P,J3,4,Pin_4_4*%
%TO.N,Net-(J3-Pin_4)*%
X127500000Y-137500000D03*
%TD*%
D13*
%TO.P,SDA/SCL1,1,Pin_1_1*%
%TO.N,/sda*%
X179000000Y-117000000D03*
D14*
%TO.P,SDA/SCL1,2,Pin_2_2*%
%TO.N,/scl*%
X177000000Y-117000000D03*
%TD*%
D20*
%TO.P,A1,1,D1/TX_1*%
%TO.N,unconnected-(A1-D1{slash}TX-Pad1)*%
X161440000Y-138000000D03*
D21*
%TO.P,A1,2,D0/RX_2*%
%TO.N,unconnected-(A1-D0{slash}RX-Pad2)*%
X163980000Y-138000000D03*
%TO.P,A1,3,~{RESET}_3*%
%TO.N,unconnected-(A1-~{RESET}-Pad3)*%
X166520000Y-138000000D03*
%TO.P,A1,4,GND_4*%
%TO.N,unconnected-(A1-GND-Pad4)*%
X169060000Y-138000000D03*
%TO.P,A1,5,D2_5*%
%TO.N,unconnected-(A1-D2-Pad5)*%
X171600000Y-138000000D03*
%TO.P,A1,6,D3_6*%
%TO.N,unconnected-(A1-D3-Pad6)*%
X174140000Y-138000000D03*
%TO.P,A1,7,D4_7*%
%TO.N,unconnected-(A1-D4-Pad7)*%
X176680000Y-138000000D03*
%TO.P,A1,8,D5_8*%
%TO.N,unconnected-(A1-D5-Pad8)*%
X179220000Y-138000000D03*
%TO.P,A1,9,D6_9*%
%TO.N,unconnected-(A1-D6-Pad9)*%
X181760000Y-138000000D03*
%TO.P,A1,10,D7_10*%
%TO.N,unconnected-(A1-D7-Pad10)*%
X184300000Y-138000000D03*
%TO.P,A1,11,D8_11*%
%TO.N,unconnected-(A1-D8-Pad11)*%
X186840000Y-138000000D03*
%TO.P,A1,12,D9_12*%
%TO.N,unconnected-(A1-D9-Pad12)*%
X189380000Y-138000000D03*
%TO.P,A1,13,D10_13*%
%TO.N,unconnected-(A1-D10-Pad13)*%
X191920000Y-138000000D03*
%TO.P,A1,14,D11_14*%
%TO.N,unconnected-(A1-D11-Pad14)*%
X194460000Y-138000000D03*
%TO.P,A1,15,D12_15*%
%TO.N,unconnected-(A1-D12-Pad15)*%
X197000000Y-138000000D03*
%TO.P,A1,16,D13_16*%
%TO.N,unconnected-(A1-D13-Pad16)*%
X197000000Y-122760000D03*
%TO.P,A1,17,3V3_17*%
%TO.N,/3v3*%
X194460000Y-122760000D03*
%TO.P,A1,18,AREF_18*%
%TO.N,unconnected-(A1-AREF-Pad18)*%
X191920000Y-122760000D03*
%TO.P,A1,19,A0_19*%
%TO.N,unconnected-(A1-A0-Pad19)*%
X189380000Y-122760000D03*
%TO.P,A1,20,A1_20*%
%TO.N,/temp_pin1*%
X186840000Y-122760000D03*
%TO.P,A1,21,A2_21*%
%TO.N,unconnected-(A1-A2-Pad21)*%
X184300000Y-122760000D03*
%TO.P,A1,22,A3_22*%
%TO.N,unconnected-(A1-A3-Pad22)*%
X181760000Y-122760000D03*
%TO.P,A1,23,A4_23*%
%TO.N,/sda*%
X179220000Y-122760000D03*
%TO.P,A1,24,A5_24*%
%TO.N,/scl*%
X176680000Y-122760000D03*
%TO.P,A1,25,A6_25*%
%TO.N,unconnected-(A1-A6-Pad25)*%
X174140000Y-122760000D03*
%TO.P,A1,26,A7_26*%
%TO.N,unconnected-(A1-A7-Pad26)*%
X171600000Y-122760000D03*
%TO.P,A1,27,+5V_27*%
%TO.N,/5V*%
X169060000Y-122760000D03*
%TO.P,A1,28,~{RESET}_28*%
%TO.N,unconnected-(A1-~{RESET}-Pad28)*%
X166520000Y-122760000D03*
%TO.P,A1,29,GND_29*%
%TO.N,GND*%
X163980000Y-122760000D03*
%TO.P,A1,30,VIN_30*%
%TO.N,unconnected-(A1-VIN-Pad30)*%
X161440000Y-122760000D03*
%TD*%
D13*
%TO.P,Res2,1,Pin_1_1*%
%TO.N,GND*%
X160500000Y-101000000D03*
D14*
%TO.P,Res2,2,Pin_2_2*%
%TO.N,Net-(Res1-Pin_1)*%
X160500000Y-99000000D03*
%TD*%
D13*
%TO.P,3v3,1,Pin_1_1*%
%TO.N,/3v3*%
X185500000Y-118000000D03*
D14*
%TO.P,3v3,2,Pin_2_2*%
X187500000Y-118000000D03*
%TO.P,3v3,3,Pin_3_3*%
X189500000Y-118000000D03*
%TD*%
D13*
%TO.P,GND1,1,Pin_1_1*%
%TO.N,GND*%
X185500000Y-113000000D03*
D14*
%TO.P,GND1,2,Pin_2_2*%
X187500000Y-113000000D03*
%TO.P,GND1,3,Pin_3_3*%
X189500000Y-113000000D03*
%TD*%
D22*
%TO.P,U2,1,GND_1*%
%TO.N,Net-(J3-Pin_1)*%
X134310000Y-133500000D03*
D23*
%TO.P,U2,2,VCC_2*%
%TO.N,Net-(J3-Pin_2)*%
X131770000Y-133500000D03*
%TO.P,U2,3,SCL_3*%
%TO.N,Net-(J3-Pin_3)*%
X129230000Y-133500000D03*
%TO.P,U2,4,SDA_4*%
%TO.N,Net-(J3-Pin_4)*%
X126690000Y-133500000D03*
%TD*%
D24*
%TO.N,GND*%
X131544654Y-75979009D03*
X183845829Y-131401760D03*
X189500000Y-110000000D03*
X166637500Y-64500000D03*
X136500000Y-78500000D03*
X138750000Y-106250000D03*
X142500000Y-106500000D03*
X201560000Y-117890000D03*
X196500000Y-79500000D03*
X137000000Y-92000000D03*
X186536200Y-101905000D03*
X143250000Y-66250000D03*
X149500000Y-104500000D03*
X172500000Y-131500000D03*
X196500000Y-89500000D03*
X155000000Y-103000000D03*
X187500000Y-61500000D03*
X155963167Y-98591982D03*
X178500000Y-95000000D03*
X166637500Y-62500000D03*
X151000000Y-112000000D03*
X187000000Y-75000000D03*
X145500000Y-105500000D03*
X147000000Y-88000000D03*
X185536200Y-109905000D03*
X126923987Y-128471643D03*
X190438593Y-134676597D03*
X178500000Y-103500000D03*
X169500000Y-110000000D03*
X145500000Y-64500000D03*
X163159190Y-80925097D03*
X136500000Y-88500000D03*
X171000000Y-76500000D03*
X143000000Y-63500000D03*
X141000000Y-100500000D03*
X168000000Y-110000000D03*
X175000000Y-73000000D03*
X136500000Y-80000000D03*
X175500000Y-110000000D03*
X146000000Y-98500000D03*
X163500000Y-126500000D03*
X201469624Y-123343937D03*
X195500000Y-110000000D03*
X146500000Y-131250000D03*
X138000000Y-73500000D03*
X138000000Y-103500000D03*
X200000000Y-110000000D03*
X155500000Y-108500000D03*
X128250000Y-61750000D03*
X147000000Y-114500000D03*
X144537500Y-84476250D03*
X173000000Y-63000000D03*
X138000000Y-105000000D03*
X169500000Y-86000000D03*
X192036200Y-103405000D03*
X188000000Y-86000000D03*
X181000000Y-64500000D03*
X165500000Y-101500000D03*
X157500000Y-136500000D03*
X139500000Y-121500000D03*
X161250000Y-129250000D03*
X149000000Y-108500000D03*
X193000000Y-116000000D03*
X131500000Y-130000000D03*
X169500000Y-105000000D03*
X144250000Y-66250000D03*
X141000000Y-107000000D03*
X160750000Y-70750000D03*
X177000000Y-64500000D03*
X154500000Y-109000000D03*
X136250000Y-68750000D03*
X154500000Y-93000000D03*
X163500000Y-65500000D03*
X193500000Y-69500000D03*
X171500000Y-114500000D03*
X126000000Y-124500000D03*
X136500000Y-87000000D03*
X195250000Y-106000000D03*
X169000000Y-112000000D03*
X154000000Y-132500000D03*
X157037500Y-85476250D03*
X161000000Y-117000000D03*
X159500000Y-108000000D03*
X143000000Y-117000000D03*
X174539630Y-61510962D03*
X137500000Y-95000000D03*
X202560000Y-99390000D03*
X140000000Y-71500000D03*
X125500000Y-136000000D03*
X147250000Y-66250000D03*
X181389701Y-126446414D03*
X201500000Y-110000000D03*
X174000000Y-117500000D03*
X194500000Y-110000000D03*
X148250000Y-66273750D03*
X145500000Y-91500000D03*
X151750000Y-65500000D03*
X157250000Y-62500000D03*
X160500000Y-105500000D03*
X166500000Y-110000000D03*
X169000000Y-71000000D03*
X136500000Y-85000000D03*
X193500000Y-110000000D03*
X131922423Y-108607170D03*
X171000000Y-96000000D03*
X191500000Y-110000000D03*
X166500000Y-116500000D03*
X181536200Y-100905000D03*
X178114864Y-134633507D03*
X153037500Y-73750000D03*
X146000000Y-108000000D03*
X187000000Y-125500000D03*
X182036200Y-109905000D03*
X145151042Y-120500000D03*
X169000000Y-117000000D03*
X188000000Y-110000000D03*
X175000000Y-100500000D03*
X146250000Y-66250000D03*
X156560000Y-123390000D03*
X184536200Y-103405000D03*
X148500000Y-115000000D03*
X199000000Y-105000000D03*
X144500000Y-105000000D03*
X185000000Y-70000000D03*
X189500000Y-61000000D03*
X185000000Y-62500000D03*
X141500000Y-126500000D03*
X193000000Y-85000000D03*
X191000000Y-107000000D03*
X192500000Y-94000000D03*
X149000000Y-111500000D03*
X136500000Y-75500000D03*
X201500000Y-88000000D03*
X202060000Y-120890000D03*
X140000000Y-113000000D03*
X160000000Y-94500000D03*
X196000000Y-113500000D03*
X134000000Y-73750000D03*
X140500000Y-67500000D03*
X145250000Y-82023750D03*
X165500000Y-91000000D03*
X190500000Y-110000000D03*
X152250000Y-63500000D03*
X134000000Y-118000000D03*
X145470536Y-116879589D03*
X145250000Y-66250000D03*
X152000000Y-64500000D03*
X139000000Y-72500000D03*
X151000000Y-66250000D03*
X144037500Y-81976250D03*
X151000000Y-121500000D03*
X202500000Y-61799318D03*
X163000000Y-133000000D03*
X201479503Y-68799318D03*
X160450000Y-109500000D03*
X146000000Y-107000000D03*
X138000000Y-96500000D03*
X174000000Y-90000000D03*
X160450000Y-111500000D03*
X140540416Y-134978227D03*
X125415839Y-63491978D03*
X143000000Y-105000000D03*
X166000000Y-95500000D03*
X133430572Y-100333897D03*
X153500000Y-109500000D03*
X199447086Y-64090060D03*
X158000000Y-107500000D03*
X165750000Y-75500000D03*
X201500000Y-77500000D03*
X180000000Y-110000000D03*
X148750000Y-94750000D03*
X167500000Y-118500000D03*
X140500000Y-70500000D03*
X136500000Y-77000000D03*
X171500000Y-82000000D03*
X197500000Y-99500000D03*
X178500000Y-110000000D03*
X150250000Y-66250000D03*
X162450000Y-111500000D03*
X144500000Y-62250000D03*
X150500000Y-108500000D03*
X140037500Y-83976250D03*
X165500000Y-110000000D03*
X157000000Y-90000000D03*
X162500000Y-112500000D03*
X137000000Y-90500000D03*
X164000000Y-110000000D03*
X140500000Y-93500000D03*
X156037500Y-78250000D03*
X148500000Y-83750000D03*
X141250000Y-63000000D03*
X133500000Y-62500000D03*
X138000000Y-101500000D03*
X150500000Y-114500000D03*
X134000000Y-93000000D03*
X150000000Y-138500000D03*
X198500000Y-110000000D03*
X194000000Y-63000000D03*
X192500000Y-110000000D03*
X131935365Y-85872066D03*
X185000000Y-98000000D03*
X152500000Y-62500000D03*
X170137500Y-69500000D03*
X138000000Y-100000000D03*
X159037500Y-77476250D03*
X197000000Y-110000000D03*
X139000000Y-62500000D03*
X152750000Y-61500000D03*
X203060000Y-109890000D03*
X129000000Y-64250000D03*
X171000000Y-110000000D03*
X161900651Y-120117485D03*
X158500000Y-67000000D03*
X139500000Y-107000000D03*
X183000000Y-89000000D03*
X192000000Y-130000000D03*
X199060000Y-119890000D03*
X200500000Y-136500000D03*
X183000000Y-119000000D03*
X169500000Y-135500000D03*
X138000000Y-98000000D03*
X137000000Y-93500000D03*
X133250000Y-80000000D03*
X136500000Y-83500000D03*
X187000000Y-110000000D03*
X149250000Y-66250000D03*
X158000000Y-113000000D03*
X152500000Y-111000000D03*
X154390889Y-104692184D03*
X182000000Y-114000000D03*
X158037500Y-76476250D03*
X137000000Y-74500000D03*
X141250000Y-66750000D03*
X149037500Y-75250000D03*
X183536200Y-109905000D03*
X154037500Y-82750000D03*
X162000000Y-62000000D03*
X156537500Y-84250000D03*
X177000000Y-110000000D03*
X176637500Y-68500000D03*
X131500000Y-69750000D03*
X172500000Y-110000000D03*
X190000000Y-79500000D03*
X174000000Y-110000000D03*
X143698925Y-77576161D03*
X140500000Y-69000000D03*
X163000000Y-111000000D03*
X131500000Y-66000000D03*
X156500000Y-108000000D03*
X202060000Y-114390000D03*
X142000000Y-66250000D03*
X136500000Y-82000000D03*
X160500000Y-108500000D03*
X172560000Y-120890000D03*
X199560000Y-118890000D03*
%TO.N,/5V*%
X154750000Y-113750000D03*
X153000000Y-115500000D03*
%TO.N,/sda*%
X159650000Y-114500000D03*
X158450000Y-114500000D03*
X147500000Y-112500000D03*
X145900000Y-112500000D03*
%TO.N,/scl*%
X160500000Y-115500000D03*
X160500000Y-114241611D03*
%TD*%
%TO.N,/5V*%
D25*
X153000000Y-115500000D02*
X154750000Y-113750000D01*
%TO.N,/sda*%
D26*
X158450000Y-114500000D02*
X159650000Y-114500000D01*
X147500000Y-112500000D02*
X145900000Y-112500000D01*
%TO.N,/scl*%
X160500000Y-114241611D02*
X160500000Y-115500000D01*
%TD*%
%TA.AperFunction,Conductor*%
%TO.N,GND*%
G36*
X196754152Y-60520185D02*
G01*
X196799907Y-60572989D01*
X196809851Y-60642147D01*
X196787432Y-60697383D01*
X196731109Y-60774903D01*
X196680476Y-60844594D01*
X196591117Y-61019970D01*
X196530290Y-61207173D01*
X196499500Y-61401577D01*
X196499500Y-61598422D01*
X196530290Y-61792826D01*
X196591117Y-61980029D01*
X196680476Y-62155405D01*
X196796172Y-62314646D01*
X196935354Y-62453828D01*
X197094595Y-62569524D01*
X197177455Y-62611743D01*
X197269970Y-62658882D01*
X197269972Y-62658882D01*
X197269975Y-62658884D01*
X197370317Y-62691487D01*
X197457173Y-62719709D01*
X197651578Y-62750500D01*
X197651583Y-62750500D01*
X199348422Y-62750500D01*
X199542826Y-62719709D01*
X199730025Y-62658884D01*
X199905405Y-62569524D01*
X200064646Y-62453828D01*
X200203828Y-62314646D01*
X200319524Y-62155405D01*
X200408884Y-61980025D01*
X200469709Y-61792826D01*
X200500500Y-61598422D01*
X200500500Y-61401577D01*
X200469709Y-61207173D01*
X200408882Y-61019970D01*
X200319523Y-60844594D01*
X200212568Y-60697383D01*
X200189089Y-60631580D01*
X200204914Y-60563526D01*
X200255020Y-60514831D01*
X200312887Y-60500500D01*
X203375500Y-60500500D01*
X203442539Y-60520185D01*
X203488294Y-60572989D01*
X203499500Y-60624500D01*
X203499500Y-139375500D01*
X203479815Y-139442539D01*
X203427011Y-139488294D01*
X203375500Y-139499500D01*
X124624500Y-139499500D01*
X124557461Y-139479815D01*
X124511706Y-139427011D01*
X124500500Y-139375500D01*
X124500500Y-137591156D01*
X126574499Y-137591156D01*
X126610065Y-137769952D01*
X126610068Y-137769962D01*
X126679831Y-137938387D01*
X126679833Y-137938391D01*
X126781113Y-138089967D01*
X126781119Y-138089975D01*
X126910024Y-138218880D01*
X126910032Y-138218886D01*
X127061608Y-138320166D01*
X127061612Y-138320168D01*
X127230037Y-138389931D01*
X127230042Y-138389933D01*
X127230046Y-138389933D01*
X127230047Y-138389934D01*
X127408843Y-138425500D01*
X127408846Y-138425500D01*
X127591156Y-138425500D01*
X127711445Y-138401572D01*
X127769958Y-138389933D01*
X127938389Y-138320167D01*
X127938391Y-138320166D01*
X128013672Y-138269864D01*
X128089972Y-138218883D01*
X128218883Y-138089972D01*
X128320167Y-137938389D01*
X128335939Y-137900313D01*
X128385439Y-137780808D01*
X128429280Y-137726404D01*
X128495574Y-137704339D01*
X128563273Y-137721618D01*
X128610884Y-137772755D01*
X128614561Y-137780808D01*
X128679831Y-137938387D01*
X128679833Y-137938391D01*
X128781113Y-138089967D01*
X128781119Y-138089975D01*
X128910024Y-138218880D01*
X128910032Y-138218886D01*
X129061608Y-138320166D01*
X129061612Y-138320168D01*
X129230037Y-138389931D01*
X129230042Y-138389933D01*
X129230046Y-138389933D01*
X129230047Y-138389934D01*
X129408843Y-138425500D01*
X129408846Y-138425500D01*
X129591156Y-138425500D01*
X129711445Y-138401572D01*
X129769958Y-138389933D01*
X129938389Y-138320167D01*
X129938391Y-138320166D01*
X130013672Y-138269864D01*
X130089972Y-138218883D01*
X130218883Y-138089972D01*
X130320167Y-137938389D01*
X130335939Y-137900313D01*
X130385439Y-137780808D01*
X130429280Y-137726404D01*
X130495574Y-137704339D01*
X130563273Y-137721618D01*
X130610884Y-137772755D01*
X130614561Y-137780808D01*
X130679831Y-137938387D01*
X130679833Y-137938391D01*
X130781113Y-138089967D01*
X130781119Y-138089975D01*
X130910024Y-138218880D01*
X130910032Y-138218886D01*
X131061608Y-138320166D01*
X131061612Y-138320168D01*
X131230037Y-138389931D01*
X131230042Y-138389933D01*
X131230046Y-138389933D01*
X131230047Y-138389934D01*
X131408843Y-138425500D01*
X131408846Y-138425500D01*
X131591156Y-138425500D01*
X131711445Y-138401572D01*
X131769958Y-138389933D01*
X131938389Y-138320167D01*
X131938391Y-138320166D01*
X132013672Y-138269864D01*
X132089972Y-138218883D01*
X132218883Y-138089972D01*
X132320167Y-137938389D01*
X132335939Y-137900313D01*
X132379780Y-137845909D01*
X132446074Y-137823844D01*
X132513773Y-137841123D01*
X132561384Y-137892260D01*
X132574500Y-137947765D01*
X132574500Y-138199678D01*
X132589032Y-138272735D01*
X132589033Y-138272739D01*
X132589034Y-138272740D01*
X132644399Y-138355601D01*
X132695783Y-138389934D01*
X132727260Y-138410966D01*
X132727264Y-138410967D01*
X132800321Y-138425499D01*
X132800324Y-138425500D01*
X132800326Y-138425500D01*
X134199676Y-138425500D01*
X134199677Y-138425499D01*
X134272740Y-138410966D01*
X134355601Y-138355601D01*
X134410966Y-138272740D01*
X134425500Y-138199674D01*
X134425500Y-137175321D01*
X160389500Y-137175321D01*
X160389500Y-138824678D01*
X160404032Y-138897735D01*
X160404033Y-138897739D01*
X160404034Y-138897740D01*
X160459399Y-138980601D01*
X160503595Y-139010131D01*
X160542260Y-139035966D01*
X160542264Y-139035967D01*
X160615321Y-139050499D01*
X160615324Y-139050500D01*
X160615326Y-139050500D01*
X162264676Y-139050500D01*
X162264677Y-139050499D01*
X162337740Y-139035966D01*
X162420601Y-138980601D01*
X162475966Y-138897740D01*
X162490500Y-138824674D01*
X162490500Y-137896530D01*
X162929500Y-137896530D01*
X162929500Y-138103469D01*
X162969868Y-138306412D01*
X162969870Y-138306420D01*
X163049058Y-138497596D01*
X163164024Y-138669657D01*
X163310342Y-138815975D01*
X163310345Y-138815977D01*
X163482402Y-138930941D01*
X163673580Y-139010130D01*
X163876530Y-139050499D01*
X163876534Y-139050500D01*
X163876535Y-139050500D01*
X164083466Y-139050500D01*
X164083467Y-139050499D01*
X164286420Y-139010130D01*
X164477598Y-138930941D01*
X164649655Y-138815977D01*
X164795977Y-138669655D01*
X164910941Y-138497598D01*
X164990130Y-138306420D01*
X165030500Y-138103465D01*
X165030500Y-137896535D01*
X165030499Y-137896530D01*
X165469500Y-137896530D01*
X165469500Y-138103469D01*
X165509868Y-138306412D01*
X165509870Y-138306420D01*
X165589058Y-138497596D01*
X165704024Y-138669657D01*
X165850342Y-138815975D01*
X165850345Y-138815977D01*
X166022402Y-138930941D01*
X166213580Y-139010130D01*
X166416530Y-139050499D01*
X166416534Y-139050500D01*
X166416535Y-139050500D01*
X166623466Y-139050500D01*
X166623467Y-139050499D01*
X166826420Y-139010130D01*
X167017598Y-138930941D01*
X167189655Y-138815977D01*
X167335977Y-138669655D01*
X167450941Y-138497598D01*
X167530130Y-138306420D01*
X167570500Y-138103465D01*
X167570500Y-137896535D01*
X167570499Y-137896530D01*
X168009500Y-137896530D01*
X168009500Y-138103469D01*
X168049868Y-138306412D01*
X168049870Y-138306420D01*
X168129058Y-138497596D01*
X168244024Y-138669657D01*
X168390342Y-138815975D01*
X168390345Y-138815977D01*
X168562402Y-138930941D01*
X168753580Y-139010130D01*
X168956530Y-139050499D01*
X168956534Y-139050500D01*
X168956535Y-139050500D01*
X169163466Y-139050500D01*
X169163467Y-139050499D01*
X169366420Y-139010130D01*
X169557598Y-138930941D01*
X169729655Y-138815977D01*
X169875977Y-138669655D01*
X169990941Y-138497598D01*
X170070130Y-138306420D01*
X170110500Y-138103465D01*
X170110500Y-137896535D01*
X170110499Y-137896530D01*
X170549500Y-137896530D01*
X170549500Y-138103469D01*
X170589868Y-138306412D01*
X170589870Y-138306420D01*
X170669058Y-138497596D01*
X170784024Y-138669657D01*
X170930342Y-138815975D01*
X170930345Y-138815977D01*
X171102402Y-138930941D01*
X171293580Y-139010130D01*
X171496530Y-139050499D01*
X171496534Y-139050500D01*
X171496535Y-139050500D01*
X171703466Y-139050500D01*
X171703467Y-139050499D01*
X171906420Y-139010130D01*
X172097598Y-138930941D01*
X172269655Y-138815977D01*
X172415977Y-138669655D01*
X172530941Y-138497598D01*
X172610130Y-138306420D01*
X172650500Y-138103465D01*
X172650500Y-137896535D01*
X172650499Y-137896530D01*
X173089500Y-137896530D01*
X173089500Y-138103469D01*
X173129868Y-138306412D01*
X173129870Y-138306420D01*
X173209058Y-138497596D01*
X173324024Y-138669657D01*
X173470342Y-138815975D01*
X173470345Y-138815977D01*
X173642402Y-138930941D01*
X173833580Y-139010130D01*
X174036530Y-139050499D01*
X174036534Y-139050500D01*
X174036535Y-139050500D01*
X174243466Y-139050500D01*
X174243467Y-139050499D01*
X174446420Y-139010130D01*
X174637598Y-138930941D01*
X174809655Y-138815977D01*
X174955977Y-138669655D01*
X175070941Y-138497598D01*
X175150130Y-138306420D01*
X175190500Y-138103465D01*
X175190500Y-137896535D01*
X175190499Y-137896530D01*
X175629500Y-137896530D01*
X175629500Y-138103469D01*
X175669868Y-138306412D01*
X175669870Y-138306420D01*
X175749058Y-138497596D01*
X175864024Y-138669657D01*
X176010342Y-138815975D01*
X176010345Y-138815977D01*
X176182402Y-138930941D01*
X176373580Y-139010130D01*
X176576530Y-139050499D01*
X176576534Y-139050500D01*
X176576535Y-139050500D01*
X176783466Y-139050500D01*
X176783467Y-139050499D01*
X176986420Y-139010130D01*
X177177598Y-138930941D01*
X177349655Y-138815977D01*
X177495977Y-138669655D01*
X177610941Y-138497598D01*
X177690130Y-138306420D01*
X177730500Y-138103465D01*
X177730500Y-137896535D01*
X177730499Y-137896530D01*
X178169500Y-137896530D01*
X178169500Y-138103469D01*
X178209868Y-138306412D01*
X178209870Y-138306420D01*
X178289058Y-138497596D01*
X178404024Y-138669657D01*
X178550342Y-138815975D01*
X178550345Y-138815977D01*
X178722402Y-138930941D01*
X178913580Y-139010130D01*
X179116530Y-139050499D01*
X179116534Y-139050500D01*
X179116535Y-139050500D01*
X179323466Y-139050500D01*
X179323467Y-139050499D01*
X179526420Y-139010130D01*
X179717598Y-138930941D01*
X179889655Y-138815977D01*
X180035977Y-138669655D01*
X180150941Y-138497598D01*
X180230130Y-138306420D01*
X180270500Y-138103465D01*
X180270500Y-137896535D01*
X180270499Y-137896530D01*
X180709500Y-137896530D01*
X180709500Y-138103469D01*
X180749868Y-138306412D01*
X180749870Y-138306420D01*
X180829058Y-138497596D01*
X180944024Y-138669657D01*
X181090342Y-138815975D01*
X181090345Y-138815977D01*
X181262402Y-138930941D01*
X181453580Y-139010130D01*
X181656530Y-139050499D01*
X181656534Y-139050500D01*
X181656535Y-139050500D01*
X181863466Y-139050500D01*
X181863467Y-139050499D01*
X182066420Y-139010130D01*
X182257598Y-138930941D01*
X182429655Y-138815977D01*
X182575977Y-138669655D01*
X182690941Y-138497598D01*
X182770130Y-138306420D01*
X182810500Y-138103465D01*
X182810500Y-137896535D01*
X182810499Y-137896530D01*
X183249500Y-137896530D01*
X183249500Y-138103469D01*
X183289868Y-138306412D01*
X183289870Y-138306420D01*
X183369058Y-138497596D01*
X183484024Y-138669657D01*
X183630342Y-138815975D01*
X183630345Y-138815977D01*
X183802402Y-138930941D01*
X183993580Y-139010130D01*
X184196530Y-139050499D01*
X184196534Y-139050500D01*
X184196535Y-139050500D01*
X184403466Y-139050500D01*
X184403467Y-139050499D01*
X184606420Y-139010130D01*
X184797598Y-138930941D01*
X184969655Y-138815977D01*
X185115977Y-138669655D01*
X185230941Y-138497598D01*
X185310130Y-138306420D01*
X185350500Y-138103465D01*
X185350500Y-137896535D01*
X185350499Y-137896530D01*
X185789500Y-137896530D01*
X185789500Y-138103469D01*
X185829868Y-138306412D01*
X185829870Y-138306420D01*
X185909058Y-138497596D01*
X186024024Y-138669657D01*
X186170342Y-138815975D01*
X186170345Y-138815977D01*
X186342402Y-138930941D01*
X186533580Y-139010130D01*
X186736530Y-139050499D01*
X186736534Y-139050500D01*
X186736535Y-139050500D01*
X186943466Y-139050500D01*
X186943467Y-139050499D01*
X187146420Y-139010130D01*
X187337598Y-138930941D01*
X187509655Y-138815977D01*
X187655977Y-138669655D01*
X187770941Y-138497598D01*
X187850130Y-138306420D01*
X187890500Y-138103465D01*
X187890500Y-137896535D01*
X187890499Y-137896530D01*
X188329500Y-137896530D01*
X188329500Y-138103469D01*
X188369868Y-138306412D01*
X188369870Y-138306420D01*
X188449058Y-138497596D01*
X188564024Y-138669657D01*
X188710342Y-138815975D01*
X188710345Y-138815977D01*
X188882402Y-138930941D01*
X189073580Y-139010130D01*
X189276530Y-139050499D01*
X189276534Y-139050500D01*
X189276535Y-139050500D01*
X189483466Y-139050500D01*
X189483467Y-139050499D01*
X189686420Y-139010130D01*
X189877598Y-138930941D01*
X190049655Y-138815977D01*
X190195977Y-138669655D01*
X190310941Y-138497598D01*
X190390130Y-138306420D01*
X190430500Y-138103465D01*
X190430500Y-137896535D01*
X190430499Y-137896530D01*
X190869500Y-137896530D01*
X190869500Y-138103469D01*
X190909868Y-138306412D01*
X190909870Y-138306420D01*
X190989058Y-138497596D01*
X191104024Y-138669657D01*
X191250342Y-138815975D01*
X191250345Y-138815977D01*
X191422402Y-138930941D01*
X191613580Y-139010130D01*
X191816530Y-139050499D01*
X191816534Y-139050500D01*
X191816535Y-139050500D01*
X192023466Y-139050500D01*
X192023467Y-139050499D01*
X192226420Y-139010130D01*
X192417598Y-138930941D01*
X192589655Y-138815977D01*
X192735977Y-138669655D01*
X192850941Y-138497598D01*
X192930130Y-138306420D01*
X192970500Y-138103465D01*
X192970500Y-137896535D01*
X192970499Y-137896530D01*
X193409500Y-137896530D01*
X193409500Y-138103469D01*
X193449868Y-138306412D01*
X193449870Y-138306420D01*
X193529058Y-138497596D01*
X193644024Y-138669657D01*
X193790342Y-138815975D01*
X193790345Y-138815977D01*
X193962402Y-138930941D01*
X194153580Y-139010130D01*
X194356530Y-139050499D01*
X194356534Y-139050500D01*
X194356535Y-139050500D01*
X194563466Y-139050500D01*
X194563467Y-139050499D01*
X194766420Y-139010130D01*
X194957598Y-138930941D01*
X195129655Y-138815977D01*
X195275977Y-138669655D01*
X195390941Y-138497598D01*
X195470130Y-138306420D01*
X195510500Y-138103465D01*
X195510500Y-137896535D01*
X195510499Y-137896530D01*
X195949500Y-137896530D01*
X195949500Y-138103469D01*
X195989868Y-138306412D01*
X195989870Y-138306420D01*
X196069058Y-138497596D01*
X196184024Y-138669657D01*
X196330342Y-138815975D01*
X196330345Y-138815977D01*
X196502402Y-138930941D01*
X196693580Y-139010130D01*
X196896530Y-139050499D01*
X196896534Y-139050500D01*
X196896535Y-139050500D01*
X197103466Y-139050500D01*
X197103467Y-139050499D01*
X197306420Y-139010130D01*
X197497598Y-138930941D01*
X197669655Y-138815977D01*
X197815977Y-138669655D01*
X197930941Y-138497598D01*
X198010130Y-138306420D01*
X198050500Y-138103465D01*
X198050500Y-137896535D01*
X198010130Y-137693580D01*
X197930941Y-137502402D01*
X197815977Y-137330345D01*
X197815975Y-137330342D01*
X197669657Y-137184024D01*
X197543436Y-137099687D01*
X197497598Y-137069059D01*
X197479619Y-137061612D01*
X197306420Y-136989870D01*
X197306412Y-136989868D01*
X197103469Y-136949500D01*
X197103465Y-136949500D01*
X196896535Y-136949500D01*
X196896530Y-136949500D01*
X196693587Y-136989868D01*
X196693579Y-136989870D01*
X196502403Y-137069058D01*
X196330342Y-137184024D01*
X196184024Y-137330342D01*
X196069058Y-137502403D01*
X195989870Y-137693579D01*
X195989868Y-137693587D01*
X195949500Y-137896530D01*
X195510499Y-137896530D01*
X195470130Y-137693580D01*
X195390941Y-137502402D01*
X195275977Y-137330345D01*
X195275975Y-137330342D01*
X195129657Y-137184024D01*
X195003436Y-137099687D01*
X194957598Y-137069059D01*
X194939619Y-137061612D01*
X194766420Y-136989870D01*
X194766412Y-136989868D01*
X194563469Y-136949500D01*
X194563465Y-136949500D01*
X194356535Y-136949500D01*
X194356530Y-136949500D01*
X194153587Y-136989868D01*
X194153579Y-136989870D01*
X193962403Y-137069058D01*
X193790342Y-137184024D01*
X193644024Y-137330342D01*
X193529058Y-137502403D01*
X193449870Y-137693579D01*
X193449868Y-137693587D01*
X193409500Y-137896530D01*
X192970499Y-137896530D01*
X192930130Y-137693580D01*
X192850941Y-137502402D01*
X192735977Y-137330345D01*
X192735975Y-137330342D01*
X192589657Y-137184024D01*
X192463436Y-137099687D01*
X192417598Y-137069059D01*
X192399619Y-137061612D01*
X192226420Y-136989870D01*
X192226412Y-136989868D01*
X192023469Y-136949500D01*
X192023465Y-136949500D01*
X191816535Y-136949500D01*
X191816530Y-136949500D01*
X191613587Y-136989868D01*
X191613579Y-136989870D01*
X191422403Y-137069058D01*
X191250342Y-137184024D01*
X191104024Y-137330342D01*
X190989058Y-137502403D01*
X190909870Y-137693579D01*
X190909868Y-137693587D01*
X190869500Y-137896530D01*
X190430499Y-137896530D01*
X190390130Y-137693580D01*
X190310941Y-137502402D01*
X190195977Y-137330345D01*
X190195975Y-137330342D01*
X190049657Y-137184024D01*
X189923436Y-137099687D01*
X189877598Y-137069059D01*
X189859619Y-137061612D01*
X189686420Y-136989870D01*
X189686412Y-136989868D01*
X189483469Y-136949500D01*
X189483465Y-136949500D01*
X189276535Y-136949500D01*
X189276530Y-136949500D01*
X189073587Y-136989868D01*
X189073579Y-136989870D01*
X188882403Y-137069058D01*
X188710342Y-137184024D01*
X188564024Y-137330342D01*
X188449058Y-137502403D01*
X188369870Y-137693579D01*
X188369868Y-137693587D01*
X188329500Y-137896530D01*
X187890499Y-137896530D01*
X187850130Y-137693580D01*
X187770941Y-137502402D01*
X187655977Y-137330345D01*
X187655975Y-137330342D01*
X187509657Y-137184024D01*
X187383436Y-137099687D01*
X187337598Y-137069059D01*
X187319619Y-137061612D01*
X187146420Y-136989870D01*
X187146412Y-136989868D01*
X186943469Y-136949500D01*
X186943465Y-136949500D01*
X186736535Y-136949500D01*
X186736530Y-136949500D01*
X186533587Y-136989868D01*
X186533579Y-136989870D01*
X186342403Y-137069058D01*
X186170342Y-137184024D01*
X186024024Y-137330342D01*
X185909058Y-137502403D01*
X185829870Y-137693579D01*
X185829868Y-137693587D01*
X185789500Y-137896530D01*
X185350499Y-137896530D01*
X185310130Y-137693580D01*
X185230941Y-137502402D01*
X185115977Y-137330345D01*
X185115975Y-137330342D01*
X184969657Y-137184024D01*
X184843436Y-137099687D01*
X184797598Y-137069059D01*
X184779619Y-137061612D01*
X184606420Y-136989870D01*
X184606412Y-136989868D01*
X184403469Y-136949500D01*
X184403465Y-136949500D01*
X184196535Y-136949500D01*
X184196530Y-136949500D01*
X183993587Y-136989868D01*
X183993579Y-136989870D01*
X183802403Y-137069058D01*
X183630342Y-137184024D01*
X183484024Y-137330342D01*
X183369058Y-137502403D01*
X183289870Y-137693579D01*
X183289868Y-137693587D01*
X183249500Y-137896530D01*
X182810499Y-137896530D01*
X182770130Y-137693580D01*
X182690941Y-137502402D01*
X182575977Y-137330345D01*
X182575975Y-137330342D01*
X182429657Y-137184024D01*
X182303436Y-137099687D01*
X182257598Y-137069059D01*
X182239619Y-137061612D01*
X182066420Y-136989870D01*
X182066412Y-136989868D01*
X181863469Y-136949500D01*
X181863465Y-136949500D01*
X181656535Y-136949500D01*
X181656530Y-136949500D01*
X181453587Y-136989868D01*
X181453579Y-136989870D01*
X181262403Y-137069058D01*
X181090342Y-137184024D01*
X180944024Y-137330342D01*
X180829058Y-137502403D01*
X180749870Y-137693579D01*
X180749868Y-137693587D01*
X180709500Y-137896530D01*
X180270499Y-137896530D01*
X180230130Y-137693580D01*
X180150941Y-137502402D01*
X180035977Y-137330345D01*
X180035975Y-137330342D01*
X179889657Y-137184024D01*
X179763436Y-137099687D01*
X179717598Y-137069059D01*
X179699619Y-137061612D01*
X179526420Y-136989870D01*
X179526412Y-136989868D01*
X179323469Y-136949500D01*
X179323465Y-136949500D01*
X179116535Y-136949500D01*
X179116530Y-136949500D01*
X178913587Y-136989868D01*
X178913579Y-136989870D01*
X178722403Y-137069058D01*
X178550342Y-137184024D01*
X178404024Y-137330342D01*
X178289058Y-137502403D01*
X178209870Y-137693579D01*
X178209868Y-137693587D01*
X178169500Y-137896530D01*
X177730499Y-137896530D01*
X177690130Y-137693580D01*
X177610941Y-137502402D01*
X177495977Y-137330345D01*
X177495975Y-137330342D01*
X177349657Y-137184024D01*
X177223436Y-137099687D01*
X177177598Y-137069059D01*
X177159619Y-137061612D01*
X176986420Y-136989870D01*
X176986412Y-136989868D01*
X176783469Y-136949500D01*
X176783465Y-136949500D01*
X176576535Y-136949500D01*
X176576530Y-136949500D01*
X176373587Y-136989868D01*
X176373579Y-136989870D01*
X176182403Y-137069058D01*
X176010342Y-137184024D01*
X175864024Y-137330342D01*
X175749058Y-137502403D01*
X175669870Y-137693579D01*
X175669868Y-137693587D01*
X175629500Y-137896530D01*
X175190499Y-137896530D01*
X175150130Y-137693580D01*
X175070941Y-137502402D01*
X174955977Y-137330345D01*
X174955975Y-137330342D01*
X174809657Y-137184024D01*
X174683436Y-137099687D01*
X174637598Y-137069059D01*
X174619619Y-137061612D01*
X174446420Y-136989870D01*
X174446412Y-136989868D01*
X174243469Y-136949500D01*
X174243465Y-136949500D01*
X174036535Y-136949500D01*
X174036530Y-136949500D01*
X173833587Y-136989868D01*
X173833579Y-136989870D01*
X173642403Y-137069058D01*
X173470342Y-137184024D01*
X173324024Y-137330342D01*
X173209058Y-137502403D01*
X173129870Y-137693579D01*
X173129868Y-137693587D01*
X173089500Y-137896530D01*
X172650499Y-137896530D01*
X172610130Y-137693580D01*
X172530941Y-137502402D01*
X172415977Y-137330345D01*
X172415975Y-137330342D01*
X172269657Y-137184024D01*
X172143436Y-137099687D01*
X172097598Y-137069059D01*
X172079619Y-137061612D01*
X171906420Y-136989870D01*
X171906412Y-136989868D01*
X171703469Y-136949500D01*
X171703465Y-136949500D01*
X171496535Y-136949500D01*
X171496530Y-136949500D01*
X171293587Y-136989868D01*
X171293579Y-136989870D01*
X171102403Y-137069058D01*
X170930342Y-137184024D01*
X170784024Y-137330342D01*
X170669058Y-137502403D01*
X170589870Y-137693579D01*
X170589868Y-137693587D01*
X170549500Y-137896530D01*
X170110499Y-137896530D01*
X170070130Y-137693580D01*
X169990941Y-137502402D01*
X169875977Y-137330345D01*
X169875975Y-137330342D01*
X169729657Y-137184024D01*
X169603436Y-137099687D01*
X169557598Y-137069059D01*
X169539619Y-137061612D01*
X169366420Y-136989870D01*
X169366412Y-136989868D01*
X169163469Y-136949500D01*
X169163465Y-136949500D01*
X168956535Y-136949500D01*
X168956530Y-136949500D01*
X168753587Y-136989868D01*
X168753579Y-136989870D01*
X168562403Y-137069058D01*
X168390342Y-137184024D01*
X168244024Y-137330342D01*
X168129058Y-137502403D01*
X168049870Y-137693579D01*
X168049868Y-137693587D01*
X168009500Y-137896530D01*
X167570499Y-137896530D01*
X167530130Y-137693580D01*
X167450941Y-137502402D01*
X167335977Y-137330345D01*
X167335975Y-137330342D01*
X167189657Y-137184024D01*
X167063436Y-137099687D01*
X167017598Y-137069059D01*
X166999619Y-137061612D01*
X166826420Y-136989870D01*
X166826412Y-136989868D01*
X166623469Y-136949500D01*
X166623465Y-136949500D01*
X166416535Y-136949500D01*
X166416530Y-136949500D01*
X166213587Y-136989868D01*
X166213579Y-136989870D01*
X166022403Y-137069058D01*
X165850342Y-137184024D01*
X165704024Y-137330342D01*
X165589058Y-137502403D01*
X165509870Y-137693579D01*
X165509868Y-137693587D01*
X165469500Y-137896530D01*
X165030499Y-137896530D01*
X164990130Y-137693580D01*
X164910941Y-137502402D01*
X164795977Y-137330345D01*
X164795975Y-137330342D01*
X164649657Y-137184024D01*
X164523436Y-137099687D01*
X164477598Y-137069059D01*
X164459619Y-137061612D01*
X164286420Y-136989870D01*
X164286412Y-136989868D01*
X164083469Y-136949500D01*
X164083465Y-136949500D01*
X163876535Y-136949500D01*
X163876530Y-136949500D01*
X163673587Y-136989868D01*
X163673579Y-136989870D01*
X163482403Y-137069058D01*
X163310342Y-137184024D01*
X163164024Y-137330342D01*
X163049058Y-137502403D01*
X162969870Y-137693579D01*
X162969868Y-137693587D01*
X162929500Y-137896530D01*
X162490500Y-137896530D01*
X162490500Y-137175326D01*
X162490500Y-137175323D01*
X162490499Y-137175321D01*
X162475967Y-137102264D01*
X162475966Y-137102260D01*
X162453782Y-137069059D01*
X162420601Y-137019399D01*
X162337740Y-136964034D01*
X162337739Y-136964033D01*
X162337735Y-136964032D01*
X162264677Y-136949500D01*
X162264674Y-136949500D01*
X160615326Y-136949500D01*
X160615323Y-136949500D01*
X160542264Y-136964032D01*
X160542260Y-136964033D01*
X160459399Y-137019399D01*
X160404033Y-137102260D01*
X160404032Y-137102264D01*
X160389500Y-137175321D01*
X134425500Y-137175321D01*
X134425500Y-136800326D01*
X134425500Y-136800323D01*
X134425499Y-136800321D01*
X134410967Y-136727264D01*
X134410966Y-136727260D01*
X134355601Y-136644399D01*
X134272740Y-136589034D01*
X134272739Y-136589033D01*
X134272735Y-136589032D01*
X134199677Y-136574500D01*
X134199674Y-136574500D01*
X132800326Y-136574500D01*
X132800323Y-136574500D01*
X132727264Y-136589032D01*
X132727260Y-136589033D01*
X132644399Y-136644399D01*
X132589033Y-136727260D01*
X132589032Y-136727264D01*
X132574500Y-136800321D01*
X132574500Y-137052234D01*
X132554815Y-137119273D01*
X132502011Y-137165028D01*
X132432853Y-137174972D01*
X132369297Y-137145947D01*
X132335939Y-137099687D01*
X132320166Y-137061609D01*
X132320166Y-137061608D01*
X132218886Y-136910032D01*
X132218880Y-136910024D01*
X132089975Y-136781119D01*
X132089967Y-136781113D01*
X131938391Y-136679833D01*
X131938387Y-136679831D01*
X131769962Y-136610068D01*
X131769952Y-136610065D01*
X131591156Y-136574500D01*
X131591154Y-136574500D01*
X131408846Y-136574500D01*
X131408844Y-136574500D01*
X131230047Y-136610065D01*
X131230037Y-136610068D01*
X131061612Y-136679831D01*
X131061608Y-136679833D01*
X130910032Y-136781113D01*
X130910024Y-136781119D01*
X130781119Y-136910024D01*
X130781113Y-136910032D01*
X130679833Y-137061608D01*
X130614561Y-137219192D01*
X130570720Y-137273595D01*
X130504426Y-137295660D01*
X130436727Y-137278381D01*
X130389116Y-137227244D01*
X130385439Y-137219192D01*
X130320166Y-137061608D01*
X130218886Y-136910032D01*
X130218880Y-136910024D01*
X130089975Y-136781119D01*
X130089967Y-136781113D01*
X129938391Y-136679833D01*
X129938387Y-136679831D01*
X129769962Y-136610068D01*
X129769952Y-136610065D01*
X129591156Y-136574500D01*
X129591154Y-136574500D01*
X129408846Y-136574500D01*
X129408844Y-136574500D01*
X129230047Y-136610065D01*
X129230037Y-136610068D01*
X129061612Y-136679831D01*
X129061608Y-136679833D01*
X128910032Y-136781113D01*
X128910024Y-136781119D01*
X128781119Y-136910024D01*
X128781113Y-136910032D01*
X128679833Y-137061608D01*
X128614561Y-137219192D01*
X128570720Y-137273595D01*
X128504426Y-137295660D01*
X128436727Y-137278381D01*
X128389116Y-137227244D01*
X128385439Y-137219192D01*
X128320166Y-137061608D01*
X128218886Y-136910032D01*
X128218880Y-136910024D01*
X128089975Y-136781119D01*
X128089967Y-136781113D01*
X127938391Y-136679833D01*
X127938387Y-136679831D01*
X127769962Y-136610068D01*
X127769952Y-136610065D01*
X127591156Y-136574500D01*
X127591154Y-136574500D01*
X127408846Y-136574500D01*
X127408844Y-136574500D01*
X127230047Y-136610065D01*
X127230037Y-136610068D01*
X127061612Y-136679831D01*
X127061608Y-136679833D01*
X126910032Y-136781113D01*
X126910024Y-136781119D01*
X126781119Y-136910024D01*
X126781113Y-136910032D01*
X126679833Y-137061608D01*
X126679831Y-137061612D01*
X126610068Y-137230037D01*
X126610065Y-137230047D01*
X126574500Y-137408843D01*
X126574500Y-137408846D01*
X126574500Y-137591154D01*
X126574500Y-137591156D01*
X126574499Y-137591156D01*
X124500500Y-137591156D01*
X124500500Y-133413389D01*
X125589500Y-133413389D01*
X125589500Y-133586611D01*
X125616598Y-133757701D01*
X125670127Y-133922445D01*
X125748768Y-134076788D01*
X125850586Y-134216928D01*
X125973072Y-134339414D01*
X126113212Y-134441232D01*
X126267555Y-134519873D01*
X126432299Y-134573402D01*
X126603389Y-134600500D01*
X126603390Y-134600500D01*
X126776610Y-134600500D01*
X126776611Y-134600500D01*
X126947701Y-134573402D01*
X127112445Y-134519873D01*
X127266788Y-134441232D01*
X127406928Y-134339414D01*
X127529414Y-134216928D01*
X127631232Y-134076788D01*
X127709873Y-133922445D01*
X127763402Y-133757701D01*
X127790500Y-133586611D01*
X127790500Y-133413389D01*
X128129500Y-133413389D01*
X128129500Y-133586611D01*
X128156598Y-133757701D01*
X128210127Y-133922445D01*
X128288768Y-134076788D01*
X128390586Y-134216928D01*
X128513072Y-134339414D01*
X128653212Y-134441232D01*
X128807555Y-134519873D01*
X128972299Y-134573402D01*
X129143389Y-134600500D01*
X129143390Y-134600500D01*
X129316610Y-134600500D01*
X129316611Y-134600500D01*
X129487701Y-134573402D01*
X129652445Y-134519873D01*
X129806788Y-134441232D01*
X129946928Y-134339414D01*
X130069414Y-134216928D01*
X130171232Y-134076788D01*
X130249873Y-133922445D01*
X130303402Y-133757701D01*
X130330500Y-133586611D01*
X130330500Y-133413389D01*
X130669500Y-133413389D01*
X130669500Y-133586611D01*
X130696598Y-133757701D01*
X130750127Y-133922445D01*
X130828768Y-134076788D01*
X130930586Y-134216928D01*
X131053072Y-134339414D01*
X131193212Y-134441232D01*
X131347555Y-134519873D01*
X131512299Y-134573402D01*
X131683389Y-134600500D01*
X131683390Y-134600500D01*
X131856610Y-134600500D01*
X131856611Y-134600500D01*
X132027701Y-134573402D01*
X132192445Y-134519873D01*
X132346788Y-134441232D01*
X132486928Y-134339414D01*
X132609414Y-134216928D01*
X132711232Y-134076788D01*
X132789873Y-133922445D01*
X132843402Y-133757701D01*
X132870500Y-133586611D01*
X132870500Y-133413389D01*
X132843402Y-133242299D01*
X132789873Y-133077555D01*
X132711232Y-132923212D01*
X132612193Y-132786897D01*
X133209500Y-132786897D01*
X133209500Y-134213095D01*
X133225095Y-134311563D01*
X133239285Y-134339411D01*
X133285567Y-134430245D01*
X133285569Y-134430247D01*
X133285571Y-134430250D01*
X133379749Y-134524428D01*
X133379753Y-134524431D01*
X133379755Y-134524433D01*
X133498438Y-134584905D01*
X133498439Y-134584905D01*
X133498441Y-134584906D01*
X133596897Y-134600499D01*
X133596903Y-134600500D01*
X135023096Y-134600499D01*
X135121562Y-134584905D01*
X135240245Y-134524433D01*
X135334433Y-134430245D01*
X135394905Y-134311562D01*
X135410500Y-134213097D01*
X135410499Y-132786904D01*
X135394905Y-132688438D01*
X135334433Y-132569755D01*
X135334429Y-132569751D01*
X135334428Y-132569749D01*
X135240250Y-132475571D01*
X135240246Y-132475568D01*
X135240245Y-132475567D01*
X135121562Y-132415095D01*
X135121561Y-132415094D01*
X135121558Y-132415093D01*
X135023102Y-132399500D01*
X133596904Y-132399500D01*
X133498436Y-132415095D01*
X133418316Y-132455919D01*
X133379755Y-132475567D01*
X133379754Y-132475568D01*
X133379749Y-132475571D01*
X133285571Y-132569749D01*
X133285568Y-132569753D01*
X133225093Y-132688441D01*
X133209500Y-132786897D01*
X132612193Y-132786897D01*
X132609414Y-132783072D01*
X132486928Y-132660586D01*
X132346788Y-132558768D01*
X132192445Y-132480127D01*
X132027701Y-132426598D01*
X132027699Y-132426597D01*
X132027698Y-132426597D01*
X131896271Y-132405781D01*
X131856611Y-132399500D01*
X131683389Y-132399500D01*
X131643728Y-132405781D01*
X131512302Y-132426597D01*
X131347552Y-132480128D01*
X131193211Y-132558768D01*
X131113256Y-132616859D01*
X131053072Y-132660586D01*
X131053070Y-132660588D01*
X131053069Y-132660588D01*
X130930588Y-132783069D01*
X130930588Y-132783070D01*
X130930586Y-132783072D01*
X130927807Y-132786897D01*
X130828768Y-132923211D01*
X130750128Y-133077552D01*
X130696597Y-133242302D01*
X130669500Y-133413389D01*
X130330500Y-133413389D01*
X130303402Y-133242299D01*
X130249873Y-133077555D01*
X130171232Y-132923212D01*
X130069414Y-132783072D01*
X129946928Y-132660586D01*
X129806788Y-132558768D01*
X129652445Y-132480127D01*
X129487701Y-132426598D01*
X129487699Y-132426597D01*
X129487698Y-132426597D01*
X129356271Y-132405781D01*
X129316611Y-132399500D01*
X129143389Y-132399500D01*
X129103728Y-132405781D01*
X128972302Y-132426597D01*
X128807552Y-132480128D01*
X128653211Y-132558768D01*
X128573256Y-132616859D01*
X128513072Y-132660586D01*
X128513070Y-132660588D01*
X128513069Y-132660588D01*
X128390588Y-132783069D01*
X128390588Y-132783070D01*
X128390586Y-132783072D01*
X128387807Y-132786897D01*
X128288768Y-132923211D01*
X128210128Y-133077552D01*
X128156597Y-133242302D01*
X128129500Y-133413389D01*
X127790500Y-133413389D01*
X127763402Y-133242299D01*
X127709873Y-133077555D01*
X127631232Y-132923212D01*
X127529414Y-132783072D01*
X127406928Y-132660586D01*
X127266788Y-132558768D01*
X127112445Y-132480127D01*
X126947701Y-132426598D01*
X126947699Y-132426597D01*
X126947698Y-132426597D01*
X126816271Y-132405781D01*
X126776611Y-132399500D01*
X126603389Y-132399500D01*
X126563728Y-132405781D01*
X126432302Y-132426597D01*
X126267552Y-132480128D01*
X126113211Y-132558768D01*
X126033256Y-132616859D01*
X125973072Y-132660586D01*
X125973070Y-132660588D01*
X125973069Y-132660588D01*
X125850588Y-132783069D01*
X125850588Y-132783070D01*
X125850586Y-132783072D01*
X125847807Y-132786897D01*
X125748768Y-132923211D01*
X125670128Y-133077552D01*
X125616597Y-133242302D01*
X125589500Y-133413389D01*
X124500500Y-133413389D01*
X124500500Y-122656530D01*
X160389500Y-122656530D01*
X160389500Y-122863469D01*
X160429868Y-123066412D01*
X160429870Y-123066420D01*
X160495939Y-123225925D01*
X160509059Y-123257598D01*
X160510664Y-123260000D01*
X160624024Y-123429657D01*
X160770342Y-123575975D01*
X160770345Y-123575977D01*
X160942402Y-123690941D01*
X161133580Y-123770130D01*
X161336530Y-123810499D01*
X161336534Y-123810500D01*
X161336535Y-123810500D01*
X161543466Y-123810500D01*
X161543467Y-123810499D01*
X161746420Y-123770130D01*
X161937598Y-123690941D01*
X162109655Y-123575977D01*
X162255977Y-123429655D01*
X162370941Y-123257598D01*
X162450130Y-123066420D01*
X162460633Y-123013616D01*
X162493017Y-122951707D01*
X162553732Y-122917133D01*
X162623502Y-122920872D01*
X162680174Y-122961738D01*
X162704723Y-123018411D01*
X162712009Y-123064417D01*
X162775244Y-123259031D01*
X162868140Y-123441349D01*
X162988417Y-123606894D01*
X162988417Y-123606895D01*
X163133104Y-123751582D01*
X163298650Y-123871859D01*
X163480968Y-123964754D01*
X163675578Y-124027988D01*
X163730000Y-124036607D01*
X163730000Y-123193012D01*
X163787007Y-123225925D01*
X163914174Y-123260000D01*
X164045826Y-123260000D01*
X164172993Y-123225925D01*
X164230000Y-123193012D01*
X164230000Y-124036606D01*
X164284421Y-124027988D01*
X164479031Y-123964754D01*
X164661349Y-123871859D01*
X164826894Y-123751582D01*
X164826895Y-123751582D01*
X164971582Y-123606895D01*
X164971582Y-123606894D01*
X165091859Y-123441349D01*
X165184755Y-123259031D01*
X165247988Y-123064422D01*
X165255275Y-123018413D01*
X165285204Y-122955278D01*
X165344515Y-122918346D01*
X165414377Y-122919342D01*
X165472611Y-122957951D01*
X165499366Y-123013617D01*
X165509868Y-123066414D01*
X165509870Y-123066420D01*
X165575939Y-123225925D01*
X165589059Y-123257598D01*
X165590664Y-123260000D01*
X165704024Y-123429657D01*
X165850342Y-123575975D01*
X165850345Y-123575977D01*
X166022402Y-123690941D01*
X166213580Y-123770130D01*
X166416530Y-123810499D01*
X166416534Y-123810500D01*
X166416535Y-123810500D01*
X166623466Y-123810500D01*
X166623467Y-123810499D01*
X166826420Y-123770130D01*
X167017598Y-123690941D01*
X167189655Y-123575977D01*
X167335977Y-123429655D01*
X167450941Y-123257598D01*
X167530130Y-123066420D01*
X167570500Y-122863465D01*
X167570500Y-122656535D01*
X167570499Y-122656530D01*
X168009500Y-122656530D01*
X168009500Y-122863469D01*
X168049868Y-123066412D01*
X168049870Y-123066420D01*
X168115939Y-123225925D01*
X168129059Y-123257598D01*
X168130664Y-123260000D01*
X168244024Y-123429657D01*
X168390342Y-123575975D01*
X168390345Y-123575977D01*
X168562402Y-123690941D01*
X168753580Y-123770130D01*
X168956530Y-123810499D01*
X168956534Y-123810500D01*
X168956535Y-123810500D01*
X169163466Y-123810500D01*
X169163467Y-123810499D01*
X169366420Y-123770130D01*
X169557598Y-123690941D01*
X169729655Y-123575977D01*
X169875977Y-123429655D01*
X169990941Y-123257598D01*
X170070130Y-123066420D01*
X170110500Y-122863465D01*
X170110500Y-122656535D01*
X170110499Y-122656530D01*
X170549500Y-122656530D01*
X170549500Y-122863469D01*
X170589868Y-123066412D01*
X170589870Y-123066420D01*
X170655939Y-123225925D01*
X170669059Y-123257598D01*
X170670664Y-123260000D01*
X170784024Y-123429657D01*
X170930342Y-123575975D01*
X170930345Y-123575977D01*
X171102402Y-123690941D01*
X171293580Y-123770130D01*
X171496530Y-123810499D01*
X171496534Y-123810500D01*
X171496535Y-123810500D01*
X171703466Y-123810500D01*
X171703467Y-123810499D01*
X171906420Y-123770130D01*
X172097598Y-123690941D01*
X172269655Y-123575977D01*
X172415977Y-123429655D01*
X172530941Y-123257598D01*
X172610130Y-123066420D01*
X172650500Y-122863465D01*
X172650500Y-122656535D01*
X172650499Y-122656530D01*
X173089500Y-122656530D01*
X173089500Y-122863469D01*
X173129868Y-123066412D01*
X173129870Y-123066420D01*
X173195939Y-123225925D01*
X173209059Y-123257598D01*
X173210664Y-123260000D01*
X173324024Y-123429657D01*
X173470342Y-123575975D01*
X173470345Y-123575977D01*
X173642402Y-123690941D01*
X173833580Y-123770130D01*
X174036530Y-123810499D01*
X174036534Y-123810500D01*
X174036535Y-123810500D01*
X174243466Y-123810500D01*
X174243467Y-123810499D01*
X174446420Y-123770130D01*
X174637598Y-123690941D01*
X174809655Y-123575977D01*
X174955977Y-123429655D01*
X175070941Y-123257598D01*
X175150130Y-123066420D01*
X175190500Y-122863465D01*
X175190500Y-122656535D01*
X175190499Y-122656530D01*
X175629500Y-122656530D01*
X175629500Y-122863469D01*
X175669868Y-123066412D01*
X175669870Y-123066420D01*
X175735939Y-123225925D01*
X175749059Y-123257598D01*
X175750664Y-123260000D01*
X175864024Y-123429657D01*
X176010342Y-123575975D01*
X176010345Y-123575977D01*
X176182402Y-123690941D01*
X176373580Y-123770130D01*
X176576530Y-123810499D01*
X176576534Y-123810500D01*
X176576535Y-123810500D01*
X176783466Y-123810500D01*
X176783467Y-123810499D01*
X176986420Y-123770130D01*
X177177598Y-123690941D01*
X177349655Y-123575977D01*
X177495977Y-123429655D01*
X177610941Y-123257598D01*
X177690130Y-123066420D01*
X177730500Y-122863465D01*
X177730500Y-122656535D01*
X177730499Y-122656530D01*
X178169500Y-122656530D01*
X178169500Y-122863469D01*
X178209868Y-123066412D01*
X178209870Y-123066420D01*
X178275939Y-123225925D01*
X178289059Y-123257598D01*
X178290664Y-123260000D01*
X178404024Y-123429657D01*
X178550342Y-123575975D01*
X178550345Y-123575977D01*
X178722402Y-123690941D01*
X178913580Y-123770130D01*
X179116530Y-123810499D01*
X179116534Y-123810500D01*
X179116535Y-123810500D01*
X179323466Y-123810500D01*
X179323467Y-123810499D01*
X179526420Y-123770130D01*
X179717598Y-123690941D01*
X179889655Y-123575977D01*
X180035977Y-123429655D01*
X180150941Y-123257598D01*
X180230130Y-123066420D01*
X180270500Y-122863465D01*
X180270500Y-122656535D01*
X180270499Y-122656530D01*
X180709500Y-122656530D01*
X180709500Y-122863469D01*
X180749868Y-123066412D01*
X180749870Y-123066420D01*
X180815939Y-123225925D01*
X180829059Y-123257598D01*
X180830664Y-123260000D01*
X180944024Y-123429657D01*
X181090342Y-123575975D01*
X181090345Y-123575977D01*
X181262402Y-123690941D01*
X181453580Y-123770130D01*
X181656530Y-123810499D01*
X181656534Y-123810500D01*
X181656535Y-123810500D01*
X181863466Y-123810500D01*
X181863467Y-123810499D01*
X182066420Y-123770130D01*
X182257598Y-123690941D01*
X182429655Y-123575977D01*
X182575977Y-123429655D01*
X182690941Y-123257598D01*
X182770130Y-123066420D01*
X182810500Y-122863465D01*
X182810500Y-122656535D01*
X182810499Y-122656530D01*
X183249500Y-122656530D01*
X183249500Y-122863469D01*
X183289868Y-123066412D01*
X183289870Y-123066420D01*
X183355939Y-123225925D01*
X183369059Y-123257598D01*
X183370664Y-123260000D01*
X183484024Y-123429657D01*
X183630342Y-123575975D01*
X183630345Y-123575977D01*
X183802402Y-123690941D01*
X183993580Y-123770130D01*
X184196530Y-123810499D01*
X184196534Y-123810500D01*
X184196535Y-123810500D01*
X184403466Y-123810500D01*
X184403467Y-123810499D01*
X184606420Y-123770130D01*
X184797598Y-123690941D01*
X184969655Y-123575977D01*
X185115977Y-123429655D01*
X185230941Y-123257598D01*
X185310130Y-123066420D01*
X185350500Y-122863465D01*
X185350500Y-122656535D01*
X185350499Y-122656530D01*
X185789500Y-122656530D01*
X185789500Y-122863469D01*
X185829868Y-123066412D01*
X185829870Y-123066420D01*
X185895939Y-123225925D01*
X185909059Y-123257598D01*
X185910664Y-123260000D01*
X186024024Y-123429657D01*
X186170342Y-123575975D01*
X186170345Y-123575977D01*
X186342402Y-123690941D01*
X186533580Y-123770130D01*
X186736530Y-123810499D01*
X186736534Y-123810500D01*
X186736535Y-123810500D01*
X186943466Y-123810500D01*
X186943467Y-123810499D01*
X187146420Y-123770130D01*
X187337598Y-123690941D01*
X187509655Y-123575977D01*
X187655977Y-123429655D01*
X187770941Y-123257598D01*
X187850130Y-123066420D01*
X187890500Y-122863465D01*
X187890500Y-122656535D01*
X187890499Y-122656530D01*
X188329500Y-122656530D01*
X188329500Y-122863469D01*
X188369868Y-123066412D01*
X188369870Y-123066420D01*
X188435939Y-123225925D01*
X188449059Y-123257598D01*
X188450664Y-123260000D01*
X188564024Y-123429657D01*
X188710342Y-123575975D01*
X188710345Y-123575977D01*
X188882402Y-123690941D01*
X189073580Y-123770130D01*
X189276530Y-123810499D01*
X189276534Y-123810500D01*
X189276535Y-123810500D01*
X189483466Y-123810500D01*
X189483467Y-123810499D01*
X189686420Y-123770130D01*
X189877598Y-123690941D01*
X190049655Y-123575977D01*
X190195977Y-123429655D01*
X190310941Y-123257598D01*
X190390130Y-123066420D01*
X190430500Y-122863465D01*
X190430500Y-122656535D01*
X190430499Y-122656530D01*
X190869500Y-122656530D01*
X190869500Y-122863469D01*
X190909868Y-123066412D01*
X190909870Y-123066420D01*
X190975939Y-123225925D01*
X190989059Y-123257598D01*
X190990664Y-123260000D01*
X191104024Y-123429657D01*
X191250342Y-123575975D01*
X191250345Y-123575977D01*
X191422402Y-123690941D01*
X191613580Y-123770130D01*
X191816530Y-123810499D01*
X191816534Y-123810500D01*
X191816535Y-123810500D01*
X192023466Y-123810500D01*
X192023467Y-123810499D01*
X192226420Y-123770130D01*
X192417598Y-123690941D01*
X192589655Y-123575977D01*
X192735977Y-123429655D01*
X192850941Y-123257598D01*
X192930130Y-123066420D01*
X192970500Y-122863465D01*
X192970500Y-122656535D01*
X192970499Y-122656530D01*
X193409500Y-122656530D01*
X193409500Y-122863469D01*
X193449868Y-123066412D01*
X193449870Y-123066420D01*
X193515939Y-123225925D01*
X193529059Y-123257598D01*
X193530664Y-123260000D01*
X193644024Y-123429657D01*
X193790342Y-123575975D01*
X193790345Y-123575977D01*
X193962402Y-123690941D01*
X194153580Y-123770130D01*
X194356530Y-123810499D01*
X194356534Y-123810500D01*
X194356535Y-123810500D01*
X194563466Y-123810500D01*
X194563467Y-123810499D01*
X194766420Y-123770130D01*
X194957598Y-123690941D01*
X195129655Y-123575977D01*
X195275977Y-123429655D01*
X195390941Y-123257598D01*
X195470130Y-123066420D01*
X195510500Y-122863465D01*
X195510500Y-122656535D01*
X195510499Y-122656530D01*
X195949500Y-122656530D01*
X195949500Y-122863469D01*
X195989868Y-123066412D01*
X195989870Y-123066420D01*
X196055939Y-123225925D01*
X196069059Y-123257598D01*
X196070664Y-123260000D01*
X196184024Y-123429657D01*
X196330342Y-123575975D01*
X196330345Y-123575977D01*
X196502402Y-123690941D01*
X196693580Y-123770130D01*
X196896530Y-123810499D01*
X196896534Y-123810500D01*
X196896535Y-123810500D01*
X197103466Y-123810500D01*
X197103467Y-123810499D01*
X197306420Y-123770130D01*
X197497598Y-123690941D01*
X197669655Y-123575977D01*
X197815977Y-123429655D01*
X197930941Y-123257598D01*
X198010130Y-123066420D01*
X198050500Y-122863465D01*
X198050500Y-122656535D01*
X198010130Y-122453580D01*
X197930941Y-122262402D01*
X197815977Y-122090345D01*
X197815975Y-122090342D01*
X197669657Y-121944024D01*
X197583626Y-121886541D01*
X197497598Y-121829059D01*
X197306420Y-121749870D01*
X197306412Y-121749868D01*
X197103469Y-121709500D01*
X197103465Y-121709500D01*
X196896535Y-121709500D01*
X196896530Y-121709500D01*
X196693587Y-121749868D01*
X196693579Y-121749870D01*
X196502403Y-121829058D01*
X196330342Y-121944024D01*
X196184024Y-122090342D01*
X196069058Y-122262403D01*
X195989870Y-122453579D01*
X195989868Y-122453587D01*
X195949500Y-122656530D01*
X195510499Y-122656530D01*
X195470130Y-122453580D01*
X195390941Y-122262402D01*
X195275977Y-122090345D01*
X195275975Y-122090342D01*
X195129657Y-121944024D01*
X195043626Y-121886541D01*
X194957598Y-121829059D01*
X194766420Y-121749870D01*
X194766412Y-121749868D01*
X194563469Y-121709500D01*
X194563465Y-121709500D01*
X194356535Y-121709500D01*
X194356530Y-121709500D01*
X194153587Y-121749868D01*
X194153579Y-121749870D01*
X193962403Y-121829058D01*
X193790342Y-121944024D01*
X193644024Y-122090342D01*
X193529058Y-122262403D01*
X193449870Y-122453579D01*
X193449868Y-122453587D01*
X193409500Y-122656530D01*
X192970499Y-122656530D01*
X192930130Y-122453580D01*
X192850941Y-122262402D01*
X192735977Y-122090345D01*
X192735975Y-122090342D01*
X192589657Y-121944024D01*
X192503626Y-121886541D01*
X192417598Y-121829059D01*
X192226420Y-121749870D01*
X192226412Y-121749868D01*
X192023469Y-121709500D01*
X192023465Y-121709500D01*
X191816535Y-121709500D01*
X191816530Y-121709500D01*
X191613587Y-121749868D01*
X191613579Y-121749870D01*
X191422403Y-121829058D01*
X191250342Y-121944024D01*
X191104024Y-122090342D01*
X190989058Y-122262403D01*
X190909870Y-122453579D01*
X190909868Y-122453587D01*
X190869500Y-122656530D01*
X190430499Y-122656530D01*
X190390130Y-122453580D01*
X190310941Y-122262402D01*
X190195977Y-122090345D01*
X190195975Y-122090342D01*
X190049657Y-121944024D01*
X189963626Y-121886541D01*
X189877598Y-121829059D01*
X189686420Y-121749870D01*
X189686412Y-121749868D01*
X189483469Y-121709500D01*
X189483465Y-121709500D01*
X189276535Y-121709500D01*
X189276530Y-121709500D01*
X189073587Y-121749868D01*
X189073579Y-121749870D01*
X188882403Y-121829058D01*
X188710342Y-121944024D01*
X188564024Y-122090342D01*
X188449058Y-122262403D01*
X188369870Y-122453579D01*
X188369868Y-122453587D01*
X188329500Y-122656530D01*
X187890499Y-122656530D01*
X187850130Y-122453580D01*
X187770941Y-122262402D01*
X187655977Y-122090345D01*
X187655975Y-122090342D01*
X187509657Y-121944024D01*
X187423626Y-121886541D01*
X187337598Y-121829059D01*
X187146420Y-121749870D01*
X187146412Y-121749868D01*
X186943469Y-121709500D01*
X186943465Y-121709500D01*
X186736535Y-121709500D01*
X186736530Y-121709500D01*
X186533587Y-121749868D01*
X186533579Y-121749870D01*
X186342403Y-121829058D01*
X186170342Y-121944024D01*
X186024024Y-122090342D01*
X185909058Y-122262403D01*
X185829870Y-122453579D01*
X185829868Y-122453587D01*
X185789500Y-122656530D01*
X185350499Y-122656530D01*
X185310130Y-122453580D01*
X185230941Y-122262402D01*
X185115977Y-122090345D01*
X185115975Y-122090342D01*
X184969657Y-121944024D01*
X184883626Y-121886541D01*
X184797598Y-121829059D01*
X184606420Y-121749870D01*
X184606412Y-121749868D01*
X184403469Y-121709500D01*
X184403465Y-121709500D01*
X184196535Y-121709500D01*
X184196530Y-121709500D01*
X183993587Y-121749868D01*
X183993579Y-121749870D01*
X183802403Y-121829058D01*
X183630342Y-121944024D01*
X183484024Y-122090342D01*
X183369058Y-122262403D01*
X183289870Y-122453579D01*
X183289868Y-122453587D01*
X183249500Y-122656530D01*
X182810499Y-122656530D01*
X182770130Y-122453580D01*
X182690941Y-122262402D01*
X182575977Y-122090345D01*
X182575975Y-122090342D01*
X182429657Y-121944024D01*
X182343626Y-121886541D01*
X182257598Y-121829059D01*
X182066420Y-121749870D01*
X182066412Y-121749868D01*
X181863469Y-121709500D01*
X181863465Y-121709500D01*
X181656535Y-121709500D01*
X181656530Y-121709500D01*
X181453587Y-121749868D01*
X181453579Y-121749870D01*
X181262403Y-121829058D01*
X181090342Y-121944024D01*
X180944024Y-122090342D01*
X180829058Y-122262403D01*
X180749870Y-122453579D01*
X180749868Y-122453587D01*
X180709500Y-122656530D01*
X180270499Y-122656530D01*
X180230130Y-122453580D01*
X180150941Y-122262402D01*
X180035977Y-122090345D01*
X180035975Y-122090342D01*
X179889657Y-121944024D01*
X179803626Y-121886541D01*
X179717598Y-121829059D01*
X179526420Y-121749870D01*
X179526412Y-121749868D01*
X179323469Y-121709500D01*
X179323465Y-121709500D01*
X179116535Y-121709500D01*
X179116530Y-121709500D01*
X178913587Y-121749868D01*
X178913579Y-121749870D01*
X178722403Y-121829058D01*
X178550342Y-121944024D01*
X178404024Y-122090342D01*
X178289058Y-122262403D01*
X178209870Y-122453579D01*
X178209868Y-122453587D01*
X178169500Y-122656530D01*
X177730499Y-122656530D01*
X177690130Y-122453580D01*
X177610941Y-122262402D01*
X177495977Y-122090345D01*
X177495975Y-122090342D01*
X177349657Y-121944024D01*
X177263626Y-121886541D01*
X177177598Y-121829059D01*
X176986420Y-121749870D01*
X176986412Y-121749868D01*
X176783469Y-121709500D01*
X176783465Y-121709500D01*
X176576535Y-121709500D01*
X176576530Y-121709500D01*
X176373587Y-121749868D01*
X176373579Y-121749870D01*
X176182403Y-121829058D01*
X176010342Y-121944024D01*
X175864024Y-122090342D01*
X175749058Y-122262403D01*
X175669870Y-122453579D01*
X175669868Y-122453587D01*
X175629500Y-122656530D01*
X175190499Y-122656530D01*
X175150130Y-122453580D01*
X175070941Y-122262402D01*
X174955977Y-122090345D01*
X174955975Y-122090342D01*
X174809657Y-121944024D01*
X174723626Y-121886541D01*
X174637598Y-121829059D01*
X174446420Y-121749870D01*
X174446412Y-121749868D01*
X174243469Y-121709500D01*
X174243465Y-121709500D01*
X174036535Y-121709500D01*
X174036530Y-121709500D01*
X173833587Y-121749868D01*
X173833579Y-121749870D01*
X173642403Y-121829058D01*
X173470342Y-121944024D01*
X173324024Y-122090342D01*
X173209058Y-122262403D01*
X173129870Y-122453579D01*
X173129868Y-122453587D01*
X173089500Y-122656530D01*
X172650499Y-122656530D01*
X172610130Y-122453580D01*
X172530941Y-122262402D01*
X172415977Y-122090345D01*
X172415975Y-122090342D01*
X172269657Y-121944024D01*
X172183626Y-121886541D01*
X172097598Y-121829059D01*
X171906420Y-121749870D01*
X171906412Y-121749868D01*
X171703469Y-121709500D01*
X171703465Y-121709500D01*
X171496535Y-121709500D01*
X171496530Y-121709500D01*
X171293587Y-121749868D01*
X171293579Y-121749870D01*
X171102403Y-121829058D01*
X170930342Y-121944024D01*
X170784024Y-122090342D01*
X170669058Y-122262403D01*
X170589870Y-122453579D01*
X170589868Y-122453587D01*
X170549500Y-122656530D01*
X170110499Y-122656530D01*
X170070130Y-122453580D01*
X169990941Y-122262402D01*
X169875977Y-122090345D01*
X169875975Y-122090342D01*
X169729657Y-121944024D01*
X169643626Y-121886541D01*
X169557598Y-121829059D01*
X169366420Y-121749870D01*
X169366412Y-121749868D01*
X169163469Y-121709500D01*
X169163465Y-121709500D01*
X168956535Y-121709500D01*
X168956530Y-121709500D01*
X168753587Y-121749868D01*
X168753579Y-121749870D01*
X168562403Y-121829058D01*
X168390342Y-121944024D01*
X168244024Y-122090342D01*
X168129058Y-122262403D01*
X168049870Y-122453579D01*
X168049868Y-122453587D01*
X168009500Y-122656530D01*
X167570499Y-122656530D01*
X167530130Y-122453580D01*
X167450941Y-122262402D01*
X167335977Y-122090345D01*
X167335975Y-122090342D01*
X167189657Y-121944024D01*
X167103626Y-121886541D01*
X167017598Y-121829059D01*
X166826420Y-121749870D01*
X166826412Y-121749868D01*
X166623469Y-121709500D01*
X166623465Y-121709500D01*
X166416535Y-121709500D01*
X166416530Y-121709500D01*
X166213587Y-121749868D01*
X166213579Y-121749870D01*
X166022403Y-121829058D01*
X165850342Y-121944024D01*
X165704024Y-122090342D01*
X165589058Y-122262403D01*
X165509870Y-122453579D01*
X165509868Y-122453584D01*
X165499366Y-122506383D01*
X165466980Y-122568293D01*
X165406264Y-122602867D01*
X165336495Y-122599126D01*
X165279823Y-122558259D01*
X165255275Y-122501586D01*
X165247988Y-122455577D01*
X165184755Y-122260968D01*
X165091859Y-122078650D01*
X164971582Y-121913105D01*
X164971582Y-121913104D01*
X164826895Y-121768417D01*
X164661349Y-121648140D01*
X164479029Y-121555244D01*
X164284413Y-121492009D01*
X164230000Y-121483390D01*
X164230000Y-122326988D01*
X164172993Y-122294075D01*
X164045826Y-122260000D01*
X163914174Y-122260000D01*
X163787007Y-122294075D01*
X163730000Y-122326988D01*
X163730000Y-121483390D01*
X163675586Y-121492009D01*
X163480970Y-121555244D01*
X163298650Y-121648140D01*
X163133105Y-121768417D01*
X163133104Y-121768417D01*
X162988417Y-121913104D01*
X162988417Y-121913105D01*
X162868140Y-122078650D01*
X162775244Y-122260968D01*
X162712010Y-122455581D01*
X162704723Y-122501589D01*
X162674793Y-122564723D01*
X162615481Y-122601654D01*
X162545619Y-122600656D01*
X162487386Y-122562046D01*
X162460633Y-122506381D01*
X162450131Y-122453587D01*
X162450130Y-122453580D01*
X162370941Y-122262402D01*
X162255977Y-122090345D01*
X162255975Y-122090342D01*
X162109657Y-121944024D01*
X162023626Y-121886541D01*
X161937598Y-121829059D01*
X161746420Y-121749870D01*
X161746412Y-121749868D01*
X161543469Y-121709500D01*
X161543465Y-121709500D01*
X161336535Y-121709500D01*
X161336530Y-121709500D01*
X161133587Y-121749868D01*
X161133579Y-121749870D01*
X160942403Y-121829058D01*
X160770342Y-121944024D01*
X160624024Y-122090342D01*
X160509058Y-122262403D01*
X160429870Y-122453579D01*
X160429868Y-122453587D01*
X160389500Y-122656530D01*
X124500500Y-122656530D01*
X124500500Y-117091156D01*
X176074499Y-117091156D01*
X176110065Y-117269952D01*
X176110068Y-117269962D01*
X176179831Y-117438387D01*
X176179833Y-117438391D01*
X176281113Y-117589967D01*
X176281119Y-117589975D01*
X176410024Y-117718880D01*
X176410032Y-117718886D01*
X176561608Y-117820166D01*
X176561612Y-117820168D01*
X176730037Y-117889931D01*
X176730042Y-117889933D01*
X176730046Y-117889933D01*
X176730047Y-117889934D01*
X176908843Y-117925500D01*
X176908846Y-117925500D01*
X177091156Y-117925500D01*
X177211445Y-117901572D01*
X177269958Y-117889933D01*
X177438389Y-117820167D01*
X177438391Y-117820166D01*
X177513672Y-117769864D01*
X177589972Y-117718883D01*
X177718883Y-117589972D01*
X177820167Y-117438389D01*
X177831913Y-117410032D01*
X177835939Y-117400313D01*
X177879780Y-117345909D01*
X177946074Y-117323844D01*
X178013773Y-117341123D01*
X178061384Y-117392260D01*
X178074500Y-117447765D01*
X178074500Y-117699678D01*
X178089032Y-117772735D01*
X178089033Y-117772739D01*
X178089034Y-117772740D01*
X178144399Y-117855601D01*
X178195783Y-117889934D01*
X178227260Y-117910966D01*
X178227264Y-117910967D01*
X178300321Y-117925499D01*
X178300324Y-117925500D01*
X178300326Y-117925500D01*
X179699676Y-117925500D01*
X179699677Y-117925499D01*
X179772740Y-117910966D01*
X179855601Y-117855601D01*
X179910966Y-117772740D01*
X179925500Y-117699674D01*
X179925500Y-117300321D01*
X184574500Y-117300321D01*
X184574500Y-118699678D01*
X184589032Y-118772735D01*
X184589033Y-118772739D01*
X184589034Y-118772740D01*
X184644399Y-118855601D01*
X184695783Y-118889934D01*
X184727260Y-118910966D01*
X184727264Y-118910967D01*
X184800321Y-118925499D01*
X184800324Y-118925500D01*
X184800326Y-118925500D01*
X186199676Y-118925500D01*
X186199677Y-118925499D01*
X186272740Y-118910966D01*
X186355601Y-118855601D01*
X186410966Y-118772740D01*
X186425500Y-118699674D01*
X186425500Y-118447765D01*
X186445185Y-118380726D01*
X186497989Y-118334971D01*
X186567147Y-118325027D01*
X186630703Y-118354052D01*
X186664061Y-118400313D01*
X186679831Y-118438387D01*
X186679833Y-118438391D01*
X186781113Y-118589967D01*
X186781119Y-118589975D01*
X186910024Y-118718880D01*
X186910032Y-118718886D01*
X187061608Y-118820166D01*
X187061612Y-118820168D01*
X187230037Y-118889931D01*
X187230042Y-118889933D01*
X187230046Y-118889933D01*
X187230047Y-118889934D01*
X187408843Y-118925500D01*
X187408846Y-118925500D01*
X187591156Y-118925500D01*
X187711445Y-118901572D01*
X187769958Y-118889933D01*
X187938389Y-118820167D01*
X187938391Y-118820166D01*
X188013672Y-118769864D01*
X188089972Y-118718883D01*
X188218883Y-118589972D01*
X188320167Y-118438389D01*
X188344052Y-118380726D01*
X188385439Y-118280808D01*
X188429280Y-118226404D01*
X188495574Y-118204339D01*
X188563273Y-118221618D01*
X188610884Y-118272755D01*
X188614561Y-118280808D01*
X188679831Y-118438387D01*
X188679833Y-118438391D01*
X188781113Y-118589967D01*
X188781119Y-118589975D01*
X188910024Y-118718880D01*
X188910032Y-118718886D01*
X189061608Y-118820166D01*
X189061612Y-118820168D01*
X189230037Y-118889931D01*
X189230042Y-118889933D01*
X189230046Y-118889933D01*
X189230047Y-118889934D01*
X189408843Y-118925500D01*
X189408846Y-118925500D01*
X189591156Y-118925500D01*
X189711445Y-118901572D01*
X189769958Y-118889933D01*
X189938389Y-118820167D01*
X189938391Y-118820166D01*
X190013672Y-118769864D01*
X190089972Y-118718883D01*
X190218883Y-118589972D01*
X190320167Y-118438389D01*
X190389933Y-118269958D01*
X190425500Y-118091154D01*
X190425500Y-117908846D01*
X190425500Y-117908843D01*
X190389934Y-117730047D01*
X190389933Y-117730046D01*
X190389933Y-117730042D01*
X190377354Y-117699674D01*
X190320168Y-117561612D01*
X190320166Y-117561608D01*
X190218886Y-117410032D01*
X190218880Y-117410024D01*
X190089975Y-117281119D01*
X190089967Y-117281113D01*
X189938391Y-117179833D01*
X189938387Y-117179831D01*
X189769962Y-117110068D01*
X189769952Y-117110065D01*
X189591156Y-117074500D01*
X189591154Y-117074500D01*
X189408846Y-117074500D01*
X189408844Y-117074500D01*
X189230047Y-117110065D01*
X189230037Y-117110068D01*
X189061612Y-117179831D01*
X189061608Y-117179833D01*
X188910032Y-117281113D01*
X188910024Y-117281119D01*
X188781119Y-117410024D01*
X188781113Y-117410032D01*
X188679833Y-117561608D01*
X188614561Y-117719192D01*
X188570720Y-117773595D01*
X188504426Y-117795660D01*
X188436727Y-117778381D01*
X188389116Y-117727244D01*
X188385439Y-117719192D01*
X188320166Y-117561608D01*
X188218886Y-117410032D01*
X188218880Y-117410024D01*
X188089975Y-117281119D01*
X188089967Y-117281113D01*
X187938391Y-117179833D01*
X187938387Y-117179831D01*
X187769962Y-117110068D01*
X187769952Y-117110065D01*
X187591156Y-117074500D01*
X187591154Y-117074500D01*
X187408846Y-117074500D01*
X187408844Y-117074500D01*
X187230047Y-117110065D01*
X187230037Y-117110068D01*
X187061612Y-117179831D01*
X187061608Y-117179833D01*
X186910032Y-117281113D01*
X186910024Y-117281119D01*
X186781119Y-117410024D01*
X186781113Y-117410032D01*
X186679833Y-117561608D01*
X186679833Y-117561609D01*
X186664061Y-117599687D01*
X186620220Y-117654090D01*
X186553925Y-117676155D01*
X186486226Y-117658876D01*
X186438616Y-117607738D01*
X186425500Y-117552234D01*
X186425500Y-117300323D01*
X186425499Y-117300321D01*
X186410967Y-117227264D01*
X186410966Y-117227260D01*
X186355601Y-117144399D01*
X186272740Y-117089034D01*
X186272739Y-117089033D01*
X186272735Y-117089032D01*
X186199677Y-117074500D01*
X186199674Y-117074500D01*
X184800326Y-117074500D01*
X184800323Y-117074500D01*
X184727264Y-117089032D01*
X184727260Y-117089033D01*
X184644399Y-117144399D01*
X184589033Y-117227260D01*
X184589032Y-117227264D01*
X184574500Y-117300321D01*
X179925500Y-117300321D01*
X179925500Y-116300326D01*
X179925500Y-116300323D01*
X179925499Y-116300321D01*
X179910967Y-116227264D01*
X179910966Y-116227260D01*
X179855601Y-116144399D01*
X179772740Y-116089034D01*
X179772739Y-116089033D01*
X179772735Y-116089032D01*
X179699677Y-116074500D01*
X179699674Y-116074500D01*
X178300326Y-116074500D01*
X178300323Y-116074500D01*
X178227264Y-116089032D01*
X178227260Y-116089033D01*
X178144399Y-116144399D01*
X178089033Y-116227260D01*
X178089032Y-116227264D01*
X178074500Y-116300321D01*
X178074500Y-116552234D01*
X178054815Y-116619273D01*
X178002011Y-116665028D01*
X177932853Y-116674972D01*
X177869297Y-116645947D01*
X177835939Y-116599687D01*
X177820166Y-116561609D01*
X177820166Y-116561608D01*
X177718886Y-116410032D01*
X177718880Y-116410024D01*
X177589975Y-116281119D01*
X177589967Y-116281113D01*
X177438391Y-116179833D01*
X177438387Y-116179831D01*
X177269962Y-116110068D01*
X177269952Y-116110065D01*
X177091156Y-116074500D01*
X177091154Y-116074500D01*
X176908846Y-116074500D01*
X176908844Y-116074500D01*
X176730047Y-116110065D01*
X176730037Y-116110068D01*
X176561612Y-116179831D01*
X176561608Y-116179833D01*
X176410032Y-116281113D01*
X176410024Y-116281119D01*
X176281119Y-116410024D01*
X176281113Y-116410032D01*
X176179833Y-116561608D01*
X176179831Y-116561612D01*
X176110068Y-116730037D01*
X176110065Y-116730047D01*
X176074500Y-116908843D01*
X176074500Y-116908846D01*
X176074500Y-117091154D01*
X176074500Y-117091156D01*
X176074499Y-117091156D01*
X124500500Y-117091156D01*
X124500500Y-115427525D01*
X152449500Y-115427525D01*
X152449500Y-115572475D01*
X152487016Y-115712485D01*
X152487017Y-115712488D01*
X152559488Y-115838011D01*
X152559490Y-115838013D01*
X152559491Y-115838015D01*
X152661985Y-115940509D01*
X152661986Y-115940510D01*
X152661988Y-115940511D01*
X152787511Y-116012982D01*
X152787512Y-116012982D01*
X152787515Y-116012984D01*
X152927525Y-116050500D01*
X152927528Y-116050500D01*
X153072472Y-116050500D01*
X153072475Y-116050500D01*
X153212485Y-116012984D01*
X153338015Y-115940509D01*
X153440509Y-115838015D01*
X153512984Y-115712485D01*
X153550500Y-115572475D01*
X153550500Y-115567254D01*
X153570185Y-115500215D01*
X153586819Y-115479573D01*
X154638867Y-114427525D01*
X157899500Y-114427525D01*
X157899500Y-114572475D01*
X157937016Y-114712485D01*
X157937017Y-114712488D01*
X158009488Y-114838011D01*
X158009490Y-114838013D01*
X158009491Y-114838015D01*
X158111985Y-114940509D01*
X158111986Y-114940510D01*
X158111988Y-114940511D01*
X158237511Y-115012982D01*
X158237512Y-115012982D01*
X158237515Y-115012984D01*
X158377525Y-115050500D01*
X158377528Y-115050500D01*
X158522472Y-115050500D01*
X158522475Y-115050500D01*
X158662485Y-115012984D01*
X158788015Y-114940509D01*
X158841705Y-114886819D01*
X158868632Y-114872115D01*
X158894451Y-114855523D01*
X158900651Y-114854631D01*
X158903028Y-114853334D01*
X158929386Y-114850500D01*
X159170614Y-114850500D01*
X159237653Y-114870185D01*
X159258295Y-114886819D01*
X159311985Y-114940509D01*
X159311986Y-114940510D01*
X159311988Y-114940511D01*
X159437511Y-115012982D01*
X159437512Y-115012982D01*
X159437515Y-115012984D01*
X159577525Y-115050500D01*
X159577528Y-115050500D01*
X159722472Y-115050500D01*
X159722475Y-115050500D01*
X159862485Y-115012984D01*
X159886256Y-114999259D01*
X159954154Y-114982785D01*
X160020182Y-115005635D01*
X160063374Y-115060555D01*
X160070018Y-115130108D01*
X160055645Y-115168645D01*
X159987017Y-115287511D01*
X159987016Y-115287515D01*
X159949500Y-115427525D01*
X159949500Y-115572475D01*
X159987016Y-115712485D01*
X159987017Y-115712488D01*
X160059488Y-115838011D01*
X160059490Y-115838013D01*
X160059491Y-115838015D01*
X160161985Y-115940509D01*
X160161986Y-115940510D01*
X160161988Y-115940511D01*
X160287511Y-116012982D01*
X160287512Y-116012982D01*
X160287515Y-116012984D01*
X160427525Y-116050500D01*
X160427528Y-116050500D01*
X160572472Y-116050500D01*
X160572475Y-116050500D01*
X160712485Y-116012984D01*
X160838015Y-115940509D01*
X160940509Y-115838015D01*
X161012984Y-115712485D01*
X161050500Y-115572475D01*
X161050500Y-115427525D01*
X161012984Y-115287515D01*
X160940509Y-115161985D01*
X160886819Y-115108295D01*
X160853334Y-115046972D01*
X160850500Y-115020614D01*
X160850500Y-114720997D01*
X160870185Y-114653958D01*
X160886819Y-114633316D01*
X160940509Y-114579626D01*
X161012984Y-114454096D01*
X161050500Y-114314086D01*
X161050500Y-114169136D01*
X161012984Y-114029126D01*
X160999353Y-114005517D01*
X160940511Y-113903599D01*
X160940506Y-113903593D01*
X160838017Y-113801104D01*
X160838011Y-113801099D01*
X160712488Y-113728628D01*
X160712489Y-113728628D01*
X160690903Y-113722844D01*
X160572475Y-113691111D01*
X160427525Y-113691111D01*
X160309097Y-113722844D01*
X160287511Y-113728628D01*
X160161988Y-113801099D01*
X160161982Y-113801104D01*
X160059493Y-113903593D01*
X160059489Y-113903599D01*
X160036116Y-113944081D01*
X159985548Y-113992296D01*
X159916941Y-114005517D01*
X159866732Y-113989467D01*
X159862490Y-113987018D01*
X159862489Y-113987017D01*
X159851006Y-113983940D01*
X159722475Y-113949500D01*
X159577525Y-113949500D01*
X159448993Y-113983940D01*
X159437511Y-113987017D01*
X159311988Y-114059488D01*
X159311982Y-114059493D01*
X159258295Y-114113181D01*
X159231367Y-114127884D01*
X159205549Y-114144477D01*
X159199348Y-114145368D01*
X159196972Y-114146666D01*
X159170614Y-114149500D01*
X158929386Y-114149500D01*
X158862347Y-114129815D01*
X158841705Y-114113181D01*
X158788017Y-114059493D01*
X158788011Y-114059488D01*
X158662488Y-113987017D01*
X158662489Y-113987017D01*
X158651006Y-113983940D01*
X158522475Y-113949500D01*
X158377525Y-113949500D01*
X158248993Y-113983940D01*
X158237511Y-113987017D01*
X158111988Y-114059488D01*
X158111982Y-114059493D01*
X158009493Y-114161982D01*
X158009488Y-114161988D01*
X157937017Y-114287511D01*
X157937016Y-114287515D01*
X157899500Y-114427525D01*
X154638867Y-114427525D01*
X154729573Y-114336819D01*
X154749941Y-114325697D01*
X154767752Y-114310809D01*
X154783035Y-114307626D01*
X154790896Y-114303334D01*
X154801788Y-114301468D01*
X154809488Y-114300500D01*
X154822475Y-114300500D01*
X154962485Y-114262984D01*
X155088015Y-114190509D01*
X155190509Y-114088015D01*
X155262984Y-113962485D01*
X155300500Y-113822475D01*
X155300500Y-113677525D01*
X155262984Y-113537515D01*
X155213057Y-113451040D01*
X155190511Y-113411988D01*
X155190506Y-113411982D01*
X155088017Y-113309493D01*
X155088015Y-113309491D01*
X155087687Y-113309301D01*
X155082013Y-113306025D01*
X155082012Y-113306025D01*
X154962488Y-113237017D01*
X154962489Y-113237017D01*
X154951006Y-113233940D01*
X154822475Y-113199500D01*
X154677525Y-113199500D01*
X154548993Y-113233940D01*
X154537511Y-113237017D01*
X154411988Y-113309488D01*
X154411982Y-113309493D01*
X154309493Y-113411982D01*
X154309488Y-113411988D01*
X154237017Y-113537511D01*
X154237016Y-113537515D01*
X154199500Y-113677525D01*
X154199500Y-113677527D01*
X154199500Y-113682745D01*
X154179815Y-113749784D01*
X154163181Y-113770426D01*
X153020426Y-114913181D01*
X152959103Y-114946666D01*
X152932745Y-114949500D01*
X152927525Y-114949500D01*
X152803305Y-114982785D01*
X152787511Y-114987017D01*
X152661988Y-115059488D01*
X152661982Y-115059493D01*
X152559493Y-115161982D01*
X152559488Y-115161988D01*
X152487017Y-115287511D01*
X152487016Y-115287515D01*
X152449500Y-115427525D01*
X124500500Y-115427525D01*
X124500500Y-112427525D01*
X145349500Y-112427525D01*
X145349500Y-112572475D01*
X145369321Y-112646446D01*
X145387017Y-112712488D01*
X145459488Y-112838011D01*
X145459490Y-112838013D01*
X145459491Y-112838015D01*
X145561985Y-112940509D01*
X145561986Y-112940510D01*
X145561988Y-112940511D01*
X145687511Y-113012982D01*
X145687512Y-113012982D01*
X145687515Y-113012984D01*
X145827525Y-113050500D01*
X145827528Y-113050500D01*
X145972472Y-113050500D01*
X145972475Y-113050500D01*
X146112485Y-113012984D01*
X146238015Y-112940509D01*
X146291705Y-112886819D01*
X146353028Y-112853334D01*
X146379386Y-112850500D01*
X147020614Y-112850500D01*
X147087653Y-112870185D01*
X147108295Y-112886819D01*
X147161985Y-112940509D01*
X147161986Y-112940510D01*
X147161988Y-112940511D01*
X147287511Y-113012982D01*
X147287512Y-113012982D01*
X147287515Y-113012984D01*
X147427525Y-113050500D01*
X147427528Y-113050500D01*
X147572472Y-113050500D01*
X147572475Y-113050500D01*
X147712485Y-113012984D01*
X147838015Y-112940509D01*
X147940509Y-112838015D01*
X148012984Y-112712485D01*
X148050500Y-112572475D01*
X148050500Y-112427525D01*
X148012984Y-112287515D01*
X148007003Y-112277155D01*
X184325000Y-112277155D01*
X184325000Y-112750000D01*
X185184314Y-112750000D01*
X185179920Y-112754394D01*
X185127259Y-112845606D01*
X185100000Y-112947339D01*
X185100000Y-113052661D01*
X185127259Y-113154394D01*
X185179920Y-113245606D01*
X185184314Y-113250000D01*
X184325000Y-113250000D01*
X184325000Y-113722844D01*
X184331401Y-113782372D01*
X184331403Y-113782379D01*
X184381645Y-113917086D01*
X184381649Y-113917093D01*
X184467809Y-114032187D01*
X184467812Y-114032190D01*
X184582906Y-114118350D01*
X184582913Y-114118354D01*
X184717620Y-114168596D01*
X184717627Y-114168598D01*
X184777155Y-114174999D01*
X184777172Y-114175000D01*
X185250000Y-114175000D01*
X185250000Y-113315686D01*
X185254394Y-113320080D01*
X185345606Y-113372741D01*
X185447339Y-113400000D01*
X185552661Y-113400000D01*
X185654394Y-113372741D01*
X185745606Y-113320080D01*
X185750000Y-113315686D01*
X185750000Y-114175000D01*
X186222828Y-114175000D01*
X186222844Y-114174999D01*
X186282372Y-114168598D01*
X186282379Y-114168596D01*
X186417086Y-114118354D01*
X186417093Y-114118350D01*
X186532186Y-114032191D01*
X186596135Y-113946767D01*
X186652069Y-113904896D01*
X186721761Y-113899912D01*
X186768287Y-113920760D01*
X186884162Y-114004947D01*
X187048956Y-114088915D01*
X187048959Y-114088916D01*
X187224852Y-114146066D01*
X187407527Y-114175000D01*
X187592473Y-114175000D01*
X187775147Y-114146066D01*
X187951040Y-114088916D01*
X187951043Y-114088915D01*
X188115836Y-114004947D01*
X188115845Y-114004942D01*
X188136430Y-113989984D01*
X188136431Y-113989983D01*
X187546447Y-113400000D01*
X187552661Y-113400000D01*
X187654394Y-113372741D01*
X187745606Y-113320080D01*
X187820080Y-113245606D01*
X187872741Y-113154394D01*
X187900000Y-113052661D01*
X187900000Y-113046447D01*
X188489983Y-113636430D01*
X188490276Y-113636408D01*
X188509729Y-113636408D01*
X188510015Y-113636430D01*
X189100000Y-113046445D01*
X189100000Y-113052661D01*
X189127259Y-113154394D01*
X189179920Y-113245606D01*
X189254394Y-113320080D01*
X189345606Y-113372741D01*
X189447339Y-113400000D01*
X189453553Y-113400000D01*
X188863568Y-113989983D01*
X188863568Y-113989984D01*
X188884165Y-114004949D01*
X189048956Y-114088915D01*
X189048959Y-114088916D01*
X189224852Y-114146066D01*
X189407527Y-114175000D01*
X189592473Y-114175000D01*
X189775147Y-114146066D01*
X189951040Y-114088916D01*
X189951043Y-114088915D01*
X190115836Y-114004947D01*
X190115845Y-114004942D01*
X190136430Y-113989984D01*
X190136431Y-113989983D01*
X189546448Y-113400000D01*
X189552661Y-113400000D01*
X189654394Y-113372741D01*
X189745606Y-113320080D01*
X189820080Y-113245606D01*
X189872741Y-113154394D01*
X189900000Y-113052661D01*
X189900000Y-113046447D01*
X190489983Y-113636430D01*
X190489984Y-113636430D01*
X190504942Y-113615845D01*
X190504947Y-113615836D01*
X190588915Y-113451043D01*
X190588916Y-113451040D01*
X190646066Y-113275147D01*
X190675000Y-113092473D01*
X190675000Y-112907526D01*
X190646066Y-112724852D01*
X190588916Y-112548959D01*
X190588915Y-112548956D01*
X190504949Y-112384165D01*
X190489983Y-112363568D01*
X189900000Y-112953551D01*
X189900000Y-112947339D01*
X189872741Y-112845606D01*
X189820080Y-112754394D01*
X189745606Y-112679920D01*
X189654394Y-112627259D01*
X189552661Y-112600000D01*
X189546447Y-112600000D01*
X190136431Y-112010016D01*
X190136430Y-112010015D01*
X190115834Y-111995050D01*
X189951043Y-111911084D01*
X189951040Y-111911083D01*
X189775147Y-111853933D01*
X189592473Y-111825000D01*
X189407527Y-111825000D01*
X189224852Y-111853933D01*
X189048959Y-111911083D01*
X189048956Y-111911084D01*
X188884167Y-111995049D01*
X188863568Y-112010015D01*
X189453554Y-112600000D01*
X189447339Y-112600000D01*
X189345606Y-112627259D01*
X189254394Y-112679920D01*
X189179920Y-112754394D01*
X189127259Y-112845606D01*
X189100000Y-112947339D01*
X189100000Y-112953552D01*
X188510014Y-112363566D01*
X188509730Y-112363589D01*
X188490270Y-112363589D01*
X188489985Y-112363566D01*
X187900000Y-112953551D01*
X187900000Y-112947339D01*
X187872741Y-112845606D01*
X187820080Y-112754394D01*
X187745606Y-112679920D01*
X187654394Y-112627259D01*
X187552661Y-112600000D01*
X187546446Y-112600000D01*
X188136431Y-112010015D01*
X188115834Y-111995050D01*
X187951043Y-111911084D01*
X187951040Y-111911083D01*
X187775147Y-111853933D01*
X187592473Y-111825000D01*
X187407527Y-111825000D01*
X187224852Y-111853933D01*
X187048959Y-111911083D01*
X187048956Y-111911084D01*
X186884166Y-111995049D01*
X186768287Y-112079240D01*
X186702480Y-112102719D01*
X186634426Y-112086893D01*
X186596136Y-112053232D01*
X186532190Y-111967812D01*
X186532187Y-111967809D01*
X186417093Y-111881649D01*
X186417086Y-111881645D01*
X186282379Y-111831403D01*
X186282372Y-111831401D01*
X186222844Y-111825000D01*
X185750000Y-111825000D01*
X185750000Y-112684314D01*
X185745606Y-112679920D01*
X185654394Y-112627259D01*
X185552661Y-112600000D01*
X185447339Y-112600000D01*
X185345606Y-112627259D01*
X185254394Y-112679920D01*
X185250000Y-112684314D01*
X185250000Y-111825000D01*
X184777155Y-111825000D01*
X184717627Y-111831401D01*
X184717620Y-111831403D01*
X184582913Y-111881645D01*
X184582906Y-111881649D01*
X184467812Y-111967809D01*
X184467809Y-111967812D01*
X184381649Y-112082906D01*
X184381645Y-112082913D01*
X184331403Y-112217620D01*
X184331401Y-112217627D01*
X184325000Y-112277155D01*
X148007003Y-112277155D01*
X147940509Y-112161985D01*
X147838015Y-112059491D01*
X147838013Y-112059490D01*
X147838011Y-112059488D01*
X147712488Y-111987017D01*
X147712489Y-111987017D01*
X147701006Y-111983940D01*
X147572475Y-111949500D01*
X147427525Y-111949500D01*
X147298993Y-111983940D01*
X147287511Y-111987017D01*
X147161988Y-112059488D01*
X147161982Y-112059493D01*
X147108295Y-112113181D01*
X147046972Y-112146666D01*
X147020614Y-112149500D01*
X146379386Y-112149500D01*
X146312347Y-112129815D01*
X146291705Y-112113181D01*
X146238017Y-112059493D01*
X146238011Y-112059488D01*
X146112488Y-111987017D01*
X146112489Y-111987017D01*
X146101006Y-111983940D01*
X145972475Y-111949500D01*
X145827525Y-111949500D01*
X145698993Y-111983940D01*
X145687511Y-111987017D01*
X145561988Y-112059488D01*
X145561982Y-112059493D01*
X145459493Y-112161982D01*
X145459488Y-112161988D01*
X145387017Y-112287511D01*
X145387016Y-112287515D01*
X145349500Y-112427525D01*
X124500500Y-112427525D01*
X124500500Y-100277155D01*
X159325000Y-100277155D01*
X159325000Y-100750000D01*
X160184314Y-100750000D01*
X160179920Y-100754394D01*
X160127259Y-100845606D01*
X160100000Y-100947339D01*
X160100000Y-101052661D01*
X160127259Y-101154394D01*
X160179920Y-101245606D01*
X160184314Y-101250000D01*
X159325000Y-101250000D01*
X159325000Y-101722844D01*
X159331401Y-101782372D01*
X159331403Y-101782379D01*
X159381645Y-101917086D01*
X159381649Y-101917093D01*
X159467809Y-102032187D01*
X159467812Y-102032190D01*
X159582906Y-102118350D01*
X159582913Y-102118354D01*
X159717620Y-102168596D01*
X159717627Y-102168598D01*
X159777155Y-102174999D01*
X159777172Y-102175000D01*
X160250000Y-102175000D01*
X160250000Y-101315686D01*
X160254394Y-101320080D01*
X160345606Y-101372741D01*
X160447339Y-101400000D01*
X160552661Y-101400000D01*
X160654394Y-101372741D01*
X160745606Y-101320080D01*
X160750000Y-101315686D01*
X160750000Y-102175000D01*
X161222828Y-102175000D01*
X161222844Y-102174999D01*
X161282372Y-102168598D01*
X161282379Y-102168596D01*
X161417086Y-102118354D01*
X161417093Y-102118350D01*
X161532187Y-102032190D01*
X161532190Y-102032187D01*
X161618350Y-101917093D01*
X161618354Y-101917086D01*
X161668596Y-101782379D01*
X161668598Y-101782372D01*
X161674999Y-101722844D01*
X161675000Y-101722827D01*
X161675000Y-101250000D01*
X160815686Y-101250000D01*
X160820080Y-101245606D01*
X160872741Y-101154394D01*
X160900000Y-101052661D01*
X160900000Y-100947339D01*
X160872741Y-100845606D01*
X160820080Y-100754394D01*
X160815686Y-100750000D01*
X161675000Y-100750000D01*
X161675000Y-100277172D01*
X161674999Y-100277155D01*
X161668598Y-100217627D01*
X161668596Y-100217620D01*
X161618354Y-100082913D01*
X161618350Y-100082906D01*
X161532190Y-99967812D01*
X161532187Y-99967809D01*
X161417093Y-99881649D01*
X161417086Y-99881645D01*
X161282379Y-99831403D01*
X161282373Y-99831401D01*
X161264743Y-99829506D01*
X161200193Y-99802768D01*
X161160345Y-99745375D01*
X161157852Y-99675549D01*
X161190318Y-99618536D01*
X161218883Y-99589972D01*
X161320167Y-99438389D01*
X161389933Y-99269958D01*
X161425500Y-99091154D01*
X161425500Y-98908846D01*
X161425500Y-98908843D01*
X161389934Y-98730047D01*
X161389933Y-98730046D01*
X161389933Y-98730042D01*
X161389931Y-98730037D01*
X161320168Y-98561612D01*
X161320166Y-98561608D01*
X161218886Y-98410032D01*
X161218880Y-98410024D01*
X161089975Y-98281119D01*
X161089967Y-98281113D01*
X160938391Y-98179833D01*
X160938387Y-98179831D01*
X160769962Y-98110068D01*
X160769952Y-98110065D01*
X160591156Y-98074500D01*
X160591154Y-98074500D01*
X160408846Y-98074500D01*
X160408844Y-98074500D01*
X160230047Y-98110065D01*
X160230037Y-98110068D01*
X160061612Y-98179831D01*
X160061608Y-98179833D01*
X159910032Y-98281113D01*
X159910024Y-98281119D01*
X159781119Y-98410024D01*
X159781113Y-98410032D01*
X159679833Y-98561608D01*
X159679831Y-98561612D01*
X159610068Y-98730037D01*
X159610065Y-98730047D01*
X159574500Y-98908843D01*
X159574500Y-98908846D01*
X159574500Y-99091154D01*
X159574500Y-99091156D01*
X159574499Y-99091156D01*
X159610065Y-99269952D01*
X159610068Y-99269962D01*
X159679831Y-99438387D01*
X159679833Y-99438391D01*
X159781113Y-99589967D01*
X159781119Y-99589975D01*
X159809680Y-99618536D01*
X159843165Y-99679859D01*
X159838181Y-99749551D01*
X159796309Y-99805484D01*
X159735256Y-99829506D01*
X159717626Y-99831401D01*
X159717620Y-99831403D01*
X159582913Y-99881645D01*
X159582906Y-99881649D01*
X159467812Y-99967809D01*
X159467809Y-99967812D01*
X159381649Y-100082906D01*
X159381645Y-100082913D01*
X159331403Y-100217620D01*
X159331401Y-100217627D01*
X159325000Y-100277155D01*
X124500500Y-100277155D01*
X124500500Y-85300321D01*
X162074500Y-85300321D01*
X162074500Y-86699678D01*
X162089032Y-86772735D01*
X162089033Y-86772739D01*
X162089034Y-86772740D01*
X162144399Y-86855601D01*
X162195783Y-86889934D01*
X162227260Y-86910966D01*
X162227264Y-86910967D01*
X162300321Y-86925499D01*
X162300324Y-86925500D01*
X162300326Y-86925500D01*
X163699676Y-86925500D01*
X163699677Y-86925499D01*
X163772740Y-86910966D01*
X163855601Y-86855601D01*
X163910966Y-86772740D01*
X163925500Y-86699674D01*
X163925500Y-86447765D01*
X163945185Y-86380726D01*
X163997989Y-86334971D01*
X164067147Y-86325027D01*
X164130703Y-86354052D01*
X164164061Y-86400313D01*
X164179831Y-86438387D01*
X164179833Y-86438391D01*
X164281113Y-86589967D01*
X164281119Y-86589975D01*
X164410024Y-86718880D01*
X164410032Y-86718886D01*
X164561608Y-86820166D01*
X164561612Y-86820168D01*
X164730037Y-86889931D01*
X164730042Y-86889933D01*
X164730046Y-86889933D01*
X164730047Y-86889934D01*
X164908843Y-86925500D01*
X164908846Y-86925500D01*
X165091156Y-86925500D01*
X165211445Y-86901572D01*
X165269958Y-86889933D01*
X165438389Y-86820167D01*
X165438391Y-86820166D01*
X165513672Y-86769864D01*
X165589972Y-86718883D01*
X165718883Y-86589972D01*
X165820167Y-86438389D01*
X165851179Y-86363518D01*
X183742899Y-86363518D01*
X183777904Y-86539494D01*
X183777907Y-86539504D01*
X183846567Y-86705266D01*
X183846574Y-86705279D01*
X183946257Y-86854464D01*
X183946260Y-86854468D01*
X184073131Y-86981339D01*
X184073135Y-86981342D01*
X184222320Y-87081025D01*
X184222333Y-87081032D01*
X184388095Y-87149692D01*
X184388100Y-87149694D01*
X184388104Y-87149694D01*
X184388105Y-87149695D01*
X184564081Y-87184700D01*
X184564084Y-87184700D01*
X184743518Y-87184700D01*
X184861910Y-87161149D01*
X184919500Y-87149694D01*
X185085273Y-87081029D01*
X185234465Y-86981342D01*
X185361342Y-86854465D01*
X185461029Y-86705273D01*
X185529694Y-86539500D01*
X185549807Y-86438387D01*
X185564700Y-86363518D01*
X185564700Y-86184081D01*
X185529695Y-86008105D01*
X185529694Y-86008104D01*
X185529694Y-86008100D01*
X185488581Y-85908843D01*
X185461032Y-85842333D01*
X185461025Y-85842320D01*
X185361342Y-85693135D01*
X185361339Y-85693131D01*
X185234468Y-85566260D01*
X185234464Y-85566257D01*
X185085279Y-85466574D01*
X185085266Y-85466567D01*
X184919504Y-85397907D01*
X184919494Y-85397904D01*
X184743518Y-85362900D01*
X184743516Y-85362900D01*
X184564084Y-85362900D01*
X184564082Y-85362900D01*
X184388105Y-85397904D01*
X184388095Y-85397907D01*
X184222333Y-85466567D01*
X184222320Y-85466574D01*
X184073135Y-85566257D01*
X184073131Y-85566260D01*
X183946260Y-85693131D01*
X183946257Y-85693135D01*
X183846574Y-85842320D01*
X183846567Y-85842333D01*
X183777907Y-86008095D01*
X183777904Y-86008105D01*
X183742900Y-86184081D01*
X183742900Y-86184084D01*
X183742900Y-86363516D01*
X183742900Y-86363518D01*
X183742899Y-86363518D01*
X165851179Y-86363518D01*
X165889933Y-86269958D01*
X165925500Y-86091154D01*
X165925500Y-85908846D01*
X165925500Y-85908843D01*
X165889934Y-85730047D01*
X165889933Y-85730046D01*
X165889933Y-85730042D01*
X165874644Y-85693131D01*
X165820168Y-85561612D01*
X165820166Y-85561608D01*
X165718886Y-85410032D01*
X165718880Y-85410024D01*
X165589975Y-85281119D01*
X165589967Y-85281113D01*
X165438391Y-85179833D01*
X165438387Y-85179831D01*
X165269962Y-85110068D01*
X165269952Y-85110065D01*
X165091156Y-85074500D01*
X165091154Y-85074500D01*
X164908846Y-85074500D01*
X164908844Y-85074500D01*
X164730047Y-85110065D01*
X164730037Y-85110068D01*
X164561612Y-85179831D01*
X164561608Y-85179833D01*
X164410032Y-85281113D01*
X164410024Y-85281119D01*
X164281119Y-85410024D01*
X164281113Y-85410032D01*
X164179833Y-85561608D01*
X164179833Y-85561609D01*
X164164061Y-85599687D01*
X164120220Y-85654090D01*
X164053925Y-85676155D01*
X163986226Y-85658876D01*
X163938616Y-85607738D01*
X163925500Y-85552234D01*
X163925500Y-85300323D01*
X163925499Y-85300321D01*
X163910967Y-85227264D01*
X163910966Y-85227260D01*
X163855601Y-85144399D01*
X163772740Y-85089034D01*
X163772739Y-85089033D01*
X163772735Y-85089032D01*
X163699677Y-85074500D01*
X163699674Y-85074500D01*
X162300326Y-85074500D01*
X162300323Y-85074500D01*
X162227264Y-85089032D01*
X162227260Y-85089033D01*
X162144399Y-85144399D01*
X162089033Y-85227260D01*
X162089032Y-85227264D01*
X162074500Y-85300321D01*
X124500500Y-85300321D01*
X124500500Y-83823518D01*
X183742899Y-83823518D01*
X183777904Y-83999494D01*
X183777907Y-83999504D01*
X183846567Y-84165266D01*
X183846574Y-84165279D01*
X183946257Y-84314464D01*
X183946260Y-84314468D01*
X184073131Y-84441339D01*
X184073135Y-84441342D01*
X184222320Y-84541025D01*
X184222333Y-84541032D01*
X184388095Y-84609692D01*
X184388100Y-84609694D01*
X184388104Y-84609694D01*
X184388105Y-84609695D01*
X184564081Y-84644700D01*
X184564084Y-84644700D01*
X184743518Y-84644700D01*
X184861910Y-84621149D01*
X184919500Y-84609694D01*
X185085273Y-84541029D01*
X185234465Y-84441342D01*
X185361342Y-84314465D01*
X185461029Y-84165273D01*
X185529694Y-83999500D01*
X185564700Y-83823516D01*
X185564700Y-83644084D01*
X185564700Y-83644081D01*
X185529695Y-83468105D01*
X185529694Y-83468104D01*
X185529694Y-83468100D01*
X185529692Y-83468095D01*
X185461032Y-83302333D01*
X185461025Y-83302320D01*
X185361342Y-83153135D01*
X185361339Y-83153131D01*
X185234468Y-83026260D01*
X185234464Y-83026257D01*
X185085279Y-82926574D01*
X185085266Y-82926567D01*
X184919504Y-82857907D01*
X184919494Y-82857904D01*
X184743518Y-82822900D01*
X184743516Y-82822900D01*
X184564084Y-82822900D01*
X184564082Y-82822900D01*
X184388105Y-82857904D01*
X184388095Y-82857907D01*
X184222333Y-82926567D01*
X184222320Y-82926574D01*
X184073135Y-83026257D01*
X184073131Y-83026260D01*
X183946260Y-83153131D01*
X183946257Y-83153135D01*
X183846574Y-83302320D01*
X183846567Y-83302333D01*
X183777907Y-83468095D01*
X183777904Y-83468105D01*
X183742900Y-83644081D01*
X183742900Y-83644084D01*
X183742900Y-83823516D01*
X183742900Y-83823518D01*
X183742899Y-83823518D01*
X124500500Y-83823518D01*
X124500500Y-81283518D01*
X183742899Y-81283518D01*
X183777904Y-81459494D01*
X183777907Y-81459504D01*
X183846567Y-81625266D01*
X183846574Y-81625279D01*
X183946257Y-81774464D01*
X183946260Y-81774468D01*
X184073131Y-81901339D01*
X184073135Y-81901342D01*
X184222320Y-82001025D01*
X184222333Y-82001032D01*
X184388095Y-82069692D01*
X184388100Y-82069694D01*
X184388104Y-82069694D01*
X184388105Y-82069695D01*
X184564081Y-82104700D01*
X184564084Y-82104700D01*
X184743518Y-82104700D01*
X184861910Y-82081149D01*
X184919500Y-82069694D01*
X185085273Y-82001029D01*
X185234465Y-81901342D01*
X185361342Y-81774465D01*
X185461029Y-81625273D01*
X185529694Y-81459500D01*
X185564700Y-81283518D01*
X191362899Y-81283518D01*
X191397904Y-81459494D01*
X191397907Y-81459504D01*
X191466567Y-81625266D01*
X191466574Y-81625279D01*
X191566257Y-81774464D01*
X191566260Y-81774468D01*
X191693131Y-81901339D01*
X191693135Y-81901342D01*
X191842320Y-82001025D01*
X191842333Y-82001032D01*
X192008095Y-82069692D01*
X192008100Y-82069694D01*
X192008104Y-82069694D01*
X192008105Y-82069695D01*
X192184081Y-82104700D01*
X192184084Y-82104700D01*
X192363518Y-82104700D01*
X192481910Y-82081149D01*
X192539500Y-82069694D01*
X192705273Y-82001029D01*
X192854465Y-81901342D01*
X192981342Y-81774465D01*
X193081029Y-81625273D01*
X193149694Y-81459500D01*
X193184700Y-81283516D01*
X193184700Y-81104084D01*
X193184700Y-81104081D01*
X193149695Y-80928105D01*
X193149694Y-80928104D01*
X193149694Y-80928100D01*
X193149692Y-80928095D01*
X193081032Y-80762333D01*
X193081025Y-80762320D01*
X192981342Y-80613135D01*
X192981339Y-80613131D01*
X192854468Y-80486260D01*
X192854464Y-80486257D01*
X192705279Y-80386574D01*
X192705266Y-80386567D01*
X192539504Y-80317907D01*
X192539494Y-80317904D01*
X192363518Y-80282900D01*
X192363516Y-80282900D01*
X192184084Y-80282900D01*
X192184082Y-80282900D01*
X192008105Y-80317904D01*
X192008095Y-80317907D01*
X191842333Y-80386567D01*
X191842320Y-80386574D01*
X191693135Y-80486257D01*
X191693131Y-80486260D01*
X191566260Y-80613131D01*
X191566257Y-80613135D01*
X191466574Y-80762320D01*
X191466567Y-80762333D01*
X191397907Y-80928095D01*
X191397904Y-80928105D01*
X191362900Y-81104081D01*
X191362900Y-81104084D01*
X191362900Y-81283516D01*
X191362900Y-81283518D01*
X191362899Y-81283518D01*
X185564700Y-81283518D01*
X185564700Y-81283516D01*
X185564700Y-81104084D01*
X185564700Y-81104081D01*
X185529695Y-80928105D01*
X185529694Y-80928104D01*
X185529694Y-80928100D01*
X185529692Y-80928095D01*
X185461032Y-80762333D01*
X185461025Y-80762320D01*
X185361342Y-80613135D01*
X185361339Y-80613131D01*
X185234468Y-80486260D01*
X185234464Y-80486257D01*
X185085279Y-80386574D01*
X185085266Y-80386567D01*
X184919504Y-80317907D01*
X184919494Y-80317904D01*
X184743518Y-80282900D01*
X184743516Y-80282900D01*
X184564084Y-80282900D01*
X184564082Y-80282900D01*
X184388105Y-80317904D01*
X184388095Y-80317907D01*
X184222333Y-80386567D01*
X184222320Y-80386574D01*
X184073135Y-80486257D01*
X184073131Y-80486260D01*
X183946260Y-80613131D01*
X183946257Y-80613135D01*
X183846574Y-80762320D01*
X183846567Y-80762333D01*
X183777907Y-80928095D01*
X183777904Y-80928105D01*
X183742900Y-81104081D01*
X183742900Y-81104084D01*
X183742900Y-81283516D01*
X183742900Y-81283518D01*
X183742899Y-81283518D01*
X124500500Y-81283518D01*
X124500500Y-78743518D01*
X183742899Y-78743518D01*
X183777904Y-78919494D01*
X183777907Y-78919504D01*
X183846567Y-79085266D01*
X183846574Y-79085279D01*
X183946257Y-79234464D01*
X183946260Y-79234468D01*
X184073131Y-79361339D01*
X184073135Y-79361342D01*
X184222320Y-79461025D01*
X184222333Y-79461032D01*
X184388095Y-79529692D01*
X184388100Y-79529694D01*
X184388104Y-79529694D01*
X184388105Y-79529695D01*
X184564081Y-79564700D01*
X184564084Y-79564700D01*
X184743518Y-79564700D01*
X184861910Y-79541149D01*
X184919500Y-79529694D01*
X185085273Y-79461029D01*
X185234465Y-79361342D01*
X185361342Y-79234465D01*
X185461029Y-79085273D01*
X185529694Y-78919500D01*
X185564700Y-78743516D01*
X185564700Y-78564084D01*
X185564700Y-78564081D01*
X185529695Y-78388105D01*
X185529694Y-78388104D01*
X185529694Y-78388100D01*
X185529692Y-78388095D01*
X185461032Y-78222333D01*
X185461025Y-78222320D01*
X185361342Y-78073135D01*
X185361339Y-78073131D01*
X185234468Y-77946260D01*
X185234464Y-77946257D01*
X185085279Y-77846574D01*
X185085266Y-77846567D01*
X184919504Y-77777907D01*
X184919494Y-77777904D01*
X184743518Y-77742900D01*
X184743516Y-77742900D01*
X184564084Y-77742900D01*
X184564082Y-77742900D01*
X184388105Y-77777904D01*
X184388095Y-77777907D01*
X184222333Y-77846567D01*
X184222320Y-77846574D01*
X184073135Y-77946257D01*
X184073131Y-77946260D01*
X183946260Y-78073131D01*
X183946257Y-78073135D01*
X183846574Y-78222320D01*
X183846567Y-78222333D01*
X183777907Y-78388095D01*
X183777904Y-78388105D01*
X183742900Y-78564081D01*
X183742900Y-78564084D01*
X183742900Y-78743516D01*
X183742900Y-78743518D01*
X183742899Y-78743518D01*
X124500500Y-78743518D01*
X124500500Y-69157822D01*
X144294500Y-69157822D01*
X144294500Y-69442177D01*
X144324122Y-69629204D01*
X144382634Y-69809289D01*
X144382635Y-69809292D01*
X144468602Y-69978009D01*
X144579903Y-70131202D01*
X144713798Y-70265097D01*
X144866991Y-70376398D01*
X144949741Y-70418561D01*
X145035707Y-70462364D01*
X145035710Y-70462365D01*
X145091833Y-70480600D01*
X145215797Y-70520878D01*
X145402822Y-70550500D01*
X145402823Y-70550500D01*
X145592177Y-70550500D01*
X145592178Y-70550500D01*
X145779203Y-70520878D01*
X145959292Y-70462364D01*
X146128009Y-70376398D01*
X146281202Y-70265097D01*
X146415097Y-70131202D01*
X146526398Y-69978009D01*
X146612364Y-69809292D01*
X146649569Y-69694786D01*
X146689006Y-69637111D01*
X146753364Y-69609912D01*
X146822211Y-69621826D01*
X146873687Y-69669070D01*
X146885431Y-69694786D01*
X146922634Y-69809289D01*
X146922635Y-69809292D01*
X147008602Y-69978009D01*
X147119903Y-70131202D01*
X147253798Y-70265097D01*
X147406991Y-70376398D01*
X147489741Y-70418561D01*
X147575707Y-70462364D01*
X147575710Y-70462365D01*
X147631833Y-70480600D01*
X147755797Y-70520878D01*
X147942822Y-70550500D01*
X147942823Y-70550500D01*
X148132177Y-70550500D01*
X148132178Y-70550500D01*
X148319203Y-70520878D01*
X148499292Y-70462364D01*
X148668009Y-70376398D01*
X148821202Y-70265097D01*
X148955097Y-70131202D01*
X149066398Y-69978009D01*
X149140015Y-69833527D01*
X149187990Y-69782732D01*
X149255811Y-69765937D01*
X149321946Y-69788475D01*
X149365397Y-69843190D01*
X149374500Y-69889823D01*
X149374500Y-70324678D01*
X149389032Y-70397735D01*
X149389033Y-70397739D01*
X149407405Y-70425235D01*
X149444399Y-70480601D01*
X149504679Y-70520878D01*
X149527260Y-70535966D01*
X149527264Y-70535967D01*
X149600321Y-70550499D01*
X149600324Y-70550500D01*
X149600326Y-70550500D01*
X151554676Y-70550500D01*
X151554677Y-70550499D01*
X151627740Y-70535966D01*
X151710601Y-70480601D01*
X151763402Y-70401577D01*
X196499500Y-70401577D01*
X196499500Y-70598422D01*
X196530290Y-70792826D01*
X196591117Y-70980029D01*
X196680476Y-71155405D01*
X196796172Y-71314646D01*
X196935354Y-71453828D01*
X197094595Y-71569524D01*
X197177455Y-71611743D01*
X197269970Y-71658882D01*
X197269972Y-71658882D01*
X197269975Y-71658884D01*
X197370317Y-71691487D01*
X197457173Y-71719709D01*
X197651578Y-71750500D01*
X197651583Y-71750500D01*
X199348422Y-71750500D01*
X199542826Y-71719709D01*
X199730025Y-71658884D01*
X199905405Y-71569524D01*
X200064646Y-71453828D01*
X200203828Y-71314646D01*
X200319524Y-71155405D01*
X200408884Y-70980025D01*
X200469709Y-70792826D01*
X200500500Y-70598422D01*
X200500500Y-70401577D01*
X200469709Y-70207173D01*
X200408882Y-70019970D01*
X200361743Y-69927455D01*
X200319524Y-69844595D01*
X200203828Y-69685354D01*
X200064646Y-69546172D01*
X199905405Y-69430476D01*
X199730029Y-69341117D01*
X199542826Y-69280290D01*
X199348422Y-69249500D01*
X199348417Y-69249500D01*
X197651583Y-69249500D01*
X197651578Y-69249500D01*
X197457173Y-69280290D01*
X197269970Y-69341117D01*
X197094594Y-69430476D01*
X197003741Y-69496485D01*
X196935354Y-69546172D01*
X196935352Y-69546174D01*
X196935351Y-69546174D01*
X196796174Y-69685351D01*
X196796174Y-69685352D01*
X196796172Y-69685354D01*
X196746485Y-69753741D01*
X196680476Y-69844594D01*
X196591117Y-70019970D01*
X196530290Y-70207173D01*
X196499500Y-70401577D01*
X151763402Y-70401577D01*
X151765966Y-70397740D01*
X151777493Y-70339788D01*
X151780500Y-70324676D01*
X151780500Y-68275323D01*
X151780499Y-68275321D01*
X151765967Y-68202264D01*
X151765966Y-68202260D01*
X151722786Y-68137636D01*
X151710601Y-68119399D01*
X151627740Y-68064034D01*
X151627739Y-68064033D01*
X151627735Y-68064032D01*
X151554677Y-68049500D01*
X151554674Y-68049500D01*
X149600326Y-68049500D01*
X149600323Y-68049500D01*
X149527264Y-68064032D01*
X149527260Y-68064033D01*
X149444399Y-68119399D01*
X149389033Y-68202260D01*
X149389032Y-68202264D01*
X149374500Y-68275321D01*
X149374500Y-68710176D01*
X149354815Y-68777215D01*
X149302011Y-68822970D01*
X149232853Y-68832914D01*
X149169297Y-68803889D01*
X149140015Y-68766471D01*
X149066397Y-68621990D01*
X148955097Y-68468798D01*
X148821202Y-68334903D01*
X148668009Y-68223602D01*
X148626131Y-68202264D01*
X148499292Y-68137635D01*
X148499289Y-68137634D01*
X148319204Y-68079122D01*
X148223929Y-68064032D01*
X148132178Y-68049500D01*
X147942822Y-68049500D01*
X147880480Y-68059374D01*
X147755795Y-68079122D01*
X147575710Y-68137634D01*
X147575707Y-68137635D01*
X147406990Y-68223602D01*
X147253795Y-68334905D01*
X147119905Y-68468795D01*
X147008602Y-68621990D01*
X146922635Y-68790707D01*
X146922634Y-68790710D01*
X146885431Y-68905213D01*
X146845994Y-68962888D01*
X146781635Y-68990087D01*
X146712789Y-68978173D01*
X146661313Y-68930929D01*
X146649569Y-68905213D01*
X146612365Y-68790710D01*
X146612364Y-68790707D01*
X146526397Y-68621990D01*
X146415097Y-68468798D01*
X146281202Y-68334903D01*
X146128009Y-68223602D01*
X146086131Y-68202264D01*
X145959292Y-68137635D01*
X145959289Y-68137634D01*
X145779204Y-68079122D01*
X145683929Y-68064032D01*
X145592178Y-68049500D01*
X145402822Y-68049500D01*
X145340480Y-68059374D01*
X145215795Y-68079122D01*
X145035710Y-68137634D01*
X145035707Y-68137635D01*
X144866990Y-68223602D01*
X144713795Y-68334905D01*
X144579905Y-68468795D01*
X144468602Y-68621990D01*
X144382635Y-68790707D01*
X144382634Y-68790710D01*
X144324122Y-68970795D01*
X144294500Y-69157822D01*
X124500500Y-69157822D01*
X124500500Y-63202155D01*
X145935000Y-63202155D01*
X145935000Y-63750000D01*
X146679670Y-63750000D01*
X146659925Y-63769745D01*
X146610556Y-63855255D01*
X146585000Y-63950630D01*
X146585000Y-64049370D01*
X146610556Y-64144745D01*
X146659925Y-64230255D01*
X146679670Y-64250000D01*
X145935000Y-64250000D01*
X145935000Y-64797844D01*
X145941401Y-64857372D01*
X145941403Y-64857379D01*
X145991645Y-64992086D01*
X145991649Y-64992093D01*
X146077809Y-65107187D01*
X146077812Y-65107190D01*
X146192906Y-65193350D01*
X146192913Y-65193354D01*
X146327620Y-65243596D01*
X146327627Y-65243598D01*
X146387155Y-65249999D01*
X146387172Y-65250000D01*
X146710000Y-65250000D01*
X146710000Y-64280330D01*
X146729745Y-64300075D01*
X146815255Y-64349444D01*
X146910630Y-64375000D01*
X147009370Y-64375000D01*
X147104745Y-64349444D01*
X147190255Y-64300075D01*
X147210000Y-64280330D01*
X147210000Y-65250000D01*
X147532828Y-65250000D01*
X147532844Y-65249999D01*
X147592372Y-65243598D01*
X147592379Y-65243596D01*
X147727086Y-65193354D01*
X147727093Y-65193350D01*
X147842186Y-65107191D01*
X147905243Y-65022958D01*
X147961177Y-64981087D01*
X148028700Y-64975652D01*
X148153618Y-65000499D01*
X148153619Y-65000500D01*
X148153620Y-65000500D01*
X148306381Y-65000500D01*
X148306382Y-65000499D01*
X148456205Y-64970698D01*
X148597337Y-64912239D01*
X148724352Y-64827370D01*
X148724355Y-64827367D01*
X148777319Y-64774404D01*
X148838642Y-64740919D01*
X148908334Y-64745903D01*
X148952681Y-64774404D01*
X149005644Y-64827367D01*
X149005648Y-64827370D01*
X149132656Y-64912235D01*
X149132662Y-64912238D01*
X149132663Y-64912239D01*
X149273795Y-64970698D01*
X149414832Y-64998752D01*
X149423615Y-65000499D01*
X149423619Y-65000500D01*
X149423620Y-65000500D01*
X149576381Y-65000500D01*
X149576382Y-65000499D01*
X149726205Y-64970698D01*
X149867337Y-64912239D01*
X149994352Y-64827370D01*
X150102370Y-64719352D01*
X150187239Y-64592337D01*
X150245698Y-64451205D01*
X150275500Y-64301380D01*
X150275500Y-63975321D01*
X190249500Y-63975321D01*
X190249500Y-68024678D01*
X190264032Y-68097735D01*
X190264033Y-68097739D01*
X190264034Y-68097740D01*
X190319399Y-68180601D01*
X190351815Y-68202260D01*
X190402260Y-68235966D01*
X190402264Y-68235967D01*
X190475321Y-68250499D01*
X190475324Y-68250500D01*
X190475326Y-68250500D01*
X192524676Y-68250500D01*
X192524677Y-68250499D01*
X192597740Y-68235966D01*
X192680601Y-68180601D01*
X192735966Y-68097740D01*
X192750500Y-68024674D01*
X192750500Y-65231947D01*
X196000000Y-65231947D01*
X196000000Y-65750000D01*
X197000000Y-65750000D01*
X197000000Y-66250000D01*
X196000000Y-66250000D01*
X196000000Y-66768052D01*
X196036934Y-67001247D01*
X196109897Y-67225802D01*
X196217085Y-67436171D01*
X196355866Y-67627186D01*
X196522813Y-67794133D01*
X196713828Y-67932914D01*
X196924195Y-68040102D01*
X197148744Y-68113063D01*
X197148750Y-68113065D01*
X197250000Y-68129101D01*
X197250000Y-67083012D01*
X197307007Y-67115925D01*
X197434174Y-67150000D01*
X197565826Y-67150000D01*
X197692993Y-67115925D01*
X197750000Y-67083012D01*
X197750000Y-68129100D01*
X197851249Y-68113065D01*
X197851255Y-68113063D01*
X198075804Y-68040102D01*
X198286171Y-67932914D01*
X198477186Y-67794133D01*
X198644133Y-67627186D01*
X198782914Y-67436171D01*
X198890102Y-67225802D01*
X198963065Y-67001247D01*
X199000000Y-66768052D01*
X199000000Y-66250000D01*
X198000000Y-66250000D01*
X198000000Y-65896530D01*
X199449500Y-65896530D01*
X199449500Y-66103469D01*
X199489868Y-66306412D01*
X199489870Y-66306420D01*
X199569058Y-66497596D01*
X199684024Y-66669657D01*
X199830342Y-66815975D01*
X199830345Y-66815977D01*
X200002402Y-66930941D01*
X200193580Y-67010130D01*
X200394519Y-67050099D01*
X200396530Y-67050499D01*
X200396534Y-67050500D01*
X200396535Y-67050500D01*
X200603466Y-67050500D01*
X200603467Y-67050499D01*
X200806420Y-67010130D01*
X200997598Y-66930941D01*
X201169655Y-66815977D01*
X201315977Y-66669655D01*
X201430941Y-66497598D01*
X201510130Y-66306420D01*
X201550500Y-66103465D01*
X201550500Y-65896535D01*
X201510130Y-65693580D01*
X201430941Y-65502402D01*
X201315977Y-65330345D01*
X201315975Y-65330342D01*
X201169657Y-65184024D01*
X201054661Y-65107187D01*
X200997598Y-65069059D01*
X200934669Y-65042993D01*
X200806420Y-64989870D01*
X200806412Y-64989868D01*
X200603469Y-64949500D01*
X200603465Y-64949500D01*
X200396535Y-64949500D01*
X200396530Y-64949500D01*
X200193587Y-64989868D01*
X200193579Y-64989870D01*
X200002403Y-65069058D01*
X199830342Y-65184024D01*
X199684024Y-65330342D01*
X199569058Y-65502403D01*
X199489870Y-65693579D01*
X199489868Y-65693587D01*
X199449500Y-65896530D01*
X198000000Y-65896530D01*
X198000000Y-65750000D01*
X199000000Y-65750000D01*
X199000000Y-65231947D01*
X198963065Y-64998752D01*
X198890102Y-64774197D01*
X198782914Y-64563828D01*
X198644133Y-64372813D01*
X198477186Y-64205866D01*
X198286171Y-64067085D01*
X198075802Y-63959897D01*
X197851247Y-63886934D01*
X197750000Y-63870897D01*
X197750000Y-64916988D01*
X197692993Y-64884075D01*
X197565826Y-64850000D01*
X197434174Y-64850000D01*
X197307007Y-64884075D01*
X197250000Y-64916988D01*
X197250000Y-63870897D01*
X197148752Y-63886934D01*
X196924197Y-63959897D01*
X196713828Y-64067085D01*
X196522813Y-64205866D01*
X196355866Y-64372813D01*
X196217085Y-64563828D01*
X196109897Y-64774197D01*
X196036934Y-64998752D01*
X196000000Y-65231947D01*
X192750500Y-65231947D01*
X192750500Y-63975326D01*
X192750500Y-63975323D01*
X192750499Y-63975321D01*
X192735967Y-63902264D01*
X192735966Y-63902260D01*
X192680601Y-63819399D01*
X192625235Y-63782405D01*
X192597739Y-63764033D01*
X192597735Y-63764032D01*
X192524677Y-63749500D01*
X192524674Y-63749500D01*
X190475326Y-63749500D01*
X190475323Y-63749500D01*
X190402264Y-63764032D01*
X190402260Y-63764033D01*
X190319399Y-63819399D01*
X190264033Y-63902260D01*
X190264032Y-63902264D01*
X190249500Y-63975321D01*
X150275500Y-63975321D01*
X150275500Y-63698620D01*
X150245698Y-63548795D01*
X150187239Y-63407663D01*
X150187238Y-63407662D01*
X150187235Y-63407656D01*
X150102370Y-63280648D01*
X150102367Y-63280644D01*
X149994355Y-63172632D01*
X149994351Y-63172629D01*
X149867343Y-63087764D01*
X149867334Y-63087759D01*
X149726205Y-63029302D01*
X149726197Y-63029300D01*
X149576384Y-62999500D01*
X149576380Y-62999500D01*
X149423620Y-62999500D01*
X149423615Y-62999500D01*
X149273802Y-63029300D01*
X149273794Y-63029302D01*
X149132665Y-63087759D01*
X149132656Y-63087764D01*
X149005648Y-63172629D01*
X149005644Y-63172632D01*
X148952681Y-63225596D01*
X148891358Y-63259081D01*
X148821666Y-63254097D01*
X148777319Y-63225596D01*
X148724355Y-63172632D01*
X148724351Y-63172629D01*
X148597343Y-63087764D01*
X148597334Y-63087759D01*
X148456205Y-63029302D01*
X148456197Y-63029300D01*
X148306384Y-62999500D01*
X148306380Y-62999500D01*
X148153620Y-62999500D01*
X148153615Y-62999500D01*
X148028701Y-63024347D01*
X147959109Y-63018120D01*
X147905243Y-62977041D01*
X147842186Y-62892809D01*
X147727093Y-62806649D01*
X147727086Y-62806645D01*
X147592379Y-62756403D01*
X147592372Y-62756401D01*
X147532844Y-62750000D01*
X147210000Y-62750000D01*
X147210000Y-63719670D01*
X147190255Y-63699925D01*
X147104745Y-63650556D01*
X147009370Y-63625000D01*
X146910630Y-63625000D01*
X146815255Y-63650556D01*
X146729745Y-63699925D01*
X146710000Y-63719670D01*
X146710000Y-62750000D01*
X146387155Y-62750000D01*
X146327627Y-62756401D01*
X146327620Y-62756403D01*
X146192913Y-62806645D01*
X146192906Y-62806649D01*
X146077812Y-62892809D01*
X146077809Y-62892812D01*
X145991649Y-63007906D01*
X145991645Y-63007913D01*
X145941403Y-63142620D01*
X145941401Y-63142627D01*
X145935000Y-63202155D01*
X124500500Y-63202155D01*
X124500500Y-60624500D01*
X124520185Y-60557461D01*
X124572989Y-60511706D01*
X124624500Y-60500500D01*
X196687113Y-60500500D01*
X196754152Y-60520185D01*
G37*
%TD.AperFunction*%
%TD*%
M02*
